%TF.GenerationSoftware,KiCad,Pcbnew,9.0.6*%
%TF.CreationDate,2025-12-13T14:25:23+01:00*%
%TF.ProjectId,SB_Mod_SR04,53425f4d-6f64-45f5-9352-30342e6b6963,rev?*%
%TF.SameCoordinates,Original*%
%TF.FileFunction,Legend,Top*%
%TF.FilePolarity,Positive*%
%FSLAX46Y46*%
G04 Gerber Fmt 4.6, Leading zero omitted, Abs format (unit mm)*
G04 Created by KiCad (PCBNEW 9.0.6) date 2025-12-13 14:25:23*
%MOMM*%
%LPD*%
G01*
G04 APERTURE LIST*
%ADD10C,0.100000*%
%ADD11C,0.150000*%
%ADD12C,0.000000*%
%ADD13C,0.120000*%
G04 APERTURE END LIST*
D10*
X124891800Y-111556800D02*
X123952000Y-111556800D01*
X123952000Y-114096800D02*
X124917200Y-114096800D01*
X123952000Y-111556800D02*
X123952000Y-114096800D01*
X112553980Y-119543600D02*
X112668266Y-119581695D01*
X112668266Y-119581695D02*
X112858742Y-119581695D01*
X112858742Y-119581695D02*
X112934933Y-119543600D01*
X112934933Y-119543600D02*
X112973028Y-119505504D01*
X112973028Y-119505504D02*
X113011123Y-119429314D01*
X113011123Y-119429314D02*
X113011123Y-119353123D01*
X113011123Y-119353123D02*
X112973028Y-119276933D01*
X112973028Y-119276933D02*
X112934933Y-119238838D01*
X112934933Y-119238838D02*
X112858742Y-119200742D01*
X112858742Y-119200742D02*
X112706361Y-119162647D01*
X112706361Y-119162647D02*
X112630171Y-119124552D01*
X112630171Y-119124552D02*
X112592076Y-119086457D01*
X112592076Y-119086457D02*
X112553980Y-119010266D01*
X112553980Y-119010266D02*
X112553980Y-118934076D01*
X112553980Y-118934076D02*
X112592076Y-118857885D01*
X112592076Y-118857885D02*
X112630171Y-118819790D01*
X112630171Y-118819790D02*
X112706361Y-118781695D01*
X112706361Y-118781695D02*
X112896838Y-118781695D01*
X112896838Y-118781695D02*
X113011123Y-118819790D01*
X113353981Y-119162647D02*
X113620647Y-119162647D01*
X113734933Y-119581695D02*
X113353981Y-119581695D01*
X113353981Y-119581695D02*
X113353981Y-118781695D01*
X113353981Y-118781695D02*
X113734933Y-118781695D01*
X114534934Y-119581695D02*
X114268267Y-119200742D01*
X114077791Y-119581695D02*
X114077791Y-118781695D01*
X114077791Y-118781695D02*
X114382553Y-118781695D01*
X114382553Y-118781695D02*
X114458743Y-118819790D01*
X114458743Y-118819790D02*
X114496838Y-118857885D01*
X114496838Y-118857885D02*
X114534934Y-118934076D01*
X114534934Y-118934076D02*
X114534934Y-119048361D01*
X114534934Y-119048361D02*
X114496838Y-119124552D01*
X114496838Y-119124552D02*
X114458743Y-119162647D01*
X114458743Y-119162647D02*
X114382553Y-119200742D01*
X114382553Y-119200742D02*
X114077791Y-119200742D01*
X114877791Y-119581695D02*
X114877791Y-118781695D01*
X115220647Y-119353123D02*
X115601600Y-119353123D01*
X115144457Y-119581695D02*
X115411124Y-118781695D01*
X115411124Y-118781695D02*
X115677790Y-119581695D01*
X116325409Y-119581695D02*
X115944457Y-119581695D01*
X115944457Y-119581695D02*
X115944457Y-118781695D01*
X118794323Y-105953830D02*
X118794323Y-105572877D01*
X119022895Y-106030020D02*
X118222895Y-105763353D01*
X118222895Y-105763353D02*
X119022895Y-105496687D01*
X118946704Y-104772877D02*
X118984800Y-104810973D01*
X118984800Y-104810973D02*
X119022895Y-104925258D01*
X119022895Y-104925258D02*
X119022895Y-105001449D01*
X119022895Y-105001449D02*
X118984800Y-105115735D01*
X118984800Y-105115735D02*
X118908609Y-105191925D01*
X118908609Y-105191925D02*
X118832419Y-105230020D01*
X118832419Y-105230020D02*
X118680038Y-105268116D01*
X118680038Y-105268116D02*
X118565752Y-105268116D01*
X118565752Y-105268116D02*
X118413371Y-105230020D01*
X118413371Y-105230020D02*
X118337180Y-105191925D01*
X118337180Y-105191925D02*
X118260990Y-105115735D01*
X118260990Y-105115735D02*
X118222895Y-105001449D01*
X118222895Y-105001449D02*
X118222895Y-104925258D01*
X118222895Y-104925258D02*
X118260990Y-104810973D01*
X118260990Y-104810973D02*
X118299085Y-104772877D01*
X118222895Y-104544306D02*
X118222895Y-104087163D01*
X119022895Y-104315735D02*
X118222895Y-104315735D01*
X118000800Y-106026211D02*
X118000800Y-104090973D01*
D11*
X125136039Y-85623400D02*
X124993182Y-85575780D01*
X124993182Y-85575780D02*
X124755087Y-85575780D01*
X124755087Y-85575780D02*
X124659849Y-85623400D01*
X124659849Y-85623400D02*
X124612230Y-85671019D01*
X124612230Y-85671019D02*
X124564611Y-85766257D01*
X124564611Y-85766257D02*
X124564611Y-85861495D01*
X124564611Y-85861495D02*
X124612230Y-85956733D01*
X124612230Y-85956733D02*
X124659849Y-86004352D01*
X124659849Y-86004352D02*
X124755087Y-86051971D01*
X124755087Y-86051971D02*
X124945563Y-86099590D01*
X124945563Y-86099590D02*
X125040801Y-86147209D01*
X125040801Y-86147209D02*
X125088420Y-86194828D01*
X125088420Y-86194828D02*
X125136039Y-86290066D01*
X125136039Y-86290066D02*
X125136039Y-86385304D01*
X125136039Y-86385304D02*
X125088420Y-86480542D01*
X125088420Y-86480542D02*
X125040801Y-86528161D01*
X125040801Y-86528161D02*
X124945563Y-86575780D01*
X124945563Y-86575780D02*
X124707468Y-86575780D01*
X124707468Y-86575780D02*
X124564611Y-86528161D01*
X124136039Y-86099590D02*
X123802706Y-86099590D01*
X123659849Y-85575780D02*
X124136039Y-85575780D01*
X124136039Y-85575780D02*
X124136039Y-86575780D01*
X124136039Y-86575780D02*
X123659849Y-86575780D01*
X123231277Y-85575780D02*
X123231277Y-86575780D01*
X123231277Y-86575780D02*
X122659849Y-85575780D01*
X122659849Y-85575780D02*
X122659849Y-86575780D01*
X122231277Y-85623400D02*
X122088420Y-85575780D01*
X122088420Y-85575780D02*
X121850325Y-85575780D01*
X121850325Y-85575780D02*
X121755087Y-85623400D01*
X121755087Y-85623400D02*
X121707468Y-85671019D01*
X121707468Y-85671019D02*
X121659849Y-85766257D01*
X121659849Y-85766257D02*
X121659849Y-85861495D01*
X121659849Y-85861495D02*
X121707468Y-85956733D01*
X121707468Y-85956733D02*
X121755087Y-86004352D01*
X121755087Y-86004352D02*
X121850325Y-86051971D01*
X121850325Y-86051971D02*
X122040801Y-86099590D01*
X122040801Y-86099590D02*
X122136039Y-86147209D01*
X122136039Y-86147209D02*
X122183658Y-86194828D01*
X122183658Y-86194828D02*
X122231277Y-86290066D01*
X122231277Y-86290066D02*
X122231277Y-86385304D01*
X122231277Y-86385304D02*
X122183658Y-86480542D01*
X122183658Y-86480542D02*
X122136039Y-86528161D01*
X122136039Y-86528161D02*
X122040801Y-86575780D01*
X122040801Y-86575780D02*
X121802706Y-86575780D01*
X121802706Y-86575780D02*
X121659849Y-86528161D01*
X121040801Y-86575780D02*
X120850325Y-86575780D01*
X120850325Y-86575780D02*
X120755087Y-86528161D01*
X120755087Y-86528161D02*
X120659849Y-86432923D01*
X120659849Y-86432923D02*
X120612230Y-86242447D01*
X120612230Y-86242447D02*
X120612230Y-85909114D01*
X120612230Y-85909114D02*
X120659849Y-85718638D01*
X120659849Y-85718638D02*
X120755087Y-85623400D01*
X120755087Y-85623400D02*
X120850325Y-85575780D01*
X120850325Y-85575780D02*
X121040801Y-85575780D01*
X121040801Y-85575780D02*
X121136039Y-85623400D01*
X121136039Y-85623400D02*
X121231277Y-85718638D01*
X121231277Y-85718638D02*
X121278896Y-85909114D01*
X121278896Y-85909114D02*
X121278896Y-86242447D01*
X121278896Y-86242447D02*
X121231277Y-86432923D01*
X121231277Y-86432923D02*
X121136039Y-86528161D01*
X121136039Y-86528161D02*
X121040801Y-86575780D01*
X119612230Y-85575780D02*
X119945563Y-86051971D01*
X120183658Y-85575780D02*
X120183658Y-86575780D01*
X120183658Y-86575780D02*
X119802706Y-86575780D01*
X119802706Y-86575780D02*
X119707468Y-86528161D01*
X119707468Y-86528161D02*
X119659849Y-86480542D01*
X119659849Y-86480542D02*
X119612230Y-86385304D01*
X119612230Y-86385304D02*
X119612230Y-86242447D01*
X119612230Y-86242447D02*
X119659849Y-86147209D01*
X119659849Y-86147209D02*
X119707468Y-86099590D01*
X119707468Y-86099590D02*
X119802706Y-86051971D01*
X119802706Y-86051971D02*
X120183658Y-86051971D01*
X118088420Y-86099590D02*
X117945563Y-86051971D01*
X117945563Y-86051971D02*
X117897944Y-86004352D01*
X117897944Y-86004352D02*
X117850325Y-85909114D01*
X117850325Y-85909114D02*
X117850325Y-85766257D01*
X117850325Y-85766257D02*
X117897944Y-85671019D01*
X117897944Y-85671019D02*
X117945563Y-85623400D01*
X117945563Y-85623400D02*
X118040801Y-85575780D01*
X118040801Y-85575780D02*
X118421753Y-85575780D01*
X118421753Y-85575780D02*
X118421753Y-86575780D01*
X118421753Y-86575780D02*
X118088420Y-86575780D01*
X118088420Y-86575780D02*
X117993182Y-86528161D01*
X117993182Y-86528161D02*
X117945563Y-86480542D01*
X117945563Y-86480542D02*
X117897944Y-86385304D01*
X117897944Y-86385304D02*
X117897944Y-86290066D01*
X117897944Y-86290066D02*
X117945563Y-86194828D01*
X117945563Y-86194828D02*
X117993182Y-86147209D01*
X117993182Y-86147209D02*
X118088420Y-86099590D01*
X118088420Y-86099590D02*
X118421753Y-86099590D01*
X117421753Y-86575780D02*
X117421753Y-85766257D01*
X117421753Y-85766257D02*
X117374134Y-85671019D01*
X117374134Y-85671019D02*
X117326515Y-85623400D01*
X117326515Y-85623400D02*
X117231277Y-85575780D01*
X117231277Y-85575780D02*
X117040801Y-85575780D01*
X117040801Y-85575780D02*
X116945563Y-85623400D01*
X116945563Y-85623400D02*
X116897944Y-85671019D01*
X116897944Y-85671019D02*
X116850325Y-85766257D01*
X116850325Y-85766257D02*
X116850325Y-86575780D01*
X116421753Y-85623400D02*
X116278896Y-85575780D01*
X116278896Y-85575780D02*
X116040801Y-85575780D01*
X116040801Y-85575780D02*
X115945563Y-85623400D01*
X115945563Y-85623400D02*
X115897944Y-85671019D01*
X115897944Y-85671019D02*
X115850325Y-85766257D01*
X115850325Y-85766257D02*
X115850325Y-85861495D01*
X115850325Y-85861495D02*
X115897944Y-85956733D01*
X115897944Y-85956733D02*
X115945563Y-86004352D01*
X115945563Y-86004352D02*
X116040801Y-86051971D01*
X116040801Y-86051971D02*
X116231277Y-86099590D01*
X116231277Y-86099590D02*
X116326515Y-86147209D01*
X116326515Y-86147209D02*
X116374134Y-86194828D01*
X116374134Y-86194828D02*
X116421753Y-86290066D01*
X116421753Y-86290066D02*
X116421753Y-86385304D01*
X116421753Y-86385304D02*
X116374134Y-86480542D01*
X116374134Y-86480542D02*
X116326515Y-86528161D01*
X116326515Y-86528161D02*
X116231277Y-86575780D01*
X116231277Y-86575780D02*
X115993182Y-86575780D01*
X115993182Y-86575780D02*
X115850325Y-86528161D01*
D10*
X118839562Y-108404934D02*
X118039562Y-108404934D01*
X118039562Y-108404934D02*
X118039562Y-108214458D01*
X118039562Y-108214458D02*
X118077657Y-108100172D01*
X118077657Y-108100172D02*
X118153847Y-108023982D01*
X118153847Y-108023982D02*
X118230038Y-107985887D01*
X118230038Y-107985887D02*
X118382419Y-107947791D01*
X118382419Y-107947791D02*
X118496705Y-107947791D01*
X118496705Y-107947791D02*
X118649086Y-107985887D01*
X118649086Y-107985887D02*
X118725276Y-108023982D01*
X118725276Y-108023982D02*
X118801467Y-108100172D01*
X118801467Y-108100172D02*
X118839562Y-108214458D01*
X118839562Y-108214458D02*
X118839562Y-108404934D01*
X118610990Y-107643030D02*
X118610990Y-107262077D01*
X118839562Y-107719220D02*
X118039562Y-107452553D01*
X118039562Y-107452553D02*
X118839562Y-107185887D01*
X118039562Y-107033506D02*
X118039562Y-106576363D01*
X118839562Y-106804935D02*
X118039562Y-106804935D01*
X116267095Y-117485420D02*
X116267095Y-117028277D01*
X117067095Y-117256849D02*
X116267095Y-117256849D01*
X116267095Y-116837801D02*
X117067095Y-116304467D01*
X116267095Y-116304467D02*
X117067095Y-116837801D01*
D11*
X112763371Y-91954723D02*
X113144324Y-91954723D01*
X112687181Y-92183295D02*
X112953848Y-91383295D01*
X112953848Y-91383295D02*
X113220514Y-92183295D01*
X113830038Y-91383295D02*
X113677657Y-91383295D01*
X113677657Y-91383295D02*
X113601466Y-91421390D01*
X113601466Y-91421390D02*
X113563371Y-91459485D01*
X113563371Y-91459485D02*
X113487181Y-91573771D01*
X113487181Y-91573771D02*
X113449085Y-91726152D01*
X113449085Y-91726152D02*
X113449085Y-92030914D01*
X113449085Y-92030914D02*
X113487181Y-92107104D01*
X113487181Y-92107104D02*
X113525276Y-92145200D01*
X113525276Y-92145200D02*
X113601466Y-92183295D01*
X113601466Y-92183295D02*
X113753847Y-92183295D01*
X113753847Y-92183295D02*
X113830038Y-92145200D01*
X113830038Y-92145200D02*
X113868133Y-92107104D01*
X113868133Y-92107104D02*
X113906228Y-92030914D01*
X113906228Y-92030914D02*
X113906228Y-91840438D01*
X113906228Y-91840438D02*
X113868133Y-91764247D01*
X113868133Y-91764247D02*
X113830038Y-91726152D01*
X113830038Y-91726152D02*
X113753847Y-91688057D01*
X113753847Y-91688057D02*
X113601466Y-91688057D01*
X113601466Y-91688057D02*
X113525276Y-91726152D01*
X113525276Y-91726152D02*
X113487181Y-91764247D01*
X113487181Y-91764247D02*
X113449085Y-91840438D01*
D10*
X128903040Y-103193540D02*
X128903040Y-103841159D01*
X128903040Y-103841159D02*
X128941135Y-103917349D01*
X128941135Y-103917349D02*
X128979230Y-103955445D01*
X128979230Y-103955445D02*
X129055421Y-103993540D01*
X129055421Y-103993540D02*
X129207802Y-103993540D01*
X129207802Y-103993540D02*
X129283992Y-103955445D01*
X129283992Y-103955445D02*
X129322087Y-103917349D01*
X129322087Y-103917349D02*
X129360183Y-103841159D01*
X129360183Y-103841159D02*
X129360183Y-103193540D01*
X129741135Y-103993540D02*
X129741135Y-103193540D01*
X129741135Y-103193540D02*
X130045897Y-103193540D01*
X130045897Y-103193540D02*
X130122087Y-103231635D01*
X130122087Y-103231635D02*
X130160182Y-103269730D01*
X130160182Y-103269730D02*
X130198278Y-103345921D01*
X130198278Y-103345921D02*
X130198278Y-103460206D01*
X130198278Y-103460206D02*
X130160182Y-103536397D01*
X130160182Y-103536397D02*
X130122087Y-103574492D01*
X130122087Y-103574492D02*
X130045897Y-103612587D01*
X130045897Y-103612587D02*
X129741135Y-103612587D01*
X130541135Y-103993540D02*
X130541135Y-103193540D01*
X130541135Y-103193540D02*
X130731611Y-103193540D01*
X130731611Y-103193540D02*
X130845897Y-103231635D01*
X130845897Y-103231635D02*
X130922087Y-103307825D01*
X130922087Y-103307825D02*
X130960182Y-103384016D01*
X130960182Y-103384016D02*
X130998278Y-103536397D01*
X130998278Y-103536397D02*
X130998278Y-103650683D01*
X130998278Y-103650683D02*
X130960182Y-103803064D01*
X130960182Y-103803064D02*
X130922087Y-103879254D01*
X130922087Y-103879254D02*
X130845897Y-103955445D01*
X130845897Y-103955445D02*
X130731611Y-103993540D01*
X130731611Y-103993540D02*
X130541135Y-103993540D01*
X131341135Y-103993540D02*
X131341135Y-103193540D01*
X130617325Y-105281495D02*
X130350658Y-104900542D01*
X130160182Y-105281495D02*
X130160182Y-104481495D01*
X130160182Y-104481495D02*
X130464944Y-104481495D01*
X130464944Y-104481495D02*
X130541134Y-104519590D01*
X130541134Y-104519590D02*
X130579229Y-104557685D01*
X130579229Y-104557685D02*
X130617325Y-104633876D01*
X130617325Y-104633876D02*
X130617325Y-104748161D01*
X130617325Y-104748161D02*
X130579229Y-104824352D01*
X130579229Y-104824352D02*
X130541134Y-104862447D01*
X130541134Y-104862447D02*
X130464944Y-104900542D01*
X130464944Y-104900542D02*
X130160182Y-104900542D01*
X130883991Y-104481495D02*
X131417325Y-105281495D01*
X131417325Y-104481495D02*
X130883991Y-105281495D01*
X123455295Y-111226446D02*
X124102914Y-111226446D01*
X124102914Y-111226446D02*
X124179104Y-111188351D01*
X124179104Y-111188351D02*
X124217200Y-111150256D01*
X124217200Y-111150256D02*
X124255295Y-111074065D01*
X124255295Y-111074065D02*
X124255295Y-110921684D01*
X124255295Y-110921684D02*
X124217200Y-110845494D01*
X124217200Y-110845494D02*
X124179104Y-110807399D01*
X124179104Y-110807399D02*
X124102914Y-110769303D01*
X124102914Y-110769303D02*
X123455295Y-110769303D01*
X124255295Y-110388351D02*
X123455295Y-110388351D01*
X123455295Y-110388351D02*
X123455295Y-110083589D01*
X123455295Y-110083589D02*
X123493390Y-110007399D01*
X123493390Y-110007399D02*
X123531485Y-109969304D01*
X123531485Y-109969304D02*
X123607676Y-109931208D01*
X123607676Y-109931208D02*
X123721961Y-109931208D01*
X123721961Y-109931208D02*
X123798152Y-109969304D01*
X123798152Y-109969304D02*
X123836247Y-110007399D01*
X123836247Y-110007399D02*
X123874342Y-110083589D01*
X123874342Y-110083589D02*
X123874342Y-110388351D01*
X124255295Y-109588351D02*
X123455295Y-109588351D01*
X123455295Y-109588351D02*
X123455295Y-109397875D01*
X123455295Y-109397875D02*
X123493390Y-109283589D01*
X123493390Y-109283589D02*
X123569580Y-109207399D01*
X123569580Y-109207399D02*
X123645771Y-109169304D01*
X123645771Y-109169304D02*
X123798152Y-109131208D01*
X123798152Y-109131208D02*
X123912438Y-109131208D01*
X123912438Y-109131208D02*
X124064819Y-109169304D01*
X124064819Y-109169304D02*
X124141009Y-109207399D01*
X124141009Y-109207399D02*
X124217200Y-109283589D01*
X124217200Y-109283589D02*
X124255295Y-109397875D01*
X124255295Y-109397875D02*
X124255295Y-109588351D01*
X124255295Y-108788351D02*
X123455295Y-108788351D01*
D11*
X110223371Y-91954723D02*
X110604324Y-91954723D01*
X110147181Y-92183295D02*
X110413848Y-91383295D01*
X110413848Y-91383295D02*
X110680514Y-92183295D01*
X110870990Y-91383295D02*
X111404324Y-91383295D01*
X111404324Y-91383295D02*
X111061466Y-92183295D01*
D10*
X130276676Y-106335695D02*
X130733819Y-106335695D01*
X130505247Y-107135695D02*
X130505247Y-106335695D01*
X130924295Y-106335695D02*
X131457629Y-107135695D01*
X131457629Y-106335695D02*
X130924295Y-107135695D01*
X118763371Y-110487791D02*
X118801467Y-110525887D01*
X118801467Y-110525887D02*
X118839562Y-110640172D01*
X118839562Y-110640172D02*
X118839562Y-110716363D01*
X118839562Y-110716363D02*
X118801467Y-110830649D01*
X118801467Y-110830649D02*
X118725276Y-110906839D01*
X118725276Y-110906839D02*
X118649086Y-110944934D01*
X118649086Y-110944934D02*
X118496705Y-110983030D01*
X118496705Y-110983030D02*
X118382419Y-110983030D01*
X118382419Y-110983030D02*
X118230038Y-110944934D01*
X118230038Y-110944934D02*
X118153847Y-110906839D01*
X118153847Y-110906839D02*
X118077657Y-110830649D01*
X118077657Y-110830649D02*
X118039562Y-110716363D01*
X118039562Y-110716363D02*
X118039562Y-110640172D01*
X118039562Y-110640172D02*
X118077657Y-110525887D01*
X118077657Y-110525887D02*
X118115752Y-110487791D01*
X118839562Y-109763982D02*
X118839562Y-110144934D01*
X118839562Y-110144934D02*
X118039562Y-110144934D01*
X118839562Y-109497315D02*
X118039562Y-109497315D01*
X118839562Y-109040172D02*
X118382419Y-109383030D01*
X118039562Y-109040172D02*
X118496705Y-109497315D01*
X117016295Y-114297791D02*
X116635342Y-114564458D01*
X117016295Y-114754934D02*
X116216295Y-114754934D01*
X116216295Y-114754934D02*
X116216295Y-114450172D01*
X116216295Y-114450172D02*
X116254390Y-114373982D01*
X116254390Y-114373982D02*
X116292485Y-114335887D01*
X116292485Y-114335887D02*
X116368676Y-114297791D01*
X116368676Y-114297791D02*
X116482961Y-114297791D01*
X116482961Y-114297791D02*
X116559152Y-114335887D01*
X116559152Y-114335887D02*
X116597247Y-114373982D01*
X116597247Y-114373982D02*
X116635342Y-114450172D01*
X116635342Y-114450172D02*
X116635342Y-114754934D01*
X116216295Y-114031125D02*
X117016295Y-113497791D01*
X116216295Y-113497791D02*
X117016295Y-114031125D01*
X128422476Y-117295790D02*
X128346286Y-117257695D01*
X128346286Y-117257695D02*
X128232000Y-117257695D01*
X128232000Y-117257695D02*
X128117714Y-117295790D01*
X128117714Y-117295790D02*
X128041524Y-117371980D01*
X128041524Y-117371980D02*
X128003429Y-117448171D01*
X128003429Y-117448171D02*
X127965333Y-117600552D01*
X127965333Y-117600552D02*
X127965333Y-117714838D01*
X127965333Y-117714838D02*
X128003429Y-117867219D01*
X128003429Y-117867219D02*
X128041524Y-117943409D01*
X128041524Y-117943409D02*
X128117714Y-118019600D01*
X128117714Y-118019600D02*
X128232000Y-118057695D01*
X128232000Y-118057695D02*
X128308191Y-118057695D01*
X128308191Y-118057695D02*
X128422476Y-118019600D01*
X128422476Y-118019600D02*
X128460572Y-117981504D01*
X128460572Y-117981504D02*
X128460572Y-117714838D01*
X128460572Y-117714838D02*
X128308191Y-117714838D01*
X128803429Y-118057695D02*
X128803429Y-117257695D01*
X128803429Y-117257695D02*
X129260572Y-118057695D01*
X129260572Y-118057695D02*
X129260572Y-117257695D01*
X129641524Y-118057695D02*
X129641524Y-117257695D01*
X129641524Y-117257695D02*
X129832000Y-117257695D01*
X129832000Y-117257695D02*
X129946286Y-117295790D01*
X129946286Y-117295790D02*
X130022476Y-117371980D01*
X130022476Y-117371980D02*
X130060571Y-117448171D01*
X130060571Y-117448171D02*
X130098667Y-117600552D01*
X130098667Y-117600552D02*
X130098667Y-117714838D01*
X130098667Y-117714838D02*
X130060571Y-117867219D01*
X130060571Y-117867219D02*
X130022476Y-117943409D01*
X130022476Y-117943409D02*
X129946286Y-118019600D01*
X129946286Y-118019600D02*
X129832000Y-118057695D01*
X129832000Y-118057695D02*
X129641524Y-118057695D01*
X123836295Y-99847246D02*
X124483914Y-99847246D01*
X124483914Y-99847246D02*
X124560104Y-99809151D01*
X124560104Y-99809151D02*
X124598200Y-99771056D01*
X124598200Y-99771056D02*
X124636295Y-99694865D01*
X124636295Y-99694865D02*
X124636295Y-99542484D01*
X124636295Y-99542484D02*
X124598200Y-99466294D01*
X124598200Y-99466294D02*
X124560104Y-99428199D01*
X124560104Y-99428199D02*
X124483914Y-99390103D01*
X124483914Y-99390103D02*
X123836295Y-99390103D01*
X124636295Y-99009151D02*
X123836295Y-99009151D01*
X123836295Y-99009151D02*
X123836295Y-98704389D01*
X123836295Y-98704389D02*
X123874390Y-98628199D01*
X123874390Y-98628199D02*
X123912485Y-98590104D01*
X123912485Y-98590104D02*
X123988676Y-98552008D01*
X123988676Y-98552008D02*
X124102961Y-98552008D01*
X124102961Y-98552008D02*
X124179152Y-98590104D01*
X124179152Y-98590104D02*
X124217247Y-98628199D01*
X124217247Y-98628199D02*
X124255342Y-98704389D01*
X124255342Y-98704389D02*
X124255342Y-99009151D01*
X124636295Y-98209151D02*
X123836295Y-98209151D01*
X123836295Y-98209151D02*
X123836295Y-98018675D01*
X123836295Y-98018675D02*
X123874390Y-97904389D01*
X123874390Y-97904389D02*
X123950580Y-97828199D01*
X123950580Y-97828199D02*
X124026771Y-97790104D01*
X124026771Y-97790104D02*
X124179152Y-97752008D01*
X124179152Y-97752008D02*
X124293438Y-97752008D01*
X124293438Y-97752008D02*
X124445819Y-97790104D01*
X124445819Y-97790104D02*
X124522009Y-97828199D01*
X124522009Y-97828199D02*
X124598200Y-97904389D01*
X124598200Y-97904389D02*
X124636295Y-98018675D01*
X124636295Y-98018675D02*
X124636295Y-98209151D01*
X124636295Y-97409151D02*
X123836295Y-97409151D01*
X118077657Y-113192887D02*
X118039562Y-113269077D01*
X118039562Y-113269077D02*
X118039562Y-113383363D01*
X118039562Y-113383363D02*
X118077657Y-113497649D01*
X118077657Y-113497649D02*
X118153847Y-113573839D01*
X118153847Y-113573839D02*
X118230038Y-113611934D01*
X118230038Y-113611934D02*
X118382419Y-113650030D01*
X118382419Y-113650030D02*
X118496705Y-113650030D01*
X118496705Y-113650030D02*
X118649086Y-113611934D01*
X118649086Y-113611934D02*
X118725276Y-113573839D01*
X118725276Y-113573839D02*
X118801467Y-113497649D01*
X118801467Y-113497649D02*
X118839562Y-113383363D01*
X118839562Y-113383363D02*
X118839562Y-113307172D01*
X118839562Y-113307172D02*
X118801467Y-113192887D01*
X118801467Y-113192887D02*
X118763371Y-113154791D01*
X118763371Y-113154791D02*
X118496705Y-113154791D01*
X118496705Y-113154791D02*
X118496705Y-113307172D01*
X118839562Y-112811934D02*
X118039562Y-112811934D01*
X118039562Y-112811934D02*
X118839562Y-112354791D01*
X118839562Y-112354791D02*
X118039562Y-112354791D01*
X118839562Y-111973839D02*
X118039562Y-111973839D01*
X118039562Y-111973839D02*
X118039562Y-111783363D01*
X118039562Y-111783363D02*
X118077657Y-111669077D01*
X118077657Y-111669077D02*
X118153847Y-111592887D01*
X118153847Y-111592887D02*
X118230038Y-111554792D01*
X118230038Y-111554792D02*
X118382419Y-111516696D01*
X118382419Y-111516696D02*
X118496705Y-111516696D01*
X118496705Y-111516696D02*
X118649086Y-111554792D01*
X118649086Y-111554792D02*
X118725276Y-111592887D01*
X118725276Y-111592887D02*
X118801467Y-111669077D01*
X118801467Y-111669077D02*
X118839562Y-111783363D01*
X118839562Y-111783363D02*
X118839562Y-111973839D01*
X132867476Y-111225190D02*
X132791286Y-111187095D01*
X132791286Y-111187095D02*
X132677000Y-111187095D01*
X132677000Y-111187095D02*
X132562714Y-111225190D01*
X132562714Y-111225190D02*
X132486524Y-111301380D01*
X132486524Y-111301380D02*
X132448429Y-111377571D01*
X132448429Y-111377571D02*
X132410333Y-111529952D01*
X132410333Y-111529952D02*
X132410333Y-111644238D01*
X132410333Y-111644238D02*
X132448429Y-111796619D01*
X132448429Y-111796619D02*
X132486524Y-111872809D01*
X132486524Y-111872809D02*
X132562714Y-111949000D01*
X132562714Y-111949000D02*
X132677000Y-111987095D01*
X132677000Y-111987095D02*
X132753191Y-111987095D01*
X132753191Y-111987095D02*
X132867476Y-111949000D01*
X132867476Y-111949000D02*
X132905572Y-111910904D01*
X132905572Y-111910904D02*
X132905572Y-111644238D01*
X132905572Y-111644238D02*
X132753191Y-111644238D01*
X133248429Y-111987095D02*
X133248429Y-111187095D01*
X133248429Y-111187095D02*
X133705572Y-111987095D01*
X133705572Y-111987095D02*
X133705572Y-111187095D01*
X134086524Y-111987095D02*
X134086524Y-111187095D01*
X134086524Y-111187095D02*
X134277000Y-111187095D01*
X134277000Y-111187095D02*
X134391286Y-111225190D01*
X134391286Y-111225190D02*
X134467476Y-111301380D01*
X134467476Y-111301380D02*
X134505571Y-111377571D01*
X134505571Y-111377571D02*
X134543667Y-111529952D01*
X134543667Y-111529952D02*
X134543667Y-111644238D01*
X134543667Y-111644238D02*
X134505571Y-111796619D01*
X134505571Y-111796619D02*
X134467476Y-111872809D01*
X134467476Y-111872809D02*
X134391286Y-111949000D01*
X134391286Y-111949000D02*
X134277000Y-111987095D01*
X134277000Y-111987095D02*
X134086524Y-111987095D01*
X116228990Y-112303887D02*
X116190895Y-112380077D01*
X116190895Y-112380077D02*
X116190895Y-112494363D01*
X116190895Y-112494363D02*
X116228990Y-112608649D01*
X116228990Y-112608649D02*
X116305180Y-112684839D01*
X116305180Y-112684839D02*
X116381371Y-112722934D01*
X116381371Y-112722934D02*
X116533752Y-112761030D01*
X116533752Y-112761030D02*
X116648038Y-112761030D01*
X116648038Y-112761030D02*
X116800419Y-112722934D01*
X116800419Y-112722934D02*
X116876609Y-112684839D01*
X116876609Y-112684839D02*
X116952800Y-112608649D01*
X116952800Y-112608649D02*
X116990895Y-112494363D01*
X116990895Y-112494363D02*
X116990895Y-112418172D01*
X116990895Y-112418172D02*
X116952800Y-112303887D01*
X116952800Y-112303887D02*
X116914704Y-112265791D01*
X116914704Y-112265791D02*
X116648038Y-112265791D01*
X116648038Y-112265791D02*
X116648038Y-112418172D01*
X116990895Y-111922934D02*
X116190895Y-111922934D01*
X116190895Y-111922934D02*
X116990895Y-111465791D01*
X116990895Y-111465791D02*
X116190895Y-111465791D01*
X116990895Y-111084839D02*
X116190895Y-111084839D01*
X116190895Y-111084839D02*
X116190895Y-110894363D01*
X116190895Y-110894363D02*
X116228990Y-110780077D01*
X116228990Y-110780077D02*
X116305180Y-110703887D01*
X116305180Y-110703887D02*
X116381371Y-110665792D01*
X116381371Y-110665792D02*
X116533752Y-110627696D01*
X116533752Y-110627696D02*
X116648038Y-110627696D01*
X116648038Y-110627696D02*
X116800419Y-110665792D01*
X116800419Y-110665792D02*
X116876609Y-110703887D01*
X116876609Y-110703887D02*
X116952800Y-110780077D01*
X116952800Y-110780077D02*
X116990895Y-110894363D01*
X116990895Y-110894363D02*
X116990895Y-111084839D01*
D11*
X122847219Y-107629077D02*
X122847219Y-107057649D01*
X123847219Y-107343363D02*
X122847219Y-107343363D01*
X123847219Y-106724315D02*
X122847219Y-106724315D01*
X122847219Y-106724315D02*
X122847219Y-106343363D01*
X122847219Y-106343363D02*
X122894838Y-106248125D01*
X122894838Y-106248125D02*
X122942457Y-106200506D01*
X122942457Y-106200506D02*
X123037695Y-106152887D01*
X123037695Y-106152887D02*
X123180552Y-106152887D01*
X123180552Y-106152887D02*
X123275790Y-106200506D01*
X123275790Y-106200506D02*
X123323409Y-106248125D01*
X123323409Y-106248125D02*
X123371028Y-106343363D01*
X123371028Y-106343363D02*
X123371028Y-106724315D01*
X123799600Y-105771934D02*
X123847219Y-105676696D01*
X123847219Y-105676696D02*
X123847219Y-105486220D01*
X123847219Y-105486220D02*
X123799600Y-105390982D01*
X123799600Y-105390982D02*
X123704361Y-105343363D01*
X123704361Y-105343363D02*
X123656742Y-105343363D01*
X123656742Y-105343363D02*
X123561504Y-105390982D01*
X123561504Y-105390982D02*
X123513885Y-105486220D01*
X123513885Y-105486220D02*
X123513885Y-105629077D01*
X123513885Y-105629077D02*
X123466266Y-105724315D01*
X123466266Y-105724315D02*
X123371028Y-105771934D01*
X123371028Y-105771934D02*
X123323409Y-105771934D01*
X123323409Y-105771934D02*
X123228171Y-105724315D01*
X123228171Y-105724315D02*
X123180552Y-105629077D01*
X123180552Y-105629077D02*
X123180552Y-105486220D01*
X123180552Y-105486220D02*
X123228171Y-105390982D01*
D10*
X120370676Y-119109990D02*
X120294486Y-119071895D01*
X120294486Y-119071895D02*
X120180200Y-119071895D01*
X120180200Y-119071895D02*
X120065914Y-119109990D01*
X120065914Y-119109990D02*
X119989724Y-119186180D01*
X119989724Y-119186180D02*
X119951629Y-119262371D01*
X119951629Y-119262371D02*
X119913533Y-119414752D01*
X119913533Y-119414752D02*
X119913533Y-119529038D01*
X119913533Y-119529038D02*
X119951629Y-119681419D01*
X119951629Y-119681419D02*
X119989724Y-119757609D01*
X119989724Y-119757609D02*
X120065914Y-119833800D01*
X120065914Y-119833800D02*
X120180200Y-119871895D01*
X120180200Y-119871895D02*
X120256391Y-119871895D01*
X120256391Y-119871895D02*
X120370676Y-119833800D01*
X120370676Y-119833800D02*
X120408772Y-119795704D01*
X120408772Y-119795704D02*
X120408772Y-119529038D01*
X120408772Y-119529038D02*
X120256391Y-119529038D01*
X120751629Y-119871895D02*
X120751629Y-119071895D01*
X120751629Y-119071895D02*
X121208772Y-119871895D01*
X121208772Y-119871895D02*
X121208772Y-119071895D01*
X121589724Y-119871895D02*
X121589724Y-119071895D01*
X121589724Y-119071895D02*
X121780200Y-119071895D01*
X121780200Y-119071895D02*
X121894486Y-119109990D01*
X121894486Y-119109990D02*
X121970676Y-119186180D01*
X121970676Y-119186180D02*
X122008771Y-119262371D01*
X122008771Y-119262371D02*
X122046867Y-119414752D01*
X122046867Y-119414752D02*
X122046867Y-119529038D01*
X122046867Y-119529038D02*
X122008771Y-119681419D01*
X122008771Y-119681419D02*
X121970676Y-119757609D01*
X121970676Y-119757609D02*
X121894486Y-119833800D01*
X121894486Y-119833800D02*
X121780200Y-119871895D01*
X121780200Y-119871895D02*
X121589724Y-119871895D01*
D11*
X119532495Y-94984219D02*
X119532495Y-95793742D01*
X119532495Y-95793742D02*
X119580114Y-95888980D01*
X119580114Y-95888980D02*
X119627733Y-95936600D01*
X119627733Y-95936600D02*
X119722971Y-95984219D01*
X119722971Y-95984219D02*
X119913447Y-95984219D01*
X119913447Y-95984219D02*
X120008685Y-95936600D01*
X120008685Y-95936600D02*
X120056304Y-95888980D01*
X120056304Y-95888980D02*
X120103923Y-95793742D01*
X120103923Y-95793742D02*
X120103923Y-94984219D01*
X120532495Y-95079457D02*
X120580114Y-95031838D01*
X120580114Y-95031838D02*
X120675352Y-94984219D01*
X120675352Y-94984219D02*
X120913447Y-94984219D01*
X120913447Y-94984219D02*
X121008685Y-95031838D01*
X121008685Y-95031838D02*
X121056304Y-95079457D01*
X121056304Y-95079457D02*
X121103923Y-95174695D01*
X121103923Y-95174695D02*
X121103923Y-95269933D01*
X121103923Y-95269933D02*
X121056304Y-95412790D01*
X121056304Y-95412790D02*
X120484876Y-95984219D01*
X120484876Y-95984219D02*
X121103923Y-95984219D01*
X115830723Y-99980362D02*
X115830723Y-99599409D01*
X116059295Y-100056552D02*
X115259295Y-99789885D01*
X115259295Y-99789885D02*
X116059295Y-99523219D01*
X115259295Y-99370838D02*
X115259295Y-98913695D01*
X116059295Y-99142267D02*
X115259295Y-99142267D01*
X115525961Y-98761314D02*
X115525961Y-98456552D01*
X115259295Y-98647028D02*
X115945009Y-98647028D01*
X115945009Y-98647028D02*
X116021200Y-98608933D01*
X116021200Y-98608933D02*
X116059295Y-98532743D01*
X116059295Y-98532743D02*
X116059295Y-98456552D01*
X116059295Y-98189885D02*
X115525961Y-98189885D01*
X115259295Y-98189885D02*
X115297390Y-98227981D01*
X115297390Y-98227981D02*
X115335485Y-98189885D01*
X115335485Y-98189885D02*
X115297390Y-98151790D01*
X115297390Y-98151790D02*
X115259295Y-98189885D01*
X115259295Y-98189885D02*
X115335485Y-98189885D01*
X115525961Y-97808933D02*
X116059295Y-97808933D01*
X115602152Y-97808933D02*
X115564057Y-97770838D01*
X115564057Y-97770838D02*
X115525961Y-97694648D01*
X115525961Y-97694648D02*
X115525961Y-97580362D01*
X115525961Y-97580362D02*
X115564057Y-97504171D01*
X115564057Y-97504171D02*
X115640247Y-97466076D01*
X115640247Y-97466076D02*
X116059295Y-97466076D01*
X115525961Y-97161314D02*
X116059295Y-96970838D01*
X115525961Y-96780361D02*
X116059295Y-96970838D01*
X116059295Y-96970838D02*
X116249771Y-97047028D01*
X116249771Y-97047028D02*
X116287866Y-97085123D01*
X116287866Y-97085123D02*
X116325961Y-97161314D01*
X116059295Y-96056552D02*
X116059295Y-96513695D01*
X116059295Y-96285123D02*
X115259295Y-96285123D01*
X115259295Y-96285123D02*
X115373580Y-96361314D01*
X115373580Y-96361314D02*
X115449771Y-96437504D01*
X115449771Y-96437504D02*
X115487866Y-96513695D01*
X115259295Y-95370837D02*
X115259295Y-95523218D01*
X115259295Y-95523218D02*
X115297390Y-95599409D01*
X115297390Y-95599409D02*
X115335485Y-95637504D01*
X115335485Y-95637504D02*
X115449771Y-95713694D01*
X115449771Y-95713694D02*
X115602152Y-95751790D01*
X115602152Y-95751790D02*
X115906914Y-95751790D01*
X115906914Y-95751790D02*
X115983104Y-95713694D01*
X115983104Y-95713694D02*
X116021200Y-95675599D01*
X116021200Y-95675599D02*
X116059295Y-95599409D01*
X116059295Y-95599409D02*
X116059295Y-95447028D01*
X116059295Y-95447028D02*
X116021200Y-95370837D01*
X116021200Y-95370837D02*
X115983104Y-95332742D01*
X115983104Y-95332742D02*
X115906914Y-95294647D01*
X115906914Y-95294647D02*
X115716438Y-95294647D01*
X115716438Y-95294647D02*
X115640247Y-95332742D01*
X115640247Y-95332742D02*
X115602152Y-95370837D01*
X115602152Y-95370837D02*
X115564057Y-95447028D01*
X115564057Y-95447028D02*
X115564057Y-95599409D01*
X115564057Y-95599409D02*
X115602152Y-95675599D01*
X115602152Y-95675599D02*
X115640247Y-95713694D01*
X115640247Y-95713694D02*
X115716438Y-95751790D01*
X115259295Y-94799408D02*
X115259295Y-94723218D01*
X115259295Y-94723218D02*
X115297390Y-94647027D01*
X115297390Y-94647027D02*
X115335485Y-94608932D01*
X115335485Y-94608932D02*
X115411676Y-94570837D01*
X115411676Y-94570837D02*
X115564057Y-94532742D01*
X115564057Y-94532742D02*
X115754533Y-94532742D01*
X115754533Y-94532742D02*
X115906914Y-94570837D01*
X115906914Y-94570837D02*
X115983104Y-94608932D01*
X115983104Y-94608932D02*
X116021200Y-94647027D01*
X116021200Y-94647027D02*
X116059295Y-94723218D01*
X116059295Y-94723218D02*
X116059295Y-94799408D01*
X116059295Y-94799408D02*
X116021200Y-94875599D01*
X116021200Y-94875599D02*
X115983104Y-94913694D01*
X115983104Y-94913694D02*
X115906914Y-94951789D01*
X115906914Y-94951789D02*
X115754533Y-94989885D01*
X115754533Y-94989885D02*
X115564057Y-94989885D01*
X115564057Y-94989885D02*
X115411676Y-94951789D01*
X115411676Y-94951789D02*
X115335485Y-94913694D01*
X115335485Y-94913694D02*
X115297390Y-94875599D01*
X115297390Y-94875599D02*
X115259295Y-94799408D01*
X115525961Y-93847027D02*
X116059295Y-93847027D01*
X115221200Y-94037503D02*
X115792628Y-94227980D01*
X115792628Y-94227980D02*
X115792628Y-93732741D01*
D10*
X130590695Y-79946476D02*
X130590695Y-80403619D01*
X130590695Y-80175047D02*
X129790695Y-80175047D01*
X129790695Y-80175047D02*
X129904980Y-80251238D01*
X129904980Y-80251238D02*
X129981171Y-80327428D01*
X129981171Y-80327428D02*
X130019266Y-80403619D01*
X130057361Y-79603618D02*
X130857361Y-79603618D01*
X130476409Y-79222666D02*
X130552600Y-79184571D01*
X130552600Y-79184571D02*
X130590695Y-79108380D01*
X130476409Y-79603618D02*
X130552600Y-79565523D01*
X130552600Y-79565523D02*
X130590695Y-79489333D01*
X130590695Y-79489333D02*
X130590695Y-79336952D01*
X130590695Y-79336952D02*
X130552600Y-79260761D01*
X130552600Y-79260761D02*
X130476409Y-79222666D01*
X130476409Y-79222666D02*
X130057361Y-79222666D01*
X108620895Y-106496428D02*
X108620895Y-106953571D01*
X108620895Y-106724999D02*
X107820895Y-106724999D01*
X107820895Y-106724999D02*
X107935180Y-106801190D01*
X107935180Y-106801190D02*
X108011371Y-106877380D01*
X108011371Y-106877380D02*
X108049466Y-106953571D01*
X108620895Y-106153570D02*
X107820895Y-106153570D01*
X108620895Y-105696427D02*
X108163752Y-106039285D01*
X107820895Y-105696427D02*
X108278038Y-106153570D01*
D11*
X115713704Y-106090790D02*
X115713704Y-105614600D01*
X115999419Y-106186028D02*
X114999419Y-105852695D01*
X114999419Y-105852695D02*
X115999419Y-105519362D01*
X115999419Y-104709838D02*
X115999419Y-105186028D01*
X115999419Y-105186028D02*
X114999419Y-105186028D01*
X115475609Y-104376504D02*
X115475609Y-104043171D01*
X115999419Y-103900314D02*
X115999419Y-104376504D01*
X115999419Y-104376504D02*
X114999419Y-104376504D01*
X114999419Y-104376504D02*
X114999419Y-103900314D01*
X115999419Y-102900314D02*
X115523228Y-103233647D01*
X115999419Y-103471742D02*
X114999419Y-103471742D01*
X114999419Y-103471742D02*
X114999419Y-103090790D01*
X114999419Y-103090790D02*
X115047038Y-102995552D01*
X115047038Y-102995552D02*
X115094657Y-102947933D01*
X115094657Y-102947933D02*
X115189895Y-102900314D01*
X115189895Y-102900314D02*
X115332752Y-102900314D01*
X115332752Y-102900314D02*
X115427990Y-102947933D01*
X115427990Y-102947933D02*
X115475609Y-102995552D01*
X115475609Y-102995552D02*
X115523228Y-103090790D01*
X115523228Y-103090790D02*
X115523228Y-103471742D01*
X114999419Y-102614599D02*
X114999419Y-102043171D01*
X115999419Y-102328885D02*
X114999419Y-102328885D01*
X115654600Y-81754504D02*
X115702219Y-81611647D01*
X115702219Y-81611647D02*
X115702219Y-81373552D01*
X115702219Y-81373552D02*
X115654600Y-81278314D01*
X115654600Y-81278314D02*
X115606980Y-81230695D01*
X115606980Y-81230695D02*
X115511742Y-81183076D01*
X115511742Y-81183076D02*
X115416504Y-81183076D01*
X115416504Y-81183076D02*
X115321266Y-81230695D01*
X115321266Y-81230695D02*
X115273647Y-81278314D01*
X115273647Y-81278314D02*
X115226028Y-81373552D01*
X115226028Y-81373552D02*
X115178409Y-81564028D01*
X115178409Y-81564028D02*
X115130790Y-81659266D01*
X115130790Y-81659266D02*
X115083171Y-81706885D01*
X115083171Y-81706885D02*
X114987933Y-81754504D01*
X114987933Y-81754504D02*
X114892695Y-81754504D01*
X114892695Y-81754504D02*
X114797457Y-81706885D01*
X114797457Y-81706885D02*
X114749838Y-81659266D01*
X114749838Y-81659266D02*
X114702219Y-81564028D01*
X114702219Y-81564028D02*
X114702219Y-81325933D01*
X114702219Y-81325933D02*
X114749838Y-81183076D01*
X115178409Y-80421171D02*
X115226028Y-80278314D01*
X115226028Y-80278314D02*
X115273647Y-80230695D01*
X115273647Y-80230695D02*
X115368885Y-80183076D01*
X115368885Y-80183076D02*
X115511742Y-80183076D01*
X115511742Y-80183076D02*
X115606980Y-80230695D01*
X115606980Y-80230695D02*
X115654600Y-80278314D01*
X115654600Y-80278314D02*
X115702219Y-80373552D01*
X115702219Y-80373552D02*
X115702219Y-80754504D01*
X115702219Y-80754504D02*
X114702219Y-80754504D01*
X114702219Y-80754504D02*
X114702219Y-80421171D01*
X114702219Y-80421171D02*
X114749838Y-80325933D01*
X114749838Y-80325933D02*
X114797457Y-80278314D01*
X114797457Y-80278314D02*
X114892695Y-80230695D01*
X114892695Y-80230695D02*
X114987933Y-80230695D01*
X114987933Y-80230695D02*
X115083171Y-80278314D01*
X115083171Y-80278314D02*
X115130790Y-80325933D01*
X115130790Y-80325933D02*
X115178409Y-80421171D01*
X115178409Y-80421171D02*
X115178409Y-80754504D01*
X115702219Y-79230695D02*
X115702219Y-79802123D01*
X115702219Y-79516409D02*
X114702219Y-79516409D01*
X114702219Y-79516409D02*
X114845076Y-79611647D01*
X114845076Y-79611647D02*
X114940314Y-79706885D01*
X114940314Y-79706885D02*
X114987933Y-79802123D01*
X118354239Y-76957666D02*
X117744716Y-76957666D01*
X118049477Y-76652904D02*
X118049477Y-77262428D01*
X116982811Y-77452904D02*
X117363763Y-77452904D01*
X117363763Y-77452904D02*
X117401859Y-77071952D01*
X117401859Y-77071952D02*
X117363763Y-77110047D01*
X117363763Y-77110047D02*
X117287573Y-77148142D01*
X117287573Y-77148142D02*
X117097097Y-77148142D01*
X117097097Y-77148142D02*
X117020906Y-77110047D01*
X117020906Y-77110047D02*
X116982811Y-77071952D01*
X116982811Y-77071952D02*
X116944716Y-76995761D01*
X116944716Y-76995761D02*
X116944716Y-76805285D01*
X116944716Y-76805285D02*
X116982811Y-76729095D01*
X116982811Y-76729095D02*
X117020906Y-76691000D01*
X117020906Y-76691000D02*
X117097097Y-76652904D01*
X117097097Y-76652904D02*
X117287573Y-76652904D01*
X117287573Y-76652904D02*
X117363763Y-76691000D01*
X117363763Y-76691000D02*
X117401859Y-76729095D01*
X116716144Y-77452904D02*
X116449477Y-76652904D01*
X116449477Y-76652904D02*
X116182811Y-77452904D01*
X120729192Y-77414809D02*
X120805382Y-77452904D01*
X120805382Y-77452904D02*
X120919668Y-77452904D01*
X120919668Y-77452904D02*
X121033954Y-77414809D01*
X121033954Y-77414809D02*
X121110144Y-77338619D01*
X121110144Y-77338619D02*
X121148239Y-77262428D01*
X121148239Y-77262428D02*
X121186335Y-77110047D01*
X121186335Y-77110047D02*
X121186335Y-76995761D01*
X121186335Y-76995761D02*
X121148239Y-76843380D01*
X121148239Y-76843380D02*
X121110144Y-76767190D01*
X121110144Y-76767190D02*
X121033954Y-76691000D01*
X121033954Y-76691000D02*
X120919668Y-76652904D01*
X120919668Y-76652904D02*
X120843477Y-76652904D01*
X120843477Y-76652904D02*
X120729192Y-76691000D01*
X120729192Y-76691000D02*
X120691096Y-76729095D01*
X120691096Y-76729095D02*
X120691096Y-76995761D01*
X120691096Y-76995761D02*
X120843477Y-76995761D01*
X120348239Y-76652904D02*
X120348239Y-77452904D01*
X120348239Y-77452904D02*
X119891096Y-76652904D01*
X119891096Y-76652904D02*
X119891096Y-77452904D01*
X119510144Y-76652904D02*
X119510144Y-77452904D01*
X119510144Y-77452904D02*
X119319668Y-77452904D01*
X119319668Y-77452904D02*
X119205382Y-77414809D01*
X119205382Y-77414809D02*
X119129192Y-77338619D01*
X119129192Y-77338619D02*
X119091097Y-77262428D01*
X119091097Y-77262428D02*
X119053001Y-77110047D01*
X119053001Y-77110047D02*
X119053001Y-76995761D01*
X119053001Y-76995761D02*
X119091097Y-76843380D01*
X119091097Y-76843380D02*
X119129192Y-76767190D01*
X119129192Y-76767190D02*
X119205382Y-76691000D01*
X119205382Y-76691000D02*
X119319668Y-76652904D01*
X119319668Y-76652904D02*
X119510144Y-76652904D01*
X117884392Y-84374409D02*
X117960582Y-84412504D01*
X117960582Y-84412504D02*
X118074868Y-84412504D01*
X118074868Y-84412504D02*
X118189154Y-84374409D01*
X118189154Y-84374409D02*
X118265344Y-84298219D01*
X118265344Y-84298219D02*
X118303439Y-84222028D01*
X118303439Y-84222028D02*
X118341535Y-84069647D01*
X118341535Y-84069647D02*
X118341535Y-83955361D01*
X118341535Y-83955361D02*
X118303439Y-83802980D01*
X118303439Y-83802980D02*
X118265344Y-83726790D01*
X118265344Y-83726790D02*
X118189154Y-83650600D01*
X118189154Y-83650600D02*
X118074868Y-83612504D01*
X118074868Y-83612504D02*
X117998677Y-83612504D01*
X117998677Y-83612504D02*
X117884392Y-83650600D01*
X117884392Y-83650600D02*
X117846296Y-83688695D01*
X117846296Y-83688695D02*
X117846296Y-83955361D01*
X117846296Y-83955361D02*
X117998677Y-83955361D01*
X117503439Y-83612504D02*
X117503439Y-84412504D01*
X117503439Y-84412504D02*
X117046296Y-83612504D01*
X117046296Y-83612504D02*
X117046296Y-84412504D01*
X116665344Y-83612504D02*
X116665344Y-84412504D01*
X116665344Y-84412504D02*
X116474868Y-84412504D01*
X116474868Y-84412504D02*
X116360582Y-84374409D01*
X116360582Y-84374409D02*
X116284392Y-84298219D01*
X116284392Y-84298219D02*
X116246297Y-84222028D01*
X116246297Y-84222028D02*
X116208201Y-84069647D01*
X116208201Y-84069647D02*
X116208201Y-83955361D01*
X116208201Y-83955361D02*
X116246297Y-83802980D01*
X116246297Y-83802980D02*
X116284392Y-83726790D01*
X116284392Y-83726790D02*
X116360582Y-83650600D01*
X116360582Y-83650600D02*
X116474868Y-83612504D01*
X116474868Y-83612504D02*
X116665344Y-83612504D01*
X123586639Y-83612504D02*
X123586639Y-84412504D01*
X123586639Y-84412504D02*
X123396163Y-84412504D01*
X123396163Y-84412504D02*
X123281877Y-84374409D01*
X123281877Y-84374409D02*
X123205687Y-84298219D01*
X123205687Y-84298219D02*
X123167592Y-84222028D01*
X123167592Y-84222028D02*
X123129496Y-84069647D01*
X123129496Y-84069647D02*
X123129496Y-83955361D01*
X123129496Y-83955361D02*
X123167592Y-83802980D01*
X123167592Y-83802980D02*
X123205687Y-83726790D01*
X123205687Y-83726790D02*
X123281877Y-83650600D01*
X123281877Y-83650600D02*
X123396163Y-83612504D01*
X123396163Y-83612504D02*
X123586639Y-83612504D01*
X122824735Y-83841076D02*
X122443782Y-83841076D01*
X122900925Y-83612504D02*
X122634258Y-84412504D01*
X122634258Y-84412504D02*
X122367592Y-83612504D01*
X122215211Y-84412504D02*
X121758068Y-84412504D01*
X121986640Y-83612504D02*
X121986640Y-84412504D01*
X126215592Y-77414809D02*
X126291782Y-77452904D01*
X126291782Y-77452904D02*
X126406068Y-77452904D01*
X126406068Y-77452904D02*
X126520354Y-77414809D01*
X126520354Y-77414809D02*
X126596544Y-77338619D01*
X126596544Y-77338619D02*
X126634639Y-77262428D01*
X126634639Y-77262428D02*
X126672735Y-77110047D01*
X126672735Y-77110047D02*
X126672735Y-76995761D01*
X126672735Y-76995761D02*
X126634639Y-76843380D01*
X126634639Y-76843380D02*
X126596544Y-76767190D01*
X126596544Y-76767190D02*
X126520354Y-76691000D01*
X126520354Y-76691000D02*
X126406068Y-76652904D01*
X126406068Y-76652904D02*
X126329877Y-76652904D01*
X126329877Y-76652904D02*
X126215592Y-76691000D01*
X126215592Y-76691000D02*
X126177496Y-76729095D01*
X126177496Y-76729095D02*
X126177496Y-76995761D01*
X126177496Y-76995761D02*
X126329877Y-76995761D01*
X125834639Y-76652904D02*
X125834639Y-77452904D01*
X125834639Y-77452904D02*
X125377496Y-76652904D01*
X125377496Y-76652904D02*
X125377496Y-77452904D01*
X124996544Y-76652904D02*
X124996544Y-77452904D01*
X124996544Y-77452904D02*
X124806068Y-77452904D01*
X124806068Y-77452904D02*
X124691782Y-77414809D01*
X124691782Y-77414809D02*
X124615592Y-77338619D01*
X124615592Y-77338619D02*
X124577497Y-77262428D01*
X124577497Y-77262428D02*
X124539401Y-77110047D01*
X124539401Y-77110047D02*
X124539401Y-76995761D01*
X124539401Y-76995761D02*
X124577497Y-76843380D01*
X124577497Y-76843380D02*
X124615592Y-76767190D01*
X124615592Y-76767190D02*
X124691782Y-76691000D01*
X124691782Y-76691000D02*
X124806068Y-76652904D01*
X124806068Y-76652904D02*
X124996544Y-76652904D01*
X126634639Y-83917266D02*
X126025116Y-83917266D01*
X126329877Y-83612504D02*
X126329877Y-84222028D01*
X125263211Y-84412504D02*
X125644163Y-84412504D01*
X125644163Y-84412504D02*
X125682259Y-84031552D01*
X125682259Y-84031552D02*
X125644163Y-84069647D01*
X125644163Y-84069647D02*
X125567973Y-84107742D01*
X125567973Y-84107742D02*
X125377497Y-84107742D01*
X125377497Y-84107742D02*
X125301306Y-84069647D01*
X125301306Y-84069647D02*
X125263211Y-84031552D01*
X125263211Y-84031552D02*
X125225116Y-83955361D01*
X125225116Y-83955361D02*
X125225116Y-83764885D01*
X125225116Y-83764885D02*
X125263211Y-83688695D01*
X125263211Y-83688695D02*
X125301306Y-83650600D01*
X125301306Y-83650600D02*
X125377497Y-83612504D01*
X125377497Y-83612504D02*
X125567973Y-83612504D01*
X125567973Y-83612504D02*
X125644163Y-83650600D01*
X125644163Y-83650600D02*
X125682259Y-83688695D01*
X124996544Y-84412504D02*
X124729877Y-83612504D01*
X124729877Y-83612504D02*
X124463211Y-84412504D01*
X120640296Y-83688695D02*
X120678392Y-83650600D01*
X120678392Y-83650600D02*
X120792677Y-83612504D01*
X120792677Y-83612504D02*
X120868868Y-83612504D01*
X120868868Y-83612504D02*
X120983154Y-83650600D01*
X120983154Y-83650600D02*
X121059344Y-83726790D01*
X121059344Y-83726790D02*
X121097439Y-83802980D01*
X121097439Y-83802980D02*
X121135535Y-83955361D01*
X121135535Y-83955361D02*
X121135535Y-84069647D01*
X121135535Y-84069647D02*
X121097439Y-84222028D01*
X121097439Y-84222028D02*
X121059344Y-84298219D01*
X121059344Y-84298219D02*
X120983154Y-84374409D01*
X120983154Y-84374409D02*
X120868868Y-84412504D01*
X120868868Y-84412504D02*
X120792677Y-84412504D01*
X120792677Y-84412504D02*
X120678392Y-84374409D01*
X120678392Y-84374409D02*
X120640296Y-84336314D01*
X119916487Y-83612504D02*
X120297439Y-83612504D01*
X120297439Y-83612504D02*
X120297439Y-84412504D01*
X119649820Y-83612504D02*
X119649820Y-84412504D01*
X119192677Y-83612504D02*
X119535535Y-84069647D01*
X119192677Y-84412504D02*
X119649820Y-83955361D01*
X123624735Y-76777309D02*
X123243782Y-76777309D01*
X123700925Y-76548737D02*
X123434258Y-77348737D01*
X123434258Y-77348737D02*
X123167592Y-76548737D01*
X122443782Y-76624928D02*
X122481878Y-76586833D01*
X122481878Y-76586833D02*
X122596163Y-76548737D01*
X122596163Y-76548737D02*
X122672354Y-76548737D01*
X122672354Y-76548737D02*
X122786640Y-76586833D01*
X122786640Y-76586833D02*
X122862830Y-76663023D01*
X122862830Y-76663023D02*
X122900925Y-76739213D01*
X122900925Y-76739213D02*
X122939021Y-76891594D01*
X122939021Y-76891594D02*
X122939021Y-77005880D01*
X122939021Y-77005880D02*
X122900925Y-77158261D01*
X122900925Y-77158261D02*
X122862830Y-77234452D01*
X122862830Y-77234452D02*
X122786640Y-77310642D01*
X122786640Y-77310642D02*
X122672354Y-77348737D01*
X122672354Y-77348737D02*
X122596163Y-77348737D01*
X122596163Y-77348737D02*
X122481878Y-77310642D01*
X122481878Y-77310642D02*
X122443782Y-77272547D01*
X122215211Y-77348737D02*
X121758068Y-77348737D01*
X121986640Y-76548737D02*
X121986640Y-77348737D01*
X123697116Y-77570833D02*
X121761878Y-77570833D01*
D10*
X119095561Y-88744295D02*
X119171751Y-88744295D01*
X119171751Y-88744295D02*
X119247942Y-88782390D01*
X119247942Y-88782390D02*
X119286037Y-88820485D01*
X119286037Y-88820485D02*
X119324132Y-88896676D01*
X119324132Y-88896676D02*
X119362227Y-89049057D01*
X119362227Y-89049057D02*
X119362227Y-89239533D01*
X119362227Y-89239533D02*
X119324132Y-89391914D01*
X119324132Y-89391914D02*
X119286037Y-89468104D01*
X119286037Y-89468104D02*
X119247942Y-89506200D01*
X119247942Y-89506200D02*
X119171751Y-89544295D01*
X119171751Y-89544295D02*
X119095561Y-89544295D01*
X119095561Y-89544295D02*
X119019370Y-89506200D01*
X119019370Y-89506200D02*
X118981275Y-89468104D01*
X118981275Y-89468104D02*
X118943180Y-89391914D01*
X118943180Y-89391914D02*
X118905084Y-89239533D01*
X118905084Y-89239533D02*
X118905084Y-89049057D01*
X118905084Y-89049057D02*
X118943180Y-88896676D01*
X118943180Y-88896676D02*
X118981275Y-88820485D01*
X118981275Y-88820485D02*
X119019370Y-88782390D01*
X119019370Y-88782390D02*
X119095561Y-88744295D01*
X119705085Y-89468104D02*
X119743180Y-89506200D01*
X119743180Y-89506200D02*
X119705085Y-89544295D01*
X119705085Y-89544295D02*
X119666989Y-89506200D01*
X119666989Y-89506200D02*
X119705085Y-89468104D01*
X119705085Y-89468104D02*
X119705085Y-89544295D01*
X120505084Y-89544295D02*
X120047941Y-89544295D01*
X120276513Y-89544295D02*
X120276513Y-88744295D01*
X120276513Y-88744295D02*
X120200322Y-88858580D01*
X120200322Y-88858580D02*
X120124132Y-88934771D01*
X120124132Y-88934771D02*
X120047941Y-88972866D01*
X120847942Y-89010961D02*
X120847942Y-89810961D01*
X121228894Y-89430009D02*
X121266989Y-89506200D01*
X121266989Y-89506200D02*
X121343180Y-89544295D01*
X120847942Y-89430009D02*
X120886037Y-89506200D01*
X120886037Y-89506200D02*
X120962227Y-89544295D01*
X120962227Y-89544295D02*
X121114608Y-89544295D01*
X121114608Y-89544295D02*
X121190799Y-89506200D01*
X121190799Y-89506200D02*
X121228894Y-89430009D01*
X121228894Y-89430009D02*
X121228894Y-89010961D01*
D11*
X126777818Y-101632095D02*
X126320675Y-101632095D01*
X126549247Y-101632095D02*
X126549247Y-100832095D01*
X126549247Y-100832095D02*
X126473056Y-100946380D01*
X126473056Y-100946380D02*
X126396866Y-101022571D01*
X126396866Y-101022571D02*
X126320675Y-101060666D01*
X127273057Y-100832095D02*
X127349247Y-100832095D01*
X127349247Y-100832095D02*
X127425438Y-100870190D01*
X127425438Y-100870190D02*
X127463533Y-100908285D01*
X127463533Y-100908285D02*
X127501628Y-100984476D01*
X127501628Y-100984476D02*
X127539723Y-101136857D01*
X127539723Y-101136857D02*
X127539723Y-101327333D01*
X127539723Y-101327333D02*
X127501628Y-101479714D01*
X127501628Y-101479714D02*
X127463533Y-101555904D01*
X127463533Y-101555904D02*
X127425438Y-101594000D01*
X127425438Y-101594000D02*
X127349247Y-101632095D01*
X127349247Y-101632095D02*
X127273057Y-101632095D01*
X127273057Y-101632095D02*
X127196866Y-101594000D01*
X127196866Y-101594000D02*
X127158771Y-101555904D01*
X127158771Y-101555904D02*
X127120676Y-101479714D01*
X127120676Y-101479714D02*
X127082580Y-101327333D01*
X127082580Y-101327333D02*
X127082580Y-101136857D01*
X127082580Y-101136857D02*
X127120676Y-100984476D01*
X127120676Y-100984476D02*
X127158771Y-100908285D01*
X127158771Y-100908285D02*
X127196866Y-100870190D01*
X127196866Y-100870190D02*
X127273057Y-100832095D01*
X127882581Y-101632095D02*
X127882581Y-100832095D01*
X128339724Y-101632095D02*
X127996866Y-101174952D01*
X128339724Y-100832095D02*
X127882581Y-101289238D01*
D10*
X111588571Y-109763895D02*
X111131428Y-109763895D01*
X111360000Y-109763895D02*
X111360000Y-108963895D01*
X111360000Y-108963895D02*
X111283809Y-109078180D01*
X111283809Y-109078180D02*
X111207619Y-109154371D01*
X111207619Y-109154371D02*
X111131428Y-109192466D01*
X111931429Y-109763895D02*
X111931429Y-108963895D01*
X112388572Y-109763895D02*
X112045714Y-109306752D01*
X112388572Y-108963895D02*
X111931429Y-109421038D01*
D11*
X108015190Y-90157199D02*
X107977095Y-90233389D01*
X107977095Y-90233389D02*
X107977095Y-90347675D01*
X107977095Y-90347675D02*
X108015190Y-90461961D01*
X108015190Y-90461961D02*
X108091380Y-90538151D01*
X108091380Y-90538151D02*
X108167571Y-90576246D01*
X108167571Y-90576246D02*
X108319952Y-90614342D01*
X108319952Y-90614342D02*
X108434238Y-90614342D01*
X108434238Y-90614342D02*
X108586619Y-90576246D01*
X108586619Y-90576246D02*
X108662809Y-90538151D01*
X108662809Y-90538151D02*
X108739000Y-90461961D01*
X108739000Y-90461961D02*
X108777095Y-90347675D01*
X108777095Y-90347675D02*
X108777095Y-90271484D01*
X108777095Y-90271484D02*
X108739000Y-90157199D01*
X108739000Y-90157199D02*
X108700904Y-90119103D01*
X108700904Y-90119103D02*
X108434238Y-90119103D01*
X108434238Y-90119103D02*
X108434238Y-90271484D01*
X108777095Y-89776246D02*
X107977095Y-89776246D01*
X107977095Y-89776246D02*
X107977095Y-89471484D01*
X107977095Y-89471484D02*
X108015190Y-89395294D01*
X108015190Y-89395294D02*
X108053285Y-89357199D01*
X108053285Y-89357199D02*
X108129476Y-89319103D01*
X108129476Y-89319103D02*
X108243761Y-89319103D01*
X108243761Y-89319103D02*
X108319952Y-89357199D01*
X108319952Y-89357199D02*
X108358047Y-89395294D01*
X108358047Y-89395294D02*
X108396142Y-89471484D01*
X108396142Y-89471484D02*
X108396142Y-89776246D01*
X108777095Y-88976246D02*
X107977095Y-88976246D01*
X107977095Y-88442913D02*
X107977095Y-88290532D01*
X107977095Y-88290532D02*
X108015190Y-88214342D01*
X108015190Y-88214342D02*
X108091380Y-88138151D01*
X108091380Y-88138151D02*
X108243761Y-88100056D01*
X108243761Y-88100056D02*
X108510428Y-88100056D01*
X108510428Y-88100056D02*
X108662809Y-88138151D01*
X108662809Y-88138151D02*
X108739000Y-88214342D01*
X108739000Y-88214342D02*
X108777095Y-88290532D01*
X108777095Y-88290532D02*
X108777095Y-88442913D01*
X108777095Y-88442913D02*
X108739000Y-88519104D01*
X108739000Y-88519104D02*
X108662809Y-88595294D01*
X108662809Y-88595294D02*
X108510428Y-88633390D01*
X108510428Y-88633390D02*
X108243761Y-88633390D01*
X108243761Y-88633390D02*
X108091380Y-88595294D01*
X108091380Y-88595294D02*
X108015190Y-88519104D01*
X108015190Y-88519104D02*
X107977095Y-88442913D01*
X125851000Y-107403629D02*
X125889095Y-107289343D01*
X125889095Y-107289343D02*
X125889095Y-107098867D01*
X125889095Y-107098867D02*
X125851000Y-107022676D01*
X125851000Y-107022676D02*
X125812904Y-106984581D01*
X125812904Y-106984581D02*
X125736714Y-106946486D01*
X125736714Y-106946486D02*
X125660523Y-106946486D01*
X125660523Y-106946486D02*
X125584333Y-106984581D01*
X125584333Y-106984581D02*
X125546238Y-107022676D01*
X125546238Y-107022676D02*
X125508142Y-107098867D01*
X125508142Y-107098867D02*
X125470047Y-107251248D01*
X125470047Y-107251248D02*
X125431952Y-107327438D01*
X125431952Y-107327438D02*
X125393857Y-107365533D01*
X125393857Y-107365533D02*
X125317666Y-107403629D01*
X125317666Y-107403629D02*
X125241476Y-107403629D01*
X125241476Y-107403629D02*
X125165285Y-107365533D01*
X125165285Y-107365533D02*
X125127190Y-107327438D01*
X125127190Y-107327438D02*
X125089095Y-107251248D01*
X125089095Y-107251248D02*
X125089095Y-107060771D01*
X125089095Y-107060771D02*
X125127190Y-106946486D01*
X125889095Y-106603628D02*
X125089095Y-106603628D01*
X125089095Y-106603628D02*
X125089095Y-106413152D01*
X125089095Y-106413152D02*
X125127190Y-106298866D01*
X125127190Y-106298866D02*
X125203380Y-106222676D01*
X125203380Y-106222676D02*
X125279571Y-106184581D01*
X125279571Y-106184581D02*
X125431952Y-106146485D01*
X125431952Y-106146485D02*
X125546238Y-106146485D01*
X125546238Y-106146485D02*
X125698619Y-106184581D01*
X125698619Y-106184581D02*
X125774809Y-106222676D01*
X125774809Y-106222676D02*
X125851000Y-106298866D01*
X125851000Y-106298866D02*
X125889095Y-106413152D01*
X125889095Y-106413152D02*
X125889095Y-106603628D01*
X125889095Y-105384581D02*
X125889095Y-105841724D01*
X125889095Y-105613152D02*
X125089095Y-105613152D01*
X125089095Y-105613152D02*
X125203380Y-105689343D01*
X125203380Y-105689343D02*
X125279571Y-105765533D01*
X125279571Y-105765533D02*
X125317666Y-105841724D01*
X125089095Y-104889342D02*
X125089095Y-104813152D01*
X125089095Y-104813152D02*
X125127190Y-104736961D01*
X125127190Y-104736961D02*
X125165285Y-104698866D01*
X125165285Y-104698866D02*
X125241476Y-104660771D01*
X125241476Y-104660771D02*
X125393857Y-104622676D01*
X125393857Y-104622676D02*
X125584333Y-104622676D01*
X125584333Y-104622676D02*
X125736714Y-104660771D01*
X125736714Y-104660771D02*
X125812904Y-104698866D01*
X125812904Y-104698866D02*
X125851000Y-104736961D01*
X125851000Y-104736961D02*
X125889095Y-104813152D01*
X125889095Y-104813152D02*
X125889095Y-104889342D01*
X125889095Y-104889342D02*
X125851000Y-104965533D01*
X125851000Y-104965533D02*
X125812904Y-105003628D01*
X125812904Y-105003628D02*
X125736714Y-105041723D01*
X125736714Y-105041723D02*
X125584333Y-105079819D01*
X125584333Y-105079819D02*
X125393857Y-105079819D01*
X125393857Y-105079819D02*
X125241476Y-105041723D01*
X125241476Y-105041723D02*
X125165285Y-105003628D01*
X125165285Y-105003628D02*
X125127190Y-104965533D01*
X125127190Y-104965533D02*
X125089095Y-104889342D01*
X125089095Y-104356009D02*
X125089095Y-103860771D01*
X125089095Y-103860771D02*
X125393857Y-104127437D01*
X125393857Y-104127437D02*
X125393857Y-104013152D01*
X125393857Y-104013152D02*
X125431952Y-103936961D01*
X125431952Y-103936961D02*
X125470047Y-103898866D01*
X125470047Y-103898866D02*
X125546238Y-103860771D01*
X125546238Y-103860771D02*
X125736714Y-103860771D01*
X125736714Y-103860771D02*
X125812904Y-103898866D01*
X125812904Y-103898866D02*
X125851000Y-103936961D01*
X125851000Y-103936961D02*
X125889095Y-104013152D01*
X125889095Y-104013152D02*
X125889095Y-104241723D01*
X125889095Y-104241723D02*
X125851000Y-104317914D01*
X125851000Y-104317914D02*
X125812904Y-104356009D01*
X125812904Y-103060770D02*
X125851000Y-103098866D01*
X125851000Y-103098866D02*
X125889095Y-103213151D01*
X125889095Y-103213151D02*
X125889095Y-103289342D01*
X125889095Y-103289342D02*
X125851000Y-103403628D01*
X125851000Y-103403628D02*
X125774809Y-103479818D01*
X125774809Y-103479818D02*
X125698619Y-103517913D01*
X125698619Y-103517913D02*
X125546238Y-103556009D01*
X125546238Y-103556009D02*
X125431952Y-103556009D01*
X125431952Y-103556009D02*
X125279571Y-103517913D01*
X125279571Y-103517913D02*
X125203380Y-103479818D01*
X125203380Y-103479818D02*
X125127190Y-103403628D01*
X125127190Y-103403628D02*
X125089095Y-103289342D01*
X125089095Y-103289342D02*
X125089095Y-103213151D01*
X125089095Y-103213151D02*
X125127190Y-103098866D01*
X125127190Y-103098866D02*
X125165285Y-103060770D01*
X104948319Y-90201332D02*
X103948319Y-90201332D01*
X104424509Y-90201332D02*
X104424509Y-89629904D01*
X104948319Y-89629904D02*
X103948319Y-89629904D01*
X104853080Y-88582285D02*
X104900700Y-88629904D01*
X104900700Y-88629904D02*
X104948319Y-88772761D01*
X104948319Y-88772761D02*
X104948319Y-88867999D01*
X104948319Y-88867999D02*
X104900700Y-89010856D01*
X104900700Y-89010856D02*
X104805461Y-89106094D01*
X104805461Y-89106094D02*
X104710223Y-89153713D01*
X104710223Y-89153713D02*
X104519747Y-89201332D01*
X104519747Y-89201332D02*
X104376890Y-89201332D01*
X104376890Y-89201332D02*
X104186414Y-89153713D01*
X104186414Y-89153713D02*
X104091176Y-89106094D01*
X104091176Y-89106094D02*
X103995938Y-89010856D01*
X103995938Y-89010856D02*
X103948319Y-88867999D01*
X103948319Y-88867999D02*
X103948319Y-88772761D01*
X103948319Y-88772761D02*
X103995938Y-88629904D01*
X103995938Y-88629904D02*
X104043557Y-88582285D01*
X104567366Y-88153713D02*
X104567366Y-87391809D01*
X104900700Y-86963237D02*
X104948319Y-86820380D01*
X104948319Y-86820380D02*
X104948319Y-86582285D01*
X104948319Y-86582285D02*
X104900700Y-86487047D01*
X104900700Y-86487047D02*
X104853080Y-86439428D01*
X104853080Y-86439428D02*
X104757842Y-86391809D01*
X104757842Y-86391809D02*
X104662604Y-86391809D01*
X104662604Y-86391809D02*
X104567366Y-86439428D01*
X104567366Y-86439428D02*
X104519747Y-86487047D01*
X104519747Y-86487047D02*
X104472128Y-86582285D01*
X104472128Y-86582285D02*
X104424509Y-86772761D01*
X104424509Y-86772761D02*
X104376890Y-86867999D01*
X104376890Y-86867999D02*
X104329271Y-86915618D01*
X104329271Y-86915618D02*
X104234033Y-86963237D01*
X104234033Y-86963237D02*
X104138795Y-86963237D01*
X104138795Y-86963237D02*
X104043557Y-86915618D01*
X104043557Y-86915618D02*
X103995938Y-86867999D01*
X103995938Y-86867999D02*
X103948319Y-86772761D01*
X103948319Y-86772761D02*
X103948319Y-86534666D01*
X103948319Y-86534666D02*
X103995938Y-86391809D01*
X104948319Y-85391809D02*
X104472128Y-85725142D01*
X104948319Y-85963237D02*
X103948319Y-85963237D01*
X103948319Y-85963237D02*
X103948319Y-85582285D01*
X103948319Y-85582285D02*
X103995938Y-85487047D01*
X103995938Y-85487047D02*
X104043557Y-85439428D01*
X104043557Y-85439428D02*
X104138795Y-85391809D01*
X104138795Y-85391809D02*
X104281652Y-85391809D01*
X104281652Y-85391809D02*
X104376890Y-85439428D01*
X104376890Y-85439428D02*
X104424509Y-85487047D01*
X104424509Y-85487047D02*
X104472128Y-85582285D01*
X104472128Y-85582285D02*
X104472128Y-85963237D01*
X103948319Y-84772761D02*
X103948319Y-84677523D01*
X103948319Y-84677523D02*
X103995938Y-84582285D01*
X103995938Y-84582285D02*
X104043557Y-84534666D01*
X104043557Y-84534666D02*
X104138795Y-84487047D01*
X104138795Y-84487047D02*
X104329271Y-84439428D01*
X104329271Y-84439428D02*
X104567366Y-84439428D01*
X104567366Y-84439428D02*
X104757842Y-84487047D01*
X104757842Y-84487047D02*
X104853080Y-84534666D01*
X104853080Y-84534666D02*
X104900700Y-84582285D01*
X104900700Y-84582285D02*
X104948319Y-84677523D01*
X104948319Y-84677523D02*
X104948319Y-84772761D01*
X104948319Y-84772761D02*
X104900700Y-84867999D01*
X104900700Y-84867999D02*
X104853080Y-84915618D01*
X104853080Y-84915618D02*
X104757842Y-84963237D01*
X104757842Y-84963237D02*
X104567366Y-85010856D01*
X104567366Y-85010856D02*
X104329271Y-85010856D01*
X104329271Y-85010856D02*
X104138795Y-84963237D01*
X104138795Y-84963237D02*
X104043557Y-84915618D01*
X104043557Y-84915618D02*
X103995938Y-84867999D01*
X103995938Y-84867999D02*
X103948319Y-84772761D01*
X104281652Y-83582285D02*
X104948319Y-83582285D01*
X103900700Y-83820380D02*
X104614985Y-84058475D01*
X104614985Y-84058475D02*
X104614985Y-83439428D01*
D10*
X101793764Y-102347096D02*
X101750907Y-102432811D01*
X101750907Y-102432811D02*
X101750907Y-102561382D01*
X101750907Y-102561382D02*
X101793764Y-102689953D01*
X101793764Y-102689953D02*
X101879478Y-102775668D01*
X101879478Y-102775668D02*
X101965192Y-102818525D01*
X101965192Y-102818525D02*
X102136621Y-102861382D01*
X102136621Y-102861382D02*
X102265192Y-102861382D01*
X102265192Y-102861382D02*
X102436621Y-102818525D01*
X102436621Y-102818525D02*
X102522335Y-102775668D01*
X102522335Y-102775668D02*
X102608050Y-102689953D01*
X102608050Y-102689953D02*
X102650907Y-102561382D01*
X102650907Y-102561382D02*
X102650907Y-102475668D01*
X102650907Y-102475668D02*
X102608050Y-102347096D01*
X102608050Y-102347096D02*
X102565192Y-102304239D01*
X102565192Y-102304239D02*
X102265192Y-102304239D01*
X102265192Y-102304239D02*
X102265192Y-102475668D01*
X102650907Y-101918525D02*
X101750907Y-101918525D01*
X101750907Y-101918525D02*
X102650907Y-101404239D01*
X102650907Y-101404239D02*
X101750907Y-101404239D01*
X102650907Y-100975668D02*
X101750907Y-100975668D01*
X101750907Y-100975668D02*
X101750907Y-100761382D01*
X101750907Y-100761382D02*
X101793764Y-100632811D01*
X101793764Y-100632811D02*
X101879478Y-100547096D01*
X101879478Y-100547096D02*
X101965192Y-100504239D01*
X101965192Y-100504239D02*
X102136621Y-100461382D01*
X102136621Y-100461382D02*
X102265192Y-100461382D01*
X102265192Y-100461382D02*
X102436621Y-100504239D01*
X102436621Y-100504239D02*
X102522335Y-100547096D01*
X102522335Y-100547096D02*
X102608050Y-100632811D01*
X102608050Y-100632811D02*
X102650907Y-100761382D01*
X102650907Y-100761382D02*
X102650907Y-100975668D01*
X102308050Y-94563525D02*
X102308050Y-93877811D01*
X102650907Y-94220668D02*
X101965192Y-94220668D01*
X101750907Y-93020667D02*
X101750907Y-93449239D01*
X101750907Y-93449239D02*
X102179478Y-93492096D01*
X102179478Y-93492096D02*
X102136621Y-93449239D01*
X102136621Y-93449239D02*
X102093764Y-93363525D01*
X102093764Y-93363525D02*
X102093764Y-93149239D01*
X102093764Y-93149239D02*
X102136621Y-93063525D01*
X102136621Y-93063525D02*
X102179478Y-93020667D01*
X102179478Y-93020667D02*
X102265192Y-92977810D01*
X102265192Y-92977810D02*
X102479478Y-92977810D01*
X102479478Y-92977810D02*
X102565192Y-93020667D01*
X102565192Y-93020667D02*
X102608050Y-93063525D01*
X102608050Y-93063525D02*
X102650907Y-93149239D01*
X102650907Y-93149239D02*
X102650907Y-93363525D01*
X102650907Y-93363525D02*
X102608050Y-93449239D01*
X102608050Y-93449239D02*
X102565192Y-93492096D01*
X101750907Y-92720667D02*
X102650907Y-92420667D01*
X102650907Y-92420667D02*
X101750907Y-92120667D01*
D11*
X101739819Y-96884877D02*
X101739819Y-96313449D01*
X102739819Y-96599163D02*
X101739819Y-96599163D01*
X102739819Y-95408687D02*
X102263628Y-95742020D01*
X102739819Y-95980115D02*
X101739819Y-95980115D01*
X101739819Y-95980115D02*
X101739819Y-95599163D01*
X101739819Y-95599163D02*
X101787438Y-95503925D01*
X101787438Y-95503925D02*
X101835057Y-95456306D01*
X101835057Y-95456306D02*
X101930295Y-95408687D01*
X101930295Y-95408687D02*
X102073152Y-95408687D01*
X102073152Y-95408687D02*
X102168390Y-95456306D01*
X102168390Y-95456306D02*
X102216009Y-95503925D01*
X102216009Y-95503925D02*
X102263628Y-95599163D01*
X102263628Y-95599163D02*
X102263628Y-95980115D01*
X102216009Y-99383620D02*
X102216009Y-99050287D01*
X102739819Y-98907430D02*
X102739819Y-99383620D01*
X102739819Y-99383620D02*
X101739819Y-99383620D01*
X101739819Y-99383620D02*
X101739819Y-98907430D01*
X102644580Y-97907430D02*
X102692200Y-97955049D01*
X102692200Y-97955049D02*
X102739819Y-98097906D01*
X102739819Y-98097906D02*
X102739819Y-98193144D01*
X102739819Y-98193144D02*
X102692200Y-98336001D01*
X102692200Y-98336001D02*
X102596961Y-98431239D01*
X102596961Y-98431239D02*
X102501723Y-98478858D01*
X102501723Y-98478858D02*
X102311247Y-98526477D01*
X102311247Y-98526477D02*
X102168390Y-98526477D01*
X102168390Y-98526477D02*
X101977914Y-98478858D01*
X101977914Y-98478858D02*
X101882676Y-98431239D01*
X101882676Y-98431239D02*
X101787438Y-98336001D01*
X101787438Y-98336001D02*
X101739819Y-98193144D01*
X101739819Y-98193144D02*
X101739819Y-98097906D01*
X101739819Y-98097906D02*
X101787438Y-97955049D01*
X101787438Y-97955049D02*
X101835057Y-97907430D01*
D10*
X124085418Y-90738095D02*
X123628275Y-90738095D01*
X123856847Y-90738095D02*
X123856847Y-89938095D01*
X123856847Y-89938095D02*
X123780656Y-90052380D01*
X123780656Y-90052380D02*
X123704466Y-90128571D01*
X123704466Y-90128571D02*
X123628275Y-90166666D01*
X124580657Y-89938095D02*
X124656847Y-89938095D01*
X124656847Y-89938095D02*
X124733038Y-89976190D01*
X124733038Y-89976190D02*
X124771133Y-90014285D01*
X124771133Y-90014285D02*
X124809228Y-90090476D01*
X124809228Y-90090476D02*
X124847323Y-90242857D01*
X124847323Y-90242857D02*
X124847323Y-90433333D01*
X124847323Y-90433333D02*
X124809228Y-90585714D01*
X124809228Y-90585714D02*
X124771133Y-90661904D01*
X124771133Y-90661904D02*
X124733038Y-90700000D01*
X124733038Y-90700000D02*
X124656847Y-90738095D01*
X124656847Y-90738095D02*
X124580657Y-90738095D01*
X124580657Y-90738095D02*
X124504466Y-90700000D01*
X124504466Y-90700000D02*
X124466371Y-90661904D01*
X124466371Y-90661904D02*
X124428276Y-90585714D01*
X124428276Y-90585714D02*
X124390180Y-90433333D01*
X124390180Y-90433333D02*
X124390180Y-90242857D01*
X124390180Y-90242857D02*
X124428276Y-90090476D01*
X124428276Y-90090476D02*
X124466371Y-90014285D01*
X124466371Y-90014285D02*
X124504466Y-89976190D01*
X124504466Y-89976190D02*
X124580657Y-89938095D01*
X125190181Y-90738095D02*
X125190181Y-89938095D01*
X125647324Y-90738095D02*
X125304466Y-90280952D01*
X125647324Y-89938095D02*
X125190181Y-90395238D01*
X109419895Y-98437570D02*
X109419895Y-98361380D01*
X109419895Y-98361380D02*
X109457990Y-98285189D01*
X109457990Y-98285189D02*
X109496085Y-98247094D01*
X109496085Y-98247094D02*
X109572276Y-98208999D01*
X109572276Y-98208999D02*
X109724657Y-98170904D01*
X109724657Y-98170904D02*
X109915133Y-98170904D01*
X109915133Y-98170904D02*
X110067514Y-98208999D01*
X110067514Y-98208999D02*
X110143704Y-98247094D01*
X110143704Y-98247094D02*
X110181800Y-98285189D01*
X110181800Y-98285189D02*
X110219895Y-98361380D01*
X110219895Y-98361380D02*
X110219895Y-98437570D01*
X110219895Y-98437570D02*
X110181800Y-98513761D01*
X110181800Y-98513761D02*
X110143704Y-98551856D01*
X110143704Y-98551856D02*
X110067514Y-98589951D01*
X110067514Y-98589951D02*
X109915133Y-98628047D01*
X109915133Y-98628047D02*
X109724657Y-98628047D01*
X109724657Y-98628047D02*
X109572276Y-98589951D01*
X109572276Y-98589951D02*
X109496085Y-98551856D01*
X109496085Y-98551856D02*
X109457990Y-98513761D01*
X109457990Y-98513761D02*
X109419895Y-98437570D01*
X110143704Y-97828046D02*
X110181800Y-97789951D01*
X110181800Y-97789951D02*
X110219895Y-97828046D01*
X110219895Y-97828046D02*
X110181800Y-97866142D01*
X110181800Y-97866142D02*
X110143704Y-97828046D01*
X110143704Y-97828046D02*
X110219895Y-97828046D01*
X110219895Y-97028047D02*
X110219895Y-97485190D01*
X110219895Y-97256618D02*
X109419895Y-97256618D01*
X109419895Y-97256618D02*
X109534180Y-97332809D01*
X109534180Y-97332809D02*
X109610371Y-97408999D01*
X109610371Y-97408999D02*
X109648466Y-97485190D01*
X109686561Y-96685189D02*
X110486561Y-96685189D01*
X110105609Y-96304237D02*
X110181800Y-96266142D01*
X110181800Y-96266142D02*
X110219895Y-96189951D01*
X110105609Y-96685189D02*
X110181800Y-96647094D01*
X110181800Y-96647094D02*
X110219895Y-96570904D01*
X110219895Y-96570904D02*
X110219895Y-96418523D01*
X110219895Y-96418523D02*
X110181800Y-96342332D01*
X110181800Y-96342332D02*
X110105609Y-96304237D01*
X110105609Y-96304237D02*
X109686561Y-96304237D01*
D11*
X108627104Y-104297047D02*
X108627104Y-103820857D01*
X108912819Y-104392285D02*
X107912819Y-104058952D01*
X107912819Y-104058952D02*
X108912819Y-103725619D01*
X108817580Y-102820857D02*
X108865200Y-102868476D01*
X108865200Y-102868476D02*
X108912819Y-103011333D01*
X108912819Y-103011333D02*
X108912819Y-103106571D01*
X108912819Y-103106571D02*
X108865200Y-103249428D01*
X108865200Y-103249428D02*
X108769961Y-103344666D01*
X108769961Y-103344666D02*
X108674723Y-103392285D01*
X108674723Y-103392285D02*
X108484247Y-103439904D01*
X108484247Y-103439904D02*
X108341390Y-103439904D01*
X108341390Y-103439904D02*
X108150914Y-103392285D01*
X108150914Y-103392285D02*
X108055676Y-103344666D01*
X108055676Y-103344666D02*
X107960438Y-103249428D01*
X107960438Y-103249428D02*
X107912819Y-103106571D01*
X107912819Y-103106571D02*
X107912819Y-103011333D01*
X107912819Y-103011333D02*
X107960438Y-102868476D01*
X107960438Y-102868476D02*
X108008057Y-102820857D01*
X107912819Y-102535142D02*
X107912819Y-101963714D01*
X108912819Y-102249428D02*
X107912819Y-102249428D01*
D12*
%TO.C,G\u002A\u002A\u002A*%
G36*
X134715941Y-86030353D02*
G01*
X134807835Y-86051843D01*
X134893577Y-86089646D01*
X134969784Y-86143761D01*
X134994571Y-86167588D01*
X135026035Y-86200429D01*
X135378371Y-86200429D01*
X135378371Y-93457572D01*
X135008412Y-93457572D01*
X134967952Y-93494126D01*
X134887469Y-93552997D01*
X134798791Y-93593424D01*
X134704961Y-93615407D01*
X134657521Y-93617158D01*
X134609025Y-93618948D01*
X134514026Y-93604045D01*
X134423010Y-93570699D01*
X134339021Y-93518910D01*
X134309284Y-93494126D01*
X134268823Y-93457572D01*
X134148435Y-93457572D01*
X128121228Y-93457572D01*
X128121228Y-88300318D01*
X128467044Y-88300318D01*
X128476736Y-88375630D01*
X128504439Y-88440652D01*
X128548963Y-88493473D01*
X128609117Y-88532185D01*
X128612597Y-88533753D01*
X128626900Y-88538102D01*
X128661222Y-88547471D01*
X128714634Y-88561622D01*
X128786205Y-88580318D01*
X128875006Y-88603323D01*
X128980106Y-88630399D01*
X129100577Y-88661309D01*
X129235487Y-88695817D01*
X129383907Y-88733684D01*
X129544907Y-88774675D01*
X129717558Y-88818552D01*
X129900929Y-88865078D01*
X130094090Y-88914016D01*
X130296111Y-88965129D01*
X130506063Y-89018181D01*
X130723016Y-89072933D01*
X130946039Y-89129149D01*
X131149886Y-89180474D01*
X131376960Y-89237624D01*
X131598490Y-89293394D01*
X131813566Y-89347555D01*
X132021278Y-89399877D01*
X132220716Y-89450131D01*
X132410971Y-89498086D01*
X132591133Y-89543513D01*
X132760291Y-89586182D01*
X132917536Y-89625864D01*
X133061957Y-89662329D01*
X133192646Y-89695348D01*
X133308692Y-89724690D01*
X133409185Y-89750126D01*
X133493216Y-89771426D01*
X133559874Y-89788361D01*
X133608250Y-89800701D01*
X133637434Y-89808217D01*
X133646553Y-89810675D01*
X133636580Y-89813923D01*
X133606787Y-89823018D01*
X133558068Y-89837695D01*
X133491318Y-89857688D01*
X133407431Y-89882732D01*
X133307302Y-89912560D01*
X133191827Y-89946908D01*
X133061900Y-89985510D01*
X132918416Y-90028101D01*
X132762270Y-90074414D01*
X132594356Y-90124185D01*
X132415569Y-90177148D01*
X132226805Y-90233038D01*
X132028957Y-90291588D01*
X131822921Y-90352534D01*
X131609592Y-90415610D01*
X131389865Y-90480551D01*
X131168440Y-90545966D01*
X130942485Y-90612723D01*
X130721622Y-90678010D01*
X130506774Y-90741553D01*
X130298863Y-90803078D01*
X130098811Y-90862311D01*
X129907540Y-90918978D01*
X129725975Y-90972805D01*
X129555036Y-91023517D01*
X129395646Y-91070842D01*
X129248728Y-91114504D01*
X129115205Y-91154230D01*
X128995998Y-91189746D01*
X128892031Y-91220778D01*
X128804225Y-91247051D01*
X128733504Y-91268292D01*
X128680789Y-91284228D01*
X128647003Y-91294583D01*
X128633343Y-91298978D01*
X128567195Y-91334135D01*
X128516795Y-91383498D01*
X128483363Y-91445288D01*
X128468123Y-91517726D01*
X128467281Y-91540693D01*
X128476863Y-91614769D01*
X128504500Y-91680086D01*
X128548523Y-91733763D01*
X128599280Y-91768969D01*
X128611448Y-91772733D01*
X128643414Y-91781849D01*
X128694125Y-91796032D01*
X128762528Y-91814996D01*
X128847571Y-91838455D01*
X128948202Y-91866123D01*
X129063367Y-91897714D01*
X129192015Y-91932943D01*
X129333093Y-91971523D01*
X129485548Y-92013169D01*
X129648328Y-92057596D01*
X129820381Y-92104516D01*
X130000654Y-92153645D01*
X130188095Y-92204697D01*
X130381651Y-92257385D01*
X130580269Y-92311424D01*
X130782898Y-92366529D01*
X130988484Y-92422413D01*
X131195976Y-92478790D01*
X131404320Y-92535374D01*
X131612465Y-92591881D01*
X131819358Y-92648024D01*
X132023946Y-92703517D01*
X132225177Y-92758074D01*
X132421999Y-92811410D01*
X132613358Y-92863238D01*
X132798203Y-92913273D01*
X132975482Y-92961230D01*
X133144140Y-93006822D01*
X133303127Y-93049763D01*
X133451390Y-93089768D01*
X133587875Y-93126550D01*
X133711532Y-93159825D01*
X133821306Y-93189306D01*
X133916147Y-93214707D01*
X133995001Y-93235743D01*
X134056815Y-93252127D01*
X134100538Y-93263575D01*
X134125117Y-93269799D01*
X134129122Y-93270715D01*
X134148435Y-93273681D01*
X134155560Y-93268216D01*
X134153638Y-93249122D01*
X134150720Y-93234991D01*
X134143881Y-93179887D01*
X134142803Y-93114097D01*
X134143267Y-93106891D01*
X134382083Y-93106891D01*
X134387526Y-93171047D01*
X134408617Y-93232077D01*
X134444476Y-93286711D01*
X134494223Y-93331679D01*
X134556977Y-93363713D01*
X134588115Y-93372783D01*
X134657521Y-93378489D01*
X134723568Y-93364576D01*
X134783223Y-93333020D01*
X134833452Y-93285797D01*
X134871223Y-93224884D01*
X134888068Y-93177324D01*
X134896060Y-93131362D01*
X134893759Y-93086674D01*
X134880452Y-93034810D01*
X134874602Y-93017698D01*
X134851235Y-92975702D01*
X134814086Y-92933835D01*
X134770040Y-92898507D01*
X134725979Y-92876130D01*
X134720937Y-92874597D01*
X134643442Y-92862961D01*
X134570788Y-92872027D01*
X134504259Y-92901524D01*
X134468447Y-92928357D01*
X134421663Y-92982276D01*
X134393168Y-93042877D01*
X134382083Y-93106891D01*
X134143267Y-93106891D01*
X134147119Y-93047091D01*
X134156462Y-92988339D01*
X134160965Y-92971098D01*
X134176648Y-92930284D01*
X134199805Y-92882885D01*
X134223071Y-92842969D01*
X134243731Y-92810093D01*
X134258263Y-92785198D01*
X134264016Y-92772871D01*
X134263905Y-92772334D01*
X134253324Y-92769329D01*
X134222835Y-92760946D01*
X134173382Y-92747442D01*
X134105907Y-92729070D01*
X134021354Y-92706088D01*
X133920666Y-92678750D01*
X133804786Y-92647313D01*
X133674657Y-92612031D01*
X133531223Y-92573161D01*
X133375426Y-92530958D01*
X133208211Y-92485677D01*
X133030520Y-92437574D01*
X132843296Y-92386906D01*
X132647483Y-92333926D01*
X132444023Y-92278892D01*
X132233861Y-92222058D01*
X132017938Y-92163680D01*
X131968878Y-92150418D01*
X131751877Y-92091744D01*
X131540473Y-92034553D01*
X131335605Y-91979103D01*
X131138213Y-91925648D01*
X130949238Y-91874443D01*
X130769619Y-91825744D01*
X130600297Y-91779806D01*
X130442211Y-91736886D01*
X130296302Y-91697238D01*
X130163510Y-91661118D01*
X130044775Y-91628781D01*
X129941036Y-91600483D01*
X129853234Y-91576479D01*
X129782310Y-91557025D01*
X129729202Y-91542376D01*
X129694851Y-91532788D01*
X129680197Y-91528516D01*
X129679711Y-91528313D01*
X129690157Y-91525062D01*
X129720427Y-91515957D01*
X129769633Y-91501262D01*
X129836886Y-91481240D01*
X129921296Y-91456155D01*
X130021974Y-91426269D01*
X130138032Y-91391847D01*
X130268579Y-91353151D01*
X130412726Y-91310445D01*
X130569585Y-91263993D01*
X130738266Y-91214057D01*
X130917879Y-91160901D01*
X131107537Y-91104789D01*
X131306348Y-91045984D01*
X131513425Y-90984749D01*
X131727877Y-90921348D01*
X131948817Y-90856043D01*
X132175353Y-90789100D01*
X132207674Y-90779550D01*
X132435302Y-90712264D01*
X132657646Y-90646484D01*
X132873806Y-90582479D01*
X133082879Y-90520516D01*
X133283964Y-90460865D01*
X133476160Y-90403796D01*
X133658565Y-90349576D01*
X133830277Y-90298475D01*
X133990395Y-90250761D01*
X134138017Y-90206704D01*
X134272242Y-90166572D01*
X134392169Y-90130635D01*
X134496895Y-90099160D01*
X134585519Y-90072417D01*
X134657140Y-90050675D01*
X134710857Y-90034202D01*
X134745766Y-90023268D01*
X134760968Y-90018142D01*
X134761423Y-90017931D01*
X134808874Y-89986362D01*
X134844672Y-89947097D01*
X134864640Y-89915395D01*
X134885203Y-89860502D01*
X134892895Y-89796604D01*
X134887443Y-89732243D01*
X134872112Y-89683210D01*
X134833221Y-89622898D01*
X134779628Y-89576221D01*
X134746611Y-89558384D01*
X134732314Y-89554042D01*
X134697996Y-89544683D01*
X134657521Y-89533967D01*
X134644584Y-89530542D01*
X134573008Y-89511857D01*
X134484195Y-89488865D01*
X134379074Y-89461800D01*
X134258573Y-89430901D01*
X134123620Y-89396403D01*
X133975144Y-89358543D01*
X133814072Y-89317557D01*
X133641335Y-89273682D01*
X133457859Y-89227155D01*
X133264573Y-89178211D01*
X133062405Y-89127087D01*
X132852284Y-89074021D01*
X132635138Y-89019247D01*
X132411895Y-88963003D01*
X132200961Y-88909922D01*
X131973568Y-88852716D01*
X131751754Y-88796890D01*
X131536427Y-88742671D01*
X131328493Y-88690290D01*
X131128857Y-88639974D01*
X130938426Y-88591954D01*
X130758105Y-88546457D01*
X130588800Y-88503714D01*
X130431419Y-88463952D01*
X130286865Y-88427402D01*
X130156046Y-88394291D01*
X130039867Y-88364849D01*
X129939235Y-88339305D01*
X129855055Y-88317887D01*
X129788234Y-88300826D01*
X129739677Y-88288349D01*
X129710291Y-88280686D01*
X129700957Y-88278071D01*
X129711378Y-88274778D01*
X129741553Y-88265553D01*
X129790550Y-88250678D01*
X129857437Y-88230433D01*
X129941282Y-88205099D01*
X130041152Y-88174957D01*
X130156116Y-88140287D01*
X130285242Y-88101370D01*
X130427597Y-88058487D01*
X130582249Y-88011919D01*
X130748267Y-87961946D01*
X130924718Y-87908849D01*
X131110671Y-87852909D01*
X131305192Y-87794406D01*
X131507351Y-87733623D01*
X131716215Y-87670838D01*
X131930852Y-87606333D01*
X131992822Y-87587712D01*
X132209020Y-87522740D01*
X132419757Y-87459387D01*
X132624098Y-87397937D01*
X132821108Y-87338671D01*
X133009851Y-87281872D01*
X133189393Y-87227820D01*
X133358798Y-87176799D01*
X133517130Y-87129090D01*
X133663455Y-87084975D01*
X133796836Y-87044736D01*
X133916340Y-87008655D01*
X134021030Y-86977015D01*
X134109972Y-86950096D01*
X134182229Y-86928182D01*
X134236868Y-86911554D01*
X134272951Y-86900495D01*
X134289545Y-86895285D01*
X134290571Y-86894913D01*
X134288530Y-86885016D01*
X134274814Y-86864232D01*
X134256492Y-86841845D01*
X134201895Y-86764101D01*
X134163302Y-86675149D01*
X134142292Y-86579857D01*
X134140866Y-86508506D01*
X134382083Y-86508506D01*
X134387526Y-86572663D01*
X134408617Y-86633692D01*
X134444476Y-86688326D01*
X134494223Y-86733295D01*
X134556977Y-86765328D01*
X134588115Y-86774398D01*
X134657521Y-86780105D01*
X134723568Y-86766192D01*
X134783223Y-86734635D01*
X134833452Y-86687412D01*
X134871223Y-86626500D01*
X134888068Y-86578940D01*
X134896060Y-86532978D01*
X134893759Y-86488290D01*
X134880452Y-86436426D01*
X134874602Y-86419314D01*
X134851235Y-86377317D01*
X134814086Y-86335450D01*
X134770040Y-86300123D01*
X134725979Y-86277746D01*
X134720937Y-86276213D01*
X134643442Y-86264576D01*
X134570788Y-86273643D01*
X134504259Y-86303139D01*
X134468447Y-86329973D01*
X134421663Y-86383892D01*
X134393168Y-86444493D01*
X134382083Y-86508506D01*
X134140866Y-86508506D01*
X134140375Y-86483912D01*
X134142768Y-86437454D01*
X134140426Y-86411465D01*
X134135604Y-86405617D01*
X134124490Y-86408677D01*
X134093733Y-86417652D01*
X134044371Y-86432228D01*
X133977445Y-86452094D01*
X133893991Y-86476938D01*
X133795049Y-86506448D01*
X133681659Y-86540312D01*
X133554858Y-86578217D01*
X133415686Y-86619852D01*
X133265181Y-86664905D01*
X133104382Y-86713064D01*
X132934328Y-86764017D01*
X132756058Y-86817451D01*
X132570610Y-86873056D01*
X132379024Y-86930519D01*
X132182338Y-86989527D01*
X131981591Y-87049770D01*
X131777822Y-87110934D01*
X131572069Y-87172709D01*
X131365372Y-87234781D01*
X131158769Y-87296840D01*
X130953299Y-87358572D01*
X130750001Y-87419667D01*
X130549914Y-87479811D01*
X130354076Y-87538694D01*
X130163526Y-87596003D01*
X129979303Y-87651426D01*
X129802446Y-87704651D01*
X129633994Y-87755366D01*
X129474985Y-87803260D01*
X129326459Y-87848019D01*
X129189453Y-87889333D01*
X129065008Y-87926889D01*
X128954161Y-87960375D01*
X128857952Y-87989480D01*
X128777419Y-88013891D01*
X128713601Y-88033296D01*
X128667537Y-88047383D01*
X128640266Y-88055841D01*
X128632984Y-88058218D01*
X128567181Y-88093515D01*
X128516749Y-88143203D01*
X128483150Y-88205146D01*
X128467848Y-88277211D01*
X128467044Y-88300318D01*
X128121228Y-88300318D01*
X128121228Y-86200429D01*
X134251201Y-86200429D01*
X134282665Y-86167588D01*
X134354546Y-86107516D01*
X134437198Y-86063757D01*
X134527238Y-86036310D01*
X134621281Y-86025175D01*
X134715941Y-86030353D01*
G37*
D13*
%TO.C,J2*%
X118335200Y-115815600D02*
X118335200Y-118575600D01*
X120985200Y-115815600D02*
X118335200Y-115815600D01*
X120985200Y-115815600D02*
X120985200Y-118575600D01*
X120985200Y-118575600D02*
X118335200Y-118575600D01*
X122255200Y-115815600D02*
X123635200Y-115815600D01*
X123635200Y-115815600D02*
X123635200Y-117195600D01*
%TO.C,U2*%
X120294400Y-92949900D02*
X118344400Y-92949900D01*
X120294400Y-92949900D02*
X122244400Y-92949900D01*
X120294400Y-101819900D02*
X118344400Y-101819900D01*
X120294400Y-101819900D02*
X122244400Y-101819900D01*
X117594400Y-93014900D02*
X117354400Y-92684900D01*
X117834400Y-92684900D01*
X117594400Y-93014900D01*
G36*
X117594400Y-93014900D02*
G01*
X117354400Y-92684900D01*
X117834400Y-92684900D01*
X117594400Y-93014900D01*
G37*
%TO.C,C2*%
X129950800Y-82575348D02*
X129950800Y-83997852D01*
X131770800Y-82575348D02*
X131770800Y-83997852D01*
%TO.C,R1*%
X105516000Y-107052064D02*
X105516000Y-105597936D01*
X107336000Y-107052064D02*
X107336000Y-105597936D01*
%TO.C,J3*%
X119549400Y-103547400D02*
X120929400Y-103547400D01*
X119549400Y-104927400D02*
X119549400Y-103547400D01*
X119549400Y-106197400D02*
X119549400Y-113927400D01*
X119549400Y-106197400D02*
X122309400Y-106197400D01*
X119549400Y-113927400D02*
X122309400Y-113927400D01*
X122309400Y-106197400D02*
X122309400Y-113927400D01*
%TO.C,D2*%
X112403000Y-101614500D02*
X112403000Y-105674500D01*
X112403000Y-105674500D02*
X114673000Y-105674500D01*
X114378000Y-103844500D02*
X112758000Y-103844500D01*
X114673000Y-105674500D02*
X114673000Y-101614500D01*
X113568000Y-103814500D02*
X112778000Y-102614500D01*
X114378000Y-102614500D01*
X113568000Y-103814500D01*
G36*
X113568000Y-103814500D02*
G01*
X112778000Y-102614500D01*
X114378000Y-102614500D01*
X113568000Y-103814500D01*
G37*
%TO.C,SB1*%
X112549400Y-76106600D02*
X129438400Y-76106600D01*
X112549400Y-84895600D02*
X112549400Y-76106600D01*
X116247400Y-77842600D02*
X126627400Y-77842600D01*
X116247400Y-80492600D02*
X116247400Y-77842600D01*
X116247400Y-83142600D02*
X116247400Y-81762600D01*
X117627400Y-83142600D02*
X116247400Y-83142600D01*
X118897400Y-80492600D02*
X116247400Y-80492600D01*
X118897400Y-83142600D02*
X118897400Y-80492600D01*
X118897400Y-83142600D02*
X126627400Y-83142600D01*
X118897400Y-84895600D02*
X112549400Y-84895600D01*
X126627400Y-83142600D02*
X126627400Y-77842600D01*
X129438400Y-76106600D02*
X129438400Y-84895600D01*
X129438400Y-84895600D02*
X123469400Y-84895600D01*
%TO.C,J1*%
X132020800Y-102836200D02*
X133400800Y-102836200D01*
X132020800Y-104216200D02*
X132020800Y-102836200D01*
X132020800Y-105486200D02*
X132020800Y-110676200D01*
X132020800Y-105486200D02*
X134780800Y-105486200D01*
X132020800Y-110676200D02*
X134780800Y-110676200D01*
X134780800Y-105486200D02*
X134780800Y-110676200D01*
%TO.C,C4*%
X118694148Y-90174400D02*
X120116652Y-90174400D01*
X118694148Y-91994400D02*
X120116652Y-91994400D01*
%TO.C,R2*%
X125556600Y-98872064D02*
X125556600Y-97417936D01*
X127376600Y-98872064D02*
X127376600Y-97417936D01*
%TO.C,R3*%
X111032936Y-106659000D02*
X112487064Y-106659000D01*
X111032936Y-108479000D02*
X112487064Y-108479000D01*
%TO.C,J5*%
X109414800Y-87977200D02*
X109414800Y-90737200D01*
X112064800Y-87977200D02*
X109414800Y-87977200D01*
X112064800Y-87977200D02*
X112064800Y-90737200D01*
X112064800Y-90737200D02*
X109414800Y-90737200D01*
X113334800Y-87977200D02*
X114714800Y-87977200D01*
X114714800Y-87977200D02*
X114714800Y-89357200D01*
%TO.C,D3*%
X126254000Y-107565800D02*
X126254000Y-103555800D01*
X126254000Y-107565800D02*
X128254000Y-107565800D01*
X128254000Y-107565800D02*
X128254000Y-103555800D01*
%TO.C,A1*%
X103113500Y-92299000D02*
X104493500Y-92299000D01*
X103113500Y-93679000D02*
X103113500Y-92299000D01*
X103113500Y-94949000D02*
X103113500Y-102679000D01*
X103113500Y-94949000D02*
X105873500Y-94949000D01*
X103113500Y-102679000D02*
X105873500Y-102679000D01*
X105873500Y-94949000D02*
X105873500Y-102679000D01*
X89507500Y-76788000D02*
X101318500Y-76788000D01*
X101318500Y-92155000D01*
X89507500Y-92155000D01*
X89507500Y-76788000D01*
X89507500Y-104093000D02*
X101318500Y-104093000D01*
X101318500Y-119460000D01*
X89507500Y-119460000D01*
X89507500Y-104093000D01*
X101318500Y-76153000D02*
X103096500Y-76153000D01*
X103096500Y-120095000D01*
X101318500Y-120095000D01*
X101318500Y-76153000D01*
%TO.C,J4*%
X112970800Y-115468400D02*
X112970800Y-110278400D01*
X115730800Y-110278400D02*
X112970800Y-110278400D01*
X115730800Y-115468400D02*
X112970800Y-115468400D01*
X115730800Y-115468400D02*
X115730800Y-110278400D01*
X115730800Y-116738400D02*
X115730800Y-118118400D01*
X115730800Y-118118400D02*
X114350800Y-118118400D01*
%TO.C,R8*%
X125110864Y-87685200D02*
X123656736Y-87685200D01*
X125110864Y-89505200D02*
X123656736Y-89505200D01*
%TO.C,CONN1*%
X125061200Y-108906800D02*
X126441200Y-108906800D01*
X125061200Y-110286800D02*
X125061200Y-108906800D01*
X125061200Y-111556800D02*
X125061200Y-116746800D01*
X125061200Y-111556800D02*
X127711200Y-111556800D01*
X125061200Y-116746800D02*
X130361200Y-116746800D01*
X127711200Y-108906800D02*
X130361200Y-108906800D01*
X127711200Y-111556800D02*
X127711200Y-108906800D01*
X130361200Y-108906800D02*
X130361200Y-116746800D01*
%TO.C,C1*%
X107040000Y-96824748D02*
X107040000Y-98247252D01*
X108860000Y-96824748D02*
X108860000Y-98247252D01*
%TO.C,D1*%
X109101000Y-101578000D02*
X109101000Y-105638000D01*
X109101000Y-105638000D02*
X111371000Y-105638000D01*
X111076000Y-103808000D02*
X109456000Y-103808000D01*
X111371000Y-105638000D02*
X111371000Y-101578000D01*
X110266000Y-103778000D02*
X109476000Y-102578000D01*
X111076000Y-102578000D01*
X110266000Y-103778000D01*
G36*
X110266000Y-103778000D02*
G01*
X109476000Y-102578000D01*
X111076000Y-102578000D01*
X110266000Y-103778000D01*
G37*
%TD*%
M02*
