%TF.GenerationSoftware,KiCad,Pcbnew,9.0.4*%
%TF.CreationDate,2025-12-10T09:51:26+01:00*%
%TF.ProjectId,SB_Mod_SR04,53425f4d-6f64-45f5-9352-30342e6b6963,rev?*%
%TF.SameCoordinates,Original*%
%TF.FileFunction,Copper,L3,Inr*%
%TF.FilePolarity,Positive*%
%FSLAX46Y46*%
G04 Gerber Fmt 4.6, Leading zero omitted, Abs format (unit mm)*
G04 Created by KiCad (PCBNEW 9.0.4) date 2025-12-10 09:51:26*
%MOMM*%
%LPD*%
G01*
G04 APERTURE LIST*
%TA.AperFunction,ComponentPad*%
%ADD10R,1.700000X1.700000*%
%TD*%
%TA.AperFunction,ComponentPad*%
%ADD11C,1.700000*%
%TD*%
%TA.AperFunction,ComponentPad*%
%ADD12C,6.400000*%
%TD*%
%TA.AperFunction,ViaPad*%
%ADD13C,0.600000*%
%TD*%
G04 APERTURE END LIST*
D10*
%TO.N,GND*%
%TO.C,J2*%
X122255200Y-117195600D03*
D11*
X119715200Y-117195600D03*
%TD*%
D10*
%TO.N,/SB_ACT*%
%TO.C,J3*%
X120929400Y-104927400D03*
D11*
%TO.N,/SB_DAT*%
X120929400Y-107467400D03*
%TO.N,/SB_CLK*%
X120929400Y-110007400D03*
%TO.N,GND*%
X120929400Y-112547400D03*
%TD*%
D10*
%TO.N,GND*%
%TO.C,SB1*%
X117627400Y-81762600D03*
D11*
%TO.N,+5V*%
X117627400Y-79222600D03*
%TO.N,/SB_CLK*%
X120167400Y-81762600D03*
%TO.N,GND*%
X120167400Y-79222600D03*
%TO.N,/SB_DAT*%
X122707400Y-81762600D03*
%TO.N,/SB_ACT*%
X122707400Y-79222600D03*
%TO.N,+5V*%
X125247400Y-81762600D03*
%TO.N,GND*%
X125247400Y-79222600D03*
%TD*%
D10*
%TO.N,/UPDI*%
%TO.C,J1*%
X133400800Y-104216200D03*
D11*
%TO.N,/PROG_TX*%
X133400800Y-106756200D03*
%TO.N,GND*%
X133400800Y-109296200D03*
%TD*%
D12*
%TO.N,GND*%
%TO.C,H3*%
X108600000Y-114500000D03*
%TD*%
D10*
%TO.N,/A6*%
%TO.C,J5*%
X113334800Y-89357200D03*
D11*
%TO.N,/A7*%
X110794800Y-89357200D03*
%TD*%
D10*
%TO.N,+5V*%
%TO.C,A1*%
X104493500Y-93679000D03*
D11*
%TO.N,/TRIG*%
X104493500Y-96219000D03*
%TO.N,/ECHO*%
X104493500Y-98759000D03*
%TO.N,GND*%
X104493500Y-101299000D03*
%TD*%
D10*
%TO.N,/TX*%
%TO.C,J4*%
X114350800Y-116738400D03*
D11*
%TO.N,/RX*%
X114350800Y-114198400D03*
%TO.N,GND*%
X114350800Y-111658400D03*
%TD*%
D12*
%TO.N,GND*%
%TO.C,H1*%
X108600000Y-82000000D03*
%TD*%
D10*
%TO.N,/UPDI*%
%TO.C,CONN1*%
X126441200Y-110286800D03*
D11*
%TO.N,+5V*%
X128981200Y-110286800D03*
%TO.N,unconnected-(CONN1-nc-Pad3)*%
X126441200Y-112826800D03*
%TO.N,unconnected-(CONN1-nc-Pad4)*%
X128981200Y-112826800D03*
%TO.N,unconnected-(CONN1-nc-Pad5)*%
X126441200Y-115366800D03*
%TO.N,GND*%
X128981200Y-115366800D03*
%TD*%
D12*
%TO.N,GND*%
%TO.C,H2*%
X131572000Y-98250000D03*
%TD*%
D13*
%TO.N,GND*%
X128930400Y-105232200D03*
X107950000Y-100838000D03*
X104775000Y-91186000D03*
X124002800Y-104368600D03*
X109499400Y-94310200D03*
X132664200Y-84810600D03*
X114909600Y-106502200D03*
X123190000Y-91059000D03*
X125780800Y-101828600D03*
X128981200Y-84404200D03*
X126771400Y-92354400D03*
X108458000Y-107823000D03*
X113969800Y-99593400D03*
X113004600Y-96316800D03*
X126847600Y-84404200D03*
%TO.N,+5V*%
X116459000Y-91135200D03*
X128981200Y-81737200D03*
X121539000Y-88569800D03*
X127838200Y-95453200D03*
X132435600Y-82880200D03*
X116179600Y-93573600D03*
%TO.N,/ACT_LED*%
X111887000Y-103149400D03*
X122783600Y-102768400D03*
%TO.N,/ALERT_LED*%
X124739400Y-100888800D03*
X115341400Y-101727000D03*
%TO.N,/A6*%
X115560400Y-97383600D03*
%TO.N,/A7*%
X114960400Y-98653600D03*
%TD*%
%TA.AperFunction,Conductor*%
%TO.N,GND*%
G36*
X127782644Y-113480799D02*
G01*
X127821686Y-113525856D01*
X127826151Y-113534620D01*
X127951090Y-113706586D01*
X128101413Y-113856909D01*
X128273379Y-113981848D01*
X128273381Y-113981849D01*
X128273384Y-113981851D01*
X128282693Y-113986594D01*
X128333490Y-114034566D01*
X128350287Y-114102387D01*
X128327752Y-114168522D01*
X128282705Y-114207560D01*
X128273646Y-114212176D01*
X128273640Y-114212180D01*
X128219482Y-114251527D01*
X128219482Y-114251528D01*
X128851791Y-114883837D01*
X128788207Y-114900875D01*
X128674193Y-114966701D01*
X128581101Y-115059793D01*
X128515275Y-115173807D01*
X128498237Y-115237391D01*
X127865928Y-114605082D01*
X127865927Y-114605082D01*
X127826580Y-114659240D01*
X127826576Y-114659246D01*
X127821960Y-114668305D01*
X127773981Y-114719097D01*
X127706159Y-114735887D01*
X127640026Y-114713343D01*
X127600994Y-114668293D01*
X127596251Y-114658984D01*
X127596249Y-114658981D01*
X127596248Y-114658979D01*
X127471309Y-114487013D01*
X127320986Y-114336690D01*
X127149020Y-114211751D01*
X127140800Y-114207563D01*
X127140254Y-114207285D01*
X127089459Y-114159312D01*
X127072663Y-114091492D01*
X127095199Y-114025356D01*
X127140254Y-113986315D01*
X127149016Y-113981851D01*
X127265254Y-113897400D01*
X127320986Y-113856909D01*
X127320988Y-113856906D01*
X127320992Y-113856904D01*
X127471304Y-113706592D01*
X127471306Y-113706588D01*
X127471309Y-113706586D01*
X127596248Y-113534620D01*
X127596247Y-113534620D01*
X127596251Y-113534616D01*
X127600714Y-113525854D01*
X127648688Y-113475059D01*
X127716508Y-113458263D01*
X127782644Y-113480799D01*
G37*
%TD.AperFunction*%
%TA.AperFunction,Conductor*%
G36*
X121282670Y-79984317D02*
G01*
X121282670Y-79984316D01*
X121322022Y-79930155D01*
X121326632Y-79921107D01*
X121374605Y-79870309D01*
X121442425Y-79853512D01*
X121508561Y-79876047D01*
X121547604Y-79921104D01*
X121552349Y-79930417D01*
X121677290Y-80102386D01*
X121827613Y-80252709D01*
X121999582Y-80377650D01*
X122008346Y-80382116D01*
X122059142Y-80430091D01*
X122075936Y-80497912D01*
X122053398Y-80564047D01*
X122008346Y-80603084D01*
X121999582Y-80607549D01*
X121827613Y-80732490D01*
X121677290Y-80882813D01*
X121552349Y-81054782D01*
X121547884Y-81063546D01*
X121499909Y-81114342D01*
X121432088Y-81131136D01*
X121365953Y-81108598D01*
X121326916Y-81063546D01*
X121322450Y-81054782D01*
X121197509Y-80882813D01*
X121047186Y-80732490D01*
X120875217Y-80607549D01*
X120865904Y-80602804D01*
X120815107Y-80554830D01*
X120798312Y-80487009D01*
X120820849Y-80420874D01*
X120865907Y-80381832D01*
X120874955Y-80377222D01*
X120929116Y-80337870D01*
X120929117Y-80337870D01*
X120296808Y-79705562D01*
X120360393Y-79688525D01*
X120474407Y-79622699D01*
X120567499Y-79529607D01*
X120633325Y-79415593D01*
X120650362Y-79352008D01*
X121282670Y-79984317D01*
G37*
%TD.AperFunction*%
%TA.AperFunction,Conductor*%
G36*
X124781475Y-79415593D02*
G01*
X124847301Y-79529607D01*
X124940393Y-79622699D01*
X125054407Y-79688525D01*
X125117990Y-79705562D01*
X124485682Y-80337869D01*
X124485682Y-80337870D01*
X124539852Y-80377226D01*
X124539851Y-80377226D01*
X124548895Y-80381834D01*
X124599692Y-80429808D01*
X124616487Y-80497629D01*
X124593950Y-80563764D01*
X124548899Y-80602802D01*
X124539582Y-80607549D01*
X124367613Y-80732490D01*
X124217290Y-80882813D01*
X124092349Y-81054782D01*
X124087884Y-81063546D01*
X124039909Y-81114342D01*
X123972088Y-81131136D01*
X123905953Y-81108598D01*
X123866916Y-81063546D01*
X123862450Y-81054782D01*
X123737509Y-80882813D01*
X123587186Y-80732490D01*
X123415220Y-80607551D01*
X123414515Y-80607191D01*
X123406454Y-80603085D01*
X123355659Y-80555112D01*
X123338863Y-80487292D01*
X123361399Y-80421156D01*
X123406454Y-80382115D01*
X123415216Y-80377651D01*
X123504420Y-80312841D01*
X123587186Y-80252709D01*
X123587188Y-80252706D01*
X123587192Y-80252704D01*
X123737504Y-80102392D01*
X123737506Y-80102388D01*
X123737509Y-80102386D01*
X123823290Y-79984317D01*
X123862451Y-79930416D01*
X123867193Y-79921108D01*
X123915163Y-79870311D01*
X123982983Y-79853511D01*
X124049119Y-79876045D01*
X124088163Y-79921100D01*
X124092773Y-79930147D01*
X124132128Y-79984316D01*
X124764437Y-79352008D01*
X124781475Y-79415593D01*
G37*
%TD.AperFunction*%
%TA.AperFunction,Conductor*%
G36*
X119701475Y-79415593D02*
G01*
X119767301Y-79529607D01*
X119860393Y-79622699D01*
X119974407Y-79688525D01*
X120037990Y-79705562D01*
X119405682Y-80337869D01*
X119405682Y-80337870D01*
X119459852Y-80377226D01*
X119459851Y-80377226D01*
X119468895Y-80381834D01*
X119519692Y-80429808D01*
X119536487Y-80497629D01*
X119513950Y-80563764D01*
X119468899Y-80602802D01*
X119459582Y-80607549D01*
X119287615Y-80732489D01*
X119173685Y-80846419D01*
X119112362Y-80879903D01*
X119042670Y-80874919D01*
X118986737Y-80833047D01*
X118969822Y-80802070D01*
X118920754Y-80670513D01*
X118920750Y-80670506D01*
X118834590Y-80555412D01*
X118834587Y-80555409D01*
X118719493Y-80469249D01*
X118719488Y-80469246D01*
X118587928Y-80420177D01*
X118531995Y-80378305D01*
X118507578Y-80312841D01*
X118522430Y-80244568D01*
X118543575Y-80216320D01*
X118657504Y-80102392D01*
X118662485Y-80095537D01*
X118743290Y-79984317D01*
X118782451Y-79930416D01*
X118787193Y-79921108D01*
X118835163Y-79870311D01*
X118902983Y-79853511D01*
X118969119Y-79876045D01*
X119008163Y-79921100D01*
X119012773Y-79930147D01*
X119052128Y-79984316D01*
X119684437Y-79352008D01*
X119701475Y-79415593D01*
G37*
%TD.AperFunction*%
%TA.AperFunction,Conductor*%
G36*
X129213825Y-76176185D02*
G01*
X129248022Y-76208895D01*
X135746736Y-85396929D01*
X135769378Y-85463028D01*
X135769500Y-85468533D01*
X135769500Y-110747988D01*
X135749815Y-110815027D01*
X135747053Y-110819143D01*
X131494374Y-116888593D01*
X130356652Y-118512357D01*
X129246582Y-120096655D01*
X129191991Y-120140263D01*
X129145029Y-120149500D01*
X100827500Y-120149500D01*
X100760461Y-120129815D01*
X100714706Y-120077011D01*
X100703500Y-120025500D01*
X100703500Y-114318234D01*
X104900000Y-114318234D01*
X104900000Y-114681765D01*
X104935632Y-115043556D01*
X105006550Y-115400090D01*
X105006553Y-115400101D01*
X105112086Y-115747997D01*
X105251207Y-116083864D01*
X105251209Y-116083869D01*
X105422570Y-116404462D01*
X105422581Y-116404480D01*
X105624551Y-116706750D01*
X105811678Y-116934765D01*
X105811679Y-116934766D01*
X107305747Y-115440697D01*
X107379588Y-115542330D01*
X107557670Y-115720412D01*
X107659301Y-115794251D01*
X106165232Y-117288319D01*
X106165233Y-117288320D01*
X106393249Y-117475448D01*
X106695519Y-117677418D01*
X106695537Y-117677429D01*
X107016130Y-117848790D01*
X107016135Y-117848792D01*
X107352002Y-117987913D01*
X107699898Y-118093446D01*
X107699909Y-118093449D01*
X108056443Y-118164367D01*
X108418234Y-118200000D01*
X108781766Y-118200000D01*
X109143556Y-118164367D01*
X109256036Y-118141994D01*
X109500090Y-118093449D01*
X109500101Y-118093446D01*
X109847997Y-117987913D01*
X110183864Y-117848792D01*
X110183869Y-117848790D01*
X110504462Y-117677429D01*
X110504480Y-117677418D01*
X110806736Y-117475457D01*
X110806750Y-117475447D01*
X111034765Y-117288320D01*
X111034766Y-117288319D01*
X109540698Y-115794251D01*
X109642330Y-115720412D01*
X109820412Y-115542330D01*
X109894251Y-115440698D01*
X111388319Y-116934766D01*
X111388320Y-116934765D01*
X111575447Y-116706750D01*
X111575457Y-116706736D01*
X111777418Y-116404480D01*
X111777429Y-116404462D01*
X111948790Y-116083869D01*
X111948792Y-116083864D01*
X112087913Y-115747997D01*
X112193446Y-115400101D01*
X112193449Y-115400090D01*
X112264367Y-115043556D01*
X112300000Y-114681765D01*
X112300000Y-114318234D01*
X112278447Y-114099395D01*
X112277730Y-114092113D01*
X113000300Y-114092113D01*
X113000300Y-114304686D01*
X113031234Y-114500000D01*
X113033554Y-114514643D01*
X113087855Y-114681765D01*
X113099244Y-114716814D01*
X113195751Y-114906220D01*
X113320690Y-115078186D01*
X113434230Y-115191726D01*
X113467715Y-115253049D01*
X113462731Y-115322741D01*
X113420859Y-115378674D01*
X113389883Y-115395589D01*
X113258469Y-115444603D01*
X113258464Y-115444606D01*
X113143255Y-115530852D01*
X113143252Y-115530855D01*
X113057006Y-115646064D01*
X113057002Y-115646071D01*
X113006708Y-115780917D01*
X113001139Y-115832725D01*
X113000301Y-115840523D01*
X113000300Y-115840535D01*
X113000300Y-117636270D01*
X113000301Y-117636276D01*
X113006708Y-117695883D01*
X113057002Y-117830728D01*
X113057006Y-117830735D01*
X113143252Y-117945944D01*
X113143255Y-117945947D01*
X113258464Y-118032193D01*
X113258471Y-118032197D01*
X113393317Y-118082491D01*
X113393316Y-118082491D01*
X113400244Y-118083235D01*
X113452927Y-118088900D01*
X115248672Y-118088899D01*
X115308283Y-118082491D01*
X115443131Y-118032196D01*
X115558346Y-117945946D01*
X115644596Y-117830731D01*
X115694891Y-117695883D01*
X115701300Y-117636273D01*
X115701299Y-117089353D01*
X118365200Y-117089353D01*
X118365200Y-117301846D01*
X118398442Y-117511727D01*
X118398442Y-117511730D01*
X118464104Y-117713817D01*
X118560575Y-117903150D01*
X118599928Y-117957316D01*
X119232237Y-117325008D01*
X119249275Y-117388593D01*
X119315101Y-117502607D01*
X119408193Y-117595699D01*
X119522207Y-117661525D01*
X119585790Y-117678562D01*
X118953482Y-118310869D01*
X118953482Y-118310870D01*
X119007649Y-118350224D01*
X119196982Y-118446695D01*
X119399070Y-118512357D01*
X119608954Y-118545600D01*
X119821446Y-118545600D01*
X120031327Y-118512357D01*
X120031330Y-118512357D01*
X120233417Y-118446695D01*
X120422754Y-118350222D01*
X120476916Y-118310870D01*
X120476917Y-118310870D01*
X119844608Y-117678562D01*
X119908193Y-117661525D01*
X120022207Y-117595699D01*
X120115299Y-117502607D01*
X120181125Y-117388593D01*
X120198162Y-117325008D01*
X120867556Y-117994403D01*
X120901041Y-118055726D01*
X120900126Y-118070431D01*
X120902697Y-118070155D01*
X120911601Y-118152973D01*
X120911603Y-118152980D01*
X120961845Y-118287686D01*
X120961849Y-118287693D01*
X121048009Y-118402787D01*
X121048012Y-118402790D01*
X121163106Y-118488950D01*
X121163113Y-118488954D01*
X121297820Y-118539196D01*
X121297827Y-118539198D01*
X121357355Y-118545599D01*
X121357372Y-118545600D01*
X122005200Y-118545600D01*
X122005200Y-117628612D01*
X122062207Y-117661525D01*
X122189374Y-117695600D01*
X122321026Y-117695600D01*
X122448193Y-117661525D01*
X122505200Y-117628612D01*
X122505200Y-118545600D01*
X123153028Y-118545600D01*
X123153044Y-118545599D01*
X123212572Y-118539198D01*
X123212579Y-118539196D01*
X123347286Y-118488954D01*
X123347293Y-118488950D01*
X123462387Y-118402790D01*
X123462390Y-118402787D01*
X123548550Y-118287693D01*
X123548554Y-118287686D01*
X123598796Y-118152979D01*
X123598798Y-118152972D01*
X123605199Y-118093444D01*
X123605200Y-118093427D01*
X123605200Y-117445600D01*
X122688212Y-117445600D01*
X122721125Y-117388593D01*
X122755200Y-117261426D01*
X122755200Y-117129774D01*
X122721125Y-117002607D01*
X122688212Y-116945600D01*
X123605200Y-116945600D01*
X123605200Y-116297772D01*
X123605199Y-116297755D01*
X123598798Y-116238227D01*
X123598796Y-116238220D01*
X123548554Y-116103513D01*
X123548550Y-116103506D01*
X123462390Y-115988412D01*
X123462387Y-115988409D01*
X123347293Y-115902249D01*
X123347286Y-115902245D01*
X123212579Y-115852003D01*
X123212572Y-115852001D01*
X123153044Y-115845600D01*
X122505200Y-115845600D01*
X122505200Y-116762588D01*
X122448193Y-116729675D01*
X122321026Y-116695600D01*
X122189374Y-116695600D01*
X122062207Y-116729675D01*
X122005200Y-116762588D01*
X122005200Y-115845600D01*
X121357355Y-115845600D01*
X121297827Y-115852001D01*
X121297820Y-115852003D01*
X121163113Y-115902245D01*
X121163106Y-115902249D01*
X121048012Y-115988409D01*
X121048009Y-115988412D01*
X120961849Y-116103506D01*
X120961845Y-116103513D01*
X120911603Y-116238219D01*
X120911601Y-116238226D01*
X120902697Y-116321044D01*
X120899634Y-116320714D01*
X120900536Y-116337694D01*
X120867556Y-116396795D01*
X120198162Y-117066190D01*
X120181125Y-117002607D01*
X120115299Y-116888593D01*
X120022207Y-116795501D01*
X119908193Y-116729675D01*
X119844609Y-116712637D01*
X120476916Y-116080328D01*
X120422750Y-116040975D01*
X120233417Y-115944504D01*
X120031329Y-115878842D01*
X119821446Y-115845600D01*
X119608954Y-115845600D01*
X119399072Y-115878842D01*
X119399069Y-115878842D01*
X119196982Y-115944504D01*
X119007639Y-116040980D01*
X118953482Y-116080327D01*
X118953482Y-116080328D01*
X119585791Y-116712637D01*
X119522207Y-116729675D01*
X119408193Y-116795501D01*
X119315101Y-116888593D01*
X119249275Y-117002607D01*
X119232237Y-117066191D01*
X118599928Y-116433882D01*
X118599927Y-116433882D01*
X118560580Y-116488039D01*
X118464104Y-116677382D01*
X118398442Y-116879469D01*
X118398442Y-116879472D01*
X118365200Y-117089353D01*
X115701299Y-117089353D01*
X115701299Y-116729675D01*
X115701299Y-116127587D01*
X115701299Y-115840529D01*
X115701298Y-115840523D01*
X115701297Y-115840516D01*
X115694891Y-115780917D01*
X115672302Y-115720354D01*
X115644597Y-115646071D01*
X115644593Y-115646064D01*
X115558347Y-115530855D01*
X115558344Y-115530852D01*
X115443135Y-115444606D01*
X115443128Y-115444602D01*
X115311717Y-115395589D01*
X115255783Y-115353718D01*
X115231366Y-115288253D01*
X115246218Y-115219980D01*
X115267363Y-115191732D01*
X115380904Y-115078192D01*
X115400901Y-115050669D01*
X115505848Y-114906220D01*
X115505847Y-114906220D01*
X115505851Y-114906216D01*
X115602357Y-114716812D01*
X115668046Y-114514643D01*
X115701300Y-114304687D01*
X115701300Y-114092113D01*
X115668046Y-113882157D01*
X115602357Y-113679988D01*
X115505851Y-113490584D01*
X115505849Y-113490581D01*
X115505848Y-113490579D01*
X115380909Y-113318613D01*
X115230586Y-113168290D01*
X115058617Y-113043349D01*
X115049304Y-113038604D01*
X114998507Y-112990630D01*
X114981712Y-112922809D01*
X115004249Y-112856674D01*
X115049307Y-112817632D01*
X115058355Y-112813022D01*
X115112516Y-112773670D01*
X115112517Y-112773670D01*
X114480208Y-112141362D01*
X114543793Y-112124325D01*
X114657807Y-112058499D01*
X114750899Y-111965407D01*
X114816725Y-111851393D01*
X114833762Y-111787808D01*
X115466070Y-112420117D01*
X115466070Y-112420116D01*
X115505423Y-112365953D01*
X115601895Y-112176617D01*
X115667557Y-111974530D01*
X115667557Y-111974527D01*
X115700800Y-111764646D01*
X115700800Y-111552153D01*
X115667557Y-111342272D01*
X115667557Y-111342269D01*
X115601895Y-111140182D01*
X115505424Y-110950849D01*
X115466070Y-110896682D01*
X115466069Y-110896682D01*
X114833762Y-111528990D01*
X114816725Y-111465407D01*
X114750899Y-111351393D01*
X114657807Y-111258301D01*
X114543793Y-111192475D01*
X114480209Y-111175437D01*
X115112516Y-110543128D01*
X115058350Y-110503775D01*
X114869017Y-110407304D01*
X114666929Y-110341642D01*
X114457046Y-110308400D01*
X114244554Y-110308400D01*
X114034672Y-110341642D01*
X114034669Y-110341642D01*
X113832582Y-110407304D01*
X113643239Y-110503780D01*
X113589082Y-110543127D01*
X113589082Y-110543128D01*
X114221391Y-111175437D01*
X114157807Y-111192475D01*
X114043793Y-111258301D01*
X113950701Y-111351393D01*
X113884875Y-111465407D01*
X113867837Y-111528991D01*
X113235528Y-110896682D01*
X113235527Y-110896682D01*
X113196180Y-110950839D01*
X113099704Y-111140182D01*
X113034042Y-111342269D01*
X113034042Y-111342272D01*
X113000800Y-111552153D01*
X113000800Y-111764646D01*
X113034042Y-111974527D01*
X113034042Y-111974530D01*
X113099704Y-112176617D01*
X113196175Y-112365950D01*
X113235528Y-112420116D01*
X113867837Y-111787808D01*
X113884875Y-111851393D01*
X113950701Y-111965407D01*
X114043793Y-112058499D01*
X114157807Y-112124325D01*
X114221390Y-112141362D01*
X113589082Y-112773669D01*
X113589082Y-112773670D01*
X113643252Y-112813026D01*
X113643251Y-112813026D01*
X113652295Y-112817634D01*
X113703092Y-112865608D01*
X113719887Y-112933429D01*
X113697350Y-112999564D01*
X113652299Y-113038602D01*
X113642982Y-113043349D01*
X113471013Y-113168290D01*
X113320690Y-113318613D01*
X113195751Y-113490579D01*
X113099244Y-113679985D01*
X113033553Y-113882160D01*
X113000300Y-114092113D01*
X112277730Y-114092113D01*
X112264367Y-113956443D01*
X112193449Y-113599909D01*
X112193446Y-113599898D01*
X112087913Y-113252002D01*
X111948792Y-112916135D01*
X111948790Y-112916130D01*
X111777429Y-112595537D01*
X111777418Y-112595519D01*
X111575448Y-112293249D01*
X111388320Y-112065233D01*
X111388319Y-112065232D01*
X109894251Y-113559300D01*
X109820412Y-113457670D01*
X109642330Y-113279588D01*
X109540698Y-113205748D01*
X111034766Y-111711679D01*
X110951244Y-111643135D01*
X110951242Y-111643132D01*
X110806750Y-111524551D01*
X110504480Y-111322581D01*
X110504462Y-111322570D01*
X110183869Y-111151209D01*
X110183864Y-111151207D01*
X109847997Y-111012086D01*
X109500101Y-110906553D01*
X109500090Y-110906550D01*
X109143556Y-110835632D01*
X108781766Y-110800000D01*
X108418234Y-110800000D01*
X108056443Y-110835632D01*
X107699909Y-110906550D01*
X107699898Y-110906553D01*
X107352002Y-111012086D01*
X107016135Y-111151207D01*
X107016130Y-111151209D01*
X106695537Y-111322570D01*
X106695519Y-111322581D01*
X106393258Y-111524545D01*
X106393254Y-111524548D01*
X106165233Y-111711679D01*
X106165233Y-111711680D01*
X107659301Y-113205748D01*
X107557670Y-113279588D01*
X107379588Y-113457670D01*
X107305748Y-113559301D01*
X105811680Y-112065233D01*
X105811679Y-112065233D01*
X105624548Y-112293254D01*
X105624545Y-112293258D01*
X105422581Y-112595519D01*
X105422570Y-112595537D01*
X105251209Y-112916130D01*
X105251207Y-112916135D01*
X105112086Y-113252002D01*
X105006553Y-113599898D01*
X105006550Y-113599909D01*
X104935632Y-113956443D01*
X104900000Y-114318234D01*
X100703500Y-114318234D01*
X100703500Y-104029535D01*
X119578900Y-104029535D01*
X119578900Y-105825270D01*
X119578901Y-105825276D01*
X119585308Y-105884883D01*
X119635602Y-106019728D01*
X119635606Y-106019735D01*
X119721852Y-106134944D01*
X119721855Y-106134947D01*
X119837064Y-106221193D01*
X119837071Y-106221197D01*
X119968482Y-106270210D01*
X120024416Y-106312081D01*
X120048833Y-106377545D01*
X120033982Y-106445818D01*
X120012831Y-106474073D01*
X119899289Y-106587615D01*
X119774351Y-106759579D01*
X119677844Y-106948985D01*
X119612153Y-107151160D01*
X119592600Y-107274614D01*
X119578900Y-107361113D01*
X119578900Y-107573687D01*
X119612154Y-107783643D01*
X119655157Y-107915993D01*
X119677844Y-107985814D01*
X119774351Y-108175220D01*
X119899290Y-108347186D01*
X120049613Y-108497509D01*
X120221582Y-108622450D01*
X120230346Y-108626916D01*
X120281142Y-108674891D01*
X120297936Y-108742712D01*
X120275398Y-108808847D01*
X120230346Y-108847884D01*
X120221582Y-108852349D01*
X120049613Y-108977290D01*
X119899290Y-109127613D01*
X119774351Y-109299579D01*
X119677844Y-109488985D01*
X119612153Y-109691160D01*
X119578900Y-109901113D01*
X119578900Y-110113686D01*
X119609739Y-110308400D01*
X119612154Y-110323643D01*
X119670684Y-110503780D01*
X119677844Y-110525814D01*
X119774351Y-110715220D01*
X119899290Y-110887186D01*
X120049613Y-111037509D01*
X120221579Y-111162448D01*
X120221581Y-111162449D01*
X120221584Y-111162451D01*
X120230893Y-111167194D01*
X120281690Y-111215166D01*
X120298487Y-111282987D01*
X120275952Y-111349122D01*
X120230905Y-111388160D01*
X120221846Y-111392776D01*
X120221840Y-111392780D01*
X120167682Y-111432127D01*
X120167682Y-111432128D01*
X120799991Y-112064437D01*
X120736407Y-112081475D01*
X120622393Y-112147301D01*
X120529301Y-112240393D01*
X120463475Y-112354407D01*
X120446437Y-112417991D01*
X119814128Y-111785682D01*
X119814127Y-111785682D01*
X119774780Y-111839839D01*
X119678304Y-112029182D01*
X119612642Y-112231269D01*
X119612642Y-112231272D01*
X119579400Y-112441153D01*
X119579400Y-112653646D01*
X119612642Y-112863527D01*
X119612642Y-112863530D01*
X119678304Y-113065617D01*
X119774775Y-113254950D01*
X119814128Y-113309116D01*
X120446437Y-112676808D01*
X120463475Y-112740393D01*
X120529301Y-112854407D01*
X120622393Y-112947499D01*
X120736407Y-113013325D01*
X120799990Y-113030362D01*
X120167682Y-113662669D01*
X120167682Y-113662670D01*
X120221849Y-113702024D01*
X120411182Y-113798495D01*
X120613270Y-113864157D01*
X120823154Y-113897400D01*
X121035646Y-113897400D01*
X121245527Y-113864157D01*
X121245530Y-113864157D01*
X121447617Y-113798495D01*
X121636954Y-113702022D01*
X121691116Y-113662670D01*
X121691117Y-113662670D01*
X121058808Y-113030362D01*
X121122393Y-113013325D01*
X121236407Y-112947499D01*
X121329499Y-112854407D01*
X121395325Y-112740393D01*
X121412362Y-112676808D01*
X122044670Y-113309117D01*
X122044670Y-113309116D01*
X122084022Y-113254954D01*
X122180495Y-113065617D01*
X122246157Y-112863530D01*
X122246157Y-112863527D01*
X122279400Y-112653646D01*
X122279400Y-112441153D01*
X122246157Y-112231272D01*
X122246157Y-112231269D01*
X122180495Y-112029182D01*
X122084024Y-111839849D01*
X122044670Y-111785682D01*
X122044669Y-111785682D01*
X121412362Y-112417990D01*
X121395325Y-112354407D01*
X121329499Y-112240393D01*
X121236407Y-112147301D01*
X121122393Y-112081475D01*
X121058809Y-112064437D01*
X121691116Y-111432128D01*
X121636947Y-111392773D01*
X121636947Y-111392772D01*
X121627900Y-111388163D01*
X121577106Y-111340188D01*
X121560312Y-111272366D01*
X121582851Y-111206232D01*
X121627908Y-111167193D01*
X121637216Y-111162451D01*
X121729063Y-111095721D01*
X121809186Y-111037509D01*
X121809188Y-111037506D01*
X121809192Y-111037504D01*
X121959504Y-110887192D01*
X121959506Y-110887188D01*
X121959509Y-110887186D01*
X122084448Y-110715220D01*
X122084447Y-110715220D01*
X122084451Y-110715216D01*
X122180957Y-110525812D01*
X122246646Y-110323643D01*
X122279900Y-110113687D01*
X122279900Y-109901113D01*
X122246646Y-109691157D01*
X122180957Y-109488988D01*
X122129978Y-109388935D01*
X125090700Y-109388935D01*
X125090700Y-111184670D01*
X125090701Y-111184676D01*
X125097108Y-111244283D01*
X125147402Y-111379128D01*
X125147406Y-111379135D01*
X125233652Y-111494344D01*
X125233655Y-111494347D01*
X125348864Y-111580593D01*
X125348871Y-111580597D01*
X125480282Y-111629610D01*
X125536216Y-111671481D01*
X125560633Y-111736945D01*
X125545782Y-111805218D01*
X125524631Y-111833473D01*
X125411089Y-111947015D01*
X125286151Y-112118979D01*
X125189644Y-112308385D01*
X125123953Y-112510560D01*
X125101291Y-112653646D01*
X125090700Y-112720513D01*
X125090700Y-112933087D01*
X125092879Y-112946843D01*
X125122134Y-113131557D01*
X125123954Y-113143043D01*
X125181000Y-113318613D01*
X125189644Y-113345214D01*
X125286151Y-113534620D01*
X125411090Y-113706586D01*
X125561413Y-113856909D01*
X125733382Y-113981850D01*
X125742146Y-113986316D01*
X125792942Y-114034291D01*
X125809736Y-114102112D01*
X125787198Y-114168247D01*
X125742146Y-114207284D01*
X125733382Y-114211749D01*
X125561413Y-114336690D01*
X125411090Y-114487013D01*
X125286151Y-114658979D01*
X125189644Y-114848385D01*
X125123953Y-115050560D01*
X125090700Y-115260513D01*
X125090700Y-115473086D01*
X125123935Y-115682927D01*
X125123954Y-115683043D01*
X125187573Y-115878842D01*
X125189644Y-115885214D01*
X125286151Y-116074620D01*
X125411090Y-116246586D01*
X125561413Y-116396909D01*
X125733379Y-116521848D01*
X125733381Y-116521849D01*
X125733384Y-116521851D01*
X125922788Y-116618357D01*
X126124957Y-116684046D01*
X126334913Y-116717300D01*
X126334914Y-116717300D01*
X126547486Y-116717300D01*
X126547487Y-116717300D01*
X126757443Y-116684046D01*
X126959612Y-116618357D01*
X127149016Y-116521851D01*
X127270096Y-116433882D01*
X127320986Y-116396909D01*
X127320988Y-116396906D01*
X127320992Y-116396904D01*
X127471304Y-116246592D01*
X127471306Y-116246588D01*
X127471309Y-116246586D01*
X127557090Y-116128517D01*
X127596251Y-116074616D01*
X127600993Y-116065308D01*
X127648963Y-116014511D01*
X127716783Y-115997711D01*
X127782919Y-116020245D01*
X127821963Y-116065300D01*
X127826573Y-116074347D01*
X127865928Y-116128516D01*
X128498237Y-115496208D01*
X128515275Y-115559793D01*
X128581101Y-115673807D01*
X128674193Y-115766899D01*
X128788207Y-115832725D01*
X128851790Y-115849762D01*
X128219482Y-116482069D01*
X128219482Y-116482070D01*
X128273649Y-116521424D01*
X128462982Y-116617895D01*
X128665070Y-116683557D01*
X128874954Y-116716800D01*
X129087446Y-116716800D01*
X129297327Y-116683557D01*
X129297330Y-116683557D01*
X129499417Y-116617895D01*
X129688754Y-116521422D01*
X129742916Y-116482070D01*
X129742917Y-116482070D01*
X129110608Y-115849762D01*
X129174193Y-115832725D01*
X129288207Y-115766899D01*
X129381299Y-115673807D01*
X129447125Y-115559793D01*
X129464162Y-115496208D01*
X130096470Y-116128517D01*
X130096470Y-116128516D01*
X130135822Y-116074354D01*
X130232295Y-115885017D01*
X130297957Y-115682930D01*
X130297957Y-115682927D01*
X130331200Y-115473046D01*
X130331200Y-115260553D01*
X130297957Y-115050672D01*
X130297957Y-115050669D01*
X130232295Y-114848582D01*
X130135824Y-114659249D01*
X130096470Y-114605082D01*
X130096469Y-114605082D01*
X129464162Y-115237390D01*
X129447125Y-115173807D01*
X129381299Y-115059793D01*
X129288207Y-114966701D01*
X129174193Y-114900875D01*
X129110609Y-114883837D01*
X129742916Y-114251528D01*
X129688747Y-114212173D01*
X129688747Y-114212172D01*
X129679700Y-114207563D01*
X129628906Y-114159588D01*
X129612112Y-114091766D01*
X129634651Y-114025632D01*
X129679708Y-113986593D01*
X129689016Y-113981851D01*
X129826230Y-113882160D01*
X129860986Y-113856909D01*
X129860988Y-113856906D01*
X129860992Y-113856904D01*
X130011304Y-113706592D01*
X130011306Y-113706588D01*
X130011309Y-113706586D01*
X130136248Y-113534620D01*
X130136247Y-113534620D01*
X130136251Y-113534616D01*
X130232757Y-113345212D01*
X130298446Y-113143043D01*
X130331700Y-112933087D01*
X130331700Y-112720513D01*
X130298446Y-112510557D01*
X130232757Y-112308388D01*
X130136251Y-112118984D01*
X130136249Y-112118981D01*
X130136248Y-112118979D01*
X130011309Y-111947013D01*
X129860986Y-111796690D01*
X129689020Y-111671751D01*
X129688315Y-111671391D01*
X129680254Y-111667285D01*
X129629459Y-111619312D01*
X129612663Y-111551492D01*
X129635199Y-111485356D01*
X129680254Y-111446315D01*
X129689016Y-111441851D01*
X129756557Y-111392780D01*
X129860986Y-111316909D01*
X129860988Y-111316906D01*
X129860992Y-111316904D01*
X130011304Y-111166592D01*
X130011306Y-111166588D01*
X130011309Y-111166586D01*
X130136248Y-110994620D01*
X130136247Y-110994620D01*
X130136251Y-110994616D01*
X130232757Y-110805212D01*
X130298446Y-110603043D01*
X130331700Y-110393087D01*
X130331700Y-110180513D01*
X130298446Y-109970557D01*
X130232757Y-109768388D01*
X130136251Y-109578984D01*
X130136249Y-109578981D01*
X130136248Y-109578979D01*
X130011309Y-109407013D01*
X129860986Y-109256690D01*
X129689020Y-109131751D01*
X129499614Y-109035244D01*
X129499613Y-109035243D01*
X129499612Y-109035243D01*
X129297443Y-108969554D01*
X129297441Y-108969553D01*
X129297440Y-108969553D01*
X129136157Y-108944008D01*
X129087487Y-108936300D01*
X128874913Y-108936300D01*
X128826242Y-108944008D01*
X128664960Y-108969553D01*
X128462785Y-109035244D01*
X128273379Y-109131751D01*
X128101415Y-109256689D01*
X127987873Y-109370231D01*
X127926550Y-109403715D01*
X127856858Y-109398731D01*
X127800925Y-109356859D01*
X127784010Y-109325882D01*
X127734997Y-109194471D01*
X127734993Y-109194464D01*
X127648747Y-109079255D01*
X127648744Y-109079252D01*
X127533535Y-108993006D01*
X127533528Y-108993002D01*
X127398682Y-108942708D01*
X127398683Y-108942708D01*
X127339083Y-108936301D01*
X127339081Y-108936300D01*
X127339073Y-108936300D01*
X127339064Y-108936300D01*
X125543329Y-108936300D01*
X125543323Y-108936301D01*
X125483716Y-108942708D01*
X125348871Y-108993002D01*
X125348864Y-108993006D01*
X125233655Y-109079252D01*
X125233652Y-109079255D01*
X125147406Y-109194464D01*
X125147402Y-109194471D01*
X125097108Y-109329317D01*
X125090701Y-109388916D01*
X125090700Y-109388935D01*
X122129978Y-109388935D01*
X122084451Y-109299584D01*
X122084449Y-109299581D01*
X122084448Y-109299579D01*
X121959509Y-109127613D01*
X121809186Y-108977290D01*
X121637220Y-108852351D01*
X121636515Y-108851991D01*
X121628454Y-108847885D01*
X121577659Y-108799912D01*
X121560863Y-108732092D01*
X121583399Y-108665956D01*
X121628454Y-108626915D01*
X121637216Y-108622451D01*
X121758296Y-108534482D01*
X121809186Y-108497509D01*
X121809188Y-108497506D01*
X121809192Y-108497504D01*
X121959504Y-108347192D01*
X121959506Y-108347188D01*
X121959509Y-108347186D01*
X122084448Y-108175220D01*
X122084447Y-108175220D01*
X122084451Y-108175216D01*
X122180957Y-107985812D01*
X122246646Y-107783643D01*
X122279900Y-107573687D01*
X122279900Y-107361113D01*
X122246646Y-107151157D01*
X122180957Y-106948988D01*
X122084451Y-106759584D01*
X122084449Y-106759581D01*
X122084448Y-106759579D01*
X121959509Y-106587613D01*
X121845969Y-106474073D01*
X121812484Y-106412750D01*
X121817468Y-106343058D01*
X121859340Y-106287125D01*
X121890315Y-106270210D01*
X122021731Y-106221196D01*
X122136946Y-106134946D01*
X122223196Y-106019731D01*
X122273491Y-105884883D01*
X122279900Y-105825273D01*
X122279899Y-104029528D01*
X122273491Y-103969917D01*
X122266025Y-103949900D01*
X122223197Y-103835071D01*
X122223193Y-103835064D01*
X122136947Y-103719855D01*
X122136944Y-103719852D01*
X122021735Y-103633606D01*
X122021728Y-103633602D01*
X121886882Y-103583308D01*
X121886883Y-103583308D01*
X121827283Y-103576901D01*
X121827281Y-103576900D01*
X121827273Y-103576900D01*
X121827264Y-103576900D01*
X120031529Y-103576900D01*
X120031523Y-103576901D01*
X119971916Y-103583308D01*
X119837071Y-103633602D01*
X119837064Y-103633606D01*
X119721855Y-103719852D01*
X119721852Y-103719855D01*
X119635606Y-103835064D01*
X119635602Y-103835071D01*
X119585308Y-103969917D01*
X119578901Y-104029516D01*
X119578901Y-104029523D01*
X119578900Y-104029535D01*
X100703500Y-104029535D01*
X100703500Y-103070553D01*
X111086500Y-103070553D01*
X111086500Y-103228246D01*
X111117261Y-103382889D01*
X111117264Y-103382901D01*
X111177602Y-103528572D01*
X111177609Y-103528585D01*
X111265210Y-103659688D01*
X111265213Y-103659692D01*
X111376707Y-103771186D01*
X111376711Y-103771189D01*
X111507814Y-103858790D01*
X111507827Y-103858797D01*
X111653498Y-103919135D01*
X111653503Y-103919137D01*
X111808153Y-103949899D01*
X111808156Y-103949900D01*
X111808158Y-103949900D01*
X111965844Y-103949900D01*
X111965845Y-103949899D01*
X112120497Y-103919137D01*
X112131183Y-103914710D01*
X112138585Y-103911645D01*
X112266172Y-103858797D01*
X112266172Y-103858796D01*
X112266179Y-103858794D01*
X112397289Y-103771189D01*
X112508789Y-103659689D01*
X112596394Y-103528579D01*
X112656737Y-103382897D01*
X112687500Y-103228242D01*
X112687500Y-103070558D01*
X112687500Y-103070555D01*
X112687499Y-103070553D01*
X112656737Y-102915903D01*
X112635943Y-102865701D01*
X112596397Y-102770227D01*
X112596393Y-102770220D01*
X112584458Y-102752358D01*
X112584457Y-102752356D01*
X112542493Y-102689553D01*
X121983100Y-102689553D01*
X121983100Y-102847246D01*
X122013861Y-103001889D01*
X122013864Y-103001901D01*
X122074202Y-103147572D01*
X122074209Y-103147585D01*
X122161810Y-103278688D01*
X122161813Y-103278692D01*
X122273307Y-103390186D01*
X122273311Y-103390189D01*
X122404414Y-103477790D01*
X122404427Y-103477797D01*
X122527042Y-103528585D01*
X122550103Y-103538137D01*
X122704753Y-103568899D01*
X122704756Y-103568900D01*
X122704758Y-103568900D01*
X122862444Y-103568900D01*
X122862445Y-103568899D01*
X123017097Y-103538137D01*
X123162779Y-103477794D01*
X123293889Y-103390189D01*
X123365743Y-103318335D01*
X132050300Y-103318335D01*
X132050300Y-105114070D01*
X132050301Y-105114076D01*
X132056708Y-105173683D01*
X132107002Y-105308528D01*
X132107006Y-105308535D01*
X132193252Y-105423744D01*
X132193255Y-105423747D01*
X132308464Y-105509993D01*
X132308471Y-105509997D01*
X132439882Y-105559010D01*
X132495816Y-105600881D01*
X132520233Y-105666345D01*
X132505382Y-105734618D01*
X132484231Y-105762873D01*
X132370689Y-105876415D01*
X132245751Y-106048379D01*
X132149244Y-106237785D01*
X132083553Y-106439960D01*
X132050300Y-106649913D01*
X132050300Y-106862486D01*
X132083553Y-107072439D01*
X132149244Y-107274614D01*
X132245751Y-107464020D01*
X132370690Y-107635986D01*
X132521013Y-107786309D01*
X132692979Y-107911248D01*
X132692981Y-107911249D01*
X132692984Y-107911251D01*
X132702293Y-107915994D01*
X132753090Y-107963966D01*
X132769887Y-108031787D01*
X132747352Y-108097922D01*
X132702305Y-108136960D01*
X132693246Y-108141576D01*
X132693240Y-108141580D01*
X132639082Y-108180927D01*
X132639082Y-108180928D01*
X133271391Y-108813237D01*
X133207807Y-108830275D01*
X133093793Y-108896101D01*
X133000701Y-108989193D01*
X132934875Y-109103207D01*
X132917837Y-109166791D01*
X132285528Y-108534482D01*
X132285527Y-108534482D01*
X132246180Y-108588639D01*
X132149704Y-108777982D01*
X132084042Y-108980069D01*
X132084042Y-108980072D01*
X132050800Y-109189953D01*
X132050800Y-109402446D01*
X132084042Y-109612327D01*
X132084042Y-109612330D01*
X132149704Y-109814417D01*
X132246175Y-110003750D01*
X132285528Y-110057916D01*
X132917837Y-109425608D01*
X132934875Y-109489193D01*
X133000701Y-109603207D01*
X133093793Y-109696299D01*
X133207807Y-109762125D01*
X133271390Y-109779162D01*
X132639082Y-110411469D01*
X132639082Y-110411470D01*
X132693249Y-110450824D01*
X132882582Y-110547295D01*
X133084670Y-110612957D01*
X133294554Y-110646200D01*
X133507046Y-110646200D01*
X133716927Y-110612957D01*
X133716930Y-110612957D01*
X133919017Y-110547295D01*
X134108354Y-110450822D01*
X134162516Y-110411470D01*
X134162517Y-110411470D01*
X133530208Y-109779162D01*
X133593793Y-109762125D01*
X133707807Y-109696299D01*
X133800899Y-109603207D01*
X133866725Y-109489193D01*
X133883762Y-109425608D01*
X134516070Y-110057917D01*
X134516070Y-110057916D01*
X134555422Y-110003754D01*
X134651895Y-109814417D01*
X134717557Y-109612330D01*
X134717557Y-109612327D01*
X134750800Y-109402446D01*
X134750800Y-109189953D01*
X134717557Y-108980072D01*
X134717557Y-108980069D01*
X134651895Y-108777982D01*
X134555424Y-108588649D01*
X134516070Y-108534482D01*
X134516069Y-108534482D01*
X133883762Y-109166790D01*
X133866725Y-109103207D01*
X133800899Y-108989193D01*
X133707807Y-108896101D01*
X133593793Y-108830275D01*
X133530209Y-108813237D01*
X134162516Y-108180928D01*
X134108347Y-108141573D01*
X134108347Y-108141572D01*
X134099300Y-108136963D01*
X134048506Y-108088988D01*
X134031712Y-108021166D01*
X134054251Y-107955032D01*
X134099308Y-107915993D01*
X134108616Y-107911251D01*
X134187807Y-107853715D01*
X134280586Y-107786309D01*
X134280588Y-107786306D01*
X134280592Y-107786304D01*
X134430904Y-107635992D01*
X134430906Y-107635988D01*
X134430909Y-107635986D01*
X134555848Y-107464020D01*
X134555847Y-107464020D01*
X134555851Y-107464016D01*
X134652357Y-107274612D01*
X134718046Y-107072443D01*
X134751300Y-106862487D01*
X134751300Y-106649913D01*
X134718046Y-106439957D01*
X134652357Y-106237788D01*
X134555851Y-106048384D01*
X134555849Y-106048381D01*
X134555848Y-106048379D01*
X134430909Y-105876413D01*
X134317369Y-105762873D01*
X134283884Y-105701550D01*
X134288868Y-105631858D01*
X134330740Y-105575925D01*
X134361715Y-105559010D01*
X134493131Y-105509996D01*
X134608346Y-105423746D01*
X134694596Y-105308531D01*
X134744891Y-105173683D01*
X134751300Y-105114073D01*
X134751299Y-103318328D01*
X134744891Y-103258717D01*
X134740190Y-103246114D01*
X134694597Y-103123871D01*
X134694593Y-103123864D01*
X134608347Y-103008655D01*
X134608344Y-103008652D01*
X134493135Y-102922406D01*
X134493128Y-102922402D01*
X134358282Y-102872108D01*
X134358283Y-102872108D01*
X134298683Y-102865701D01*
X134298681Y-102865700D01*
X134298673Y-102865700D01*
X134298664Y-102865700D01*
X132502929Y-102865700D01*
X132502923Y-102865701D01*
X132443316Y-102872108D01*
X132308471Y-102922402D01*
X132308464Y-102922406D01*
X132193255Y-103008652D01*
X132193252Y-103008655D01*
X132107006Y-103123864D01*
X132107002Y-103123871D01*
X132056708Y-103258717D01*
X132054561Y-103278692D01*
X132050301Y-103318323D01*
X132050300Y-103318335D01*
X123365743Y-103318335D01*
X123405389Y-103278689D01*
X123492994Y-103147579D01*
X123553337Y-103001897D01*
X123584100Y-102847242D01*
X123584100Y-102689558D01*
X123584100Y-102689555D01*
X123584099Y-102689553D01*
X123574065Y-102639111D01*
X123553337Y-102534903D01*
X123537528Y-102496737D01*
X123492997Y-102389227D01*
X123492990Y-102389214D01*
X123405389Y-102258111D01*
X123405386Y-102258107D01*
X123293892Y-102146613D01*
X123293888Y-102146610D01*
X123162785Y-102059009D01*
X123162772Y-102059002D01*
X123017101Y-101998664D01*
X123017089Y-101998661D01*
X122862445Y-101967900D01*
X122862442Y-101967900D01*
X122704758Y-101967900D01*
X122704755Y-101967900D01*
X122550110Y-101998661D01*
X122550098Y-101998664D01*
X122404427Y-102059002D01*
X122404414Y-102059009D01*
X122273311Y-102146610D01*
X122273307Y-102146613D01*
X122161813Y-102258107D01*
X122161810Y-102258111D01*
X122074209Y-102389214D01*
X122074202Y-102389227D01*
X122013864Y-102534898D01*
X122013861Y-102534910D01*
X121983100Y-102689553D01*
X112542493Y-102689553D01*
X112508789Y-102639111D01*
X112508786Y-102639107D01*
X112397292Y-102527613D01*
X112397288Y-102527610D01*
X112266185Y-102440009D01*
X112266172Y-102440002D01*
X112120501Y-102379664D01*
X112120489Y-102379661D01*
X111965845Y-102348900D01*
X111965842Y-102348900D01*
X111808158Y-102348900D01*
X111808155Y-102348900D01*
X111653510Y-102379661D01*
X111653498Y-102379664D01*
X111507827Y-102440002D01*
X111507814Y-102440009D01*
X111376711Y-102527610D01*
X111376707Y-102527613D01*
X111265213Y-102639107D01*
X111265210Y-102639111D01*
X111177609Y-102770214D01*
X111177602Y-102770227D01*
X111117264Y-102915898D01*
X111117261Y-102915910D01*
X111086500Y-103070553D01*
X100703500Y-103070553D01*
X100703500Y-92781135D01*
X103143000Y-92781135D01*
X103143000Y-94576870D01*
X103143001Y-94576876D01*
X103149408Y-94636483D01*
X103199702Y-94771328D01*
X103199706Y-94771335D01*
X103285952Y-94886544D01*
X103285955Y-94886547D01*
X103401164Y-94972793D01*
X103401171Y-94972797D01*
X103532582Y-95021810D01*
X103588516Y-95063681D01*
X103612933Y-95129145D01*
X103598082Y-95197418D01*
X103576931Y-95225673D01*
X103463389Y-95339215D01*
X103338451Y-95511179D01*
X103241944Y-95700585D01*
X103176253Y-95902760D01*
X103166635Y-95963488D01*
X103143000Y-96112713D01*
X103143000Y-96325287D01*
X103176254Y-96535243D01*
X103201799Y-96613863D01*
X103241944Y-96737414D01*
X103338451Y-96926820D01*
X103463390Y-97098786D01*
X103613713Y-97249109D01*
X103785682Y-97374050D01*
X103794446Y-97378516D01*
X103845242Y-97426491D01*
X103862036Y-97494312D01*
X103839498Y-97560447D01*
X103794446Y-97599484D01*
X103785682Y-97603949D01*
X103613713Y-97728890D01*
X103463390Y-97879213D01*
X103338451Y-98051179D01*
X103241944Y-98240585D01*
X103176253Y-98442760D01*
X103153239Y-98588065D01*
X103143000Y-98652713D01*
X103143000Y-98865287D01*
X103176254Y-99075243D01*
X103200573Y-99150090D01*
X103241944Y-99277414D01*
X103338451Y-99466820D01*
X103463390Y-99638786D01*
X103613713Y-99789109D01*
X103785679Y-99914048D01*
X103785681Y-99914049D01*
X103785684Y-99914051D01*
X103794993Y-99918794D01*
X103845790Y-99966766D01*
X103862587Y-100034587D01*
X103840052Y-100100722D01*
X103795005Y-100139760D01*
X103785946Y-100144376D01*
X103785940Y-100144380D01*
X103731782Y-100183727D01*
X103731782Y-100183728D01*
X104364091Y-100816037D01*
X104300507Y-100833075D01*
X104186493Y-100898901D01*
X104093401Y-100991993D01*
X104027575Y-101106007D01*
X104010537Y-101169591D01*
X103378228Y-100537282D01*
X103378227Y-100537282D01*
X103338880Y-100591439D01*
X103242404Y-100780782D01*
X103176742Y-100982869D01*
X103176742Y-100982872D01*
X103143500Y-101192753D01*
X103143500Y-101405246D01*
X103176742Y-101615127D01*
X103176742Y-101615130D01*
X103242404Y-101817217D01*
X103338875Y-102006550D01*
X103378228Y-102060716D01*
X104010537Y-101428408D01*
X104027575Y-101491993D01*
X104093401Y-101606007D01*
X104186493Y-101699099D01*
X104300507Y-101764925D01*
X104364090Y-101781962D01*
X103731782Y-102414269D01*
X103731782Y-102414270D01*
X103785949Y-102453624D01*
X103975282Y-102550095D01*
X104177370Y-102615757D01*
X104387254Y-102649000D01*
X104599746Y-102649000D01*
X104809627Y-102615757D01*
X104809630Y-102615757D01*
X105011717Y-102550095D01*
X105201054Y-102453622D01*
X105255216Y-102414270D01*
X105255217Y-102414270D01*
X104622908Y-101781962D01*
X104686493Y-101764925D01*
X104800507Y-101699099D01*
X104893599Y-101606007D01*
X104959425Y-101491993D01*
X104976462Y-101428408D01*
X105608770Y-102060717D01*
X105608770Y-102060716D01*
X105648122Y-102006554D01*
X105744595Y-101817217D01*
X105799527Y-101648153D01*
X114540900Y-101648153D01*
X114540900Y-101805846D01*
X114571661Y-101960489D01*
X114571664Y-101960501D01*
X114632002Y-102106172D01*
X114632009Y-102106185D01*
X114719610Y-102237288D01*
X114719613Y-102237292D01*
X114831107Y-102348786D01*
X114831111Y-102348789D01*
X114962214Y-102436390D01*
X114962227Y-102436397D01*
X115107898Y-102496735D01*
X115107903Y-102496737D01*
X115262553Y-102527499D01*
X115262556Y-102527500D01*
X115262558Y-102527500D01*
X115420244Y-102527500D01*
X115420245Y-102527499D01*
X115574897Y-102496737D01*
X115711859Y-102440006D01*
X115720572Y-102436397D01*
X115720572Y-102436396D01*
X115720579Y-102436394D01*
X115851689Y-102348789D01*
X115963189Y-102237289D01*
X116050794Y-102106179D01*
X116111137Y-101960497D01*
X116141900Y-101805842D01*
X116141900Y-101648158D01*
X116141900Y-101648155D01*
X116141899Y-101648153D01*
X116135330Y-101615127D01*
X116111137Y-101493503D01*
X116110512Y-101491993D01*
X116050797Y-101347827D01*
X116050790Y-101347814D01*
X115963189Y-101216711D01*
X115963186Y-101216707D01*
X115851692Y-101105213D01*
X115851688Y-101105210D01*
X115720585Y-101017609D01*
X115720572Y-101017602D01*
X115574901Y-100957264D01*
X115574891Y-100957261D01*
X115420245Y-100926500D01*
X115420242Y-100926500D01*
X115262558Y-100926500D01*
X115262555Y-100926500D01*
X115107910Y-100957261D01*
X115107898Y-100957264D01*
X114962227Y-101017602D01*
X114962214Y-101017609D01*
X114831111Y-101105210D01*
X114831107Y-101105213D01*
X114719613Y-101216707D01*
X114719610Y-101216711D01*
X114632009Y-101347814D01*
X114632002Y-101347827D01*
X114571664Y-101493498D01*
X114571661Y-101493510D01*
X114540900Y-101648153D01*
X105799527Y-101648153D01*
X105810257Y-101615129D01*
X105843500Y-101405246D01*
X105843500Y-101192753D01*
X105810257Y-100982872D01*
X105810257Y-100982869D01*
X105754073Y-100809953D01*
X123938900Y-100809953D01*
X123938900Y-100967646D01*
X123969661Y-101122289D01*
X123969664Y-101122301D01*
X124030002Y-101267972D01*
X124030009Y-101267985D01*
X124117610Y-101399088D01*
X124117613Y-101399092D01*
X124229107Y-101510586D01*
X124229111Y-101510589D01*
X124360214Y-101598190D01*
X124360227Y-101598197D01*
X124505898Y-101658535D01*
X124505903Y-101658537D01*
X124660553Y-101689299D01*
X124660556Y-101689300D01*
X124660558Y-101689300D01*
X124818244Y-101689300D01*
X124818245Y-101689299D01*
X124972897Y-101658537D01*
X125099717Y-101606007D01*
X125118572Y-101598197D01*
X125118572Y-101598196D01*
X125118579Y-101598194D01*
X125249689Y-101510589D01*
X125361189Y-101399089D01*
X125448794Y-101267979D01*
X125509137Y-101122297D01*
X125539900Y-100967642D01*
X125539900Y-100809958D01*
X125539900Y-100809955D01*
X125539899Y-100809953D01*
X125534096Y-100780782D01*
X125509137Y-100655303D01*
X125482684Y-100591439D01*
X125448797Y-100509627D01*
X125448790Y-100509614D01*
X125361189Y-100378511D01*
X125361186Y-100378507D01*
X125249692Y-100267013D01*
X125249688Y-100267010D01*
X125118585Y-100179409D01*
X125118572Y-100179402D01*
X124972901Y-100119064D01*
X124972889Y-100119061D01*
X124818245Y-100088300D01*
X124818242Y-100088300D01*
X124660558Y-100088300D01*
X124660555Y-100088300D01*
X124505910Y-100119061D01*
X124505898Y-100119064D01*
X124360227Y-100179402D01*
X124360214Y-100179409D01*
X124229111Y-100267010D01*
X124229107Y-100267013D01*
X124117613Y-100378507D01*
X124117610Y-100378511D01*
X124030009Y-100509614D01*
X124030002Y-100509627D01*
X123969664Y-100655298D01*
X123969661Y-100655310D01*
X123938900Y-100809953D01*
X105754073Y-100809953D01*
X105744595Y-100780782D01*
X105648124Y-100591449D01*
X105608770Y-100537282D01*
X105608769Y-100537282D01*
X104976462Y-101169590D01*
X104959425Y-101106007D01*
X104893599Y-100991993D01*
X104800507Y-100898901D01*
X104686493Y-100833075D01*
X104622909Y-100816037D01*
X105255216Y-100183728D01*
X105201047Y-100144373D01*
X105201047Y-100144372D01*
X105192000Y-100139763D01*
X105141206Y-100091788D01*
X105124412Y-100023966D01*
X105146951Y-99957832D01*
X105192008Y-99918793D01*
X105201316Y-99914051D01*
X105311685Y-99833864D01*
X105373286Y-99789109D01*
X105373288Y-99789106D01*
X105373292Y-99789104D01*
X105523604Y-99638792D01*
X105523606Y-99638788D01*
X105523609Y-99638786D01*
X105648548Y-99466820D01*
X105648547Y-99466820D01*
X105648551Y-99466816D01*
X105745057Y-99277412D01*
X105810746Y-99075243D01*
X105844000Y-98865287D01*
X105844000Y-98652713D01*
X105831652Y-98574753D01*
X114159900Y-98574753D01*
X114159900Y-98732446D01*
X114190661Y-98887089D01*
X114190664Y-98887101D01*
X114251002Y-99032772D01*
X114251009Y-99032785D01*
X114338610Y-99163888D01*
X114338613Y-99163892D01*
X114450107Y-99275386D01*
X114450111Y-99275389D01*
X114581214Y-99362990D01*
X114581227Y-99362997D01*
X114726898Y-99423335D01*
X114726903Y-99423337D01*
X114881553Y-99454099D01*
X114881556Y-99454100D01*
X114881558Y-99454100D01*
X115039244Y-99454100D01*
X115039245Y-99454099D01*
X115193897Y-99423337D01*
X115339579Y-99362994D01*
X115470689Y-99275389D01*
X115582189Y-99163889D01*
X115669794Y-99032779D01*
X115730137Y-98887097D01*
X115760900Y-98732442D01*
X115760900Y-98574758D01*
X115760900Y-98574755D01*
X115760899Y-98574753D01*
X115734644Y-98442761D01*
X115730137Y-98420103D01*
X115711837Y-98375923D01*
X115690725Y-98324952D01*
X115683256Y-98255483D01*
X115714532Y-98193004D01*
X115774621Y-98157352D01*
X115781054Y-98155891D01*
X115793897Y-98153337D01*
X115939579Y-98092994D01*
X116070689Y-98005389D01*
X116182189Y-97893889D01*
X116269794Y-97762779D01*
X116330137Y-97617097D01*
X116360900Y-97462442D01*
X116360900Y-97304758D01*
X116360900Y-97304755D01*
X116360899Y-97304753D01*
X116330138Y-97150110D01*
X116330137Y-97150103D01*
X116330135Y-97150098D01*
X116269797Y-97004427D01*
X116269790Y-97004414D01*
X116182189Y-96873311D01*
X116182186Y-96873307D01*
X116070692Y-96761813D01*
X116070688Y-96761810D01*
X115939585Y-96674209D01*
X115939572Y-96674202D01*
X115793901Y-96613864D01*
X115793889Y-96613861D01*
X115639245Y-96583100D01*
X115639242Y-96583100D01*
X115481558Y-96583100D01*
X115481555Y-96583100D01*
X115326910Y-96613861D01*
X115326898Y-96613864D01*
X115181227Y-96674202D01*
X115181214Y-96674209D01*
X115050111Y-96761810D01*
X115050107Y-96761813D01*
X114938613Y-96873307D01*
X114938610Y-96873311D01*
X114851009Y-97004414D01*
X114851002Y-97004427D01*
X114790664Y-97150098D01*
X114790661Y-97150110D01*
X114759900Y-97304753D01*
X114759900Y-97462446D01*
X114788048Y-97603951D01*
X114790663Y-97617097D01*
X114826107Y-97702667D01*
X114830075Y-97712247D01*
X114837543Y-97781717D01*
X114806267Y-97844196D01*
X114746178Y-97879848D01*
X114739706Y-97881316D01*
X114726907Y-97883862D01*
X114726898Y-97883864D01*
X114581227Y-97944202D01*
X114581214Y-97944209D01*
X114450111Y-98031810D01*
X114450107Y-98031813D01*
X114338613Y-98143307D01*
X114338610Y-98143311D01*
X114251009Y-98274414D01*
X114251002Y-98274427D01*
X114190664Y-98420098D01*
X114190661Y-98420110D01*
X114159900Y-98574753D01*
X105831652Y-98574753D01*
X105810746Y-98442757D01*
X105745057Y-98240588D01*
X105648551Y-98051184D01*
X105648549Y-98051181D01*
X105648548Y-98051179D01*
X105523609Y-97879213D01*
X105373286Y-97728890D01*
X105201320Y-97603951D01*
X105200615Y-97603591D01*
X105192554Y-97599485D01*
X105141759Y-97551512D01*
X105124963Y-97483692D01*
X105147499Y-97417556D01*
X105192554Y-97378515D01*
X105201316Y-97374051D01*
X105234560Y-97349898D01*
X105373286Y-97249109D01*
X105373288Y-97249106D01*
X105373292Y-97249104D01*
X105523604Y-97098792D01*
X105523606Y-97098788D01*
X105523609Y-97098786D01*
X105648548Y-96926820D01*
X105648547Y-96926820D01*
X105648551Y-96926816D01*
X105745057Y-96737412D01*
X105810746Y-96535243D01*
X105844000Y-96325287D01*
X105844000Y-96112713D01*
X105810746Y-95902757D01*
X105745057Y-95700588D01*
X105648551Y-95511184D01*
X105639179Y-95498284D01*
X105597672Y-95441154D01*
X105597669Y-95441151D01*
X105549141Y-95374358D01*
X105549137Y-95374353D01*
X127037700Y-95374353D01*
X127037700Y-95532046D01*
X127068461Y-95686689D01*
X127068464Y-95686701D01*
X127128802Y-95832372D01*
X127128809Y-95832385D01*
X127216410Y-95963488D01*
X127216413Y-95963492D01*
X127327907Y-96074986D01*
X127327911Y-96074989D01*
X127459014Y-96162590D01*
X127459027Y-96162597D01*
X127604698Y-96222935D01*
X127604703Y-96222937D01*
X127759353Y-96253699D01*
X127759356Y-96253700D01*
X127759358Y-96253700D01*
X127917044Y-96253700D01*
X127917045Y-96253699D01*
X128071697Y-96222937D01*
X128217379Y-96162594D01*
X128239984Y-96147489D01*
X128306660Y-96126610D01*
X128374041Y-96145093D01*
X128420732Y-96197070D01*
X128431911Y-96266040D01*
X128411981Y-96319479D01*
X128394576Y-96345528D01*
X128394570Y-96345537D01*
X128223209Y-96666130D01*
X128223207Y-96666135D01*
X128084086Y-97002002D01*
X127978553Y-97349898D01*
X127978550Y-97349909D01*
X127907632Y-97706443D01*
X127872000Y-98068234D01*
X127872000Y-98431765D01*
X127907632Y-98793556D01*
X127978550Y-99150090D01*
X127978553Y-99150101D01*
X128084086Y-99497997D01*
X128223207Y-99833864D01*
X128223209Y-99833869D01*
X128394570Y-100154462D01*
X128394581Y-100154480D01*
X128596551Y-100456750D01*
X128783678Y-100684765D01*
X128783679Y-100684766D01*
X130277747Y-99190697D01*
X130351588Y-99292330D01*
X130529670Y-99470412D01*
X130631301Y-99544251D01*
X129137232Y-101038319D01*
X129137233Y-101038320D01*
X129365249Y-101225448D01*
X129667519Y-101427418D01*
X129667537Y-101427429D01*
X129988130Y-101598790D01*
X129988135Y-101598792D01*
X130324002Y-101737913D01*
X130671898Y-101843446D01*
X130671909Y-101843449D01*
X131028443Y-101914367D01*
X131390234Y-101950000D01*
X131753766Y-101950000D01*
X132115556Y-101914367D01*
X132472090Y-101843449D01*
X132472101Y-101843446D01*
X132819997Y-101737913D01*
X133155864Y-101598792D01*
X133155869Y-101598790D01*
X133476462Y-101427429D01*
X133476480Y-101427418D01*
X133778736Y-101225457D01*
X133778750Y-101225447D01*
X134006765Y-101038320D01*
X134006766Y-101038319D01*
X132512698Y-99544251D01*
X132614330Y-99470412D01*
X132792412Y-99292330D01*
X132866251Y-99190698D01*
X134360319Y-100684766D01*
X134360320Y-100684765D01*
X134547447Y-100456750D01*
X134547457Y-100456736D01*
X134749418Y-100154480D01*
X134749429Y-100154462D01*
X134920790Y-99833869D01*
X134920792Y-99833864D01*
X135059913Y-99497997D01*
X135165446Y-99150101D01*
X135165449Y-99150090D01*
X135236367Y-98793556D01*
X135272000Y-98431765D01*
X135272000Y-98068234D01*
X135236367Y-97706443D01*
X135165449Y-97349909D01*
X135165446Y-97349898D01*
X135059913Y-97002002D01*
X134920792Y-96666135D01*
X134920790Y-96666130D01*
X134749429Y-96345537D01*
X134749418Y-96345519D01*
X134547448Y-96043249D01*
X134360320Y-95815233D01*
X134360319Y-95815232D01*
X132866251Y-97309300D01*
X132792412Y-97207670D01*
X132614330Y-97029588D01*
X132512698Y-96955748D01*
X134006766Y-95461679D01*
X134006765Y-95461678D01*
X133778750Y-95274551D01*
X133476480Y-95072581D01*
X133476462Y-95072570D01*
X133155869Y-94901209D01*
X133155864Y-94901207D01*
X132819997Y-94762086D01*
X132472101Y-94656553D01*
X132472090Y-94656550D01*
X132115556Y-94585632D01*
X131753766Y-94550000D01*
X131390234Y-94550000D01*
X131028443Y-94585632D01*
X130671909Y-94656550D01*
X130671898Y-94656553D01*
X130324002Y-94762086D01*
X129988135Y-94901207D01*
X129988130Y-94901209D01*
X129667537Y-95072570D01*
X129667519Y-95072581D01*
X129365258Y-95274545D01*
X129365254Y-95274548D01*
X129137233Y-95461679D01*
X129137233Y-95461680D01*
X130631301Y-96955748D01*
X130529670Y-97029588D01*
X130351588Y-97207670D01*
X130277748Y-97309301D01*
X128783679Y-95815233D01*
X128739082Y-95817424D01*
X128717805Y-95812295D01*
X128695923Y-95811901D01*
X128684505Y-95804269D01*
X128671158Y-95801052D01*
X128656033Y-95785236D01*
X128637836Y-95773073D01*
X128632357Y-95760480D01*
X128622867Y-95750557D01*
X128618692Y-95729072D01*
X128609962Y-95709004D01*
X128610714Y-95688003D01*
X128609542Y-95681970D01*
X128610598Y-95673715D01*
X128610946Y-95671569D01*
X128638700Y-95532042D01*
X128638700Y-95374358D01*
X128638700Y-95374355D01*
X128638699Y-95374353D01*
X128607937Y-95219703D01*
X128598706Y-95197418D01*
X128547597Y-95074027D01*
X128547589Y-95074012D01*
X128459989Y-94942911D01*
X128459986Y-94942907D01*
X128348492Y-94831413D01*
X128348488Y-94831410D01*
X128217385Y-94743809D01*
X128217372Y-94743802D01*
X128071701Y-94683464D01*
X128071689Y-94683461D01*
X127917045Y-94652700D01*
X127917042Y-94652700D01*
X127759358Y-94652700D01*
X127759355Y-94652700D01*
X127604710Y-94683461D01*
X127604698Y-94683464D01*
X127459027Y-94743802D01*
X127459014Y-94743809D01*
X127327911Y-94831410D01*
X127327907Y-94831413D01*
X127216413Y-94942907D01*
X127216410Y-94942911D01*
X127128811Y-95074012D01*
X127128802Y-95074027D01*
X127068464Y-95219698D01*
X127068461Y-95219710D01*
X127037700Y-95374353D01*
X105549137Y-95374353D01*
X105523604Y-95339208D01*
X105410069Y-95225673D01*
X105376584Y-95164350D01*
X105381568Y-95094658D01*
X105423440Y-95038725D01*
X105454415Y-95021810D01*
X105585831Y-94972796D01*
X105701046Y-94886546D01*
X105787296Y-94771331D01*
X105837591Y-94636483D01*
X105844000Y-94576873D01*
X105843999Y-93494753D01*
X115379100Y-93494753D01*
X115379100Y-93652446D01*
X115409861Y-93807089D01*
X115409864Y-93807101D01*
X115470202Y-93952772D01*
X115470209Y-93952785D01*
X115557810Y-94083888D01*
X115557813Y-94083892D01*
X115669307Y-94195386D01*
X115669311Y-94195389D01*
X115800414Y-94282990D01*
X115800427Y-94282997D01*
X115946098Y-94343335D01*
X115946103Y-94343337D01*
X116100753Y-94374099D01*
X116100756Y-94374100D01*
X116100758Y-94374100D01*
X116258444Y-94374100D01*
X116258445Y-94374099D01*
X116413097Y-94343337D01*
X116558779Y-94282994D01*
X116689889Y-94195389D01*
X116801389Y-94083889D01*
X116888994Y-93952779D01*
X116949337Y-93807097D01*
X116980100Y-93652442D01*
X116980100Y-93494758D01*
X116980100Y-93494755D01*
X116980099Y-93494753D01*
X116949338Y-93340110D01*
X116949337Y-93340103D01*
X116949335Y-93340098D01*
X116888997Y-93194427D01*
X116888990Y-93194414D01*
X116801389Y-93063311D01*
X116801386Y-93063307D01*
X116689892Y-92951813D01*
X116689888Y-92951810D01*
X116558785Y-92864209D01*
X116558772Y-92864202D01*
X116413101Y-92803864D01*
X116413089Y-92803861D01*
X116258445Y-92773100D01*
X116258442Y-92773100D01*
X116100758Y-92773100D01*
X116100755Y-92773100D01*
X115946110Y-92803861D01*
X115946098Y-92803864D01*
X115800427Y-92864202D01*
X115800414Y-92864209D01*
X115669311Y-92951810D01*
X115669307Y-92951813D01*
X115557813Y-93063307D01*
X115557810Y-93063311D01*
X115470209Y-93194414D01*
X115470202Y-93194427D01*
X115409864Y-93340098D01*
X115409861Y-93340110D01*
X115379100Y-93494753D01*
X105843999Y-93494753D01*
X105843999Y-92781128D01*
X105837591Y-92721517D01*
X105787296Y-92586669D01*
X105787295Y-92586668D01*
X105787293Y-92586664D01*
X105701047Y-92471455D01*
X105701044Y-92471452D01*
X105585835Y-92385206D01*
X105585828Y-92385202D01*
X105450982Y-92334908D01*
X105450983Y-92334908D01*
X105391383Y-92328501D01*
X105391381Y-92328500D01*
X105391373Y-92328500D01*
X105391364Y-92328500D01*
X103595629Y-92328500D01*
X103595623Y-92328501D01*
X103536016Y-92334908D01*
X103401171Y-92385202D01*
X103401164Y-92385206D01*
X103285955Y-92471452D01*
X103285952Y-92471455D01*
X103199706Y-92586664D01*
X103199702Y-92586671D01*
X103149408Y-92721517D01*
X103143863Y-92773100D01*
X103143001Y-92781123D01*
X103143000Y-92781135D01*
X100703500Y-92781135D01*
X100703500Y-91056353D01*
X115658500Y-91056353D01*
X115658500Y-91214046D01*
X115689261Y-91368689D01*
X115689264Y-91368701D01*
X115749602Y-91514372D01*
X115749609Y-91514385D01*
X115837210Y-91645488D01*
X115837213Y-91645492D01*
X115948707Y-91756986D01*
X115948711Y-91756989D01*
X116079814Y-91844590D01*
X116079827Y-91844597D01*
X116225498Y-91904935D01*
X116225503Y-91904937D01*
X116380153Y-91935699D01*
X116380156Y-91935700D01*
X116380158Y-91935700D01*
X116537844Y-91935700D01*
X116537845Y-91935699D01*
X116692497Y-91904937D01*
X116838179Y-91844594D01*
X116969289Y-91756989D01*
X117080789Y-91645489D01*
X117168394Y-91514379D01*
X117228737Y-91368697D01*
X117259500Y-91214042D01*
X117259500Y-91056358D01*
X117259500Y-91056355D01*
X117259499Y-91056353D01*
X117228738Y-90901710D01*
X117228737Y-90901703D01*
X117228735Y-90901698D01*
X117168397Y-90756027D01*
X117168390Y-90756014D01*
X117080789Y-90624911D01*
X117080786Y-90624907D01*
X116969292Y-90513413D01*
X116969288Y-90513410D01*
X116838185Y-90425809D01*
X116838172Y-90425802D01*
X116692501Y-90365464D01*
X116692489Y-90365461D01*
X116537845Y-90334700D01*
X116537842Y-90334700D01*
X116380158Y-90334700D01*
X116380155Y-90334700D01*
X116225510Y-90365461D01*
X116225498Y-90365464D01*
X116079827Y-90425802D01*
X116079814Y-90425809D01*
X115948711Y-90513410D01*
X115948707Y-90513413D01*
X115837213Y-90624907D01*
X115837210Y-90624911D01*
X115749609Y-90756014D01*
X115749602Y-90756027D01*
X115689264Y-90901698D01*
X115689261Y-90901710D01*
X115658500Y-91056353D01*
X100703500Y-91056353D01*
X100703500Y-89250913D01*
X109444300Y-89250913D01*
X109444300Y-89463486D01*
X109477553Y-89673439D01*
X109543244Y-89875614D01*
X109639751Y-90065020D01*
X109764690Y-90236986D01*
X109915013Y-90387309D01*
X110086979Y-90512248D01*
X110086981Y-90512249D01*
X110086984Y-90512251D01*
X110276388Y-90608757D01*
X110478557Y-90674446D01*
X110688513Y-90707700D01*
X110688514Y-90707700D01*
X110901086Y-90707700D01*
X110901087Y-90707700D01*
X111111043Y-90674446D01*
X111313212Y-90608757D01*
X111502616Y-90512251D01*
X111674592Y-90387304D01*
X111788129Y-90273766D01*
X111849448Y-90240284D01*
X111919140Y-90245268D01*
X111975074Y-90287139D01*
X111991989Y-90318117D01*
X112041002Y-90449528D01*
X112041006Y-90449535D01*
X112127252Y-90564744D01*
X112127255Y-90564747D01*
X112242464Y-90650993D01*
X112242471Y-90650997D01*
X112377317Y-90701291D01*
X112377316Y-90701291D01*
X112384244Y-90702035D01*
X112436927Y-90707700D01*
X114232672Y-90707699D01*
X114292283Y-90701291D01*
X114427131Y-90650996D01*
X114542346Y-90564746D01*
X114628596Y-90449531D01*
X114678891Y-90314683D01*
X114685300Y-90255073D01*
X114685299Y-88490953D01*
X120738500Y-88490953D01*
X120738500Y-88648646D01*
X120769261Y-88803289D01*
X120769264Y-88803301D01*
X120829602Y-88948972D01*
X120829609Y-88948985D01*
X120917210Y-89080088D01*
X120917213Y-89080092D01*
X121028707Y-89191586D01*
X121028711Y-89191589D01*
X121159814Y-89279190D01*
X121159827Y-89279197D01*
X121305498Y-89339535D01*
X121305503Y-89339537D01*
X121460153Y-89370299D01*
X121460156Y-89370300D01*
X121460158Y-89370300D01*
X121617844Y-89370300D01*
X121617845Y-89370299D01*
X121772497Y-89339537D01*
X121918179Y-89279194D01*
X122049289Y-89191589D01*
X122160789Y-89080089D01*
X122248394Y-88948979D01*
X122308737Y-88803297D01*
X122339500Y-88648642D01*
X122339500Y-88490958D01*
X122339500Y-88490955D01*
X122339499Y-88490953D01*
X122333696Y-88461781D01*
X122308737Y-88336303D01*
X122279149Y-88264871D01*
X122248397Y-88190627D01*
X122248390Y-88190614D01*
X122160789Y-88059511D01*
X122160786Y-88059507D01*
X122049292Y-87948013D01*
X122049288Y-87948010D01*
X121918185Y-87860409D01*
X121918172Y-87860402D01*
X121772501Y-87800064D01*
X121772489Y-87800061D01*
X121617845Y-87769300D01*
X121617842Y-87769300D01*
X121460158Y-87769300D01*
X121460155Y-87769300D01*
X121305510Y-87800061D01*
X121305498Y-87800064D01*
X121159827Y-87860402D01*
X121159814Y-87860409D01*
X121028711Y-87948010D01*
X121028707Y-87948013D01*
X120917213Y-88059507D01*
X120917210Y-88059511D01*
X120829609Y-88190614D01*
X120829602Y-88190627D01*
X120769264Y-88336298D01*
X120769261Y-88336310D01*
X120738500Y-88490953D01*
X114685299Y-88490953D01*
X114685299Y-88459328D01*
X114678891Y-88399717D01*
X114677610Y-88396283D01*
X114628597Y-88264871D01*
X114628593Y-88264864D01*
X114542347Y-88149655D01*
X114542344Y-88149652D01*
X114427135Y-88063406D01*
X114427128Y-88063402D01*
X114292282Y-88013108D01*
X114292283Y-88013108D01*
X114232683Y-88006701D01*
X114232681Y-88006700D01*
X114232673Y-88006700D01*
X114232664Y-88006700D01*
X112436929Y-88006700D01*
X112436923Y-88006701D01*
X112377316Y-88013108D01*
X112242471Y-88063402D01*
X112242464Y-88063406D01*
X112127255Y-88149652D01*
X112127252Y-88149655D01*
X112041006Y-88264864D01*
X112041003Y-88264869D01*
X111991989Y-88396283D01*
X111950117Y-88452216D01*
X111884653Y-88476633D01*
X111816380Y-88461781D01*
X111788126Y-88440630D01*
X111674586Y-88327090D01*
X111502620Y-88202151D01*
X111313214Y-88105644D01*
X111313213Y-88105643D01*
X111313212Y-88105643D01*
X111111043Y-88039954D01*
X111111041Y-88039953D01*
X111111040Y-88039953D01*
X110949757Y-88014408D01*
X110901087Y-88006700D01*
X110688513Y-88006700D01*
X110639842Y-88014408D01*
X110478560Y-88039953D01*
X110276385Y-88105644D01*
X110086979Y-88202151D01*
X109915013Y-88327090D01*
X109764690Y-88477413D01*
X109639751Y-88649379D01*
X109543244Y-88838785D01*
X109477553Y-89040960D01*
X109444300Y-89250913D01*
X100703500Y-89250913D01*
X100703500Y-81818234D01*
X104900000Y-81818234D01*
X104900000Y-82181765D01*
X104935632Y-82543556D01*
X105006550Y-82900090D01*
X105006553Y-82900101D01*
X105112086Y-83247997D01*
X105251207Y-83583864D01*
X105251209Y-83583869D01*
X105422570Y-83904462D01*
X105422581Y-83904480D01*
X105624551Y-84206750D01*
X105811678Y-84434765D01*
X105811679Y-84434766D01*
X107305747Y-82940697D01*
X107379588Y-83042330D01*
X107557670Y-83220412D01*
X107659301Y-83294251D01*
X106165232Y-84788319D01*
X106165233Y-84788320D01*
X106393249Y-84975448D01*
X106695519Y-85177418D01*
X106695537Y-85177429D01*
X107016130Y-85348790D01*
X107016135Y-85348792D01*
X107352002Y-85487913D01*
X107699898Y-85593446D01*
X107699909Y-85593449D01*
X108056443Y-85664367D01*
X108418234Y-85700000D01*
X108781766Y-85700000D01*
X109143556Y-85664367D01*
X109500090Y-85593449D01*
X109500101Y-85593446D01*
X109847997Y-85487913D01*
X110183864Y-85348792D01*
X110183869Y-85348790D01*
X110504462Y-85177429D01*
X110504480Y-85177418D01*
X110806736Y-84975457D01*
X110806750Y-84975447D01*
X111034765Y-84788320D01*
X111034766Y-84788319D01*
X109540698Y-83294251D01*
X109642330Y-83220412D01*
X109820412Y-83042330D01*
X109894251Y-82940698D01*
X111388319Y-84434766D01*
X111388320Y-84434765D01*
X111575447Y-84206750D01*
X111575457Y-84206736D01*
X111777418Y-83904480D01*
X111777429Y-83904462D01*
X111948790Y-83583869D01*
X111948792Y-83583864D01*
X112087913Y-83247997D01*
X112193446Y-82900101D01*
X112193449Y-82900090D01*
X112264367Y-82543556D01*
X112300000Y-82181765D01*
X112300000Y-81818234D01*
X112264367Y-81456443D01*
X112193449Y-81099909D01*
X112193446Y-81099898D01*
X112087913Y-80752002D01*
X111948792Y-80416135D01*
X111948790Y-80416130D01*
X111777429Y-80095537D01*
X111777418Y-80095519D01*
X111575448Y-79793249D01*
X111388320Y-79565233D01*
X111388319Y-79565232D01*
X109894251Y-81059300D01*
X109820412Y-80957670D01*
X109642330Y-80779588D01*
X109540698Y-80705748D01*
X111034766Y-79211679D01*
X111034765Y-79211678D01*
X111029434Y-79207302D01*
X111029424Y-79207295D01*
X110918562Y-79116313D01*
X116276900Y-79116313D01*
X116276900Y-79328886D01*
X116310135Y-79538727D01*
X116310154Y-79538843D01*
X116318728Y-79565232D01*
X116375844Y-79741014D01*
X116472351Y-79930420D01*
X116597290Y-80102386D01*
X116711218Y-80216314D01*
X116744703Y-80277637D01*
X116739719Y-80347329D01*
X116697847Y-80403262D01*
X116666871Y-80420177D01*
X116535312Y-80469246D01*
X116535306Y-80469249D01*
X116420212Y-80555409D01*
X116420209Y-80555412D01*
X116334049Y-80670506D01*
X116334045Y-80670513D01*
X116283803Y-80805220D01*
X116283801Y-80805227D01*
X116277400Y-80864755D01*
X116277400Y-81512600D01*
X117194388Y-81512600D01*
X117161475Y-81569607D01*
X117127400Y-81696774D01*
X117127400Y-81828426D01*
X117161475Y-81955593D01*
X117194388Y-82012600D01*
X116277400Y-82012600D01*
X116277400Y-82660444D01*
X116283801Y-82719972D01*
X116283803Y-82719979D01*
X116334045Y-82854686D01*
X116334049Y-82854693D01*
X116420209Y-82969787D01*
X116420212Y-82969790D01*
X116535306Y-83055950D01*
X116535313Y-83055954D01*
X116670020Y-83106196D01*
X116670027Y-83106198D01*
X116729555Y-83112599D01*
X116729572Y-83112600D01*
X117377400Y-83112600D01*
X117377400Y-82195612D01*
X117434407Y-82228525D01*
X117561574Y-82262600D01*
X117693226Y-82262600D01*
X117820393Y-82228525D01*
X117877400Y-82195612D01*
X117877400Y-83112600D01*
X118525228Y-83112600D01*
X118525244Y-83112599D01*
X118584772Y-83106198D01*
X118584779Y-83106196D01*
X118719486Y-83055954D01*
X118719493Y-83055950D01*
X118834587Y-82969790D01*
X118834590Y-82969787D01*
X118920750Y-82854693D01*
X118920754Y-82854686D01*
X118969822Y-82723129D01*
X119011693Y-82667195D01*
X119077157Y-82642778D01*
X119145430Y-82657630D01*
X119173685Y-82678781D01*
X119287613Y-82792709D01*
X119459579Y-82917648D01*
X119459581Y-82917649D01*
X119459584Y-82917651D01*
X119648988Y-83014157D01*
X119851157Y-83079846D01*
X120061113Y-83113100D01*
X120061114Y-83113100D01*
X120273686Y-83113100D01*
X120273687Y-83113100D01*
X120483643Y-83079846D01*
X120685812Y-83014157D01*
X120875216Y-82917651D01*
X120961871Y-82854693D01*
X121047186Y-82792709D01*
X121047188Y-82792706D01*
X121047192Y-82792704D01*
X121197504Y-82642392D01*
X121197506Y-82642388D01*
X121197509Y-82642386D01*
X121322448Y-82470420D01*
X121322447Y-82470420D01*
X121322451Y-82470416D01*
X121326914Y-82461654D01*
X121374888Y-82410859D01*
X121442708Y-82394063D01*
X121508844Y-82416599D01*
X121547886Y-82461656D01*
X121552351Y-82470420D01*
X121677290Y-82642386D01*
X121827613Y-82792709D01*
X121999579Y-82917648D01*
X121999581Y-82917649D01*
X121999584Y-82917651D01*
X122188988Y-83014157D01*
X122391157Y-83079846D01*
X122601113Y-83113100D01*
X122601114Y-83113100D01*
X122813686Y-83113100D01*
X122813687Y-83113100D01*
X123023643Y-83079846D01*
X123225812Y-83014157D01*
X123415216Y-82917651D01*
X123501871Y-82854693D01*
X123587186Y-82792709D01*
X123587188Y-82792706D01*
X123587192Y-82792704D01*
X123737504Y-82642392D01*
X123737506Y-82642388D01*
X123737509Y-82642386D01*
X123862448Y-82470420D01*
X123862447Y-82470420D01*
X123862451Y-82470416D01*
X123866914Y-82461654D01*
X123914888Y-82410859D01*
X123982708Y-82394063D01*
X124048844Y-82416599D01*
X124087886Y-82461656D01*
X124092351Y-82470420D01*
X124217290Y-82642386D01*
X124367613Y-82792709D01*
X124539579Y-82917648D01*
X124539581Y-82917649D01*
X124539584Y-82917651D01*
X124728988Y-83014157D01*
X124931157Y-83079846D01*
X125141113Y-83113100D01*
X125141114Y-83113100D01*
X125353686Y-83113100D01*
X125353687Y-83113100D01*
X125563643Y-83079846D01*
X125765812Y-83014157D01*
X125955216Y-82917651D01*
X126041871Y-82854693D01*
X126115288Y-82801353D01*
X131635100Y-82801353D01*
X131635100Y-82959046D01*
X131665861Y-83113689D01*
X131665864Y-83113701D01*
X131726202Y-83259372D01*
X131726209Y-83259385D01*
X131813810Y-83390488D01*
X131813813Y-83390492D01*
X131925307Y-83501986D01*
X131925311Y-83501989D01*
X132056414Y-83589590D01*
X132056427Y-83589597D01*
X132202098Y-83649935D01*
X132202103Y-83649937D01*
X132356753Y-83680699D01*
X132356756Y-83680700D01*
X132356758Y-83680700D01*
X132514444Y-83680700D01*
X132514445Y-83680699D01*
X132669097Y-83649937D01*
X132814779Y-83589594D01*
X132945889Y-83501989D01*
X133057389Y-83390489D01*
X133144994Y-83259379D01*
X133205337Y-83113697D01*
X133236100Y-82959042D01*
X133236100Y-82801358D01*
X133236100Y-82801355D01*
X133236099Y-82801353D01*
X133220539Y-82723129D01*
X133205337Y-82646703D01*
X133191869Y-82614187D01*
X133144997Y-82501027D01*
X133144990Y-82501014D01*
X133057389Y-82369911D01*
X133057386Y-82369907D01*
X132945892Y-82258413D01*
X132945888Y-82258410D01*
X132814785Y-82170809D01*
X132814772Y-82170802D01*
X132669101Y-82110464D01*
X132669089Y-82110461D01*
X132514445Y-82079700D01*
X132514442Y-82079700D01*
X132356758Y-82079700D01*
X132356755Y-82079700D01*
X132202110Y-82110461D01*
X132202098Y-82110464D01*
X132056427Y-82170802D01*
X132056414Y-82170809D01*
X131925311Y-82258410D01*
X131925307Y-82258413D01*
X131813813Y-82369907D01*
X131813810Y-82369911D01*
X131726209Y-82501014D01*
X131726202Y-82501027D01*
X131665864Y-82646698D01*
X131665861Y-82646710D01*
X131635100Y-82801353D01*
X126115288Y-82801353D01*
X126127186Y-82792709D01*
X126127188Y-82792706D01*
X126127192Y-82792704D01*
X126277504Y-82642392D01*
X126277506Y-82642388D01*
X126277509Y-82642386D01*
X126402448Y-82470420D01*
X126402447Y-82470420D01*
X126402451Y-82470416D01*
X126498957Y-82281012D01*
X126564646Y-82078843D01*
X126597900Y-81868887D01*
X126597900Y-81658353D01*
X128180700Y-81658353D01*
X128180700Y-81816046D01*
X128211461Y-81970689D01*
X128211464Y-81970701D01*
X128271802Y-82116372D01*
X128271809Y-82116385D01*
X128359410Y-82247488D01*
X128359413Y-82247492D01*
X128470907Y-82358986D01*
X128470911Y-82358989D01*
X128602014Y-82446590D01*
X128602027Y-82446597D01*
X128733420Y-82501021D01*
X128747703Y-82506937D01*
X128902353Y-82537699D01*
X128902356Y-82537700D01*
X128902358Y-82537700D01*
X129060044Y-82537700D01*
X129060045Y-82537699D01*
X129214697Y-82506937D01*
X129360379Y-82446594D01*
X129491489Y-82358989D01*
X129602989Y-82247489D01*
X129690594Y-82116379D01*
X129693045Y-82110463D01*
X129750935Y-81970701D01*
X129750937Y-81970697D01*
X129781700Y-81816042D01*
X129781700Y-81658358D01*
X129781700Y-81658355D01*
X129781699Y-81658353D01*
X129756622Y-81532285D01*
X129750937Y-81503703D01*
X129750935Y-81503698D01*
X129690597Y-81358027D01*
X129690590Y-81358014D01*
X129602989Y-81226911D01*
X129602986Y-81226907D01*
X129491492Y-81115413D01*
X129491488Y-81115410D01*
X129360385Y-81027809D01*
X129360372Y-81027802D01*
X129214701Y-80967464D01*
X129214689Y-80967461D01*
X129060045Y-80936700D01*
X129060042Y-80936700D01*
X128902358Y-80936700D01*
X128902355Y-80936700D01*
X128747710Y-80967461D01*
X128747698Y-80967464D01*
X128602027Y-81027802D01*
X128602014Y-81027809D01*
X128470911Y-81115410D01*
X128470907Y-81115413D01*
X128359413Y-81226907D01*
X128359410Y-81226911D01*
X128271809Y-81358014D01*
X128271802Y-81358027D01*
X128211464Y-81503698D01*
X128211461Y-81503710D01*
X128180700Y-81658353D01*
X126597900Y-81658353D01*
X126597900Y-81656313D01*
X126564646Y-81446357D01*
X126498957Y-81244188D01*
X126402451Y-81054784D01*
X126402449Y-81054781D01*
X126402448Y-81054779D01*
X126277509Y-80882813D01*
X126127186Y-80732490D01*
X125955217Y-80607549D01*
X125945904Y-80602804D01*
X125895107Y-80554830D01*
X125878312Y-80487009D01*
X125900849Y-80420874D01*
X125945907Y-80381832D01*
X125954955Y-80377222D01*
X126009116Y-80337870D01*
X126009117Y-80337870D01*
X125376808Y-79705562D01*
X125440393Y-79688525D01*
X125554407Y-79622699D01*
X125647499Y-79529607D01*
X125713325Y-79415593D01*
X125730362Y-79352008D01*
X126362670Y-79984317D01*
X126362670Y-79984316D01*
X126402022Y-79930154D01*
X126498495Y-79740817D01*
X126564157Y-79538730D01*
X126564157Y-79538727D01*
X126597400Y-79328846D01*
X126597400Y-79116353D01*
X126564157Y-78906472D01*
X126564157Y-78906469D01*
X126498495Y-78704382D01*
X126402024Y-78515049D01*
X126362670Y-78460882D01*
X126362669Y-78460882D01*
X125730362Y-79093190D01*
X125713325Y-79029607D01*
X125647499Y-78915593D01*
X125554407Y-78822501D01*
X125440393Y-78756675D01*
X125376809Y-78739637D01*
X126009116Y-78107328D01*
X125954950Y-78067975D01*
X125765617Y-77971504D01*
X125563529Y-77905842D01*
X125353646Y-77872600D01*
X125141154Y-77872600D01*
X124931272Y-77905842D01*
X124931269Y-77905842D01*
X124729182Y-77971504D01*
X124539839Y-78067980D01*
X124485682Y-78107327D01*
X124485682Y-78107328D01*
X125117991Y-78739637D01*
X125054407Y-78756675D01*
X124940393Y-78822501D01*
X124847301Y-78915593D01*
X124781475Y-79029607D01*
X124764437Y-79093191D01*
X124132128Y-78460882D01*
X124132127Y-78460882D01*
X124092780Y-78515040D01*
X124092776Y-78515046D01*
X124088160Y-78524105D01*
X124040181Y-78574897D01*
X123972359Y-78591687D01*
X123906226Y-78569143D01*
X123867194Y-78524093D01*
X123862451Y-78514784D01*
X123862449Y-78514781D01*
X123862448Y-78514779D01*
X123737509Y-78342813D01*
X123587186Y-78192490D01*
X123415220Y-78067551D01*
X123225814Y-77971044D01*
X123225813Y-77971043D01*
X123225812Y-77971043D01*
X123023643Y-77905354D01*
X123023641Y-77905353D01*
X123023640Y-77905353D01*
X122862357Y-77879808D01*
X122813687Y-77872100D01*
X122601113Y-77872100D01*
X122552442Y-77879808D01*
X122391160Y-77905353D01*
X122188985Y-77971044D01*
X121999579Y-78067551D01*
X121827613Y-78192490D01*
X121677290Y-78342813D01*
X121552349Y-78514782D01*
X121547602Y-78524099D01*
X121499627Y-78574893D01*
X121431805Y-78591687D01*
X121365671Y-78569148D01*
X121326634Y-78524095D01*
X121322026Y-78515052D01*
X121282670Y-78460882D01*
X121282669Y-78460882D01*
X120650362Y-79093190D01*
X120633325Y-79029607D01*
X120567499Y-78915593D01*
X120474407Y-78822501D01*
X120360393Y-78756675D01*
X120296809Y-78739637D01*
X120929116Y-78107328D01*
X120874950Y-78067975D01*
X120685617Y-77971504D01*
X120483529Y-77905842D01*
X120273646Y-77872600D01*
X120061154Y-77872600D01*
X119851272Y-77905842D01*
X119851269Y-77905842D01*
X119649182Y-77971504D01*
X119459839Y-78067980D01*
X119405682Y-78107327D01*
X119405682Y-78107328D01*
X120037991Y-78739637D01*
X119974407Y-78756675D01*
X119860393Y-78822501D01*
X119767301Y-78915593D01*
X119701475Y-79029607D01*
X119684437Y-79093191D01*
X119052128Y-78460882D01*
X119052127Y-78460882D01*
X119012780Y-78515040D01*
X119012776Y-78515046D01*
X119008160Y-78524105D01*
X118960181Y-78574897D01*
X118892359Y-78591687D01*
X118826226Y-78569143D01*
X118787194Y-78524093D01*
X118782451Y-78514784D01*
X118782449Y-78514781D01*
X118782448Y-78514779D01*
X118657509Y-78342813D01*
X118507186Y-78192490D01*
X118335220Y-78067551D01*
X118145814Y-77971044D01*
X118145813Y-77971043D01*
X118145812Y-77971043D01*
X117943643Y-77905354D01*
X117943641Y-77905353D01*
X117943640Y-77905353D01*
X117782357Y-77879808D01*
X117733687Y-77872100D01*
X117521113Y-77872100D01*
X117472442Y-77879808D01*
X117311160Y-77905353D01*
X117108985Y-77971044D01*
X116919579Y-78067551D01*
X116747613Y-78192490D01*
X116597290Y-78342813D01*
X116472351Y-78514779D01*
X116375844Y-78704185D01*
X116310153Y-78906360D01*
X116276900Y-79116313D01*
X110918562Y-79116313D01*
X110806743Y-79024546D01*
X110504480Y-78822581D01*
X110504462Y-78822570D01*
X110183869Y-78651209D01*
X110183864Y-78651207D01*
X109847997Y-78512086D01*
X109500101Y-78406553D01*
X109500090Y-78406550D01*
X109143556Y-78335632D01*
X108781766Y-78300000D01*
X108418234Y-78300000D01*
X108056443Y-78335632D01*
X107699909Y-78406550D01*
X107699898Y-78406553D01*
X107352002Y-78512086D01*
X107016135Y-78651207D01*
X107016130Y-78651209D01*
X106695537Y-78822570D01*
X106695519Y-78822581D01*
X106393258Y-79024545D01*
X106393254Y-79024548D01*
X106165233Y-79211679D01*
X106165233Y-79211680D01*
X107659301Y-80705748D01*
X107557670Y-80779588D01*
X107379588Y-80957670D01*
X107305748Y-81059301D01*
X105811680Y-79565233D01*
X105811679Y-79565233D01*
X105624548Y-79793254D01*
X105624545Y-79793258D01*
X105422581Y-80095519D01*
X105422570Y-80095537D01*
X105251209Y-80416130D01*
X105251207Y-80416135D01*
X105112086Y-80752002D01*
X105006553Y-81099898D01*
X105006550Y-81099909D01*
X104935632Y-81456443D01*
X104900000Y-81818234D01*
X100703500Y-81818234D01*
X100703500Y-76280500D01*
X100723185Y-76213461D01*
X100775989Y-76167706D01*
X100827500Y-76156500D01*
X129146786Y-76156500D01*
X129213825Y-76176185D01*
G37*
%TD.AperFunction*%
%TD*%
M02*
