%TF.GenerationSoftware,KiCad,Pcbnew,9.0.6*%
%TF.CreationDate,2025-12-13T14:25:23+01:00*%
%TF.ProjectId,SB_Mod_SR04,53425f4d-6f64-45f5-9352-30342e6b6963,rev?*%
%TF.SameCoordinates,Original*%
%TF.FileFunction,Legend,Bot*%
%TF.FilePolarity,Positive*%
%FSLAX46Y46*%
G04 Gerber Fmt 4.6, Leading zero omitted, Abs format (unit mm)*
G04 Created by KiCad (PCBNEW 9.0.6) date 2025-12-13 14:25:23*
%MOMM*%
%LPD*%
G01*
G04 APERTURE LIST*
%ADD10C,0.100000*%
G04 APERTURE END LIST*
D10*
X132298152Y-87371587D02*
X132298152Y-86371587D01*
X132298152Y-86371587D02*
X131964819Y-87085872D01*
X131964819Y-87085872D02*
X131631486Y-86371587D01*
X131631486Y-86371587D02*
X131631486Y-87371587D01*
X130726724Y-87371587D02*
X130726724Y-86847777D01*
X130726724Y-86847777D02*
X130774343Y-86752539D01*
X130774343Y-86752539D02*
X130869581Y-86704920D01*
X130869581Y-86704920D02*
X131060057Y-86704920D01*
X131060057Y-86704920D02*
X131155295Y-86752539D01*
X130726724Y-87323968D02*
X130821962Y-87371587D01*
X130821962Y-87371587D02*
X131060057Y-87371587D01*
X131060057Y-87371587D02*
X131155295Y-87323968D01*
X131155295Y-87323968D02*
X131202914Y-87228729D01*
X131202914Y-87228729D02*
X131202914Y-87133491D01*
X131202914Y-87133491D02*
X131155295Y-87038253D01*
X131155295Y-87038253D02*
X131060057Y-86990634D01*
X131060057Y-86990634D02*
X130821962Y-86990634D01*
X130821962Y-86990634D02*
X130726724Y-86943015D01*
X129821962Y-87323968D02*
X129917200Y-87371587D01*
X129917200Y-87371587D02*
X130107676Y-87371587D01*
X130107676Y-87371587D02*
X130202914Y-87323968D01*
X130202914Y-87323968D02*
X130250533Y-87276348D01*
X130250533Y-87276348D02*
X130298152Y-87181110D01*
X130298152Y-87181110D02*
X130298152Y-86895396D01*
X130298152Y-86895396D02*
X130250533Y-86800158D01*
X130250533Y-86800158D02*
X130202914Y-86752539D01*
X130202914Y-86752539D02*
X130107676Y-86704920D01*
X130107676Y-86704920D02*
X129917200Y-86704920D01*
X129917200Y-86704920D02*
X129821962Y-86752539D01*
X129393390Y-87371587D02*
X129393390Y-86371587D01*
X128964819Y-87371587D02*
X128964819Y-86847777D01*
X128964819Y-86847777D02*
X129012438Y-86752539D01*
X129012438Y-86752539D02*
X129107676Y-86704920D01*
X129107676Y-86704920D02*
X129250533Y-86704920D01*
X129250533Y-86704920D02*
X129345771Y-86752539D01*
X129345771Y-86752539D02*
X129393390Y-86800158D01*
X128488628Y-87371587D02*
X128488628Y-86704920D01*
X128488628Y-86371587D02*
X128536247Y-86419206D01*
X128536247Y-86419206D02*
X128488628Y-86466825D01*
X128488628Y-86466825D02*
X128441009Y-86419206D01*
X128441009Y-86419206D02*
X128488628Y-86371587D01*
X128488628Y-86371587D02*
X128488628Y-86466825D01*
X128012438Y-86704920D02*
X128012438Y-87371587D01*
X128012438Y-86800158D02*
X127964819Y-86752539D01*
X127964819Y-86752539D02*
X127869581Y-86704920D01*
X127869581Y-86704920D02*
X127726724Y-86704920D01*
X127726724Y-86704920D02*
X127631486Y-86752539D01*
X127631486Y-86752539D02*
X127583867Y-86847777D01*
X127583867Y-86847777D02*
X127583867Y-87371587D01*
X126679105Y-87371587D02*
X126679105Y-86847777D01*
X126679105Y-86847777D02*
X126726724Y-86752539D01*
X126726724Y-86752539D02*
X126821962Y-86704920D01*
X126821962Y-86704920D02*
X127012438Y-86704920D01*
X127012438Y-86704920D02*
X127107676Y-86752539D01*
X126679105Y-87323968D02*
X126774343Y-87371587D01*
X126774343Y-87371587D02*
X127012438Y-87371587D01*
X127012438Y-87371587D02*
X127107676Y-87323968D01*
X127107676Y-87323968D02*
X127155295Y-87228729D01*
X127155295Y-87228729D02*
X127155295Y-87133491D01*
X127155295Y-87133491D02*
X127107676Y-87038253D01*
X127107676Y-87038253D02*
X127012438Y-86990634D01*
X127012438Y-86990634D02*
X126774343Y-86990634D01*
X126774343Y-86990634D02*
X126679105Y-86943015D01*
X125488628Y-87323968D02*
X125345771Y-87371587D01*
X125345771Y-87371587D02*
X125107676Y-87371587D01*
X125107676Y-87371587D02*
X125012438Y-87323968D01*
X125012438Y-87323968D02*
X124964819Y-87276348D01*
X124964819Y-87276348D02*
X124917200Y-87181110D01*
X124917200Y-87181110D02*
X124917200Y-87085872D01*
X124917200Y-87085872D02*
X124964819Y-86990634D01*
X124964819Y-86990634D02*
X125012438Y-86943015D01*
X125012438Y-86943015D02*
X125107676Y-86895396D01*
X125107676Y-86895396D02*
X125298152Y-86847777D01*
X125298152Y-86847777D02*
X125393390Y-86800158D01*
X125393390Y-86800158D02*
X125441009Y-86752539D01*
X125441009Y-86752539D02*
X125488628Y-86657301D01*
X125488628Y-86657301D02*
X125488628Y-86562063D01*
X125488628Y-86562063D02*
X125441009Y-86466825D01*
X125441009Y-86466825D02*
X125393390Y-86419206D01*
X125393390Y-86419206D02*
X125298152Y-86371587D01*
X125298152Y-86371587D02*
X125060057Y-86371587D01*
X125060057Y-86371587D02*
X124917200Y-86419206D01*
X124488628Y-86704920D02*
X124488628Y-87704920D01*
X124488628Y-86752539D02*
X124393390Y-86704920D01*
X124393390Y-86704920D02*
X124202914Y-86704920D01*
X124202914Y-86704920D02*
X124107676Y-86752539D01*
X124107676Y-86752539D02*
X124060057Y-86800158D01*
X124060057Y-86800158D02*
X124012438Y-86895396D01*
X124012438Y-86895396D02*
X124012438Y-87181110D01*
X124012438Y-87181110D02*
X124060057Y-87276348D01*
X124060057Y-87276348D02*
X124107676Y-87323968D01*
X124107676Y-87323968D02*
X124202914Y-87371587D01*
X124202914Y-87371587D02*
X124393390Y-87371587D01*
X124393390Y-87371587D02*
X124488628Y-87323968D01*
X123202914Y-87323968D02*
X123298152Y-87371587D01*
X123298152Y-87371587D02*
X123488628Y-87371587D01*
X123488628Y-87371587D02*
X123583866Y-87323968D01*
X123583866Y-87323968D02*
X123631485Y-87228729D01*
X123631485Y-87228729D02*
X123631485Y-86847777D01*
X123631485Y-86847777D02*
X123583866Y-86752539D01*
X123583866Y-86752539D02*
X123488628Y-86704920D01*
X123488628Y-86704920D02*
X123298152Y-86704920D01*
X123298152Y-86704920D02*
X123202914Y-86752539D01*
X123202914Y-86752539D02*
X123155295Y-86847777D01*
X123155295Y-86847777D02*
X123155295Y-86943015D01*
X123155295Y-86943015D02*
X123631485Y-87038253D01*
X122298152Y-87323968D02*
X122393390Y-87371587D01*
X122393390Y-87371587D02*
X122583866Y-87371587D01*
X122583866Y-87371587D02*
X122679104Y-87323968D01*
X122679104Y-87323968D02*
X122726723Y-87276348D01*
X122726723Y-87276348D02*
X122774342Y-87181110D01*
X122774342Y-87181110D02*
X122774342Y-86895396D01*
X122774342Y-86895396D02*
X122726723Y-86800158D01*
X122726723Y-86800158D02*
X122679104Y-86752539D01*
X122679104Y-86752539D02*
X122583866Y-86704920D01*
X122583866Y-86704920D02*
X122393390Y-86704920D01*
X122393390Y-86704920D02*
X122298152Y-86752539D01*
X121441009Y-86704920D02*
X121441009Y-87371587D01*
X121869580Y-86704920D02*
X121869580Y-87228729D01*
X121869580Y-87228729D02*
X121821961Y-87323968D01*
X121821961Y-87323968D02*
X121726723Y-87371587D01*
X121726723Y-87371587D02*
X121583866Y-87371587D01*
X121583866Y-87371587D02*
X121488628Y-87323968D01*
X121488628Y-87323968D02*
X121441009Y-87276348D01*
X120821961Y-87371587D02*
X120917199Y-87323968D01*
X120917199Y-87323968D02*
X120964818Y-87228729D01*
X120964818Y-87228729D02*
X120964818Y-86371587D01*
X120012437Y-87371587D02*
X120012437Y-86847777D01*
X120012437Y-86847777D02*
X120060056Y-86752539D01*
X120060056Y-86752539D02*
X120155294Y-86704920D01*
X120155294Y-86704920D02*
X120345770Y-86704920D01*
X120345770Y-86704920D02*
X120441008Y-86752539D01*
X120012437Y-87323968D02*
X120107675Y-87371587D01*
X120107675Y-87371587D02*
X120345770Y-87371587D01*
X120345770Y-87371587D02*
X120441008Y-87323968D01*
X120441008Y-87323968D02*
X120488627Y-87228729D01*
X120488627Y-87228729D02*
X120488627Y-87133491D01*
X120488627Y-87133491D02*
X120441008Y-87038253D01*
X120441008Y-87038253D02*
X120345770Y-86990634D01*
X120345770Y-86990634D02*
X120107675Y-86990634D01*
X120107675Y-86990634D02*
X120012437Y-86943015D01*
X119679103Y-86704920D02*
X119298151Y-86704920D01*
X119536246Y-86371587D02*
X119536246Y-87228729D01*
X119536246Y-87228729D02*
X119488627Y-87323968D01*
X119488627Y-87323968D02*
X119393389Y-87371587D01*
X119393389Y-87371587D02*
X119298151Y-87371587D01*
X118964817Y-87371587D02*
X118964817Y-86704920D01*
X118964817Y-86895396D02*
X118917198Y-86800158D01*
X118917198Y-86800158D02*
X118869579Y-86752539D01*
X118869579Y-86752539D02*
X118774341Y-86704920D01*
X118774341Y-86704920D02*
X118679103Y-86704920D01*
X118345769Y-87371587D02*
X118345769Y-86704920D01*
X118345769Y-86371587D02*
X118393388Y-86419206D01*
X118393388Y-86419206D02*
X118345769Y-86466825D01*
X118345769Y-86466825D02*
X118298150Y-86419206D01*
X118298150Y-86419206D02*
X118345769Y-86371587D01*
X118345769Y-86371587D02*
X118345769Y-86466825D01*
X117964817Y-87371587D02*
X117441008Y-86704920D01*
X117964817Y-86704920D02*
X117441008Y-87371587D01*
X132941009Y-88933912D02*
X132798152Y-88981531D01*
X132798152Y-88981531D02*
X132560057Y-88981531D01*
X132560057Y-88981531D02*
X132464819Y-88933912D01*
X132464819Y-88933912D02*
X132417200Y-88886292D01*
X132417200Y-88886292D02*
X132369581Y-88791054D01*
X132369581Y-88791054D02*
X132369581Y-88695816D01*
X132369581Y-88695816D02*
X132417200Y-88600578D01*
X132417200Y-88600578D02*
X132464819Y-88552959D01*
X132464819Y-88552959D02*
X132560057Y-88505340D01*
X132560057Y-88505340D02*
X132750533Y-88457721D01*
X132750533Y-88457721D02*
X132845771Y-88410102D01*
X132845771Y-88410102D02*
X132893390Y-88362483D01*
X132893390Y-88362483D02*
X132941009Y-88267245D01*
X132941009Y-88267245D02*
X132941009Y-88172007D01*
X132941009Y-88172007D02*
X132893390Y-88076769D01*
X132893390Y-88076769D02*
X132845771Y-88029150D01*
X132845771Y-88029150D02*
X132750533Y-87981531D01*
X132750533Y-87981531D02*
X132512438Y-87981531D01*
X132512438Y-87981531D02*
X132369581Y-88029150D01*
X131560057Y-88933912D02*
X131655295Y-88981531D01*
X131655295Y-88981531D02*
X131845771Y-88981531D01*
X131845771Y-88981531D02*
X131941009Y-88933912D01*
X131941009Y-88933912D02*
X131988628Y-88838673D01*
X131988628Y-88838673D02*
X131988628Y-88457721D01*
X131988628Y-88457721D02*
X131941009Y-88362483D01*
X131941009Y-88362483D02*
X131845771Y-88314864D01*
X131845771Y-88314864D02*
X131655295Y-88314864D01*
X131655295Y-88314864D02*
X131560057Y-88362483D01*
X131560057Y-88362483D02*
X131512438Y-88457721D01*
X131512438Y-88457721D02*
X131512438Y-88552959D01*
X131512438Y-88552959D02*
X131988628Y-88648197D01*
X131083866Y-88314864D02*
X131083866Y-88981531D01*
X131083866Y-88410102D02*
X131036247Y-88362483D01*
X131036247Y-88362483D02*
X130941009Y-88314864D01*
X130941009Y-88314864D02*
X130798152Y-88314864D01*
X130798152Y-88314864D02*
X130702914Y-88362483D01*
X130702914Y-88362483D02*
X130655295Y-88457721D01*
X130655295Y-88457721D02*
X130655295Y-88981531D01*
X130226723Y-88933912D02*
X130131485Y-88981531D01*
X130131485Y-88981531D02*
X129941009Y-88981531D01*
X129941009Y-88981531D02*
X129845771Y-88933912D01*
X129845771Y-88933912D02*
X129798152Y-88838673D01*
X129798152Y-88838673D02*
X129798152Y-88791054D01*
X129798152Y-88791054D02*
X129845771Y-88695816D01*
X129845771Y-88695816D02*
X129941009Y-88648197D01*
X129941009Y-88648197D02*
X130083866Y-88648197D01*
X130083866Y-88648197D02*
X130179104Y-88600578D01*
X130179104Y-88600578D02*
X130226723Y-88505340D01*
X130226723Y-88505340D02*
X130226723Y-88457721D01*
X130226723Y-88457721D02*
X130179104Y-88362483D01*
X130179104Y-88362483D02*
X130083866Y-88314864D01*
X130083866Y-88314864D02*
X129941009Y-88314864D01*
X129941009Y-88314864D02*
X129845771Y-88362483D01*
X129226723Y-88981531D02*
X129321961Y-88933912D01*
X129321961Y-88933912D02*
X129369580Y-88886292D01*
X129369580Y-88886292D02*
X129417199Y-88791054D01*
X129417199Y-88791054D02*
X129417199Y-88505340D01*
X129417199Y-88505340D02*
X129369580Y-88410102D01*
X129369580Y-88410102D02*
X129321961Y-88362483D01*
X129321961Y-88362483D02*
X129226723Y-88314864D01*
X129226723Y-88314864D02*
X129083866Y-88314864D01*
X129083866Y-88314864D02*
X128988628Y-88362483D01*
X128988628Y-88362483D02*
X128941009Y-88410102D01*
X128941009Y-88410102D02*
X128893390Y-88505340D01*
X128893390Y-88505340D02*
X128893390Y-88791054D01*
X128893390Y-88791054D02*
X128941009Y-88886292D01*
X128941009Y-88886292D02*
X128988628Y-88933912D01*
X128988628Y-88933912D02*
X129083866Y-88981531D01*
X129083866Y-88981531D02*
X129226723Y-88981531D01*
X128464818Y-88981531D02*
X128464818Y-88314864D01*
X128464818Y-88505340D02*
X128417199Y-88410102D01*
X128417199Y-88410102D02*
X128369580Y-88362483D01*
X128369580Y-88362483D02*
X128274342Y-88314864D01*
X128274342Y-88314864D02*
X128179104Y-88314864D01*
X126750532Y-88457721D02*
X126607675Y-88505340D01*
X126607675Y-88505340D02*
X126560056Y-88552959D01*
X126560056Y-88552959D02*
X126512437Y-88648197D01*
X126512437Y-88648197D02*
X126512437Y-88791054D01*
X126512437Y-88791054D02*
X126560056Y-88886292D01*
X126560056Y-88886292D02*
X126607675Y-88933912D01*
X126607675Y-88933912D02*
X126702913Y-88981531D01*
X126702913Y-88981531D02*
X127083865Y-88981531D01*
X127083865Y-88981531D02*
X127083865Y-87981531D01*
X127083865Y-87981531D02*
X126750532Y-87981531D01*
X126750532Y-87981531D02*
X126655294Y-88029150D01*
X126655294Y-88029150D02*
X126607675Y-88076769D01*
X126607675Y-88076769D02*
X126560056Y-88172007D01*
X126560056Y-88172007D02*
X126560056Y-88267245D01*
X126560056Y-88267245D02*
X126607675Y-88362483D01*
X126607675Y-88362483D02*
X126655294Y-88410102D01*
X126655294Y-88410102D02*
X126750532Y-88457721D01*
X126750532Y-88457721D02*
X127083865Y-88457721D01*
X125655294Y-88314864D02*
X125655294Y-88981531D01*
X126083865Y-88314864D02*
X126083865Y-88838673D01*
X126083865Y-88838673D02*
X126036246Y-88933912D01*
X126036246Y-88933912D02*
X125941008Y-88981531D01*
X125941008Y-88981531D02*
X125798151Y-88981531D01*
X125798151Y-88981531D02*
X125702913Y-88933912D01*
X125702913Y-88933912D02*
X125655294Y-88886292D01*
X125226722Y-88933912D02*
X125131484Y-88981531D01*
X125131484Y-88981531D02*
X124941008Y-88981531D01*
X124941008Y-88981531D02*
X124845770Y-88933912D01*
X124845770Y-88933912D02*
X124798151Y-88838673D01*
X124798151Y-88838673D02*
X124798151Y-88791054D01*
X124798151Y-88791054D02*
X124845770Y-88695816D01*
X124845770Y-88695816D02*
X124941008Y-88648197D01*
X124941008Y-88648197D02*
X125083865Y-88648197D01*
X125083865Y-88648197D02*
X125179103Y-88600578D01*
X125179103Y-88600578D02*
X125226722Y-88505340D01*
X125226722Y-88505340D02*
X125226722Y-88457721D01*
X125226722Y-88457721D02*
X125179103Y-88362483D01*
X125179103Y-88362483D02*
X125083865Y-88314864D01*
X125083865Y-88314864D02*
X124941008Y-88314864D01*
X124941008Y-88314864D02*
X124845770Y-88362483D01*
X123607674Y-88981531D02*
X123607674Y-87981531D01*
X123607674Y-88457721D02*
X123036246Y-88457721D01*
X123036246Y-88981531D02*
X123036246Y-87981531D01*
X121988627Y-88886292D02*
X122036246Y-88933912D01*
X122036246Y-88933912D02*
X122179103Y-88981531D01*
X122179103Y-88981531D02*
X122274341Y-88981531D01*
X122274341Y-88981531D02*
X122417198Y-88933912D01*
X122417198Y-88933912D02*
X122512436Y-88838673D01*
X122512436Y-88838673D02*
X122560055Y-88743435D01*
X122560055Y-88743435D02*
X122607674Y-88552959D01*
X122607674Y-88552959D02*
X122607674Y-88410102D01*
X122607674Y-88410102D02*
X122560055Y-88219626D01*
X122560055Y-88219626D02*
X122512436Y-88124388D01*
X122512436Y-88124388D02*
X122417198Y-88029150D01*
X122417198Y-88029150D02*
X122274341Y-87981531D01*
X122274341Y-87981531D02*
X122179103Y-87981531D01*
X122179103Y-87981531D02*
X122036246Y-88029150D01*
X122036246Y-88029150D02*
X121988627Y-88076769D01*
X121560055Y-88600578D02*
X120798151Y-88600578D01*
X120369579Y-88933912D02*
X120226722Y-88981531D01*
X120226722Y-88981531D02*
X119988627Y-88981531D01*
X119988627Y-88981531D02*
X119893389Y-88933912D01*
X119893389Y-88933912D02*
X119845770Y-88886292D01*
X119845770Y-88886292D02*
X119798151Y-88791054D01*
X119798151Y-88791054D02*
X119798151Y-88695816D01*
X119798151Y-88695816D02*
X119845770Y-88600578D01*
X119845770Y-88600578D02*
X119893389Y-88552959D01*
X119893389Y-88552959D02*
X119988627Y-88505340D01*
X119988627Y-88505340D02*
X120179103Y-88457721D01*
X120179103Y-88457721D02*
X120274341Y-88410102D01*
X120274341Y-88410102D02*
X120321960Y-88362483D01*
X120321960Y-88362483D02*
X120369579Y-88267245D01*
X120369579Y-88267245D02*
X120369579Y-88172007D01*
X120369579Y-88172007D02*
X120321960Y-88076769D01*
X120321960Y-88076769D02*
X120274341Y-88029150D01*
X120274341Y-88029150D02*
X120179103Y-87981531D01*
X120179103Y-87981531D02*
X119941008Y-87981531D01*
X119941008Y-87981531D02*
X119798151Y-88029150D01*
X118798151Y-88981531D02*
X119131484Y-88505340D01*
X119369579Y-88981531D02*
X119369579Y-87981531D01*
X119369579Y-87981531D02*
X118988627Y-87981531D01*
X118988627Y-87981531D02*
X118893389Y-88029150D01*
X118893389Y-88029150D02*
X118845770Y-88076769D01*
X118845770Y-88076769D02*
X118798151Y-88172007D01*
X118798151Y-88172007D02*
X118798151Y-88314864D01*
X118798151Y-88314864D02*
X118845770Y-88410102D01*
X118845770Y-88410102D02*
X118893389Y-88457721D01*
X118893389Y-88457721D02*
X118988627Y-88505340D01*
X118988627Y-88505340D02*
X119369579Y-88505340D01*
X118179103Y-87981531D02*
X118083865Y-87981531D01*
X118083865Y-87981531D02*
X117988627Y-88029150D01*
X117988627Y-88029150D02*
X117941008Y-88076769D01*
X117941008Y-88076769D02*
X117893389Y-88172007D01*
X117893389Y-88172007D02*
X117845770Y-88362483D01*
X117845770Y-88362483D02*
X117845770Y-88600578D01*
X117845770Y-88600578D02*
X117893389Y-88791054D01*
X117893389Y-88791054D02*
X117941008Y-88886292D01*
X117941008Y-88886292D02*
X117988627Y-88933912D01*
X117988627Y-88933912D02*
X118083865Y-88981531D01*
X118083865Y-88981531D02*
X118179103Y-88981531D01*
X118179103Y-88981531D02*
X118274341Y-88933912D01*
X118274341Y-88933912D02*
X118321960Y-88886292D01*
X118321960Y-88886292D02*
X118369579Y-88791054D01*
X118369579Y-88791054D02*
X118417198Y-88600578D01*
X118417198Y-88600578D02*
X118417198Y-88362483D01*
X118417198Y-88362483D02*
X118369579Y-88172007D01*
X118369579Y-88172007D02*
X118321960Y-88076769D01*
X118321960Y-88076769D02*
X118274341Y-88029150D01*
X118274341Y-88029150D02*
X118179103Y-87981531D01*
X116988627Y-88314864D02*
X116988627Y-88981531D01*
X117226722Y-87933912D02*
X117464817Y-88648197D01*
X117464817Y-88648197D02*
X116845770Y-88648197D01*
X133321962Y-89591475D02*
X133321962Y-90400998D01*
X133321962Y-90400998D02*
X133274343Y-90496236D01*
X133274343Y-90496236D02*
X133226724Y-90543856D01*
X133226724Y-90543856D02*
X133131486Y-90591475D01*
X133131486Y-90591475D02*
X132941010Y-90591475D01*
X132941010Y-90591475D02*
X132845772Y-90543856D01*
X132845772Y-90543856D02*
X132798153Y-90496236D01*
X132798153Y-90496236D02*
X132750534Y-90400998D01*
X132750534Y-90400998D02*
X132750534Y-89591475D01*
X132131486Y-90591475D02*
X132226724Y-90543856D01*
X132226724Y-90543856D02*
X132274343Y-90448617D01*
X132274343Y-90448617D02*
X132274343Y-89591475D01*
X131893390Y-89924808D02*
X131512438Y-89924808D01*
X131750533Y-89591475D02*
X131750533Y-90448617D01*
X131750533Y-90448617D02*
X131702914Y-90543856D01*
X131702914Y-90543856D02*
X131607676Y-90591475D01*
X131607676Y-90591475D02*
X131512438Y-90591475D01*
X131179104Y-90591475D02*
X131179104Y-89924808D01*
X131179104Y-90115284D02*
X131131485Y-90020046D01*
X131131485Y-90020046D02*
X131083866Y-89972427D01*
X131083866Y-89972427D02*
X130988628Y-89924808D01*
X130988628Y-89924808D02*
X130893390Y-89924808D01*
X130131485Y-90591475D02*
X130131485Y-90067665D01*
X130131485Y-90067665D02*
X130179104Y-89972427D01*
X130179104Y-89972427D02*
X130274342Y-89924808D01*
X130274342Y-89924808D02*
X130464818Y-89924808D01*
X130464818Y-89924808D02*
X130560056Y-89972427D01*
X130131485Y-90543856D02*
X130226723Y-90591475D01*
X130226723Y-90591475D02*
X130464818Y-90591475D01*
X130464818Y-90591475D02*
X130560056Y-90543856D01*
X130560056Y-90543856D02*
X130607675Y-90448617D01*
X130607675Y-90448617D02*
X130607675Y-90353379D01*
X130607675Y-90353379D02*
X130560056Y-90258141D01*
X130560056Y-90258141D02*
X130464818Y-90210522D01*
X130464818Y-90210522D02*
X130226723Y-90210522D01*
X130226723Y-90210522D02*
X130131485Y-90162903D01*
X129702913Y-90543856D02*
X129607675Y-90591475D01*
X129607675Y-90591475D02*
X129417199Y-90591475D01*
X129417199Y-90591475D02*
X129321961Y-90543856D01*
X129321961Y-90543856D02*
X129274342Y-90448617D01*
X129274342Y-90448617D02*
X129274342Y-90400998D01*
X129274342Y-90400998D02*
X129321961Y-90305760D01*
X129321961Y-90305760D02*
X129417199Y-90258141D01*
X129417199Y-90258141D02*
X129560056Y-90258141D01*
X129560056Y-90258141D02*
X129655294Y-90210522D01*
X129655294Y-90210522D02*
X129702913Y-90115284D01*
X129702913Y-90115284D02*
X129702913Y-90067665D01*
X129702913Y-90067665D02*
X129655294Y-89972427D01*
X129655294Y-89972427D02*
X129560056Y-89924808D01*
X129560056Y-89924808D02*
X129417199Y-89924808D01*
X129417199Y-89924808D02*
X129321961Y-89972427D01*
X128702913Y-90591475D02*
X128798151Y-90543856D01*
X128798151Y-90543856D02*
X128845770Y-90496236D01*
X128845770Y-90496236D02*
X128893389Y-90400998D01*
X128893389Y-90400998D02*
X128893389Y-90115284D01*
X128893389Y-90115284D02*
X128845770Y-90020046D01*
X128845770Y-90020046D02*
X128798151Y-89972427D01*
X128798151Y-89972427D02*
X128702913Y-89924808D01*
X128702913Y-89924808D02*
X128560056Y-89924808D01*
X128560056Y-89924808D02*
X128464818Y-89972427D01*
X128464818Y-89972427D02*
X128417199Y-90020046D01*
X128417199Y-90020046D02*
X128369580Y-90115284D01*
X128369580Y-90115284D02*
X128369580Y-90400998D01*
X128369580Y-90400998D02*
X128417199Y-90496236D01*
X128417199Y-90496236D02*
X128464818Y-90543856D01*
X128464818Y-90543856D02*
X128560056Y-90591475D01*
X128560056Y-90591475D02*
X128702913Y-90591475D01*
X127941008Y-89924808D02*
X127941008Y-90591475D01*
X127941008Y-90020046D02*
X127893389Y-89972427D01*
X127893389Y-89972427D02*
X127798151Y-89924808D01*
X127798151Y-89924808D02*
X127655294Y-89924808D01*
X127655294Y-89924808D02*
X127560056Y-89972427D01*
X127560056Y-89972427D02*
X127512437Y-90067665D01*
X127512437Y-90067665D02*
X127512437Y-90591475D01*
X127036246Y-90591475D02*
X127036246Y-89924808D01*
X127036246Y-89591475D02*
X127083865Y-89639094D01*
X127083865Y-89639094D02*
X127036246Y-89686713D01*
X127036246Y-89686713D02*
X126988627Y-89639094D01*
X126988627Y-89639094D02*
X127036246Y-89591475D01*
X127036246Y-89591475D02*
X127036246Y-89686713D01*
X126131485Y-90543856D02*
X126226723Y-90591475D01*
X126226723Y-90591475D02*
X126417199Y-90591475D01*
X126417199Y-90591475D02*
X126512437Y-90543856D01*
X126512437Y-90543856D02*
X126560056Y-90496236D01*
X126560056Y-90496236D02*
X126607675Y-90400998D01*
X126607675Y-90400998D02*
X126607675Y-90115284D01*
X126607675Y-90115284D02*
X126560056Y-90020046D01*
X126560056Y-90020046D02*
X126512437Y-89972427D01*
X126512437Y-89972427D02*
X126417199Y-89924808D01*
X126417199Y-89924808D02*
X126226723Y-89924808D01*
X126226723Y-89924808D02*
X126131485Y-89972427D01*
X124369580Y-90591475D02*
X124702913Y-90115284D01*
X124941008Y-90591475D02*
X124941008Y-89591475D01*
X124941008Y-89591475D02*
X124560056Y-89591475D01*
X124560056Y-89591475D02*
X124464818Y-89639094D01*
X124464818Y-89639094D02*
X124417199Y-89686713D01*
X124417199Y-89686713D02*
X124369580Y-89781951D01*
X124369580Y-89781951D02*
X124369580Y-89924808D01*
X124369580Y-89924808D02*
X124417199Y-90020046D01*
X124417199Y-90020046D02*
X124464818Y-90067665D01*
X124464818Y-90067665D02*
X124560056Y-90115284D01*
X124560056Y-90115284D02*
X124941008Y-90115284D01*
X123512437Y-90591475D02*
X123512437Y-90067665D01*
X123512437Y-90067665D02*
X123560056Y-89972427D01*
X123560056Y-89972427D02*
X123655294Y-89924808D01*
X123655294Y-89924808D02*
X123845770Y-89924808D01*
X123845770Y-89924808D02*
X123941008Y-89972427D01*
X123512437Y-90543856D02*
X123607675Y-90591475D01*
X123607675Y-90591475D02*
X123845770Y-90591475D01*
X123845770Y-90591475D02*
X123941008Y-90543856D01*
X123941008Y-90543856D02*
X123988627Y-90448617D01*
X123988627Y-90448617D02*
X123988627Y-90353379D01*
X123988627Y-90353379D02*
X123941008Y-90258141D01*
X123941008Y-90258141D02*
X123845770Y-90210522D01*
X123845770Y-90210522D02*
X123607675Y-90210522D01*
X123607675Y-90210522D02*
X123512437Y-90162903D01*
X123036246Y-89924808D02*
X123036246Y-90591475D01*
X123036246Y-90020046D02*
X122988627Y-89972427D01*
X122988627Y-89972427D02*
X122893389Y-89924808D01*
X122893389Y-89924808D02*
X122750532Y-89924808D01*
X122750532Y-89924808D02*
X122655294Y-89972427D01*
X122655294Y-89972427D02*
X122607675Y-90067665D01*
X122607675Y-90067665D02*
X122607675Y-90591475D01*
X121702913Y-89924808D02*
X121702913Y-90734332D01*
X121702913Y-90734332D02*
X121750532Y-90829570D01*
X121750532Y-90829570D02*
X121798151Y-90877189D01*
X121798151Y-90877189D02*
X121893389Y-90924808D01*
X121893389Y-90924808D02*
X122036246Y-90924808D01*
X122036246Y-90924808D02*
X122131484Y-90877189D01*
X121702913Y-90543856D02*
X121798151Y-90591475D01*
X121798151Y-90591475D02*
X121988627Y-90591475D01*
X121988627Y-90591475D02*
X122083865Y-90543856D01*
X122083865Y-90543856D02*
X122131484Y-90496236D01*
X122131484Y-90496236D02*
X122179103Y-90400998D01*
X122179103Y-90400998D02*
X122179103Y-90115284D01*
X122179103Y-90115284D02*
X122131484Y-90020046D01*
X122131484Y-90020046D02*
X122083865Y-89972427D01*
X122083865Y-89972427D02*
X121988627Y-89924808D01*
X121988627Y-89924808D02*
X121798151Y-89924808D01*
X121798151Y-89924808D02*
X121702913Y-89972427D01*
X120845770Y-90543856D02*
X120941008Y-90591475D01*
X120941008Y-90591475D02*
X121131484Y-90591475D01*
X121131484Y-90591475D02*
X121226722Y-90543856D01*
X121226722Y-90543856D02*
X121274341Y-90448617D01*
X121274341Y-90448617D02*
X121274341Y-90067665D01*
X121274341Y-90067665D02*
X121226722Y-89972427D01*
X121226722Y-89972427D02*
X121131484Y-89924808D01*
X121131484Y-89924808D02*
X120941008Y-89924808D01*
X120941008Y-89924808D02*
X120845770Y-89972427D01*
X120845770Y-89972427D02*
X120798151Y-90067665D01*
X120798151Y-90067665D02*
X120798151Y-90162903D01*
X120798151Y-90162903D02*
X121274341Y-90258141D01*
X120512436Y-89924808D02*
X120131484Y-89924808D01*
X120369579Y-90591475D02*
X120369579Y-89734332D01*
X120369579Y-89734332D02*
X120321960Y-89639094D01*
X120321960Y-89639094D02*
X120226722Y-89591475D01*
X120226722Y-89591475D02*
X120131484Y-89591475D01*
X119798150Y-90591475D02*
X119798150Y-89924808D01*
X119798150Y-89591475D02*
X119845769Y-89639094D01*
X119845769Y-89639094D02*
X119798150Y-89686713D01*
X119798150Y-89686713D02*
X119750531Y-89639094D01*
X119750531Y-89639094D02*
X119798150Y-89591475D01*
X119798150Y-89591475D02*
X119798150Y-89686713D01*
X119321960Y-89924808D02*
X119321960Y-90591475D01*
X119321960Y-90020046D02*
X119274341Y-89972427D01*
X119274341Y-89972427D02*
X119179103Y-89924808D01*
X119179103Y-89924808D02*
X119036246Y-89924808D01*
X119036246Y-89924808D02*
X118941008Y-89972427D01*
X118941008Y-89972427D02*
X118893389Y-90067665D01*
X118893389Y-90067665D02*
X118893389Y-90591475D01*
X117988627Y-90591475D02*
X117988627Y-89591475D01*
X117988627Y-90543856D02*
X118083865Y-90591475D01*
X118083865Y-90591475D02*
X118274341Y-90591475D01*
X118274341Y-90591475D02*
X118369579Y-90543856D01*
X118369579Y-90543856D02*
X118417198Y-90496236D01*
X118417198Y-90496236D02*
X118464817Y-90400998D01*
X118464817Y-90400998D02*
X118464817Y-90115284D01*
X118464817Y-90115284D02*
X118417198Y-90020046D01*
X118417198Y-90020046D02*
X118369579Y-89972427D01*
X118369579Y-89972427D02*
X118274341Y-89924808D01*
X118274341Y-89924808D02*
X118083865Y-89924808D01*
X118083865Y-89924808D02*
X117988627Y-89972427D01*
X117131484Y-90543856D02*
X117226722Y-90591475D01*
X117226722Y-90591475D02*
X117417198Y-90591475D01*
X117417198Y-90591475D02*
X117512436Y-90543856D01*
X117512436Y-90543856D02*
X117560055Y-90448617D01*
X117560055Y-90448617D02*
X117560055Y-90067665D01*
X117560055Y-90067665D02*
X117512436Y-89972427D01*
X117512436Y-89972427D02*
X117417198Y-89924808D01*
X117417198Y-89924808D02*
X117226722Y-89924808D01*
X117226722Y-89924808D02*
X117131484Y-89972427D01*
X117131484Y-89972427D02*
X117083865Y-90067665D01*
X117083865Y-90067665D02*
X117083865Y-90162903D01*
X117083865Y-90162903D02*
X117560055Y-90258141D01*
X116655293Y-90591475D02*
X116655293Y-89924808D01*
X116655293Y-90115284D02*
X116607674Y-90020046D01*
X116607674Y-90020046D02*
X116560055Y-89972427D01*
X116560055Y-89972427D02*
X116464817Y-89924808D01*
X116464817Y-89924808D02*
X116369579Y-89924808D01*
X131726724Y-92201419D02*
X132060057Y-91725228D01*
X132298152Y-92201419D02*
X132298152Y-91201419D01*
X132298152Y-91201419D02*
X131917200Y-91201419D01*
X131917200Y-91201419D02*
X131821962Y-91249038D01*
X131821962Y-91249038D02*
X131774343Y-91296657D01*
X131774343Y-91296657D02*
X131726724Y-91391895D01*
X131726724Y-91391895D02*
X131726724Y-91534752D01*
X131726724Y-91534752D02*
X131774343Y-91629990D01*
X131774343Y-91629990D02*
X131821962Y-91677609D01*
X131821962Y-91677609D02*
X131917200Y-91725228D01*
X131917200Y-91725228D02*
X132298152Y-91725228D01*
X130917200Y-92153800D02*
X131012438Y-92201419D01*
X131012438Y-92201419D02*
X131202914Y-92201419D01*
X131202914Y-92201419D02*
X131298152Y-92153800D01*
X131298152Y-92153800D02*
X131345771Y-92058561D01*
X131345771Y-92058561D02*
X131345771Y-91677609D01*
X131345771Y-91677609D02*
X131298152Y-91582371D01*
X131298152Y-91582371D02*
X131202914Y-91534752D01*
X131202914Y-91534752D02*
X131012438Y-91534752D01*
X131012438Y-91534752D02*
X130917200Y-91582371D01*
X130917200Y-91582371D02*
X130869581Y-91677609D01*
X130869581Y-91677609D02*
X130869581Y-91772847D01*
X130869581Y-91772847D02*
X131345771Y-91868085D01*
X130536247Y-91534752D02*
X130298152Y-92201419D01*
X130298152Y-92201419D02*
X130060057Y-91534752D01*
X128964818Y-91915704D02*
X128488628Y-91915704D01*
X129060056Y-92201419D02*
X128726723Y-91201419D01*
X128726723Y-91201419D02*
X128393390Y-92201419D01*
X127536247Y-92201419D02*
X128107675Y-92201419D01*
X127821961Y-92201419D02*
X127821961Y-91201419D01*
X127821961Y-91201419D02*
X127917199Y-91344276D01*
X127917199Y-91344276D02*
X128012437Y-91439514D01*
X128012437Y-91439514D02*
X128107675Y-91487133D01*
X126345770Y-91820466D02*
X125583866Y-91820466D01*
X124345770Y-92201419D02*
X124345770Y-91201419D01*
X124345770Y-91201419D02*
X124107675Y-91201419D01*
X124107675Y-91201419D02*
X123964818Y-91249038D01*
X123964818Y-91249038D02*
X123869580Y-91344276D01*
X123869580Y-91344276D02*
X123821961Y-91439514D01*
X123821961Y-91439514D02*
X123774342Y-91629990D01*
X123774342Y-91629990D02*
X123774342Y-91772847D01*
X123774342Y-91772847D02*
X123821961Y-91963323D01*
X123821961Y-91963323D02*
X123869580Y-92058561D01*
X123869580Y-92058561D02*
X123964818Y-92153800D01*
X123964818Y-92153800D02*
X124107675Y-92201419D01*
X124107675Y-92201419D02*
X124345770Y-92201419D01*
X122964818Y-92153800D02*
X123060056Y-92201419D01*
X123060056Y-92201419D02*
X123250532Y-92201419D01*
X123250532Y-92201419D02*
X123345770Y-92153800D01*
X123345770Y-92153800D02*
X123393389Y-92058561D01*
X123393389Y-92058561D02*
X123393389Y-91677609D01*
X123393389Y-91677609D02*
X123345770Y-91582371D01*
X123345770Y-91582371D02*
X123250532Y-91534752D01*
X123250532Y-91534752D02*
X123060056Y-91534752D01*
X123060056Y-91534752D02*
X122964818Y-91582371D01*
X122964818Y-91582371D02*
X122917199Y-91677609D01*
X122917199Y-91677609D02*
X122917199Y-91772847D01*
X122917199Y-91772847D02*
X123393389Y-91868085D01*
X122060056Y-92153800D02*
X122155294Y-92201419D01*
X122155294Y-92201419D02*
X122345770Y-92201419D01*
X122345770Y-92201419D02*
X122441008Y-92153800D01*
X122441008Y-92153800D02*
X122488627Y-92106180D01*
X122488627Y-92106180D02*
X122536246Y-92010942D01*
X122536246Y-92010942D02*
X122536246Y-91725228D01*
X122536246Y-91725228D02*
X122488627Y-91629990D01*
X122488627Y-91629990D02*
X122441008Y-91582371D01*
X122441008Y-91582371D02*
X122345770Y-91534752D01*
X122345770Y-91534752D02*
X122155294Y-91534752D01*
X122155294Y-91534752D02*
X122060056Y-91582371D01*
X120917198Y-91296657D02*
X120869579Y-91249038D01*
X120869579Y-91249038D02*
X120774341Y-91201419D01*
X120774341Y-91201419D02*
X120536246Y-91201419D01*
X120536246Y-91201419D02*
X120441008Y-91249038D01*
X120441008Y-91249038D02*
X120393389Y-91296657D01*
X120393389Y-91296657D02*
X120345770Y-91391895D01*
X120345770Y-91391895D02*
X120345770Y-91487133D01*
X120345770Y-91487133D02*
X120393389Y-91629990D01*
X120393389Y-91629990D02*
X120964817Y-92201419D01*
X120964817Y-92201419D02*
X120345770Y-92201419D01*
X119726722Y-91201419D02*
X119631484Y-91201419D01*
X119631484Y-91201419D02*
X119536246Y-91249038D01*
X119536246Y-91249038D02*
X119488627Y-91296657D01*
X119488627Y-91296657D02*
X119441008Y-91391895D01*
X119441008Y-91391895D02*
X119393389Y-91582371D01*
X119393389Y-91582371D02*
X119393389Y-91820466D01*
X119393389Y-91820466D02*
X119441008Y-92010942D01*
X119441008Y-92010942D02*
X119488627Y-92106180D01*
X119488627Y-92106180D02*
X119536246Y-92153800D01*
X119536246Y-92153800D02*
X119631484Y-92201419D01*
X119631484Y-92201419D02*
X119726722Y-92201419D01*
X119726722Y-92201419D02*
X119821960Y-92153800D01*
X119821960Y-92153800D02*
X119869579Y-92106180D01*
X119869579Y-92106180D02*
X119917198Y-92010942D01*
X119917198Y-92010942D02*
X119964817Y-91820466D01*
X119964817Y-91820466D02*
X119964817Y-91582371D01*
X119964817Y-91582371D02*
X119917198Y-91391895D01*
X119917198Y-91391895D02*
X119869579Y-91296657D01*
X119869579Y-91296657D02*
X119821960Y-91249038D01*
X119821960Y-91249038D02*
X119726722Y-91201419D01*
X119012436Y-91296657D02*
X118964817Y-91249038D01*
X118964817Y-91249038D02*
X118869579Y-91201419D01*
X118869579Y-91201419D02*
X118631484Y-91201419D01*
X118631484Y-91201419D02*
X118536246Y-91249038D01*
X118536246Y-91249038D02*
X118488627Y-91296657D01*
X118488627Y-91296657D02*
X118441008Y-91391895D01*
X118441008Y-91391895D02*
X118441008Y-91487133D01*
X118441008Y-91487133D02*
X118488627Y-91629990D01*
X118488627Y-91629990D02*
X119060055Y-92201419D01*
X119060055Y-92201419D02*
X118441008Y-92201419D01*
X117536246Y-91201419D02*
X118012436Y-91201419D01*
X118012436Y-91201419D02*
X118060055Y-91677609D01*
X118060055Y-91677609D02*
X118012436Y-91629990D01*
X118012436Y-91629990D02*
X117917198Y-91582371D01*
X117917198Y-91582371D02*
X117679103Y-91582371D01*
X117679103Y-91582371D02*
X117583865Y-91629990D01*
X117583865Y-91629990D02*
X117536246Y-91677609D01*
X117536246Y-91677609D02*
X117488627Y-91772847D01*
X117488627Y-91772847D02*
X117488627Y-92010942D01*
X117488627Y-92010942D02*
X117536246Y-92106180D01*
X117536246Y-92106180D02*
X117583865Y-92153800D01*
X117583865Y-92153800D02*
X117679103Y-92201419D01*
X117679103Y-92201419D02*
X117917198Y-92201419D01*
X117917198Y-92201419D02*
X118012436Y-92153800D01*
X118012436Y-92153800D02*
X118060055Y-92106180D01*
X102275819Y-108234846D02*
X103275819Y-108472941D01*
X103275819Y-108472941D02*
X102561533Y-108663417D01*
X102561533Y-108663417D02*
X103275819Y-108853893D01*
X103275819Y-108853893D02*
X102275819Y-109091989D01*
X103275819Y-109901512D02*
X102752009Y-109901512D01*
X102752009Y-109901512D02*
X102656771Y-109853893D01*
X102656771Y-109853893D02*
X102609152Y-109758655D01*
X102609152Y-109758655D02*
X102609152Y-109568179D01*
X102609152Y-109568179D02*
X102656771Y-109472941D01*
X103228200Y-109901512D02*
X103275819Y-109806274D01*
X103275819Y-109806274D02*
X103275819Y-109568179D01*
X103275819Y-109568179D02*
X103228200Y-109472941D01*
X103228200Y-109472941D02*
X103132961Y-109425322D01*
X103132961Y-109425322D02*
X103037723Y-109425322D01*
X103037723Y-109425322D02*
X102942485Y-109472941D01*
X102942485Y-109472941D02*
X102894866Y-109568179D01*
X102894866Y-109568179D02*
X102894866Y-109806274D01*
X102894866Y-109806274D02*
X102847247Y-109901512D01*
X102609152Y-110282465D02*
X103275819Y-110520560D01*
X102609152Y-110758655D02*
X103275819Y-110520560D01*
X103275819Y-110520560D02*
X103513914Y-110425322D01*
X103513914Y-110425322D02*
X103561533Y-110377703D01*
X103561533Y-110377703D02*
X103609152Y-110282465D01*
X102275819Y-111044370D02*
X103275819Y-111282465D01*
X103275819Y-111282465D02*
X102561533Y-111472941D01*
X102561533Y-111472941D02*
X103275819Y-111663417D01*
X103275819Y-111663417D02*
X102275819Y-111901513D01*
X103275819Y-112711036D02*
X102752009Y-112711036D01*
X102752009Y-112711036D02*
X102656771Y-112663417D01*
X102656771Y-112663417D02*
X102609152Y-112568179D01*
X102609152Y-112568179D02*
X102609152Y-112377703D01*
X102609152Y-112377703D02*
X102656771Y-112282465D01*
X103228200Y-112711036D02*
X103275819Y-112615798D01*
X103275819Y-112615798D02*
X103275819Y-112377703D01*
X103275819Y-112377703D02*
X103228200Y-112282465D01*
X103228200Y-112282465D02*
X103132961Y-112234846D01*
X103132961Y-112234846D02*
X103037723Y-112234846D01*
X103037723Y-112234846D02*
X102942485Y-112282465D01*
X102942485Y-112282465D02*
X102894866Y-112377703D01*
X102894866Y-112377703D02*
X102894866Y-112615798D01*
X102894866Y-112615798D02*
X102847247Y-112711036D01*
X102609152Y-113091989D02*
X103275819Y-113330084D01*
X102609152Y-113568179D02*
X103275819Y-113330084D01*
X103275819Y-113330084D02*
X103513914Y-113234846D01*
X103513914Y-113234846D02*
X103561533Y-113187227D01*
X103561533Y-113187227D02*
X103609152Y-113091989D01*
X102275819Y-113853894D02*
X103275819Y-114091989D01*
X103275819Y-114091989D02*
X102561533Y-114282465D01*
X102561533Y-114282465D02*
X103275819Y-114472941D01*
X103275819Y-114472941D02*
X102275819Y-114711037D01*
X103275819Y-115520560D02*
X102752009Y-115520560D01*
X102752009Y-115520560D02*
X102656771Y-115472941D01*
X102656771Y-115472941D02*
X102609152Y-115377703D01*
X102609152Y-115377703D02*
X102609152Y-115187227D01*
X102609152Y-115187227D02*
X102656771Y-115091989D01*
X103228200Y-115520560D02*
X103275819Y-115425322D01*
X103275819Y-115425322D02*
X103275819Y-115187227D01*
X103275819Y-115187227D02*
X103228200Y-115091989D01*
X103228200Y-115091989D02*
X103132961Y-115044370D01*
X103132961Y-115044370D02*
X103037723Y-115044370D01*
X103037723Y-115044370D02*
X102942485Y-115091989D01*
X102942485Y-115091989D02*
X102894866Y-115187227D01*
X102894866Y-115187227D02*
X102894866Y-115425322D01*
X102894866Y-115425322D02*
X102847247Y-115520560D01*
X102609152Y-115901513D02*
X103275819Y-116139608D01*
X102609152Y-116377703D02*
X103275819Y-116139608D01*
X103275819Y-116139608D02*
X103513914Y-116044370D01*
X103513914Y-116044370D02*
X103561533Y-115996751D01*
X103561533Y-115996751D02*
X103609152Y-115901513D01*
M02*
