M48
; DRILL file {KiCad 9.0.6} date 2025-12-13T14:25:27+0100
; FORMAT={-:-/ absolute / inch / decimal}
; #@! TF.CreationDate,2025-12-13T14:25:27+01:00
; #@! TF.GenerationSoftware,Kicad,Pcbnew,9.0.6
; #@! TF.FileFunction,Plated,1,4,PTH
FMAT,2
INCH
; #@! TA.AperFunction,Plated,PTH,ViaDrill
T1C0.0118
; #@! TA.AperFunction,Plated,PTH,ComponentDrill
T2C0.0394
; #@! TA.AperFunction,Plated,PTH,ComponentDrill
T3C0.1260
%
G90
G05
T1
X4.125Y-3.59
X4.25Y-3.97
X4.27Y-4.245
X4.311Y-3.713
X4.405Y-4.061
X4.449Y-3.792
X4.487Y-3.921
X4.524Y-4.193
X4.526Y-3.884
X4.541Y-4.005
X4.5496Y-3.834
X4.574Y-3.684
X4.585Y-3.588
X4.785Y-3.487
X4.834Y-4.046
X4.85Y-3.585
X4.882Y-4.109
X4.911Y-3.972
X4.952Y-4.009
X4.991Y-3.636
X4.994Y-3.323
X5.033Y-3.758
X5.076Y-4.143
X5.078Y-3.218
X5.078Y-3.323
X5.214Y-3.263
X5.223Y-3.339
T2
X4.1139Y-3.6881
X4.1139Y-3.7881
X4.1139Y-3.8881
X4.1139Y-3.9881
X4.362Y-3.518
X4.462Y-3.518
X4.502Y-4.396
X4.502Y-4.496
X4.502Y-4.596
X4.631Y-3.119
X4.631Y-3.219
X4.7132Y-4.614
X4.731Y-3.119
X4.731Y-3.219
X4.761Y-4.131
X4.761Y-4.231
X4.761Y-4.331
X4.761Y-4.431
X4.8132Y-4.614
X4.831Y-3.119
X4.831Y-3.219
X4.931Y-3.119
X4.931Y-3.219
X4.978Y-4.342
X4.978Y-4.442
X4.978Y-4.542
X5.078Y-4.342
X5.078Y-4.442
X5.078Y-4.542
X5.252Y-4.103
X5.252Y-4.203
X5.252Y-4.303
T3
X4.2756Y-3.2283
X4.2756Y-4.5079
X5.18Y-3.8681
M30
