%TF.GenerationSoftware,KiCad,Pcbnew,9.0.4*%
%TF.CreationDate,2025-11-07T20:41:43+01:00*%
%TF.ProjectId,SB_Mod_SR04,53425f4d-6f64-45f5-9352-30342e6b6963,rev?*%
%TF.SameCoordinates,Original*%
%TF.FileFunction,Copper,L4,Bot*%
%TF.FilePolarity,Positive*%
%FSLAX46Y46*%
G04 Gerber Fmt 4.6, Leading zero omitted, Abs format (unit mm)*
G04 Created by KiCad (PCBNEW 9.0.4) date 2025-11-07 20:41:43*
%MOMM*%
%LPD*%
G01*
G04 APERTURE LIST*
%TA.AperFunction,ComponentPad*%
%ADD10R,1.700000X1.700000*%
%TD*%
%TA.AperFunction,ComponentPad*%
%ADD11C,1.700000*%
%TD*%
%TA.AperFunction,ComponentPad*%
%ADD12C,6.400000*%
%TD*%
%TA.AperFunction,ViaPad*%
%ADD13C,0.600000*%
%TD*%
%TA.AperFunction,Conductor*%
%ADD14C,0.200000*%
%TD*%
G04 APERTURE END LIST*
D10*
%TO.P,J2,1,Pin_1*%
%TO.N,GND*%
X122255200Y-117195600D03*
D11*
%TO.P,J2,2,Pin_2*%
X119715200Y-117195600D03*
%TD*%
D10*
%TO.P,J3,1,Pin_1*%
%TO.N,/SB_ACT*%
X120929400Y-104927400D03*
D11*
%TO.P,J3,2,Pin_2*%
%TO.N,/SB_DAT*%
X120929400Y-107467400D03*
%TO.P,J3,3,Pin_3*%
%TO.N,/SB_CLK*%
X120929400Y-110007400D03*
%TO.P,J3,4,Pin_4*%
%TO.N,GND*%
X120929400Y-112547400D03*
%TD*%
D10*
%TO.P,SB1,1,GND*%
%TO.N,GND*%
X117627400Y-81762600D03*
D11*
%TO.P,SB1,2,+5V*%
%TO.N,+5V*%
X117627400Y-79222600D03*
%TO.P,SB1,3,CLK*%
%TO.N,/SB_CLK*%
X120167400Y-81762600D03*
%TO.P,SB1,4,GND*%
%TO.N,GND*%
X120167400Y-79222600D03*
%TO.P,SB1,5,DAT*%
%TO.N,/SB_DAT*%
X122707400Y-81762600D03*
%TO.P,SB1,6,~{ACT}*%
%TO.N,/SB_ACT*%
X122707400Y-79222600D03*
%TO.P,SB1,7,+5V*%
%TO.N,+5V*%
X125247400Y-81762600D03*
%TO.P,SB1,8,GND*%
%TO.N,GND*%
X125247400Y-79222600D03*
%TD*%
D10*
%TO.P,J1,1,Pin_1*%
%TO.N,/UPDI*%
X133400800Y-104216200D03*
D11*
%TO.P,J1,2,Pin_2*%
%TO.N,/PROG_TX*%
X133400800Y-106756200D03*
%TO.P,J1,3,Pin_3*%
%TO.N,GND*%
X133400800Y-109296200D03*
%TD*%
D12*
%TO.P,H3,1,1*%
%TO.N,GND*%
X108600000Y-114500000D03*
%TD*%
D10*
%TO.P,A1,1,VCC*%
%TO.N,+5V*%
X104493500Y-93679000D03*
D11*
%TO.P,A1,2,Trig*%
%TO.N,/TRIG*%
X104493500Y-96219000D03*
%TO.P,A1,3,Echo*%
%TO.N,/ECHO_H*%
X104493500Y-98759000D03*
%TO.P,A1,4,GND*%
%TO.N,GND*%
X104493500Y-101299000D03*
%TD*%
D10*
%TO.P,J4,1,Pin_1*%
%TO.N,/TX*%
X114350800Y-116738400D03*
D11*
%TO.P,J4,2,Pin_2*%
%TO.N,/RX*%
X114350800Y-114198400D03*
%TO.P,J4,3,Pin_3*%
%TO.N,GND*%
X114350800Y-111658400D03*
%TD*%
D12*
%TO.P,H1,1,1*%
%TO.N,GND*%
X108600000Y-82000000D03*
%TD*%
D10*
%TO.P,CONN1,1,UPDI*%
%TO.N,/UPDI*%
X126441200Y-110286800D03*
D11*
%TO.P,CONN1,2,VCC*%
%TO.N,+5V*%
X128981200Y-110286800D03*
%TO.P,CONN1,3,nc*%
%TO.N,unconnected-(CONN1-nc-Pad3)*%
X126441200Y-112826800D03*
%TO.P,CONN1,4,nc*%
%TO.N,unconnected-(CONN1-nc-Pad4)*%
X128981200Y-112826800D03*
%TO.P,CONN1,5,nc*%
%TO.N,unconnected-(CONN1-nc-Pad5)*%
X126441200Y-115366800D03*
%TO.P,CONN1,6,GND*%
%TO.N,GND*%
X128981200Y-115366800D03*
%TD*%
D12*
%TO.P,H2,1,1*%
%TO.N,GND*%
X131572000Y-98250000D03*
%TD*%
D13*
%TO.N,GND*%
X128930400Y-105232200D03*
X107950000Y-100838000D03*
X104775000Y-91186000D03*
X124002800Y-104368600D03*
X110236000Y-94488000D03*
X115138200Y-107518200D03*
X123190000Y-91059000D03*
X125780800Y-101828600D03*
X109220000Y-89535000D03*
X126771400Y-92354400D03*
X108458000Y-107823000D03*
X115290600Y-100304600D03*
X126822200Y-85394800D03*
%TO.N,+5V*%
X116459000Y-91135200D03*
X112344200Y-86029800D03*
X112345000Y-89154000D03*
X121539000Y-88569800D03*
X116179600Y-93573600D03*
%TO.N,/ACT_LED*%
X111887000Y-103149400D03*
X122783600Y-102768400D03*
%TO.N,/ALERT_LED*%
X124739400Y-100888800D03*
X115341400Y-101727000D03*
%TD*%
D14*
%TO.N,/ACT_LED*%
X116865400Y-102768400D02*
X116484400Y-103149400D01*
X122783600Y-102768400D02*
X116865400Y-102768400D01*
X116484400Y-103149400D02*
X111887000Y-103149400D01*
%TO.N,/ALERT_LED*%
X116179600Y-100888800D02*
X115341400Y-101727000D01*
X124739400Y-100888800D02*
X116179600Y-100888800D01*
%TD*%
%TA.AperFunction,Conductor*%
%TO.N,+5V*%
G36*
X128515275Y-110479793D02*
G01*
X128581101Y-110593807D01*
X128674193Y-110686899D01*
X128788207Y-110752725D01*
X128851790Y-110769762D01*
X128219482Y-111402069D01*
X128219482Y-111402070D01*
X128273652Y-111441426D01*
X128273651Y-111441426D01*
X128282695Y-111446034D01*
X128333492Y-111494008D01*
X128350287Y-111561829D01*
X128327750Y-111627964D01*
X128282699Y-111667002D01*
X128273382Y-111671749D01*
X128101413Y-111796690D01*
X127951090Y-111947013D01*
X127826149Y-112118982D01*
X127821684Y-112127746D01*
X127773709Y-112178542D01*
X127705888Y-112195336D01*
X127639753Y-112172798D01*
X127600716Y-112127746D01*
X127596250Y-112118982D01*
X127471309Y-111947013D01*
X127357769Y-111833473D01*
X127324284Y-111772150D01*
X127329268Y-111702458D01*
X127371140Y-111646525D01*
X127402115Y-111629610D01*
X127533531Y-111580596D01*
X127648746Y-111494346D01*
X127734996Y-111379131D01*
X127785291Y-111244283D01*
X127791700Y-111184673D01*
X127791699Y-111174112D01*
X127811379Y-111107075D01*
X127828018Y-111086426D01*
X128498237Y-110416208D01*
X128515275Y-110479793D01*
G37*
%TD.AperFunction*%
%TA.AperFunction,Conductor*%
G36*
X124048844Y-79876599D02*
G01*
X124087886Y-79921656D01*
X124092351Y-79930420D01*
X124217290Y-80102386D01*
X124367613Y-80252709D01*
X124539579Y-80377648D01*
X124539581Y-80377649D01*
X124539584Y-80377651D01*
X124548893Y-80382394D01*
X124599690Y-80430366D01*
X124616487Y-80498187D01*
X124593952Y-80564322D01*
X124548905Y-80603360D01*
X124539846Y-80607976D01*
X124539840Y-80607980D01*
X124485682Y-80647327D01*
X124485682Y-80647328D01*
X125117991Y-81279637D01*
X125054407Y-81296675D01*
X124940393Y-81362501D01*
X124847301Y-81455593D01*
X124781475Y-81569607D01*
X124764437Y-81633191D01*
X124132128Y-81000882D01*
X124132127Y-81000882D01*
X124092780Y-81055040D01*
X124092776Y-81055046D01*
X124088160Y-81064105D01*
X124040181Y-81114897D01*
X123972359Y-81131687D01*
X123906226Y-81109143D01*
X123867194Y-81064093D01*
X123862451Y-81054784D01*
X123862449Y-81054781D01*
X123862448Y-81054779D01*
X123737509Y-80882813D01*
X123587186Y-80732490D01*
X123415220Y-80607551D01*
X123407000Y-80603363D01*
X123406454Y-80603085D01*
X123355659Y-80555112D01*
X123338863Y-80487292D01*
X123361399Y-80421156D01*
X123406454Y-80382115D01*
X123415216Y-80377651D01*
X123437189Y-80361686D01*
X123587186Y-80252709D01*
X123587188Y-80252706D01*
X123587192Y-80252704D01*
X123737504Y-80102392D01*
X123737506Y-80102388D01*
X123737509Y-80102386D01*
X123862448Y-79930420D01*
X123862450Y-79930417D01*
X123862451Y-79930416D01*
X123866914Y-79921654D01*
X123914888Y-79870859D01*
X123982708Y-79854063D01*
X124048844Y-79876599D01*
G37*
%TD.AperFunction*%
%TA.AperFunction,Conductor*%
G36*
X118742670Y-79984317D02*
G01*
X118742670Y-79984316D01*
X118782022Y-79930155D01*
X118786632Y-79921107D01*
X118834605Y-79870309D01*
X118902425Y-79853512D01*
X118968561Y-79876047D01*
X119007604Y-79921104D01*
X119012349Y-79930417D01*
X119137290Y-80102386D01*
X119287613Y-80252709D01*
X119459582Y-80377650D01*
X119468346Y-80382116D01*
X119519142Y-80430091D01*
X119535936Y-80497912D01*
X119513398Y-80564047D01*
X119468346Y-80603084D01*
X119459582Y-80607549D01*
X119287615Y-80732489D01*
X119174073Y-80846031D01*
X119112750Y-80879515D01*
X119043058Y-80874531D01*
X118987125Y-80832659D01*
X118970210Y-80801682D01*
X118921197Y-80670271D01*
X118921193Y-80670264D01*
X118834947Y-80555055D01*
X118834944Y-80555052D01*
X118719735Y-80468806D01*
X118719728Y-80468802D01*
X118584882Y-80418508D01*
X118584883Y-80418508D01*
X118525283Y-80412101D01*
X118525281Y-80412100D01*
X118525273Y-80412100D01*
X118525265Y-80412100D01*
X118514709Y-80412100D01*
X118447670Y-80392415D01*
X118427028Y-80375781D01*
X117756808Y-79705562D01*
X117820393Y-79688525D01*
X117934407Y-79622699D01*
X118027499Y-79529607D01*
X118093325Y-79415593D01*
X118110362Y-79352008D01*
X118742670Y-79984317D01*
G37*
%TD.AperFunction*%
%TA.AperFunction,Conductor*%
G36*
X129213825Y-76176185D02*
G01*
X129248022Y-76208895D01*
X135746736Y-85396929D01*
X135769378Y-85463028D01*
X135769500Y-85468533D01*
X135769500Y-110747988D01*
X135749815Y-110815027D01*
X135747053Y-110819143D01*
X131500845Y-116879357D01*
X130333010Y-118546099D01*
X129246582Y-120096655D01*
X129191991Y-120140263D01*
X129145029Y-120149500D01*
X100827500Y-120149500D01*
X100760461Y-120129815D01*
X100714706Y-120077011D01*
X100703500Y-120025500D01*
X100703500Y-114318206D01*
X104899500Y-114318206D01*
X104899500Y-114681794D01*
X104910337Y-114791829D01*
X104935137Y-115043630D01*
X105006064Y-115400212D01*
X105006067Y-115400223D01*
X105111614Y-115748165D01*
X105250754Y-116084078D01*
X105250756Y-116084083D01*
X105422140Y-116404720D01*
X105422151Y-116404738D01*
X105624140Y-116707035D01*
X105624150Y-116707049D01*
X105854807Y-116988106D01*
X106111893Y-117245192D01*
X106111898Y-117245196D01*
X106111899Y-117245197D01*
X106392956Y-117475854D01*
X106695268Y-117677853D01*
X106695277Y-117677858D01*
X106695279Y-117677859D01*
X107015916Y-117849243D01*
X107015918Y-117849243D01*
X107015924Y-117849247D01*
X107351836Y-117988386D01*
X107699767Y-118093930D01*
X107699773Y-118093931D01*
X107699776Y-118093932D01*
X107699787Y-118093935D01*
X108056369Y-118164862D01*
X108418206Y-118200500D01*
X108418209Y-118200500D01*
X108781791Y-118200500D01*
X108781794Y-118200500D01*
X109143631Y-118164862D01*
X109213045Y-118151054D01*
X109500212Y-118093935D01*
X109500223Y-118093932D01*
X109500223Y-118093931D01*
X109500233Y-118093930D01*
X109848164Y-117988386D01*
X110184076Y-117849247D01*
X110504732Y-117677853D01*
X110807044Y-117475854D01*
X111088101Y-117245197D01*
X111345197Y-116988101D01*
X111575854Y-116707044D01*
X111777853Y-116404732D01*
X111949247Y-116084076D01*
X112088386Y-115748164D01*
X112193930Y-115400233D01*
X112193932Y-115400223D01*
X112193935Y-115400212D01*
X112264862Y-115043630D01*
X112284092Y-114848385D01*
X112300500Y-114681794D01*
X112300500Y-114318206D01*
X112264862Y-113956369D01*
X112250101Y-113882160D01*
X112193935Y-113599787D01*
X112193932Y-113599776D01*
X112193931Y-113599773D01*
X112193930Y-113599767D01*
X112088386Y-113251836D01*
X111949247Y-112915924D01*
X111921302Y-112863643D01*
X111777859Y-112595279D01*
X111777858Y-112595277D01*
X111777853Y-112595268D01*
X111575854Y-112292956D01*
X111345197Y-112011899D01*
X111345196Y-112011898D01*
X111345192Y-112011893D01*
X111088106Y-111754807D01*
X110951983Y-111643094D01*
X110841122Y-111552113D01*
X113000300Y-111552113D01*
X113000300Y-111764687D01*
X113033554Y-111974643D01*
X113083300Y-112127746D01*
X113099244Y-112176814D01*
X113195751Y-112366220D01*
X113320690Y-112538186D01*
X113471013Y-112688509D01*
X113642982Y-112813450D01*
X113651746Y-112817916D01*
X113702542Y-112865891D01*
X113719336Y-112933712D01*
X113696798Y-112999847D01*
X113651746Y-113038884D01*
X113642982Y-113043349D01*
X113471013Y-113168290D01*
X113320690Y-113318613D01*
X113195751Y-113490579D01*
X113099244Y-113679985D01*
X113033553Y-113882160D01*
X113010873Y-114025356D01*
X113000300Y-114092113D01*
X113000300Y-114304687D01*
X113033554Y-114514643D01*
X113083300Y-114667746D01*
X113099244Y-114716814D01*
X113195751Y-114906220D01*
X113320690Y-115078186D01*
X113434230Y-115191726D01*
X113467715Y-115253049D01*
X113462731Y-115322741D01*
X113420859Y-115378674D01*
X113389883Y-115395589D01*
X113258469Y-115444603D01*
X113258464Y-115444606D01*
X113143255Y-115530852D01*
X113143252Y-115530855D01*
X113057006Y-115646064D01*
X113057002Y-115646071D01*
X113006708Y-115780917D01*
X113001598Y-115828450D01*
X113000301Y-115840523D01*
X113000300Y-115840535D01*
X113000300Y-117636270D01*
X113000301Y-117636276D01*
X113006708Y-117695883D01*
X113057002Y-117830728D01*
X113057006Y-117830735D01*
X113143252Y-117945944D01*
X113143255Y-117945947D01*
X113258464Y-118032193D01*
X113258471Y-118032197D01*
X113393317Y-118082491D01*
X113393316Y-118082491D01*
X113400244Y-118083235D01*
X113452927Y-118088900D01*
X115248672Y-118088899D01*
X115308283Y-118082491D01*
X115443131Y-118032196D01*
X115558346Y-117945946D01*
X115644596Y-117830731D01*
X115694891Y-117695883D01*
X115701300Y-117636273D01*
X115701299Y-117089313D01*
X118364700Y-117089313D01*
X118364700Y-117301886D01*
X118392254Y-117475859D01*
X118397954Y-117511843D01*
X118457752Y-117695882D01*
X118463644Y-117714014D01*
X118560151Y-117903420D01*
X118685090Y-118075386D01*
X118835413Y-118225709D01*
X119007379Y-118350648D01*
X119007381Y-118350649D01*
X119007384Y-118350651D01*
X119196788Y-118447157D01*
X119398957Y-118512846D01*
X119608913Y-118546100D01*
X119608914Y-118546100D01*
X119821486Y-118546100D01*
X119821487Y-118546100D01*
X120031443Y-118512846D01*
X120233612Y-118447157D01*
X120423016Y-118350651D01*
X120594992Y-118225704D01*
X120708529Y-118112166D01*
X120769848Y-118078684D01*
X120839540Y-118083668D01*
X120895474Y-118125539D01*
X120912389Y-118156517D01*
X120961402Y-118287928D01*
X120961406Y-118287935D01*
X121047652Y-118403144D01*
X121047655Y-118403147D01*
X121162864Y-118489393D01*
X121162871Y-118489397D01*
X121297717Y-118539691D01*
X121297716Y-118539691D01*
X121304644Y-118540435D01*
X121357327Y-118546100D01*
X123153072Y-118546099D01*
X123212683Y-118539691D01*
X123347531Y-118489396D01*
X123462746Y-118403146D01*
X123548996Y-118287931D01*
X123599291Y-118153083D01*
X123605700Y-118093473D01*
X123605699Y-116297728D01*
X123599291Y-116238117D01*
X123598010Y-116234683D01*
X123548997Y-116103271D01*
X123548993Y-116103264D01*
X123462747Y-115988055D01*
X123462744Y-115988052D01*
X123347535Y-115901806D01*
X123347528Y-115901802D01*
X123212682Y-115851508D01*
X123212683Y-115851508D01*
X123153083Y-115845101D01*
X123153081Y-115845100D01*
X123153073Y-115845100D01*
X123153064Y-115845100D01*
X121357329Y-115845100D01*
X121357323Y-115845101D01*
X121297716Y-115851508D01*
X121162871Y-115901802D01*
X121162864Y-115901806D01*
X121047655Y-115988052D01*
X121047652Y-115988055D01*
X120961406Y-116103264D01*
X120961403Y-116103269D01*
X120912389Y-116234683D01*
X120870517Y-116290616D01*
X120805053Y-116315033D01*
X120736780Y-116300181D01*
X120708526Y-116279030D01*
X120594986Y-116165490D01*
X120423020Y-116040551D01*
X120233614Y-115944044D01*
X120233613Y-115944043D01*
X120233612Y-115944043D01*
X120031443Y-115878354D01*
X120031441Y-115878353D01*
X120031440Y-115878353D01*
X119870157Y-115852808D01*
X119821487Y-115845100D01*
X119608913Y-115845100D01*
X119560242Y-115852808D01*
X119398960Y-115878353D01*
X119196785Y-115944044D01*
X119007379Y-116040551D01*
X118835413Y-116165490D01*
X118685090Y-116315813D01*
X118560151Y-116487779D01*
X118463644Y-116677185D01*
X118397953Y-116879360D01*
X118364700Y-117089313D01*
X115701299Y-117089313D01*
X115701299Y-116717300D01*
X115701299Y-115840529D01*
X115701298Y-115840523D01*
X115701297Y-115840516D01*
X115694891Y-115780917D01*
X115682675Y-115748165D01*
X115644597Y-115646071D01*
X115644593Y-115646064D01*
X115558347Y-115530855D01*
X115558344Y-115530852D01*
X115443135Y-115444606D01*
X115443128Y-115444602D01*
X115311717Y-115395589D01*
X115255783Y-115353718D01*
X115231366Y-115288253D01*
X115246218Y-115219980D01*
X115267363Y-115191732D01*
X115380904Y-115078192D01*
X115505851Y-114906216D01*
X115602357Y-114716812D01*
X115668046Y-114514643D01*
X115701300Y-114304687D01*
X115701300Y-114092113D01*
X115668046Y-113882157D01*
X115602357Y-113679988D01*
X115505851Y-113490584D01*
X115505849Y-113490581D01*
X115505848Y-113490579D01*
X115380909Y-113318613D01*
X115230586Y-113168290D01*
X115058620Y-113043351D01*
X115057915Y-113042991D01*
X115049854Y-113038885D01*
X114999059Y-112990912D01*
X114982263Y-112923092D01*
X115004799Y-112856956D01*
X115049854Y-112817915D01*
X115058616Y-112813451D01*
X115080589Y-112797486D01*
X115230586Y-112688509D01*
X115230588Y-112688506D01*
X115230592Y-112688504D01*
X115380904Y-112538192D01*
X115380906Y-112538188D01*
X115380909Y-112538186D01*
X115505848Y-112366220D01*
X115505847Y-112366220D01*
X115505851Y-112366216D01*
X115602357Y-112176812D01*
X115668046Y-111974643D01*
X115701300Y-111764687D01*
X115701300Y-111552113D01*
X115668046Y-111342157D01*
X115602357Y-111139988D01*
X115505851Y-110950584D01*
X115505849Y-110950581D01*
X115505848Y-110950579D01*
X115380909Y-110778613D01*
X115230586Y-110628290D01*
X115058620Y-110503351D01*
X114869214Y-110406844D01*
X114869213Y-110406843D01*
X114869212Y-110406843D01*
X114667043Y-110341154D01*
X114667041Y-110341153D01*
X114667040Y-110341153D01*
X114505757Y-110315608D01*
X114457087Y-110307900D01*
X114244513Y-110307900D01*
X114195842Y-110315608D01*
X114034560Y-110341153D01*
X113832385Y-110406844D01*
X113642979Y-110503351D01*
X113471013Y-110628290D01*
X113320690Y-110778613D01*
X113195751Y-110950579D01*
X113099244Y-111139985D01*
X113099243Y-111139987D01*
X113099243Y-111139988D01*
X113084725Y-111184670D01*
X113033553Y-111342160D01*
X113004729Y-111524150D01*
X113000300Y-111552113D01*
X110841122Y-111552113D01*
X110807049Y-111524150D01*
X110807048Y-111524149D01*
X110807044Y-111524146D01*
X110504732Y-111322147D01*
X110504727Y-111322144D01*
X110504720Y-111322140D01*
X110184083Y-111150756D01*
X110184078Y-111150754D01*
X110158079Y-111139985D01*
X110028777Y-111086426D01*
X109848165Y-111011614D01*
X109500223Y-110906067D01*
X109500212Y-110906064D01*
X109143630Y-110835137D01*
X108871111Y-110808296D01*
X108781794Y-110799500D01*
X108418206Y-110799500D01*
X108335679Y-110807628D01*
X108056369Y-110835137D01*
X107699787Y-110906064D01*
X107699776Y-110906067D01*
X107351834Y-111011614D01*
X107015921Y-111150754D01*
X107015916Y-111150756D01*
X106695279Y-111322140D01*
X106695261Y-111322151D01*
X106392964Y-111524140D01*
X106392950Y-111524150D01*
X106111893Y-111754807D01*
X105854807Y-112011893D01*
X105624150Y-112292950D01*
X105624140Y-112292964D01*
X105422151Y-112595261D01*
X105422140Y-112595279D01*
X105250756Y-112915916D01*
X105250754Y-112915921D01*
X105111614Y-113251834D01*
X105006067Y-113599776D01*
X105006064Y-113599787D01*
X104935137Y-113956369D01*
X104910425Y-114207284D01*
X104899500Y-114318206D01*
X100703500Y-114318206D01*
X100703500Y-107744153D01*
X107657500Y-107744153D01*
X107657500Y-107901846D01*
X107688261Y-108056489D01*
X107688264Y-108056501D01*
X107748602Y-108202172D01*
X107748609Y-108202185D01*
X107836210Y-108333288D01*
X107836213Y-108333292D01*
X107947707Y-108444786D01*
X107947711Y-108444789D01*
X108078814Y-108532390D01*
X108078827Y-108532397D01*
X108213982Y-108588379D01*
X108224503Y-108592737D01*
X108373869Y-108622448D01*
X108379153Y-108623499D01*
X108379156Y-108623500D01*
X108379158Y-108623500D01*
X108536844Y-108623500D01*
X108536845Y-108623499D01*
X108691497Y-108592737D01*
X108837179Y-108532394D01*
X108968289Y-108444789D01*
X109079789Y-108333289D01*
X109167394Y-108202179D01*
X109227737Y-108056497D01*
X109258500Y-107901842D01*
X109258500Y-107744158D01*
X109258500Y-107744155D01*
X109258499Y-107744153D01*
X109229237Y-107597044D01*
X109227737Y-107589503D01*
X109221186Y-107573687D01*
X109182678Y-107480718D01*
X109167395Y-107443824D01*
X109167394Y-107443821D01*
X109167392Y-107443818D01*
X109167390Y-107443814D01*
X109164409Y-107439353D01*
X114337700Y-107439353D01*
X114337700Y-107597046D01*
X114368461Y-107751689D01*
X114368464Y-107751701D01*
X114428802Y-107897372D01*
X114428809Y-107897385D01*
X114516410Y-108028488D01*
X114516413Y-108028492D01*
X114627907Y-108139986D01*
X114627911Y-108139989D01*
X114759014Y-108227590D01*
X114759027Y-108227597D01*
X114904698Y-108287935D01*
X114904703Y-108287937D01*
X115059353Y-108318699D01*
X115059356Y-108318700D01*
X115059358Y-108318700D01*
X115217044Y-108318700D01*
X115217045Y-108318699D01*
X115371697Y-108287937D01*
X115517379Y-108227594D01*
X115648489Y-108139989D01*
X115759989Y-108028489D01*
X115847594Y-107897379D01*
X115907937Y-107751697D01*
X115938700Y-107597042D01*
X115938700Y-107439358D01*
X115938700Y-107439355D01*
X115938699Y-107439353D01*
X115907938Y-107284710D01*
X115907937Y-107284703D01*
X115873354Y-107201211D01*
X115847597Y-107139027D01*
X115847590Y-107139014D01*
X115759989Y-107007911D01*
X115759986Y-107007907D01*
X115648492Y-106896413D01*
X115648488Y-106896410D01*
X115517385Y-106808809D01*
X115517372Y-106808802D01*
X115371701Y-106748464D01*
X115371689Y-106748461D01*
X115217045Y-106717700D01*
X115217042Y-106717700D01*
X115059358Y-106717700D01*
X115059355Y-106717700D01*
X114904710Y-106748461D01*
X114904698Y-106748464D01*
X114759027Y-106808802D01*
X114759014Y-106808809D01*
X114627911Y-106896410D01*
X114627907Y-106896413D01*
X114516413Y-107007907D01*
X114516410Y-107007911D01*
X114428809Y-107139014D01*
X114428802Y-107139027D01*
X114368464Y-107284698D01*
X114368461Y-107284710D01*
X114337700Y-107439353D01*
X109164409Y-107439353D01*
X109079789Y-107312711D01*
X109079786Y-107312707D01*
X108968292Y-107201213D01*
X108968288Y-107201210D01*
X108837185Y-107113609D01*
X108837172Y-107113602D01*
X108691501Y-107053264D01*
X108691489Y-107053261D01*
X108536845Y-107022500D01*
X108536842Y-107022500D01*
X108379158Y-107022500D01*
X108379155Y-107022500D01*
X108224510Y-107053261D01*
X108224498Y-107053264D01*
X108078827Y-107113602D01*
X108078814Y-107113609D01*
X107947711Y-107201210D01*
X107947707Y-107201213D01*
X107836213Y-107312707D01*
X107836210Y-107312711D01*
X107748609Y-107443814D01*
X107748602Y-107443827D01*
X107688264Y-107589498D01*
X107688261Y-107589510D01*
X107657500Y-107744153D01*
X100703500Y-107744153D01*
X100703500Y-103070553D01*
X111086500Y-103070553D01*
X111086500Y-103228246D01*
X111117261Y-103382889D01*
X111117264Y-103382901D01*
X111177602Y-103528572D01*
X111177609Y-103528585D01*
X111265210Y-103659688D01*
X111265213Y-103659692D01*
X111376707Y-103771186D01*
X111376711Y-103771189D01*
X111507814Y-103858790D01*
X111507827Y-103858797D01*
X111653498Y-103919135D01*
X111653503Y-103919137D01*
X111808153Y-103949899D01*
X111808156Y-103949900D01*
X111808158Y-103949900D01*
X111965844Y-103949900D01*
X111965845Y-103949899D01*
X112120497Y-103919137D01*
X112266179Y-103858794D01*
X112301686Y-103835069D01*
X112397875Y-103770798D01*
X112464553Y-103749920D01*
X112466766Y-103749900D01*
X116397731Y-103749900D01*
X116397747Y-103749901D01*
X116405343Y-103749901D01*
X116563454Y-103749901D01*
X116563457Y-103749901D01*
X116716185Y-103708977D01*
X116766304Y-103680039D01*
X116853116Y-103629920D01*
X116964920Y-103518116D01*
X116964920Y-103518114D01*
X116975128Y-103507907D01*
X116975131Y-103507903D01*
X117077818Y-103405218D01*
X117139141Y-103371734D01*
X117165498Y-103368900D01*
X119859482Y-103368900D01*
X119926521Y-103388585D01*
X119972276Y-103441389D01*
X119982220Y-103510547D01*
X119953195Y-103574103D01*
X119902815Y-103609082D01*
X119837071Y-103633602D01*
X119837064Y-103633606D01*
X119721855Y-103719852D01*
X119721852Y-103719855D01*
X119635606Y-103835064D01*
X119635602Y-103835071D01*
X119585308Y-103969917D01*
X119583211Y-103989427D01*
X119578901Y-104029523D01*
X119578900Y-104029535D01*
X119578900Y-105825270D01*
X119578901Y-105825276D01*
X119585308Y-105884883D01*
X119635602Y-106019728D01*
X119635606Y-106019735D01*
X119721852Y-106134944D01*
X119721855Y-106134947D01*
X119837064Y-106221193D01*
X119837071Y-106221197D01*
X119968482Y-106270210D01*
X120024416Y-106312081D01*
X120048833Y-106377545D01*
X120033982Y-106445818D01*
X120012831Y-106474073D01*
X119899289Y-106587615D01*
X119774351Y-106759579D01*
X119677844Y-106948985D01*
X119612153Y-107151160D01*
X119592600Y-107274614D01*
X119578900Y-107361113D01*
X119578900Y-107573687D01*
X119582600Y-107597046D01*
X119605899Y-107744155D01*
X119612154Y-107783643D01*
X119670655Y-107963691D01*
X119677844Y-107985814D01*
X119774351Y-108175220D01*
X119899290Y-108347186D01*
X120049613Y-108497509D01*
X120221582Y-108622450D01*
X120230346Y-108626916D01*
X120281142Y-108674891D01*
X120297936Y-108742712D01*
X120275398Y-108808847D01*
X120230346Y-108847884D01*
X120221582Y-108852349D01*
X120049613Y-108977290D01*
X119899290Y-109127613D01*
X119774351Y-109299579D01*
X119677844Y-109488985D01*
X119612153Y-109691160D01*
X119578900Y-109901113D01*
X119578900Y-110113686D01*
X119609660Y-110307900D01*
X119612154Y-110323643D01*
X119670544Y-110503349D01*
X119677844Y-110525814D01*
X119774351Y-110715220D01*
X119899290Y-110887186D01*
X120049613Y-111037509D01*
X120221582Y-111162450D01*
X120230346Y-111166916D01*
X120281142Y-111214891D01*
X120297936Y-111282712D01*
X120275398Y-111348847D01*
X120230346Y-111387884D01*
X120221582Y-111392349D01*
X120049613Y-111517290D01*
X119899290Y-111667613D01*
X119774351Y-111839579D01*
X119677844Y-112028985D01*
X119612153Y-112231160D01*
X119578900Y-112441113D01*
X119578900Y-112653686D01*
X119604911Y-112817916D01*
X119612154Y-112863643D01*
X119670544Y-113043349D01*
X119677844Y-113065814D01*
X119774351Y-113255220D01*
X119899290Y-113427186D01*
X120049613Y-113577509D01*
X120221579Y-113702448D01*
X120221581Y-113702449D01*
X120221584Y-113702451D01*
X120410988Y-113798957D01*
X120613157Y-113864646D01*
X120823113Y-113897900D01*
X120823114Y-113897900D01*
X121035686Y-113897900D01*
X121035687Y-113897900D01*
X121245643Y-113864646D01*
X121447812Y-113798957D01*
X121637216Y-113702451D01*
X121668138Y-113679985D01*
X121809186Y-113577509D01*
X121809188Y-113577506D01*
X121809192Y-113577504D01*
X121959504Y-113427192D01*
X121959506Y-113427188D01*
X121959509Y-113427186D01*
X122084448Y-113255220D01*
X122084447Y-113255220D01*
X122084451Y-113255216D01*
X122180957Y-113065812D01*
X122246646Y-112863643D01*
X122279900Y-112653687D01*
X122279900Y-112441113D01*
X122246646Y-112231157D01*
X122180957Y-112028988D01*
X122084451Y-111839584D01*
X122084449Y-111839581D01*
X122084448Y-111839579D01*
X121959509Y-111667613D01*
X121809186Y-111517290D01*
X121637220Y-111392351D01*
X121636515Y-111391991D01*
X121628454Y-111387885D01*
X121577659Y-111339912D01*
X121560863Y-111272092D01*
X121583399Y-111205956D01*
X121628454Y-111166915D01*
X121637216Y-111162451D01*
X121729063Y-111095721D01*
X121809186Y-111037509D01*
X121809188Y-111037506D01*
X121809192Y-111037504D01*
X121959504Y-110887192D01*
X121959506Y-110887188D01*
X121959509Y-110887186D01*
X122084448Y-110715220D01*
X122084447Y-110715220D01*
X122084451Y-110715216D01*
X122180957Y-110525812D01*
X122246646Y-110323643D01*
X122279900Y-110113687D01*
X122279900Y-109901113D01*
X122246646Y-109691157D01*
X122180957Y-109488988D01*
X122129978Y-109388935D01*
X125090700Y-109388935D01*
X125090700Y-111184670D01*
X125090701Y-111184676D01*
X125097108Y-111244283D01*
X125147402Y-111379128D01*
X125147406Y-111379135D01*
X125233652Y-111494344D01*
X125233655Y-111494347D01*
X125348864Y-111580593D01*
X125348871Y-111580597D01*
X125480282Y-111629610D01*
X125536216Y-111671481D01*
X125560633Y-111736945D01*
X125545782Y-111805218D01*
X125524631Y-111833473D01*
X125411089Y-111947015D01*
X125286151Y-112118979D01*
X125189644Y-112308385D01*
X125123953Y-112510560D01*
X125119578Y-112538186D01*
X125090700Y-112720513D01*
X125090700Y-112933087D01*
X125123954Y-113143043D01*
X125181000Y-113318613D01*
X125189644Y-113345214D01*
X125286151Y-113534620D01*
X125411090Y-113706586D01*
X125561413Y-113856909D01*
X125733382Y-113981850D01*
X125742146Y-113986316D01*
X125792942Y-114034291D01*
X125809736Y-114102112D01*
X125787198Y-114168247D01*
X125742146Y-114207284D01*
X125733382Y-114211749D01*
X125561413Y-114336690D01*
X125411090Y-114487013D01*
X125286151Y-114658979D01*
X125189644Y-114848385D01*
X125123953Y-115050560D01*
X125119578Y-115078184D01*
X125090700Y-115260513D01*
X125090700Y-115473087D01*
X125123954Y-115683043D01*
X125187414Y-115878353D01*
X125189644Y-115885214D01*
X125286151Y-116074620D01*
X125411090Y-116246586D01*
X125561413Y-116396909D01*
X125733379Y-116521848D01*
X125733381Y-116521849D01*
X125733384Y-116521851D01*
X125922788Y-116618357D01*
X126124957Y-116684046D01*
X126334913Y-116717300D01*
X126334914Y-116717300D01*
X126547486Y-116717300D01*
X126547487Y-116717300D01*
X126757443Y-116684046D01*
X126959612Y-116618357D01*
X127149016Y-116521851D01*
X127195906Y-116487784D01*
X127320986Y-116396909D01*
X127320988Y-116396906D01*
X127320992Y-116396904D01*
X127471304Y-116246592D01*
X127471306Y-116246588D01*
X127471309Y-116246586D01*
X127589373Y-116084083D01*
X127596251Y-116074616D01*
X127600714Y-116065854D01*
X127648688Y-116015059D01*
X127716508Y-115998263D01*
X127782644Y-116020799D01*
X127821686Y-116065856D01*
X127826151Y-116074620D01*
X127951090Y-116246586D01*
X128101413Y-116396909D01*
X128273379Y-116521848D01*
X128273381Y-116521849D01*
X128273384Y-116521851D01*
X128462788Y-116618357D01*
X128664957Y-116684046D01*
X128874913Y-116717300D01*
X128874914Y-116717300D01*
X129087486Y-116717300D01*
X129087487Y-116717300D01*
X129297443Y-116684046D01*
X129499612Y-116618357D01*
X129689016Y-116521851D01*
X129735906Y-116487784D01*
X129860986Y-116396909D01*
X129860988Y-116396906D01*
X129860992Y-116396904D01*
X130011304Y-116246592D01*
X130011306Y-116246588D01*
X130011309Y-116246586D01*
X130129373Y-116084083D01*
X130136251Y-116074616D01*
X130232757Y-115885212D01*
X130298446Y-115683043D01*
X130331700Y-115473087D01*
X130331700Y-115260513D01*
X130298446Y-115050557D01*
X130232757Y-114848388D01*
X130136251Y-114658984D01*
X130136249Y-114658981D01*
X130136248Y-114658979D01*
X130011309Y-114487013D01*
X129860986Y-114336690D01*
X129689020Y-114211751D01*
X129688315Y-114211391D01*
X129680254Y-114207285D01*
X129629459Y-114159312D01*
X129612663Y-114091492D01*
X129635199Y-114025356D01*
X129680254Y-113986315D01*
X129689016Y-113981851D01*
X129724089Y-113956369D01*
X129860986Y-113856909D01*
X129860988Y-113856906D01*
X129860992Y-113856904D01*
X130011304Y-113706592D01*
X130011306Y-113706588D01*
X130011309Y-113706586D01*
X130136248Y-113534620D01*
X130136247Y-113534620D01*
X130136251Y-113534616D01*
X130232757Y-113345212D01*
X130298446Y-113143043D01*
X130331700Y-112933087D01*
X130331700Y-112720513D01*
X130298446Y-112510557D01*
X130232757Y-112308388D01*
X130136251Y-112118984D01*
X130136249Y-112118981D01*
X130136248Y-112118979D01*
X130011309Y-111947013D01*
X129860986Y-111796690D01*
X129689017Y-111671749D01*
X129679704Y-111667004D01*
X129628907Y-111619030D01*
X129612112Y-111551209D01*
X129634649Y-111485074D01*
X129679707Y-111446032D01*
X129688755Y-111441422D01*
X129742916Y-111402070D01*
X129742917Y-111402070D01*
X129110608Y-110769762D01*
X129174193Y-110752725D01*
X129288207Y-110686899D01*
X129381299Y-110593807D01*
X129447125Y-110479793D01*
X129464162Y-110416208D01*
X130096470Y-111048517D01*
X130096470Y-111048516D01*
X130135822Y-110994354D01*
X130232295Y-110805017D01*
X130297957Y-110602930D01*
X130297957Y-110602927D01*
X130331200Y-110393046D01*
X130331200Y-110180553D01*
X130297957Y-109970672D01*
X130297957Y-109970669D01*
X130232295Y-109768582D01*
X130135824Y-109579249D01*
X130096470Y-109525082D01*
X130096469Y-109525082D01*
X129464162Y-110157390D01*
X129447125Y-110093807D01*
X129381299Y-109979793D01*
X129288207Y-109886701D01*
X129174193Y-109820875D01*
X129110609Y-109803837D01*
X129742916Y-109171528D01*
X129688750Y-109132175D01*
X129499417Y-109035704D01*
X129297329Y-108970042D01*
X129087446Y-108936800D01*
X128874954Y-108936800D01*
X128665072Y-108970042D01*
X128665069Y-108970042D01*
X128462982Y-109035704D01*
X128273639Y-109132180D01*
X128219482Y-109171527D01*
X128219482Y-109171528D01*
X128851791Y-109803837D01*
X128788207Y-109820875D01*
X128674193Y-109886701D01*
X128581101Y-109979793D01*
X128515275Y-110093807D01*
X128498237Y-110157391D01*
X127828018Y-109487172D01*
X127794533Y-109425849D01*
X127794530Y-109425836D01*
X127791699Y-109412815D01*
X127791699Y-109388928D01*
X127785291Y-109329317D01*
X127757126Y-109253802D01*
X127734998Y-109194473D01*
X127734993Y-109194464D01*
X127648747Y-109079255D01*
X127648744Y-109079252D01*
X127533535Y-108993006D01*
X127533528Y-108993002D01*
X127398682Y-108942708D01*
X127398683Y-108942708D01*
X127339083Y-108936301D01*
X127339081Y-108936300D01*
X127339073Y-108936300D01*
X127339064Y-108936300D01*
X125543329Y-108936300D01*
X125543323Y-108936301D01*
X125483716Y-108942708D01*
X125348871Y-108993002D01*
X125348864Y-108993006D01*
X125233655Y-109079252D01*
X125233652Y-109079255D01*
X125147406Y-109194464D01*
X125147402Y-109194471D01*
X125097108Y-109329317D01*
X125090701Y-109388916D01*
X125090700Y-109388935D01*
X122129978Y-109388935D01*
X122084451Y-109299584D01*
X122084449Y-109299581D01*
X122084448Y-109299579D01*
X121959509Y-109127613D01*
X121809186Y-108977290D01*
X121637220Y-108852351D01*
X121636515Y-108851991D01*
X121628454Y-108847885D01*
X121577659Y-108799912D01*
X121560863Y-108732092D01*
X121583399Y-108665956D01*
X121628454Y-108626915D01*
X121637216Y-108622451D01*
X121684106Y-108588384D01*
X121809186Y-108497509D01*
X121809188Y-108497506D01*
X121809192Y-108497504D01*
X121959504Y-108347192D01*
X121959506Y-108347188D01*
X121959509Y-108347186D01*
X122084448Y-108175220D01*
X122084447Y-108175220D01*
X122084451Y-108175216D01*
X122180957Y-107985812D01*
X122246646Y-107783643D01*
X122279900Y-107573687D01*
X122279900Y-107361113D01*
X122246646Y-107151157D01*
X122180957Y-106948988D01*
X122084451Y-106759584D01*
X122084449Y-106759581D01*
X122084448Y-106759579D01*
X121959509Y-106587613D01*
X121845969Y-106474073D01*
X121812484Y-106412750D01*
X121817468Y-106343058D01*
X121859340Y-106287125D01*
X121890315Y-106270210D01*
X122021731Y-106221196D01*
X122136946Y-106134946D01*
X122223196Y-106019731D01*
X122273491Y-105884883D01*
X122279900Y-105825273D01*
X122279899Y-104289753D01*
X123202300Y-104289753D01*
X123202300Y-104447446D01*
X123233061Y-104602089D01*
X123233064Y-104602101D01*
X123293402Y-104747772D01*
X123293409Y-104747785D01*
X123381010Y-104878888D01*
X123381013Y-104878892D01*
X123492507Y-104990386D01*
X123492511Y-104990389D01*
X123623614Y-105077990D01*
X123623627Y-105077997D01*
X123710731Y-105114076D01*
X123769303Y-105138337D01*
X123923953Y-105169099D01*
X123923956Y-105169100D01*
X123923958Y-105169100D01*
X124081644Y-105169100D01*
X124081645Y-105169099D01*
X124160806Y-105153353D01*
X128129900Y-105153353D01*
X128129900Y-105311046D01*
X128160661Y-105465689D01*
X128160664Y-105465701D01*
X128221002Y-105611372D01*
X128221009Y-105611385D01*
X128308610Y-105742488D01*
X128308613Y-105742492D01*
X128420107Y-105853986D01*
X128420111Y-105853989D01*
X128551214Y-105941590D01*
X128551227Y-105941597D01*
X128696898Y-106001935D01*
X128696903Y-106001937D01*
X128851553Y-106032699D01*
X128851556Y-106032700D01*
X128851558Y-106032700D01*
X129009244Y-106032700D01*
X129009245Y-106032699D01*
X129163897Y-106001937D01*
X129309579Y-105941594D01*
X129440689Y-105853989D01*
X129552189Y-105742489D01*
X129639794Y-105611379D01*
X129700137Y-105465697D01*
X129730900Y-105311042D01*
X129730900Y-105153358D01*
X129730900Y-105153355D01*
X129730899Y-105153353D01*
X129723084Y-105114064D01*
X129700137Y-104998703D01*
X129650509Y-104878889D01*
X129639797Y-104853027D01*
X129639790Y-104853014D01*
X129552189Y-104721911D01*
X129552186Y-104721907D01*
X129440692Y-104610413D01*
X129440688Y-104610410D01*
X129309585Y-104522809D01*
X129309572Y-104522802D01*
X129163901Y-104462464D01*
X129163889Y-104462461D01*
X129009245Y-104431700D01*
X129009242Y-104431700D01*
X128851558Y-104431700D01*
X128851555Y-104431700D01*
X128696910Y-104462461D01*
X128696898Y-104462464D01*
X128551227Y-104522802D01*
X128551214Y-104522809D01*
X128420111Y-104610410D01*
X128420107Y-104610413D01*
X128308613Y-104721907D01*
X128308610Y-104721911D01*
X128221009Y-104853014D01*
X128221002Y-104853027D01*
X128160664Y-104998698D01*
X128160661Y-104998710D01*
X128129900Y-105153353D01*
X124160806Y-105153353D01*
X124236297Y-105138337D01*
X124381979Y-105077994D01*
X124381985Y-105077990D01*
X124432610Y-105044164D01*
X124470374Y-105018929D01*
X124513089Y-104990389D01*
X124624589Y-104878889D01*
X124712194Y-104747779D01*
X124772537Y-104602097D01*
X124803300Y-104447442D01*
X124803300Y-104289758D01*
X124803300Y-104289755D01*
X124803299Y-104289753D01*
X124772538Y-104135110D01*
X124772537Y-104135103D01*
X124728810Y-104029535D01*
X124712197Y-103989427D01*
X124712190Y-103989414D01*
X124624589Y-103858311D01*
X124624586Y-103858307D01*
X124513092Y-103746813D01*
X124513088Y-103746810D01*
X124381985Y-103659209D01*
X124381972Y-103659202D01*
X124236301Y-103598864D01*
X124236289Y-103598861D01*
X124081645Y-103568100D01*
X124081642Y-103568100D01*
X123923958Y-103568100D01*
X123923955Y-103568100D01*
X123769310Y-103598861D01*
X123769298Y-103598864D01*
X123623627Y-103659202D01*
X123623614Y-103659209D01*
X123492511Y-103746810D01*
X123492507Y-103746813D01*
X123381013Y-103858307D01*
X123381010Y-103858311D01*
X123293409Y-103989414D01*
X123293402Y-103989427D01*
X123233064Y-104135098D01*
X123233061Y-104135110D01*
X123202300Y-104289753D01*
X122279899Y-104289753D01*
X122279899Y-104029528D01*
X122273491Y-103969917D01*
X122266025Y-103949900D01*
X122223197Y-103835071D01*
X122223193Y-103835064D01*
X122136947Y-103719855D01*
X122136944Y-103719852D01*
X122021735Y-103633606D01*
X122021728Y-103633602D01*
X121955985Y-103609082D01*
X121945201Y-103601009D01*
X121932279Y-103597215D01*
X121917780Y-103580483D01*
X121900051Y-103567211D01*
X121895343Y-103554588D01*
X121886524Y-103544411D01*
X121883372Y-103522495D01*
X121875634Y-103501747D01*
X121878496Y-103488585D01*
X121876580Y-103475253D01*
X121885778Y-103455111D01*
X121890485Y-103433474D01*
X121900009Y-103423949D01*
X121905605Y-103411697D01*
X121924234Y-103399724D01*
X121939891Y-103384068D01*
X121954332Y-103380381D01*
X121964383Y-103373923D01*
X121999318Y-103368900D01*
X122203834Y-103368900D01*
X122270873Y-103388585D01*
X122272725Y-103389798D01*
X122404414Y-103477790D01*
X122404427Y-103477797D01*
X122527042Y-103528585D01*
X122550103Y-103538137D01*
X122696267Y-103567211D01*
X122704753Y-103568899D01*
X122704756Y-103568900D01*
X122704758Y-103568900D01*
X122862444Y-103568900D01*
X122862445Y-103568899D01*
X123017097Y-103538137D01*
X123162779Y-103477794D01*
X123293889Y-103390189D01*
X123365743Y-103318335D01*
X132050300Y-103318335D01*
X132050300Y-105114070D01*
X132050301Y-105114076D01*
X132056708Y-105173683D01*
X132107002Y-105308528D01*
X132107006Y-105308535D01*
X132193252Y-105423744D01*
X132193255Y-105423747D01*
X132308464Y-105509993D01*
X132308471Y-105509997D01*
X132439882Y-105559010D01*
X132495816Y-105600881D01*
X132520233Y-105666345D01*
X132505382Y-105734618D01*
X132484231Y-105762873D01*
X132370689Y-105876415D01*
X132245751Y-106048379D01*
X132149244Y-106237785D01*
X132083553Y-106439960D01*
X132050300Y-106649913D01*
X132050300Y-106862486D01*
X132064000Y-106948988D01*
X132083554Y-107072443D01*
X132125393Y-107201211D01*
X132149244Y-107274614D01*
X132245751Y-107464020D01*
X132370690Y-107635986D01*
X132521013Y-107786309D01*
X132692982Y-107911250D01*
X132701746Y-107915716D01*
X132752542Y-107963691D01*
X132769336Y-108031512D01*
X132746798Y-108097647D01*
X132701746Y-108136684D01*
X132692982Y-108141149D01*
X132521013Y-108266090D01*
X132370690Y-108416413D01*
X132245751Y-108588379D01*
X132149244Y-108777785D01*
X132083553Y-108979960D01*
X132050300Y-109189913D01*
X132050300Y-109402486D01*
X132078296Y-109579249D01*
X132083554Y-109612443D01*
X132140206Y-109786800D01*
X132149244Y-109814614D01*
X132245751Y-110004020D01*
X132370690Y-110175986D01*
X132521013Y-110326309D01*
X132692979Y-110451248D01*
X132692981Y-110451249D01*
X132692984Y-110451251D01*
X132882388Y-110547757D01*
X133084557Y-110613446D01*
X133294513Y-110646700D01*
X133294514Y-110646700D01*
X133507086Y-110646700D01*
X133507087Y-110646700D01*
X133717043Y-110613446D01*
X133919212Y-110547757D01*
X134108616Y-110451251D01*
X134130589Y-110435286D01*
X134280586Y-110326309D01*
X134280588Y-110326306D01*
X134280592Y-110326304D01*
X134430904Y-110175992D01*
X134430906Y-110175988D01*
X134430909Y-110175986D01*
X134555848Y-110004020D01*
X134555847Y-110004020D01*
X134555851Y-110004016D01*
X134652357Y-109814612D01*
X134718046Y-109612443D01*
X134751300Y-109402487D01*
X134751300Y-109189913D01*
X134718046Y-108979957D01*
X134652357Y-108777788D01*
X134555851Y-108588384D01*
X134555849Y-108588381D01*
X134555848Y-108588379D01*
X134430909Y-108416413D01*
X134280586Y-108266090D01*
X134108620Y-108141151D01*
X134106333Y-108139986D01*
X134099854Y-108136685D01*
X134049059Y-108088712D01*
X134032263Y-108020892D01*
X134054799Y-107954756D01*
X134099854Y-107915715D01*
X134108616Y-107911251D01*
X134130589Y-107895286D01*
X134280586Y-107786309D01*
X134280588Y-107786306D01*
X134280592Y-107786304D01*
X134430904Y-107635992D01*
X134430906Y-107635988D01*
X134430909Y-107635986D01*
X134555848Y-107464020D01*
X134555847Y-107464020D01*
X134555851Y-107464016D01*
X134652357Y-107274612D01*
X134718046Y-107072443D01*
X134751300Y-106862487D01*
X134751300Y-106649913D01*
X134718046Y-106439957D01*
X134652357Y-106237788D01*
X134555851Y-106048384D01*
X134555849Y-106048381D01*
X134555848Y-106048379D01*
X134430909Y-105876413D01*
X134317369Y-105762873D01*
X134283884Y-105701550D01*
X134288868Y-105631858D01*
X134330740Y-105575925D01*
X134361715Y-105559010D01*
X134493131Y-105509996D01*
X134608346Y-105423746D01*
X134694596Y-105308531D01*
X134744891Y-105173683D01*
X134751300Y-105114073D01*
X134751299Y-103318328D01*
X134744891Y-103258717D01*
X134740190Y-103246114D01*
X134694597Y-103123871D01*
X134694593Y-103123864D01*
X134608347Y-103008655D01*
X134608344Y-103008652D01*
X134493135Y-102922406D01*
X134493128Y-102922402D01*
X134358282Y-102872108D01*
X134358283Y-102872108D01*
X134298683Y-102865701D01*
X134298681Y-102865700D01*
X134298673Y-102865700D01*
X134298664Y-102865700D01*
X132502929Y-102865700D01*
X132502923Y-102865701D01*
X132443316Y-102872108D01*
X132308471Y-102922402D01*
X132308464Y-102922406D01*
X132193255Y-103008652D01*
X132193252Y-103008655D01*
X132107006Y-103123864D01*
X132107002Y-103123871D01*
X132056708Y-103258717D01*
X132054561Y-103278692D01*
X132050301Y-103318323D01*
X132050300Y-103318335D01*
X123365743Y-103318335D01*
X123405389Y-103278689D01*
X123492994Y-103147579D01*
X123553337Y-103001897D01*
X123584100Y-102847242D01*
X123584100Y-102689558D01*
X123584100Y-102689555D01*
X123584099Y-102689553D01*
X123574065Y-102639111D01*
X123553337Y-102534903D01*
X123525722Y-102468234D01*
X123492997Y-102389227D01*
X123492990Y-102389214D01*
X123405389Y-102258111D01*
X123405386Y-102258107D01*
X123293892Y-102146613D01*
X123293888Y-102146610D01*
X123162785Y-102059009D01*
X123162772Y-102059002D01*
X123017101Y-101998664D01*
X123017089Y-101998661D01*
X122862445Y-101967900D01*
X122862442Y-101967900D01*
X122704758Y-101967900D01*
X122704755Y-101967900D01*
X122550110Y-101998661D01*
X122550098Y-101998664D01*
X122404427Y-102059002D01*
X122404414Y-102059009D01*
X122272725Y-102147002D01*
X122206047Y-102167880D01*
X122203834Y-102167900D01*
X116786340Y-102167900D01*
X116745692Y-102178791D01*
X116745693Y-102178792D01*
X116633614Y-102208823D01*
X116633609Y-102208826D01*
X116496690Y-102287875D01*
X116496682Y-102287881D01*
X116271983Y-102512581D01*
X116245055Y-102527284D01*
X116219237Y-102543877D01*
X116213036Y-102544768D01*
X116210660Y-102546066D01*
X116184302Y-102548900D01*
X115950941Y-102548900D01*
X115883902Y-102529215D01*
X115838147Y-102476411D01*
X115828203Y-102407253D01*
X115857228Y-102343697D01*
X115863260Y-102337219D01*
X115963186Y-102237292D01*
X115963189Y-102237289D01*
X116050794Y-102106179D01*
X116111137Y-101960497D01*
X116141439Y-101808159D01*
X116142038Y-101805150D01*
X116174423Y-101743239D01*
X116175918Y-101741716D01*
X116392016Y-101525619D01*
X116453339Y-101492134D01*
X116479697Y-101489300D01*
X124159634Y-101489300D01*
X124226673Y-101508985D01*
X124228525Y-101510198D01*
X124360214Y-101598190D01*
X124360227Y-101598197D01*
X124505898Y-101658535D01*
X124505903Y-101658537D01*
X124646693Y-101686542D01*
X124660553Y-101689299D01*
X124660556Y-101689300D01*
X124660558Y-101689300D01*
X124818243Y-101689300D01*
X124832107Y-101686542D01*
X124901698Y-101692768D01*
X124956876Y-101735630D01*
X124980122Y-101801520D01*
X124980300Y-101808159D01*
X124980300Y-101907446D01*
X125011061Y-102062089D01*
X125011064Y-102062101D01*
X125071402Y-102207772D01*
X125071409Y-102207785D01*
X125159010Y-102338888D01*
X125159013Y-102338892D01*
X125270507Y-102450386D01*
X125270511Y-102450389D01*
X125401614Y-102537990D01*
X125401627Y-102537997D01*
X125547298Y-102598335D01*
X125547303Y-102598337D01*
X125701953Y-102629099D01*
X125701956Y-102629100D01*
X125701958Y-102629100D01*
X125859644Y-102629100D01*
X125859645Y-102629099D01*
X126014297Y-102598337D01*
X126159979Y-102537994D01*
X126291089Y-102450389D01*
X126402589Y-102338889D01*
X126490194Y-102207779D01*
X126550537Y-102062097D01*
X126581300Y-101907442D01*
X126581300Y-101749758D01*
X126581300Y-101749755D01*
X126581299Y-101749753D01*
X126553050Y-101607737D01*
X126550537Y-101595103D01*
X126530777Y-101547397D01*
X126490197Y-101449427D01*
X126490190Y-101449414D01*
X126402589Y-101318311D01*
X126402586Y-101318307D01*
X126291092Y-101206813D01*
X126291088Y-101206810D01*
X126159985Y-101119209D01*
X126159972Y-101119202D01*
X126014301Y-101058864D01*
X126014289Y-101058861D01*
X125859645Y-101028100D01*
X125859642Y-101028100D01*
X125701958Y-101028100D01*
X125701956Y-101028100D01*
X125688088Y-101030858D01*
X125618496Y-101024628D01*
X125563320Y-100981764D01*
X125540078Y-100915873D01*
X125539900Y-100909240D01*
X125539900Y-100809955D01*
X125539899Y-100809953D01*
X125534058Y-100780588D01*
X125509137Y-100655303D01*
X125488093Y-100604498D01*
X125448797Y-100509627D01*
X125448790Y-100509614D01*
X125361189Y-100378511D01*
X125361186Y-100378507D01*
X125249692Y-100267013D01*
X125249688Y-100267010D01*
X125118585Y-100179409D01*
X125118572Y-100179402D01*
X124972901Y-100119064D01*
X124972889Y-100119061D01*
X124818245Y-100088300D01*
X124818242Y-100088300D01*
X124660558Y-100088300D01*
X124660555Y-100088300D01*
X124505910Y-100119061D01*
X124505898Y-100119064D01*
X124360227Y-100179402D01*
X124360214Y-100179409D01*
X124228525Y-100267402D01*
X124161847Y-100288280D01*
X124159634Y-100288300D01*
X116266268Y-100288300D01*
X116258661Y-100288299D01*
X116258658Y-100288299D01*
X116205303Y-100288299D01*
X116165933Y-100276738D01*
X116138266Y-100268614D01*
X116138265Y-100268613D01*
X116138264Y-100268613D01*
X116092510Y-100215809D01*
X116092509Y-100215805D01*
X116083688Y-100188491D01*
X116060338Y-100071108D01*
X116060337Y-100071107D01*
X116060337Y-100071103D01*
X116045098Y-100034312D01*
X115999997Y-99925427D01*
X115999990Y-99925414D01*
X115912389Y-99794311D01*
X115912386Y-99794307D01*
X115800892Y-99682813D01*
X115800888Y-99682810D01*
X115669785Y-99595209D01*
X115669772Y-99595202D01*
X115524101Y-99534864D01*
X115524089Y-99534861D01*
X115369445Y-99504100D01*
X115369442Y-99504100D01*
X115211758Y-99504100D01*
X115211755Y-99504100D01*
X115057110Y-99534861D01*
X115057098Y-99534864D01*
X114911427Y-99595202D01*
X114911414Y-99595209D01*
X114780311Y-99682810D01*
X114780307Y-99682813D01*
X114668813Y-99794307D01*
X114668810Y-99794311D01*
X114581209Y-99925414D01*
X114581202Y-99925427D01*
X114520864Y-100071098D01*
X114520861Y-100071110D01*
X114490100Y-100225753D01*
X114490100Y-100383446D01*
X114520861Y-100538089D01*
X114520864Y-100538101D01*
X114581202Y-100683772D01*
X114581209Y-100683785D01*
X114668810Y-100814888D01*
X114668813Y-100814892D01*
X114780307Y-100926386D01*
X114780311Y-100926389D01*
X114792328Y-100934419D01*
X114837133Y-100988032D01*
X114845840Y-101057357D01*
X114815685Y-101120384D01*
X114811119Y-101125202D01*
X114719610Y-101216711D01*
X114632009Y-101347814D01*
X114632002Y-101347827D01*
X114571664Y-101493498D01*
X114571661Y-101493510D01*
X114540900Y-101648153D01*
X114540900Y-101805846D01*
X114571661Y-101960489D01*
X114571664Y-101960501D01*
X114632002Y-102106172D01*
X114632009Y-102106185D01*
X114719610Y-102237288D01*
X114719613Y-102237292D01*
X114819540Y-102337219D01*
X114853025Y-102398542D01*
X114848041Y-102468234D01*
X114806169Y-102524167D01*
X114740705Y-102548584D01*
X114731859Y-102548900D01*
X112466766Y-102548900D01*
X112399727Y-102529215D01*
X112397875Y-102528002D01*
X112266185Y-102440009D01*
X112266172Y-102440002D01*
X112120501Y-102379664D01*
X112120489Y-102379661D01*
X111965845Y-102348900D01*
X111965842Y-102348900D01*
X111808158Y-102348900D01*
X111808155Y-102348900D01*
X111653510Y-102379661D01*
X111653498Y-102379664D01*
X111507827Y-102440002D01*
X111507814Y-102440009D01*
X111376711Y-102527610D01*
X111376707Y-102527613D01*
X111265213Y-102639107D01*
X111265210Y-102639111D01*
X111177609Y-102770214D01*
X111177602Y-102770227D01*
X111117264Y-102915898D01*
X111117261Y-102915910D01*
X111086500Y-103070553D01*
X100703500Y-103070553D01*
X100703500Y-96112713D01*
X103143000Y-96112713D01*
X103143000Y-96325287D01*
X103176254Y-96535243D01*
X103218712Y-96665916D01*
X103241944Y-96737414D01*
X103338451Y-96926820D01*
X103463390Y-97098786D01*
X103613713Y-97249109D01*
X103785682Y-97374050D01*
X103794446Y-97378516D01*
X103845242Y-97426491D01*
X103862036Y-97494312D01*
X103839498Y-97560447D01*
X103794446Y-97599484D01*
X103785682Y-97603949D01*
X103613713Y-97728890D01*
X103463390Y-97879213D01*
X103338451Y-98051179D01*
X103241944Y-98240585D01*
X103176253Y-98442760D01*
X103143000Y-98652713D01*
X103143000Y-98865286D01*
X103176253Y-99075239D01*
X103241944Y-99277414D01*
X103338451Y-99466820D01*
X103463390Y-99638786D01*
X103613713Y-99789109D01*
X103785682Y-99914050D01*
X103794446Y-99918516D01*
X103845242Y-99966491D01*
X103862036Y-100034312D01*
X103839498Y-100100447D01*
X103794446Y-100139484D01*
X103785682Y-100143949D01*
X103613713Y-100268890D01*
X103463390Y-100419213D01*
X103338451Y-100591179D01*
X103241944Y-100780585D01*
X103176253Y-100982760D01*
X103143000Y-101192713D01*
X103143000Y-101405286D01*
X103175064Y-101607735D01*
X103176254Y-101615243D01*
X103236779Y-101801520D01*
X103241944Y-101817414D01*
X103338451Y-102006820D01*
X103463390Y-102178786D01*
X103613713Y-102329109D01*
X103785679Y-102454048D01*
X103785681Y-102454049D01*
X103785684Y-102454051D01*
X103975088Y-102550557D01*
X104177257Y-102616246D01*
X104387213Y-102649500D01*
X104387214Y-102649500D01*
X104599786Y-102649500D01*
X104599787Y-102649500D01*
X104809743Y-102616246D01*
X105011912Y-102550557D01*
X105201316Y-102454051D01*
X105225619Y-102436394D01*
X105373286Y-102329109D01*
X105373288Y-102329106D01*
X105373292Y-102329104D01*
X105523604Y-102178792D01*
X105523606Y-102178788D01*
X105523609Y-102178786D01*
X105648548Y-102006820D01*
X105648547Y-102006820D01*
X105648551Y-102006816D01*
X105745057Y-101817412D01*
X105810746Y-101615243D01*
X105844000Y-101405287D01*
X105844000Y-101192713D01*
X105810746Y-100982757D01*
X105745057Y-100780588D01*
X105734135Y-100759153D01*
X107149500Y-100759153D01*
X107149500Y-100916846D01*
X107180261Y-101071489D01*
X107180264Y-101071501D01*
X107240602Y-101217172D01*
X107240609Y-101217185D01*
X107328210Y-101348288D01*
X107328213Y-101348292D01*
X107439707Y-101459786D01*
X107439711Y-101459789D01*
X107570814Y-101547390D01*
X107570827Y-101547397D01*
X107696001Y-101599245D01*
X107716503Y-101607737D01*
X107871153Y-101638499D01*
X107871156Y-101638500D01*
X107871158Y-101638500D01*
X108028844Y-101638500D01*
X108028845Y-101638499D01*
X108183497Y-101607737D01*
X108329179Y-101547394D01*
X108460289Y-101459789D01*
X108571789Y-101348289D01*
X108659394Y-101217179D01*
X108719737Y-101071497D01*
X108750500Y-100916842D01*
X108750500Y-100759158D01*
X108750500Y-100759155D01*
X108750499Y-100759153D01*
X108735506Y-100683779D01*
X108719737Y-100604503D01*
X108692228Y-100538089D01*
X108659397Y-100458827D01*
X108659390Y-100458814D01*
X108571789Y-100327711D01*
X108571786Y-100327707D01*
X108460292Y-100216213D01*
X108460288Y-100216210D01*
X108329185Y-100128609D01*
X108329172Y-100128602D01*
X108183501Y-100068264D01*
X108183489Y-100068261D01*
X108028845Y-100037500D01*
X108028842Y-100037500D01*
X107871158Y-100037500D01*
X107871155Y-100037500D01*
X107716510Y-100068261D01*
X107716498Y-100068264D01*
X107570827Y-100128602D01*
X107570814Y-100128609D01*
X107439711Y-100216210D01*
X107439707Y-100216213D01*
X107328213Y-100327707D01*
X107328210Y-100327711D01*
X107240609Y-100458814D01*
X107240602Y-100458827D01*
X107180264Y-100604498D01*
X107180261Y-100604510D01*
X107149500Y-100759153D01*
X105734135Y-100759153D01*
X105648551Y-100591184D01*
X105648549Y-100591181D01*
X105648548Y-100591179D01*
X105523609Y-100419213D01*
X105373286Y-100268890D01*
X105201320Y-100143951D01*
X105200615Y-100143591D01*
X105192554Y-100139485D01*
X105141759Y-100091512D01*
X105124963Y-100023692D01*
X105147499Y-99957556D01*
X105192554Y-99918515D01*
X105201316Y-99914051D01*
X105223289Y-99898086D01*
X105373286Y-99789109D01*
X105373288Y-99789106D01*
X105373292Y-99789104D01*
X105523604Y-99638792D01*
X105523606Y-99638788D01*
X105523609Y-99638786D01*
X105648548Y-99466820D01*
X105648547Y-99466820D01*
X105648551Y-99466816D01*
X105745057Y-99277412D01*
X105810746Y-99075243D01*
X105844000Y-98865287D01*
X105844000Y-98652713D01*
X105810746Y-98442757D01*
X105745057Y-98240588D01*
X105657226Y-98068209D01*
X127871500Y-98068209D01*
X127871500Y-98431790D01*
X127907137Y-98793630D01*
X127978064Y-99150212D01*
X127978067Y-99150223D01*
X128083614Y-99498165D01*
X128222754Y-99834078D01*
X128222756Y-99834083D01*
X128394140Y-100154720D01*
X128394151Y-100154738D01*
X128596140Y-100457035D01*
X128596150Y-100457049D01*
X128826807Y-100738106D01*
X129083893Y-100995192D01*
X129083898Y-100995196D01*
X129083899Y-100995197D01*
X129364956Y-101225854D01*
X129667268Y-101427853D01*
X129667277Y-101427858D01*
X129667279Y-101427859D01*
X129987916Y-101599243D01*
X129987918Y-101599243D01*
X129987924Y-101599247D01*
X130323836Y-101738386D01*
X130671767Y-101843930D01*
X130671773Y-101843931D01*
X130671776Y-101843932D01*
X130671787Y-101843935D01*
X131028369Y-101914862D01*
X131390206Y-101950500D01*
X131390209Y-101950500D01*
X131753791Y-101950500D01*
X131753794Y-101950500D01*
X132115631Y-101914862D01*
X132185045Y-101901054D01*
X132472212Y-101843935D01*
X132472223Y-101843932D01*
X132472223Y-101843931D01*
X132472233Y-101843930D01*
X132820164Y-101738386D01*
X133156076Y-101599247D01*
X133476732Y-101427853D01*
X133779044Y-101225854D01*
X134060101Y-100995197D01*
X134317197Y-100738101D01*
X134547854Y-100457044D01*
X134749853Y-100154732D01*
X134921247Y-99834076D01*
X135060386Y-99498164D01*
X135165930Y-99150233D01*
X135165932Y-99150223D01*
X135165935Y-99150212D01*
X135236862Y-98793630D01*
X135272500Y-98431790D01*
X135272500Y-98068209D01*
X135236862Y-97706369D01*
X135165935Y-97349787D01*
X135165932Y-97349776D01*
X135165931Y-97349773D01*
X135165930Y-97349767D01*
X135060386Y-97001836D01*
X134921247Y-96665924D01*
X134851394Y-96535239D01*
X134749859Y-96345279D01*
X134749858Y-96345277D01*
X134749853Y-96345268D01*
X134547854Y-96042956D01*
X134317197Y-95761899D01*
X134317196Y-95761898D01*
X134317192Y-95761893D01*
X134060106Y-95504807D01*
X133779049Y-95274150D01*
X133779048Y-95274149D01*
X133779044Y-95274146D01*
X133476732Y-95072147D01*
X133476727Y-95072144D01*
X133476720Y-95072140D01*
X133156083Y-94900756D01*
X133156078Y-94900754D01*
X133120917Y-94886190D01*
X133057690Y-94860000D01*
X132820165Y-94761614D01*
X132472223Y-94656067D01*
X132472212Y-94656064D01*
X132115630Y-94585137D01*
X131843111Y-94558296D01*
X131753794Y-94549500D01*
X131390206Y-94549500D01*
X131307679Y-94557628D01*
X131028369Y-94585137D01*
X130671787Y-94656064D01*
X130671776Y-94656067D01*
X130323834Y-94761614D01*
X129987921Y-94900754D01*
X129987916Y-94900756D01*
X129667279Y-95072140D01*
X129667261Y-95072151D01*
X129364964Y-95274140D01*
X129364950Y-95274150D01*
X129083893Y-95504807D01*
X128826807Y-95761893D01*
X128596150Y-96042950D01*
X128596140Y-96042964D01*
X128394151Y-96345261D01*
X128394140Y-96345279D01*
X128222756Y-96665916D01*
X128222754Y-96665921D01*
X128083614Y-97001834D01*
X127978067Y-97349776D01*
X127978064Y-97349787D01*
X127907137Y-97706369D01*
X127871500Y-98068209D01*
X105657226Y-98068209D01*
X105648551Y-98051184D01*
X105640523Y-98040134D01*
X105523609Y-97879213D01*
X105373286Y-97728890D01*
X105201320Y-97603951D01*
X105200615Y-97603591D01*
X105192554Y-97599485D01*
X105141759Y-97551512D01*
X105124963Y-97483692D01*
X105147499Y-97417556D01*
X105192554Y-97378515D01*
X105201316Y-97374051D01*
X105234740Y-97349767D01*
X105373286Y-97249109D01*
X105373288Y-97249106D01*
X105373292Y-97249104D01*
X105523604Y-97098792D01*
X105523606Y-97098788D01*
X105523609Y-97098786D01*
X105648548Y-96926820D01*
X105648547Y-96926820D01*
X105648551Y-96926816D01*
X105745057Y-96737412D01*
X105810746Y-96535243D01*
X105844000Y-96325287D01*
X105844000Y-96112713D01*
X105810746Y-95902757D01*
X105745057Y-95700588D01*
X105648551Y-95511184D01*
X105648549Y-95511181D01*
X105648548Y-95511179D01*
X105523609Y-95339213D01*
X105409681Y-95225285D01*
X105376196Y-95163962D01*
X105381180Y-95094270D01*
X105423052Y-95038337D01*
X105454029Y-95021422D01*
X105585586Y-94972354D01*
X105585593Y-94972350D01*
X105700687Y-94886190D01*
X105700690Y-94886187D01*
X105786850Y-94771093D01*
X105786854Y-94771086D01*
X105837096Y-94636379D01*
X105837098Y-94636372D01*
X105843499Y-94576844D01*
X105843500Y-94576827D01*
X105843500Y-94409153D01*
X109435500Y-94409153D01*
X109435500Y-94566846D01*
X109466261Y-94721489D01*
X109466264Y-94721501D01*
X109526602Y-94867172D01*
X109526609Y-94867185D01*
X109614210Y-94998288D01*
X109614213Y-94998292D01*
X109725707Y-95109786D01*
X109725711Y-95109789D01*
X109856814Y-95197390D01*
X109856827Y-95197397D01*
X109924156Y-95225285D01*
X110002503Y-95257737D01*
X110157153Y-95288499D01*
X110157156Y-95288500D01*
X110157158Y-95288500D01*
X110314844Y-95288500D01*
X110314845Y-95288499D01*
X110469497Y-95257737D01*
X110615179Y-95197394D01*
X110746289Y-95109789D01*
X110857789Y-94998289D01*
X110945394Y-94867179D01*
X111005737Y-94721497D01*
X111036500Y-94566842D01*
X111036500Y-94409158D01*
X111036500Y-94409155D01*
X111036499Y-94409153D01*
X111005738Y-94254510D01*
X111005737Y-94254503D01*
X110960349Y-94144925D01*
X110945397Y-94108827D01*
X110945390Y-94108814D01*
X110857789Y-93977711D01*
X110857786Y-93977707D01*
X110746292Y-93866213D01*
X110746288Y-93866210D01*
X110615185Y-93778609D01*
X110615172Y-93778602D01*
X110469501Y-93718264D01*
X110469489Y-93718261D01*
X110314845Y-93687500D01*
X110314842Y-93687500D01*
X110157158Y-93687500D01*
X110157155Y-93687500D01*
X110002510Y-93718261D01*
X110002498Y-93718264D01*
X109856827Y-93778602D01*
X109856814Y-93778609D01*
X109725711Y-93866210D01*
X109725707Y-93866213D01*
X109614213Y-93977707D01*
X109614210Y-93977711D01*
X109526609Y-94108814D01*
X109526602Y-94108827D01*
X109466264Y-94254498D01*
X109466261Y-94254510D01*
X109435500Y-94409153D01*
X105843500Y-94409153D01*
X105843500Y-93929000D01*
X104926512Y-93929000D01*
X104959425Y-93871993D01*
X104993500Y-93744826D01*
X104993500Y-93613174D01*
X104959425Y-93486007D01*
X104926512Y-93429000D01*
X105843500Y-93429000D01*
X105843500Y-92781172D01*
X105843499Y-92781155D01*
X105837098Y-92721627D01*
X105837096Y-92721620D01*
X105786854Y-92586913D01*
X105786850Y-92586906D01*
X105700690Y-92471812D01*
X105700687Y-92471809D01*
X105585593Y-92385649D01*
X105585585Y-92385645D01*
X105450879Y-92335403D01*
X105450872Y-92335401D01*
X105391344Y-92329000D01*
X104743500Y-92329000D01*
X104743500Y-93245988D01*
X104686493Y-93213075D01*
X104559326Y-93179000D01*
X104427674Y-93179000D01*
X104300507Y-93213075D01*
X104243500Y-93245988D01*
X104243500Y-92329000D01*
X103595655Y-92329000D01*
X103536127Y-92335401D01*
X103536120Y-92335403D01*
X103401413Y-92385645D01*
X103401406Y-92385649D01*
X103286312Y-92471809D01*
X103286309Y-92471812D01*
X103200149Y-92586906D01*
X103200145Y-92586913D01*
X103149903Y-92721620D01*
X103149901Y-92721627D01*
X103143500Y-92781155D01*
X103143500Y-93429000D01*
X104060488Y-93429000D01*
X104027575Y-93486007D01*
X103993500Y-93613174D01*
X103993500Y-93744826D01*
X104027575Y-93871993D01*
X104060488Y-93929000D01*
X103143500Y-93929000D01*
X103143500Y-94576844D01*
X103149901Y-94636372D01*
X103149903Y-94636379D01*
X103200145Y-94771086D01*
X103200149Y-94771093D01*
X103286309Y-94886187D01*
X103286312Y-94886190D01*
X103401406Y-94972350D01*
X103401413Y-94972354D01*
X103532970Y-95021422D01*
X103588904Y-95063293D01*
X103613321Y-95128758D01*
X103598469Y-95197031D01*
X103577319Y-95225285D01*
X103463389Y-95339215D01*
X103338451Y-95511179D01*
X103241944Y-95700585D01*
X103176253Y-95902760D01*
X103154047Y-96042964D01*
X103143000Y-96112713D01*
X100703500Y-96112713D01*
X100703500Y-92275553D01*
X125970900Y-92275553D01*
X125970900Y-92433246D01*
X126001661Y-92587889D01*
X126001664Y-92587901D01*
X126062002Y-92733572D01*
X126062009Y-92733585D01*
X126149610Y-92864688D01*
X126149613Y-92864692D01*
X126261107Y-92976186D01*
X126261111Y-92976189D01*
X126392214Y-93063790D01*
X126392227Y-93063797D01*
X126537898Y-93124135D01*
X126537903Y-93124137D01*
X126692553Y-93154899D01*
X126692556Y-93154900D01*
X126692558Y-93154900D01*
X126850244Y-93154900D01*
X126850245Y-93154899D01*
X127004897Y-93124137D01*
X127150579Y-93063794D01*
X127281689Y-92976189D01*
X127393189Y-92864689D01*
X127480794Y-92733579D01*
X127541137Y-92587897D01*
X127571900Y-92433242D01*
X127571900Y-92275558D01*
X127571900Y-92275555D01*
X127571899Y-92275553D01*
X127541138Y-92120910D01*
X127541137Y-92120903D01*
X127485466Y-91986500D01*
X127480797Y-91975227D01*
X127480790Y-91975214D01*
X127393189Y-91844111D01*
X127393186Y-91844107D01*
X127281692Y-91732613D01*
X127281688Y-91732610D01*
X127150585Y-91645009D01*
X127150572Y-91645002D01*
X127004901Y-91584664D01*
X127004889Y-91584661D01*
X126850245Y-91553900D01*
X126850242Y-91553900D01*
X126692558Y-91553900D01*
X126692555Y-91553900D01*
X126537910Y-91584661D01*
X126537898Y-91584664D01*
X126392227Y-91645002D01*
X126392214Y-91645009D01*
X126261111Y-91732610D01*
X126261107Y-91732613D01*
X126149613Y-91844107D01*
X126149610Y-91844111D01*
X126062009Y-91975214D01*
X126062002Y-91975227D01*
X126001664Y-92120898D01*
X126001661Y-92120910D01*
X125970900Y-92275553D01*
X100703500Y-92275553D01*
X100703500Y-91107153D01*
X103974500Y-91107153D01*
X103974500Y-91264846D01*
X104005261Y-91419489D01*
X104005264Y-91419501D01*
X104065602Y-91565172D01*
X104065609Y-91565185D01*
X104153210Y-91696288D01*
X104153213Y-91696292D01*
X104264707Y-91807786D01*
X104264711Y-91807789D01*
X104395814Y-91895390D01*
X104395827Y-91895397D01*
X104541498Y-91955735D01*
X104541503Y-91955737D01*
X104696153Y-91986499D01*
X104696156Y-91986500D01*
X104696158Y-91986500D01*
X104853844Y-91986500D01*
X104853845Y-91986499D01*
X105008497Y-91955737D01*
X105154179Y-91895394D01*
X105285289Y-91807789D01*
X105396789Y-91696289D01*
X105484394Y-91565179D01*
X105544737Y-91419497D01*
X105575500Y-91264842D01*
X105575500Y-91107158D01*
X105575500Y-91107155D01*
X105575499Y-91107153D01*
X105553839Y-90998257D01*
X105550238Y-90980153D01*
X122389500Y-90980153D01*
X122389500Y-91137846D01*
X122420261Y-91292489D01*
X122420264Y-91292501D01*
X122480602Y-91438172D01*
X122480609Y-91438185D01*
X122568210Y-91569288D01*
X122568213Y-91569292D01*
X122679707Y-91680786D01*
X122679711Y-91680789D01*
X122810814Y-91768390D01*
X122810827Y-91768397D01*
X122956498Y-91828735D01*
X122956503Y-91828737D01*
X123111153Y-91859499D01*
X123111156Y-91859500D01*
X123111158Y-91859500D01*
X123268844Y-91859500D01*
X123268845Y-91859499D01*
X123423497Y-91828737D01*
X123569179Y-91768394D01*
X123700289Y-91680789D01*
X123811789Y-91569289D01*
X123899394Y-91438179D01*
X123959737Y-91292497D01*
X123990500Y-91137842D01*
X123990500Y-90980158D01*
X123990500Y-90980155D01*
X123990499Y-90980153D01*
X123959738Y-90825510D01*
X123959737Y-90825503D01*
X123951996Y-90806814D01*
X123899397Y-90679827D01*
X123899390Y-90679814D01*
X123811789Y-90548711D01*
X123811786Y-90548707D01*
X123700292Y-90437213D01*
X123700288Y-90437210D01*
X123569185Y-90349609D01*
X123569172Y-90349602D01*
X123423501Y-90289264D01*
X123423489Y-90289261D01*
X123268845Y-90258500D01*
X123268842Y-90258500D01*
X123111158Y-90258500D01*
X123111155Y-90258500D01*
X122956510Y-90289261D01*
X122956498Y-90289264D01*
X122810827Y-90349602D01*
X122810814Y-90349609D01*
X122679711Y-90437210D01*
X122679707Y-90437213D01*
X122568213Y-90548707D01*
X122568210Y-90548711D01*
X122480609Y-90679814D01*
X122480602Y-90679827D01*
X122420264Y-90825498D01*
X122420261Y-90825510D01*
X122389500Y-90980153D01*
X105550238Y-90980153D01*
X105544738Y-90952508D01*
X105544737Y-90952507D01*
X105544737Y-90952503D01*
X105544735Y-90952498D01*
X105484397Y-90806827D01*
X105484390Y-90806814D01*
X105396789Y-90675711D01*
X105396786Y-90675707D01*
X105285292Y-90564213D01*
X105285288Y-90564210D01*
X105154185Y-90476609D01*
X105154172Y-90476602D01*
X105008501Y-90416264D01*
X105008489Y-90416261D01*
X104853845Y-90385500D01*
X104853842Y-90385500D01*
X104696158Y-90385500D01*
X104696155Y-90385500D01*
X104541510Y-90416261D01*
X104541498Y-90416264D01*
X104395827Y-90476602D01*
X104395814Y-90476609D01*
X104264711Y-90564210D01*
X104264707Y-90564213D01*
X104153213Y-90675707D01*
X104153210Y-90675711D01*
X104065609Y-90806814D01*
X104065602Y-90806827D01*
X104005264Y-90952498D01*
X104005261Y-90952510D01*
X103974500Y-91107153D01*
X100703500Y-91107153D01*
X100703500Y-89456153D01*
X108419500Y-89456153D01*
X108419500Y-89613846D01*
X108450261Y-89768489D01*
X108450264Y-89768501D01*
X108510602Y-89914172D01*
X108510609Y-89914185D01*
X108598210Y-90045288D01*
X108598213Y-90045292D01*
X108709707Y-90156786D01*
X108709711Y-90156789D01*
X108840814Y-90244390D01*
X108840827Y-90244397D01*
X108986498Y-90304735D01*
X108986503Y-90304737D01*
X109141153Y-90335499D01*
X109141156Y-90335500D01*
X109141158Y-90335500D01*
X109298844Y-90335500D01*
X109298845Y-90335499D01*
X109453497Y-90304737D01*
X109599179Y-90244394D01*
X109730289Y-90156789D01*
X109841789Y-90045289D01*
X109929394Y-89914179D01*
X109989737Y-89768497D01*
X110020500Y-89613842D01*
X110020500Y-89456158D01*
X110020500Y-89456155D01*
X110020499Y-89456153D01*
X109989738Y-89301510D01*
X109989737Y-89301503D01*
X109989735Y-89301498D01*
X109929397Y-89155827D01*
X109929390Y-89155814D01*
X109841789Y-89024711D01*
X109841786Y-89024707D01*
X109730292Y-88913213D01*
X109730288Y-88913210D01*
X109599185Y-88825609D01*
X109599172Y-88825602D01*
X109453501Y-88765264D01*
X109453489Y-88765261D01*
X109298845Y-88734500D01*
X109298842Y-88734500D01*
X109141158Y-88734500D01*
X109141155Y-88734500D01*
X108986510Y-88765261D01*
X108986498Y-88765264D01*
X108840827Y-88825602D01*
X108840814Y-88825609D01*
X108709711Y-88913210D01*
X108709707Y-88913213D01*
X108598213Y-89024707D01*
X108598210Y-89024711D01*
X108510609Y-89155814D01*
X108510602Y-89155827D01*
X108450264Y-89301498D01*
X108450261Y-89301510D01*
X108419500Y-89456153D01*
X100703500Y-89456153D01*
X100703500Y-81818209D01*
X104899500Y-81818209D01*
X104899500Y-82181790D01*
X104935137Y-82543630D01*
X105006064Y-82900212D01*
X105006067Y-82900223D01*
X105111614Y-83248165D01*
X105250754Y-83584078D01*
X105250756Y-83584083D01*
X105422140Y-83904720D01*
X105422151Y-83904738D01*
X105624140Y-84207035D01*
X105624150Y-84207049D01*
X105854807Y-84488106D01*
X106111893Y-84745192D01*
X106111898Y-84745196D01*
X106111899Y-84745197D01*
X106392956Y-84975854D01*
X106695268Y-85177853D01*
X106695277Y-85177858D01*
X106695279Y-85177859D01*
X107015916Y-85349243D01*
X107015918Y-85349243D01*
X107015924Y-85349247D01*
X107351836Y-85488386D01*
X107699767Y-85593930D01*
X107699773Y-85593931D01*
X107699776Y-85593932D01*
X107699787Y-85593935D01*
X108056369Y-85664862D01*
X108418206Y-85700500D01*
X108418209Y-85700500D01*
X108781791Y-85700500D01*
X108781794Y-85700500D01*
X109143631Y-85664862D01*
X109213045Y-85651054D01*
X109500212Y-85593935D01*
X109500223Y-85593932D01*
X109500223Y-85593931D01*
X109500233Y-85593930D01*
X109848164Y-85488386D01*
X110184076Y-85349247D01*
X110246365Y-85315953D01*
X126021700Y-85315953D01*
X126021700Y-85473646D01*
X126052461Y-85628289D01*
X126052464Y-85628301D01*
X126112802Y-85773972D01*
X126112809Y-85773985D01*
X126200410Y-85905088D01*
X126200413Y-85905092D01*
X126311907Y-86016586D01*
X126311911Y-86016589D01*
X126443014Y-86104190D01*
X126443027Y-86104197D01*
X126588698Y-86164535D01*
X126588703Y-86164537D01*
X126743353Y-86195299D01*
X126743356Y-86195300D01*
X126743358Y-86195300D01*
X126901044Y-86195300D01*
X126901045Y-86195299D01*
X127055697Y-86164537D01*
X127201379Y-86104194D01*
X127332489Y-86016589D01*
X127443989Y-85905089D01*
X127531594Y-85773979D01*
X127591937Y-85628297D01*
X127622700Y-85473642D01*
X127622700Y-85315958D01*
X127622700Y-85315955D01*
X127622699Y-85315953D01*
X127617462Y-85289626D01*
X127591937Y-85161303D01*
X127548582Y-85056634D01*
X127531597Y-85015627D01*
X127531590Y-85015614D01*
X127443989Y-84884511D01*
X127443986Y-84884507D01*
X127332492Y-84773013D01*
X127332488Y-84773010D01*
X127201385Y-84685409D01*
X127201372Y-84685402D01*
X127055701Y-84625064D01*
X127055689Y-84625061D01*
X126901045Y-84594300D01*
X126901042Y-84594300D01*
X126743358Y-84594300D01*
X126743355Y-84594300D01*
X126588710Y-84625061D01*
X126588698Y-84625064D01*
X126443027Y-84685402D01*
X126443014Y-84685409D01*
X126311911Y-84773010D01*
X126311907Y-84773013D01*
X126200413Y-84884507D01*
X126200410Y-84884511D01*
X126112809Y-85015614D01*
X126112802Y-85015627D01*
X126052464Y-85161298D01*
X126052461Y-85161310D01*
X126021700Y-85315953D01*
X110246365Y-85315953D01*
X110375449Y-85246956D01*
X110462348Y-85200508D01*
X110497716Y-85181603D01*
X110504732Y-85177853D01*
X110807044Y-84975854D01*
X111088101Y-84745197D01*
X111345197Y-84488101D01*
X111575854Y-84207044D01*
X111777853Y-83904732D01*
X111949247Y-83584076D01*
X112088386Y-83248164D01*
X112193930Y-82900233D01*
X112193932Y-82900223D01*
X112193935Y-82900212D01*
X112264862Y-82543630D01*
X112272099Y-82470154D01*
X112300500Y-82181794D01*
X112300500Y-81818206D01*
X112264862Y-81456369D01*
X112246191Y-81362501D01*
X112193935Y-81099787D01*
X112193932Y-81099776D01*
X112193931Y-81099773D01*
X112193930Y-81099767D01*
X112122634Y-80864735D01*
X116276900Y-80864735D01*
X116276900Y-82660470D01*
X116276901Y-82660476D01*
X116283308Y-82720083D01*
X116333602Y-82854928D01*
X116333606Y-82854935D01*
X116419852Y-82970144D01*
X116419855Y-82970147D01*
X116535064Y-83056393D01*
X116535071Y-83056397D01*
X116669917Y-83106691D01*
X116669916Y-83106691D01*
X116676844Y-83107435D01*
X116729527Y-83113100D01*
X118525272Y-83113099D01*
X118584883Y-83106691D01*
X118719731Y-83056396D01*
X118834946Y-82970146D01*
X118921196Y-82854931D01*
X118970210Y-82723516D01*
X119012081Y-82667584D01*
X119077545Y-82643166D01*
X119145818Y-82658017D01*
X119174073Y-82679169D01*
X119287613Y-82792709D01*
X119459579Y-82917648D01*
X119459581Y-82917649D01*
X119459584Y-82917651D01*
X119648988Y-83014157D01*
X119851157Y-83079846D01*
X120061113Y-83113100D01*
X120061114Y-83113100D01*
X120273686Y-83113100D01*
X120273687Y-83113100D01*
X120483643Y-83079846D01*
X120685812Y-83014157D01*
X120875216Y-82917651D01*
X120961538Y-82854935D01*
X121047186Y-82792709D01*
X121047188Y-82792706D01*
X121047192Y-82792704D01*
X121197504Y-82642392D01*
X121197506Y-82642388D01*
X121197509Y-82642386D01*
X121322448Y-82470420D01*
X121322447Y-82470420D01*
X121322451Y-82470416D01*
X121326914Y-82461654D01*
X121374888Y-82410859D01*
X121442708Y-82394063D01*
X121508844Y-82416599D01*
X121547886Y-82461656D01*
X121552351Y-82470420D01*
X121677290Y-82642386D01*
X121827613Y-82792709D01*
X121999579Y-82917648D01*
X121999581Y-82917649D01*
X121999584Y-82917651D01*
X122188988Y-83014157D01*
X122391157Y-83079846D01*
X122601113Y-83113100D01*
X122601114Y-83113100D01*
X122813686Y-83113100D01*
X122813687Y-83113100D01*
X123023643Y-83079846D01*
X123225812Y-83014157D01*
X123415216Y-82917651D01*
X123501538Y-82854935D01*
X123587186Y-82792709D01*
X123587188Y-82792706D01*
X123587192Y-82792704D01*
X123737504Y-82642392D01*
X123737506Y-82642388D01*
X123737509Y-82642386D01*
X123823290Y-82524317D01*
X123862451Y-82470416D01*
X123867193Y-82461108D01*
X123915163Y-82410311D01*
X123982983Y-82393511D01*
X124049119Y-82416045D01*
X124088163Y-82461100D01*
X124092773Y-82470147D01*
X124132128Y-82524316D01*
X124764437Y-81892008D01*
X124781475Y-81955593D01*
X124847301Y-82069607D01*
X124940393Y-82162699D01*
X125054407Y-82228525D01*
X125117990Y-82245562D01*
X124485682Y-82877869D01*
X124485682Y-82877870D01*
X124539849Y-82917224D01*
X124729182Y-83013695D01*
X124931270Y-83079357D01*
X125141154Y-83112600D01*
X125353646Y-83112600D01*
X125563527Y-83079357D01*
X125563530Y-83079357D01*
X125765617Y-83013695D01*
X125954954Y-82917222D01*
X126009116Y-82877870D01*
X126009117Y-82877870D01*
X125376808Y-82245562D01*
X125440393Y-82228525D01*
X125554407Y-82162699D01*
X125647499Y-82069607D01*
X125713325Y-81955593D01*
X125730362Y-81892008D01*
X126362670Y-82524317D01*
X126362670Y-82524316D01*
X126402022Y-82470154D01*
X126498495Y-82280817D01*
X126564157Y-82078730D01*
X126564157Y-82078727D01*
X126597400Y-81868846D01*
X126597400Y-81656353D01*
X126564157Y-81446472D01*
X126564157Y-81446469D01*
X126498495Y-81244382D01*
X126402024Y-81055049D01*
X126362670Y-81000882D01*
X126362669Y-81000882D01*
X125730362Y-81633190D01*
X125713325Y-81569607D01*
X125647499Y-81455593D01*
X125554407Y-81362501D01*
X125440393Y-81296675D01*
X125376809Y-81279637D01*
X126009116Y-80647328D01*
X125954947Y-80607973D01*
X125954947Y-80607972D01*
X125945900Y-80603363D01*
X125895106Y-80555388D01*
X125878312Y-80487566D01*
X125900851Y-80421432D01*
X125945908Y-80382393D01*
X125955216Y-80377651D01*
X126034407Y-80320115D01*
X126127186Y-80252709D01*
X126127188Y-80252706D01*
X126127192Y-80252704D01*
X126277504Y-80102392D01*
X126277506Y-80102388D01*
X126277509Y-80102386D01*
X126402448Y-79930420D01*
X126402450Y-79930417D01*
X126402451Y-79930416D01*
X126498957Y-79741012D01*
X126564646Y-79538843D01*
X126597900Y-79328887D01*
X126597900Y-79116313D01*
X126564646Y-78906357D01*
X126498957Y-78704188D01*
X126402451Y-78514784D01*
X126402449Y-78514781D01*
X126402448Y-78514779D01*
X126277509Y-78342813D01*
X126127186Y-78192490D01*
X125955220Y-78067551D01*
X125765814Y-77971044D01*
X125765813Y-77971043D01*
X125765812Y-77971043D01*
X125563643Y-77905354D01*
X125563641Y-77905353D01*
X125563640Y-77905353D01*
X125402357Y-77879808D01*
X125353687Y-77872100D01*
X125141113Y-77872100D01*
X125092442Y-77879808D01*
X124931160Y-77905353D01*
X124728985Y-77971044D01*
X124539579Y-78067551D01*
X124367613Y-78192490D01*
X124217290Y-78342813D01*
X124092349Y-78514782D01*
X124087884Y-78523546D01*
X124039909Y-78574342D01*
X123972088Y-78591136D01*
X123905953Y-78568598D01*
X123866916Y-78523546D01*
X123862450Y-78514782D01*
X123737509Y-78342813D01*
X123587186Y-78192490D01*
X123415220Y-78067551D01*
X123225814Y-77971044D01*
X123225813Y-77971043D01*
X123225812Y-77971043D01*
X123023643Y-77905354D01*
X123023641Y-77905353D01*
X123023640Y-77905353D01*
X122862357Y-77879808D01*
X122813687Y-77872100D01*
X122601113Y-77872100D01*
X122552442Y-77879808D01*
X122391160Y-77905353D01*
X122188985Y-77971044D01*
X121999579Y-78067551D01*
X121827613Y-78192490D01*
X121677290Y-78342813D01*
X121552349Y-78514782D01*
X121547884Y-78523546D01*
X121499909Y-78574342D01*
X121432088Y-78591136D01*
X121365953Y-78568598D01*
X121326916Y-78523546D01*
X121322450Y-78514782D01*
X121197509Y-78342813D01*
X121047186Y-78192490D01*
X120875220Y-78067551D01*
X120685814Y-77971044D01*
X120685813Y-77971043D01*
X120685812Y-77971043D01*
X120483643Y-77905354D01*
X120483641Y-77905353D01*
X120483640Y-77905353D01*
X120322357Y-77879808D01*
X120273687Y-77872100D01*
X120061113Y-77872100D01*
X120012442Y-77879808D01*
X119851160Y-77905353D01*
X119648985Y-77971044D01*
X119459579Y-78067551D01*
X119287613Y-78192490D01*
X119137290Y-78342813D01*
X119012349Y-78514782D01*
X119007602Y-78524099D01*
X118959627Y-78574893D01*
X118891805Y-78591687D01*
X118825671Y-78569148D01*
X118786634Y-78524095D01*
X118782026Y-78515052D01*
X118742670Y-78460882D01*
X118742669Y-78460882D01*
X118110362Y-79093190D01*
X118093325Y-79029607D01*
X118027499Y-78915593D01*
X117934407Y-78822501D01*
X117820393Y-78756675D01*
X117756809Y-78739637D01*
X118389116Y-78107328D01*
X118334950Y-78067975D01*
X118145617Y-77971504D01*
X117943529Y-77905842D01*
X117733646Y-77872600D01*
X117521154Y-77872600D01*
X117311272Y-77905842D01*
X117311269Y-77905842D01*
X117109182Y-77971504D01*
X116919839Y-78067980D01*
X116865682Y-78107327D01*
X116865682Y-78107328D01*
X117497991Y-78739637D01*
X117434407Y-78756675D01*
X117320393Y-78822501D01*
X117227301Y-78915593D01*
X117161475Y-79029607D01*
X117144437Y-79093191D01*
X116512128Y-78460882D01*
X116512127Y-78460882D01*
X116472780Y-78515039D01*
X116376304Y-78704382D01*
X116310642Y-78906469D01*
X116310642Y-78906472D01*
X116277400Y-79116353D01*
X116277400Y-79328846D01*
X116310642Y-79538727D01*
X116310642Y-79538730D01*
X116376304Y-79740817D01*
X116472775Y-79930150D01*
X116512128Y-79984316D01*
X117144437Y-79352008D01*
X117161475Y-79415593D01*
X117227301Y-79529607D01*
X117320393Y-79622699D01*
X117434407Y-79688525D01*
X117497990Y-79705562D01*
X116827770Y-80375781D01*
X116766447Y-80409266D01*
X116740098Y-80412100D01*
X116729534Y-80412100D01*
X116729523Y-80412101D01*
X116669916Y-80418508D01*
X116535071Y-80468802D01*
X116535064Y-80468806D01*
X116419855Y-80555052D01*
X116419852Y-80555055D01*
X116333606Y-80670264D01*
X116333602Y-80670271D01*
X116283308Y-80805117D01*
X116276901Y-80864716D01*
X116276900Y-80864735D01*
X112122634Y-80864735D01*
X112088386Y-80751836D01*
X111949247Y-80415924D01*
X111945688Y-80409266D01*
X111777859Y-80095279D01*
X111777858Y-80095277D01*
X111777853Y-80095268D01*
X111575854Y-79792956D01*
X111345197Y-79511899D01*
X111345196Y-79511898D01*
X111345192Y-79511893D01*
X111088106Y-79254807D01*
X111030260Y-79207334D01*
X110807049Y-79024150D01*
X110807048Y-79024149D01*
X110807044Y-79024146D01*
X110504732Y-78822147D01*
X110504727Y-78822144D01*
X110504720Y-78822140D01*
X110184083Y-78650756D01*
X110184078Y-78650754D01*
X109848165Y-78511614D01*
X109500223Y-78406067D01*
X109500212Y-78406064D01*
X109143630Y-78335137D01*
X108871111Y-78308296D01*
X108781794Y-78299500D01*
X108418206Y-78299500D01*
X108335679Y-78307628D01*
X108056369Y-78335137D01*
X107699787Y-78406064D01*
X107699776Y-78406067D01*
X107351834Y-78511614D01*
X107015921Y-78650754D01*
X107015916Y-78650756D01*
X106695279Y-78822140D01*
X106695261Y-78822151D01*
X106392964Y-79024140D01*
X106392950Y-79024150D01*
X106111893Y-79254807D01*
X105854807Y-79511893D01*
X105624150Y-79792950D01*
X105624140Y-79792964D01*
X105422151Y-80095261D01*
X105422140Y-80095279D01*
X105250756Y-80415916D01*
X105250754Y-80415921D01*
X105111614Y-80751834D01*
X105006067Y-81099776D01*
X105006064Y-81099787D01*
X104935137Y-81456369D01*
X104899500Y-81818209D01*
X100703500Y-81818209D01*
X100703500Y-76280500D01*
X100723185Y-76213461D01*
X100775989Y-76167706D01*
X100827500Y-76156500D01*
X129146786Y-76156500D01*
X129213825Y-76176185D01*
G37*
%TD.AperFunction*%
%TD*%
M02*
