%TF.GenerationSoftware,KiCad,Pcbnew,9.0.4*%
%TF.CreationDate,2025-11-07T20:41:43+01:00*%
%TF.ProjectId,SB_Mod_SR04,53425f4d-6f64-45f5-9352-30342e6b6963,rev?*%
%TF.SameCoordinates,Original*%
%TF.FileFunction,Soldermask,Top*%
%TF.FilePolarity,Negative*%
%FSLAX46Y46*%
G04 Gerber Fmt 4.6, Leading zero omitted, Abs format (unit mm)*
G04 Created by KiCad (PCBNEW 9.0.4) date 2025-11-07 20:41:43*
%MOMM*%
%LPD*%
G01*
G04 APERTURE LIST*
G04 Aperture macros list*
%AMRoundRect*
0 Rectangle with rounded corners*
0 $1 Rounding radius*
0 $2 $3 $4 $5 $6 $7 $8 $9 X,Y pos of 4 corners*
0 Add a 4 corners polygon primitive as box body*
4,1,4,$2,$3,$4,$5,$6,$7,$8,$9,$2,$3,0*
0 Add four circle primitives for the rounded corners*
1,1,$1+$1,$2,$3*
1,1,$1+$1,$4,$5*
1,1,$1+$1,$6,$7*
1,1,$1+$1,$8,$9*
0 Add four rect primitives between the rounded corners*
20,1,$1+$1,$2,$3,$4,$5,0*
20,1,$1+$1,$4,$5,$6,$7,0*
20,1,$1+$1,$6,$7,$8,$9,0*
20,1,$1+$1,$8,$9,$2,$3,0*%
G04 Aperture macros list end*
%ADD10R,1.700000X1.700000*%
%ADD11C,1.700000*%
%ADD12RoundRect,0.150000X-0.825000X-0.150000X0.825000X-0.150000X0.825000X0.150000X-0.825000X0.150000X0*%
%ADD13RoundRect,0.250000X0.412500X0.650000X-0.412500X0.650000X-0.412500X-0.650000X0.412500X-0.650000X0*%
%ADD14RoundRect,0.250000X0.625000X-0.400000X0.625000X0.400000X-0.625000X0.400000X-0.625000X-0.400000X0*%
%ADD15RoundRect,0.250001X0.624999X-0.462499X0.624999X0.462499X-0.624999X0.462499X-0.624999X-0.462499X0*%
%ADD16RoundRect,0.250000X-0.400000X-0.625000X0.400000X-0.625000X0.400000X0.625000X-0.400000X0.625000X0*%
%ADD17C,6.400000*%
%ADD18RoundRect,0.250000X-0.412500X-0.650000X0.412500X-0.650000X0.412500X0.650000X-0.412500X0.650000X0*%
%ADD19RoundRect,0.250000X-0.625000X0.400000X-0.625000X-0.400000X0.625000X-0.400000X0.625000X0.400000X0*%
%ADD20RoundRect,0.225000X0.375000X-0.225000X0.375000X0.225000X-0.375000X0.225000X-0.375000X-0.225000X0*%
%ADD21RoundRect,0.250000X0.400000X0.625000X-0.400000X0.625000X-0.400000X-0.625000X0.400000X-0.625000X0*%
%ADD22RoundRect,0.250000X-0.650000X0.412500X-0.650000X-0.412500X0.650000X-0.412500X0.650000X0.412500X0*%
G04 APERTURE END LIST*
D10*
%TO.C,J2*%
X122255200Y-117195600D03*
D11*
X119715200Y-117195600D03*
%TD*%
D12*
%TO.C,U2*%
X117819400Y-93574900D03*
X117819400Y-94844900D03*
X117819400Y-96114900D03*
X117819400Y-97384900D03*
X117819400Y-98654900D03*
X117819400Y-99924900D03*
X117819400Y-101194900D03*
X122769400Y-101194900D03*
X122769400Y-99924900D03*
X122769400Y-98654900D03*
X122769400Y-97384900D03*
X122769400Y-96114900D03*
X122769400Y-94844900D03*
X122769400Y-93574900D03*
%TD*%
D13*
%TO.C,C2*%
X112345000Y-87630000D03*
X109220000Y-87630000D03*
%TD*%
D14*
%TO.C,R1*%
X106426000Y-107875000D03*
X106426000Y-104775000D03*
%TD*%
D10*
%TO.C,J3*%
X120929400Y-104927400D03*
D11*
X120929400Y-107467400D03*
X120929400Y-110007400D03*
X120929400Y-112547400D03*
%TD*%
D15*
%TO.C,D2*%
X113538000Y-104702000D03*
X113538000Y-101727000D03*
%TD*%
D16*
%TO.C,R10*%
X110311000Y-92456000D03*
X113411000Y-92456000D03*
%TD*%
D10*
%TO.C,SB1*%
X117627400Y-81762600D03*
D11*
X117627400Y-79222600D03*
X120167400Y-81762600D03*
X120167400Y-79222600D03*
X122707400Y-81762600D03*
X122707400Y-79222600D03*
X125247400Y-81762600D03*
X125247400Y-79222600D03*
%TD*%
D10*
%TO.C,J1*%
X133400800Y-104216200D03*
D11*
X133400800Y-106756200D03*
X133400800Y-109296200D03*
%TD*%
D17*
%TO.C,H3*%
X108600000Y-114500000D03*
%TD*%
D18*
%TO.C,C4*%
X117842900Y-91084400D03*
X120967900Y-91084400D03*
%TD*%
D16*
%TO.C,R3*%
X110210000Y-107569000D03*
X113310000Y-107569000D03*
%TD*%
D19*
%TO.C,R9*%
X113284000Y-95123000D03*
X113284000Y-98223000D03*
%TD*%
D20*
%TO.C,D3*%
X127254000Y-106855800D03*
X127254000Y-103555800D03*
%TD*%
D10*
%TO.C,A1*%
X104493500Y-93679000D03*
D11*
X104493500Y-96219000D03*
X104493500Y-98759000D03*
X104493500Y-101299000D03*
%TD*%
D10*
%TO.C,J4*%
X114350800Y-116738400D03*
D11*
X114350800Y-114198400D03*
X114350800Y-111658400D03*
%TD*%
D21*
%TO.C,R8*%
X125933800Y-88595200D03*
X122833800Y-88595200D03*
%TD*%
D17*
%TO.C,H1*%
X108600000Y-82000000D03*
%TD*%
D10*
%TO.C,CONN1*%
X126441200Y-110286800D03*
D11*
X128981200Y-110286800D03*
X126441200Y-112826800D03*
X128981200Y-112826800D03*
X126441200Y-115366800D03*
X128981200Y-115366800D03*
%TD*%
D22*
%TO.C,C1*%
X107950000Y-95973500D03*
X107950000Y-99098500D03*
%TD*%
D15*
%TO.C,D1*%
X110236000Y-104665500D03*
X110236000Y-101690500D03*
%TD*%
D17*
%TO.C,H2*%
X131572000Y-98250000D03*
%TD*%
M02*
