%TF.GenerationSoftware,KiCad,Pcbnew,9.0.4*%
%TF.CreationDate,2025-11-07T20:41:43+01:00*%
%TF.ProjectId,SB_Mod_SR04,53425f4d-6f64-45f5-9352-30342e6b6963,rev?*%
%TF.SameCoordinates,Original*%
%TF.FileFunction,Copper,L1,Top*%
%TF.FilePolarity,Positive*%
%FSLAX46Y46*%
G04 Gerber Fmt 4.6, Leading zero omitted, Abs format (unit mm)*
G04 Created by KiCad (PCBNEW 9.0.4) date 2025-11-07 20:41:43*
%MOMM*%
%LPD*%
G01*
G04 APERTURE LIST*
G04 Aperture macros list*
%AMRoundRect*
0 Rectangle with rounded corners*
0 $1 Rounding radius*
0 $2 $3 $4 $5 $6 $7 $8 $9 X,Y pos of 4 corners*
0 Add a 4 corners polygon primitive as box body*
4,1,4,$2,$3,$4,$5,$6,$7,$8,$9,$2,$3,0*
0 Add four circle primitives for the rounded corners*
1,1,$1+$1,$2,$3*
1,1,$1+$1,$4,$5*
1,1,$1+$1,$6,$7*
1,1,$1+$1,$8,$9*
0 Add four rect primitives between the rounded corners*
20,1,$1+$1,$2,$3,$4,$5,0*
20,1,$1+$1,$4,$5,$6,$7,0*
20,1,$1+$1,$6,$7,$8,$9,0*
20,1,$1+$1,$8,$9,$2,$3,0*%
G04 Aperture macros list end*
%TA.AperFunction,ComponentPad*%
%ADD10R,1.700000X1.700000*%
%TD*%
%TA.AperFunction,ComponentPad*%
%ADD11C,1.700000*%
%TD*%
%TA.AperFunction,SMDPad,CuDef*%
%ADD12RoundRect,0.150000X-0.825000X-0.150000X0.825000X-0.150000X0.825000X0.150000X-0.825000X0.150000X0*%
%TD*%
%TA.AperFunction,SMDPad,CuDef*%
%ADD13RoundRect,0.250000X0.412500X0.650000X-0.412500X0.650000X-0.412500X-0.650000X0.412500X-0.650000X0*%
%TD*%
%TA.AperFunction,SMDPad,CuDef*%
%ADD14RoundRect,0.250000X0.625000X-0.400000X0.625000X0.400000X-0.625000X0.400000X-0.625000X-0.400000X0*%
%TD*%
%TA.AperFunction,SMDPad,CuDef*%
%ADD15RoundRect,0.250001X0.624999X-0.462499X0.624999X0.462499X-0.624999X0.462499X-0.624999X-0.462499X0*%
%TD*%
%TA.AperFunction,SMDPad,CuDef*%
%ADD16RoundRect,0.250000X-0.400000X-0.625000X0.400000X-0.625000X0.400000X0.625000X-0.400000X0.625000X0*%
%TD*%
%TA.AperFunction,ComponentPad*%
%ADD17C,6.400000*%
%TD*%
%TA.AperFunction,SMDPad,CuDef*%
%ADD18RoundRect,0.250000X-0.412500X-0.650000X0.412500X-0.650000X0.412500X0.650000X-0.412500X0.650000X0*%
%TD*%
%TA.AperFunction,SMDPad,CuDef*%
%ADD19RoundRect,0.250000X-0.625000X0.400000X-0.625000X-0.400000X0.625000X-0.400000X0.625000X0.400000X0*%
%TD*%
%TA.AperFunction,SMDPad,CuDef*%
%ADD20RoundRect,0.225000X0.375000X-0.225000X0.375000X0.225000X-0.375000X0.225000X-0.375000X-0.225000X0*%
%TD*%
%TA.AperFunction,SMDPad,CuDef*%
%ADD21RoundRect,0.250000X0.400000X0.625000X-0.400000X0.625000X-0.400000X-0.625000X0.400000X-0.625000X0*%
%TD*%
%TA.AperFunction,SMDPad,CuDef*%
%ADD22RoundRect,0.250000X-0.650000X0.412500X-0.650000X-0.412500X0.650000X-0.412500X0.650000X0.412500X0*%
%TD*%
%TA.AperFunction,ViaPad*%
%ADD23C,0.600000*%
%TD*%
%TA.AperFunction,Conductor*%
%ADD24C,0.400000*%
%TD*%
%TA.AperFunction,Conductor*%
%ADD25C,0.200000*%
%TD*%
G04 APERTURE END LIST*
D10*
%TO.P,J2,1,Pin_1*%
%TO.N,GND*%
X122255200Y-117195600D03*
D11*
%TO.P,J2,2,Pin_2*%
X119715200Y-117195600D03*
%TD*%
D12*
%TO.P,U2,1,VCC*%
%TO.N,+5V*%
X117819400Y-93574900D03*
%TO.P,U2,2,PA4*%
%TO.N,/ECHO_L*%
X117819400Y-94844900D03*
%TO.P,U2,3,PA5*%
%TO.N,/TRIG*%
X117819400Y-96114900D03*
%TO.P,U2,4,PA6*%
%TO.N,unconnected-(U2-PA6-Pad4)*%
X117819400Y-97384900D03*
%TO.P,U2,5,PA7*%
%TO.N,unconnected-(U2-PA7-Pad5)*%
X117819400Y-98654900D03*
%TO.P,U2,6,RX-PB3*%
%TO.N,/RX*%
X117819400Y-99924900D03*
%TO.P,U2,7,TX-PB2*%
%TO.N,/TX*%
X117819400Y-101194900D03*
%TO.P,U2,8,PB1*%
%TO.N,/ACT_LED*%
X122769400Y-101194900D03*
%TO.P,U2,9,PB0*%
%TO.N,/ALERT_LED*%
X122769400Y-99924900D03*
%TO.P,U2,10,PA0-~{RST}-UPDI*%
%TO.N,/UPDI*%
X122769400Y-98654900D03*
%TO.P,U2,11,PA1*%
%TO.N,/SB_ACT*%
X122769400Y-97384900D03*
%TO.P,U2,12,PA2*%
%TO.N,/SB_DAT*%
X122769400Y-96114900D03*
%TO.P,U2,13,PA3*%
%TO.N,/SB_CLK*%
X122769400Y-94844900D03*
%TO.P,U2,14,GND*%
%TO.N,GND*%
X122769400Y-93574900D03*
%TD*%
D13*
%TO.P,C2,1*%
%TO.N,+5V*%
X112345000Y-87630000D03*
%TO.P,C2,2*%
%TO.N,GND*%
X109220000Y-87630000D03*
%TD*%
D14*
%TO.P,R1,1*%
%TO.N,GND*%
X106426000Y-107875000D03*
%TO.P,R1,2*%
%TO.N,Net-(D1-K)*%
X106426000Y-104775000D03*
%TD*%
D10*
%TO.P,J3,1,Pin_1*%
%TO.N,/SB_ACT*%
X120929400Y-104927400D03*
D11*
%TO.P,J3,2,Pin_2*%
%TO.N,/SB_DAT*%
X120929400Y-107467400D03*
%TO.P,J3,3,Pin_3*%
%TO.N,/SB_CLK*%
X120929400Y-110007400D03*
%TO.P,J3,4,Pin_4*%
%TO.N,GND*%
X120929400Y-112547400D03*
%TD*%
D15*
%TO.P,D2,1,K*%
%TO.N,Net-(D2-K)*%
X113538000Y-104702000D03*
%TO.P,D2,2,A*%
%TO.N,/ALERT_LED*%
X113538000Y-101727000D03*
%TD*%
D16*
%TO.P,R10,1*%
%TO.N,GND*%
X110311000Y-92456000D03*
%TO.P,R10,2*%
%TO.N,/ECHO_L*%
X113411000Y-92456000D03*
%TD*%
D10*
%TO.P,SB1,1,GND*%
%TO.N,GND*%
X117627400Y-81762600D03*
D11*
%TO.P,SB1,2,+5V*%
%TO.N,+5V*%
X117627400Y-79222600D03*
%TO.P,SB1,3,CLK*%
%TO.N,/SB_CLK*%
X120167400Y-81762600D03*
%TO.P,SB1,4,GND*%
%TO.N,GND*%
X120167400Y-79222600D03*
%TO.P,SB1,5,DAT*%
%TO.N,/SB_DAT*%
X122707400Y-81762600D03*
%TO.P,SB1,6,~{ACT}*%
%TO.N,/SB_ACT*%
X122707400Y-79222600D03*
%TO.P,SB1,7,+5V*%
%TO.N,+5V*%
X125247400Y-81762600D03*
%TO.P,SB1,8,GND*%
%TO.N,GND*%
X125247400Y-79222600D03*
%TD*%
D10*
%TO.P,J1,1,Pin_1*%
%TO.N,/UPDI*%
X133400800Y-104216200D03*
D11*
%TO.P,J1,2,Pin_2*%
%TO.N,/PROG_TX*%
X133400800Y-106756200D03*
%TO.P,J1,3,Pin_3*%
%TO.N,GND*%
X133400800Y-109296200D03*
%TD*%
D17*
%TO.P,H3,1,1*%
%TO.N,GND*%
X108600000Y-114500000D03*
%TD*%
D18*
%TO.P,C4,1*%
%TO.N,+5V*%
X117842900Y-91084400D03*
%TO.P,C4,2*%
%TO.N,GND*%
X120967900Y-91084400D03*
%TD*%
D16*
%TO.P,R3,1*%
%TO.N,GND*%
X110210000Y-107569000D03*
%TO.P,R3,2*%
%TO.N,Net-(D2-K)*%
X113310000Y-107569000D03*
%TD*%
D19*
%TO.P,R9,1*%
%TO.N,/ECHO_L*%
X113284000Y-95123000D03*
%TO.P,R9,2*%
%TO.N,/ECHO_H*%
X113284000Y-98223000D03*
%TD*%
D20*
%TO.P,D3,1,K*%
%TO.N,/PROG_TX*%
X127254000Y-106855800D03*
%TO.P,D3,2,A*%
%TO.N,/UPDI*%
X127254000Y-103555800D03*
%TD*%
D10*
%TO.P,A1,1,VCC*%
%TO.N,+5V*%
X104493500Y-93679000D03*
D11*
%TO.P,A1,2,Trig*%
%TO.N,/TRIG*%
X104493500Y-96219000D03*
%TO.P,A1,3,Echo*%
%TO.N,/ECHO_H*%
X104493500Y-98759000D03*
%TO.P,A1,4,GND*%
%TO.N,GND*%
X104493500Y-101299000D03*
%TD*%
D10*
%TO.P,J4,1,Pin_1*%
%TO.N,/TX*%
X114350800Y-116738400D03*
D11*
%TO.P,J4,2,Pin_2*%
%TO.N,/RX*%
X114350800Y-114198400D03*
%TO.P,J4,3,Pin_3*%
%TO.N,GND*%
X114350800Y-111658400D03*
%TD*%
D21*
%TO.P,R8,1*%
%TO.N,/SB_DAT*%
X125933800Y-88595200D03*
%TO.P,R8,2*%
%TO.N,+5V*%
X122833800Y-88595200D03*
%TD*%
D17*
%TO.P,H1,1,1*%
%TO.N,GND*%
X108600000Y-82000000D03*
%TD*%
D10*
%TO.P,CONN1,1,UPDI*%
%TO.N,/UPDI*%
X126441200Y-110286800D03*
D11*
%TO.P,CONN1,2,VCC*%
%TO.N,+5V*%
X128981200Y-110286800D03*
%TO.P,CONN1,3,nc*%
%TO.N,unconnected-(CONN1-nc-Pad3)*%
X126441200Y-112826800D03*
%TO.P,CONN1,4,nc*%
%TO.N,unconnected-(CONN1-nc-Pad4)*%
X128981200Y-112826800D03*
%TO.P,CONN1,5,nc*%
%TO.N,unconnected-(CONN1-nc-Pad5)*%
X126441200Y-115366800D03*
%TO.P,CONN1,6,GND*%
%TO.N,GND*%
X128981200Y-115366800D03*
%TD*%
D22*
%TO.P,C1,1*%
%TO.N,+5V*%
X107950000Y-95973500D03*
%TO.P,C1,2*%
%TO.N,GND*%
X107950000Y-99098500D03*
%TD*%
D15*
%TO.P,D1,1,K*%
%TO.N,Net-(D1-K)*%
X110236000Y-104665500D03*
%TO.P,D1,2,A*%
%TO.N,/ACT_LED*%
X110236000Y-101690500D03*
%TD*%
D17*
%TO.P,H2,1,1*%
%TO.N,GND*%
X131572000Y-98250000D03*
%TD*%
D23*
%TO.N,GND*%
X128930400Y-105232200D03*
X107950000Y-100838000D03*
X104775000Y-91186000D03*
X124002800Y-104368600D03*
X110236000Y-94488000D03*
X115138200Y-107518200D03*
X123190000Y-91059000D03*
X125780800Y-101828600D03*
X109220000Y-89535000D03*
X126771400Y-92354400D03*
X108458000Y-107823000D03*
X115290600Y-100304600D03*
X126822200Y-85394800D03*
%TO.N,+5V*%
X116459000Y-91135200D03*
X112344200Y-86029800D03*
X112345000Y-89154000D03*
X121539000Y-88569800D03*
X116179600Y-93573600D03*
%TO.N,/ACT_LED*%
X111887000Y-103149400D03*
X122783600Y-102768400D03*
%TO.N,/ALERT_LED*%
X124739400Y-100888800D03*
X115341400Y-101727000D03*
%TD*%
D24*
%TO.N,GND*%
X120967900Y-91084400D02*
X121475900Y-91084400D01*
X109220000Y-87630000D02*
X109220000Y-89535000D01*
X107911500Y-99098500D02*
X107950000Y-99098500D01*
D25*
%TO.N,/ECHO_H*%
X105343500Y-97909000D02*
X109212000Y-97909000D01*
X109212000Y-97909000D02*
X109220000Y-97917000D01*
X109220000Y-97917000D02*
X111887000Y-97917000D01*
X112193000Y-98223000D02*
X113284000Y-98223000D01*
X104493500Y-98759000D02*
X105343500Y-97909000D01*
X111887000Y-97917000D02*
X112193000Y-98223000D01*
%TO.N,/TRIG*%
X115630990Y-96647000D02*
X116163090Y-96114900D01*
X116163090Y-96114900D02*
X117819400Y-96114900D01*
X110556732Y-97180400D02*
X111090132Y-96647000D01*
X104493500Y-96219000D02*
X105454900Y-97180400D01*
X105454900Y-97180400D02*
X110556732Y-97180400D01*
X111090132Y-96647000D02*
X115630990Y-96647000D01*
D24*
%TO.N,+5V*%
X116459000Y-91135200D02*
X117792100Y-91135200D01*
X112344200Y-86029800D02*
X112344200Y-87171200D01*
X117792100Y-91135200D02*
X117842900Y-91084400D01*
X117818100Y-93573600D02*
X117819400Y-93574900D01*
X107950000Y-94488000D02*
X107950000Y-95973500D01*
X112345000Y-87172000D02*
X112345000Y-87630000D01*
X121539000Y-88569800D02*
X122808400Y-88569800D01*
X112345000Y-89154000D02*
X112345000Y-87630000D01*
X122808400Y-88569800D02*
X122833800Y-88595200D01*
X112344200Y-87171200D02*
X112345000Y-87172000D01*
X107141000Y-93679000D02*
X107950000Y-94488000D01*
X104493500Y-93679000D02*
X107141000Y-93679000D01*
X116179600Y-93573600D02*
X117818100Y-93573600D01*
D25*
%TO.N,/PROG_TX*%
X133400800Y-106756200D02*
X127229800Y-106756200D01*
X127229800Y-106756200D02*
X127203200Y-106782800D01*
%TO.N,Net-(D1-K)*%
X106833000Y-104648000D02*
X106553000Y-104368000D01*
X109909000Y-104648000D02*
X106833000Y-104648000D01*
%TO.N,/SB_DAT*%
X125857000Y-84912200D02*
X122707400Y-81762600D01*
X119634000Y-106172000D02*
X120929400Y-107467400D01*
X120218200Y-97205800D02*
X120218200Y-102997000D01*
X123950700Y-96114900D02*
X122769400Y-96114900D01*
X125933800Y-88595200D02*
X125857000Y-88518400D01*
X121309100Y-96114900D02*
X120218200Y-97205800D01*
X125857000Y-88518400D02*
X125857000Y-84912200D01*
X120218200Y-102997000D02*
X119634000Y-103581200D01*
X125933800Y-88595200D02*
X125907800Y-88621200D01*
X122769400Y-96114900D02*
X121309100Y-96114900D01*
X125907800Y-88621200D02*
X125907800Y-94157800D01*
X125907800Y-94157800D02*
X123950700Y-96114900D01*
X119634000Y-103581200D02*
X119634000Y-106172000D01*
%TO.N,/SB_CLK*%
X119402800Y-96624200D02*
X119402800Y-102313800D01*
X124026900Y-94844900D02*
X122769400Y-94844900D01*
X121182100Y-94844900D02*
X119402800Y-96624200D01*
X124358400Y-94513400D02*
X124026900Y-94844900D01*
X118745000Y-102971600D02*
X118745000Y-107823000D01*
X120167400Y-81762600D02*
X124358400Y-85953600D01*
X124358400Y-85953600D02*
X124358400Y-94513400D01*
X118745000Y-107823000D02*
X120929400Y-110007400D01*
X119402800Y-102313800D02*
X118745000Y-102971600D01*
X122769400Y-94844900D02*
X121182100Y-94844900D01*
%TO.N,/UPDI*%
X129514600Y-103555800D02*
X127203200Y-103555800D01*
X126034800Y-109880400D02*
X126441200Y-110286800D01*
X130175000Y-104216200D02*
X129514600Y-103555800D01*
X133400800Y-104216200D02*
X130175000Y-104216200D01*
X127254000Y-103555800D02*
X127101600Y-103555800D01*
X127203200Y-101549200D02*
X124308900Y-98654900D01*
X126034800Y-104622600D02*
X126034800Y-109880400D01*
X127203200Y-103555800D02*
X127203200Y-101549200D01*
X124308900Y-98654900D02*
X122769400Y-98654900D01*
X127101600Y-103555800D02*
X126034800Y-104622600D01*
%TO.N,/SB_ACT*%
X122769400Y-97384900D02*
X123950700Y-97384900D01*
X127838200Y-82487640D02*
X125868560Y-80518000D01*
X120954800Y-104902000D02*
X120929400Y-104927400D01*
X124002800Y-80518000D02*
X122707400Y-79222600D01*
X123950700Y-97384900D02*
X127838200Y-93497400D01*
X125868560Y-80518000D02*
X124002800Y-80518000D01*
X120954800Y-98018600D02*
X120954800Y-104902000D01*
X127838200Y-93497400D02*
X127838200Y-82487640D01*
X121588500Y-97384900D02*
X120954800Y-98018600D01*
X122769400Y-97384900D02*
X121588500Y-97384900D01*
%TO.N,/ECHO_L*%
X113284000Y-92583000D02*
X113411000Y-92456000D01*
X116025900Y-94844900D02*
X117819400Y-94844900D01*
X113284000Y-95123000D02*
X115747800Y-95123000D01*
X113284000Y-95123000D02*
X113284000Y-92583000D01*
X115747800Y-95123000D02*
X116025900Y-94844900D01*
%TO.N,Net-(D2-K)*%
X113411000Y-106960000D02*
X113310000Y-107061000D01*
X113411000Y-104484500D02*
X113411000Y-106960000D01*
%TO.N,/ACT_LED*%
X111887000Y-103149400D02*
X110428100Y-101690500D01*
X122769400Y-102754200D02*
X122783600Y-102768400D01*
X110428100Y-101690500D02*
X110236000Y-101690500D01*
X122769400Y-101194900D02*
X122769400Y-102754200D01*
%TO.N,/ALERT_LED*%
X122769400Y-99924900D02*
X123775500Y-99924900D01*
X115341400Y-101727000D02*
X113538000Y-101727000D01*
X123775500Y-99924900D02*
X124739400Y-100888800D01*
%TO.N,/TX*%
X117819400Y-113828600D02*
X114909600Y-116738400D01*
X117819400Y-101194900D02*
X117819400Y-113828600D01*
X114909600Y-116738400D02*
X114350800Y-116738400D01*
%TO.N,/RX*%
X116357400Y-100411901D02*
X116357400Y-112750600D01*
X117819400Y-99924900D02*
X116844401Y-99924900D01*
X116357400Y-112750600D02*
X114909600Y-114198400D01*
X116844401Y-99924900D02*
X116357400Y-100411901D01*
X114909600Y-114198400D02*
X114350800Y-114198400D01*
%TD*%
%TA.AperFunction,Conductor*%
%TO.N,GND*%
G36*
X127782644Y-113480799D02*
G01*
X127821684Y-113525854D01*
X127825791Y-113533915D01*
X127826151Y-113534620D01*
X127951090Y-113706586D01*
X128101413Y-113856909D01*
X128273379Y-113981848D01*
X128273381Y-113981849D01*
X128273384Y-113981851D01*
X128282693Y-113986594D01*
X128333490Y-114034566D01*
X128350287Y-114102387D01*
X128327752Y-114168522D01*
X128282705Y-114207560D01*
X128273646Y-114212176D01*
X128273640Y-114212180D01*
X128219482Y-114251527D01*
X128219482Y-114251528D01*
X128851791Y-114883837D01*
X128788207Y-114900875D01*
X128674193Y-114966701D01*
X128581101Y-115059793D01*
X128515275Y-115173807D01*
X128498237Y-115237391D01*
X127865928Y-114605082D01*
X127865927Y-114605082D01*
X127826580Y-114659240D01*
X127826576Y-114659246D01*
X127821960Y-114668305D01*
X127773981Y-114719097D01*
X127706159Y-114735887D01*
X127640026Y-114713343D01*
X127600994Y-114668293D01*
X127596251Y-114658984D01*
X127596249Y-114658981D01*
X127596248Y-114658979D01*
X127471309Y-114487013D01*
X127320986Y-114336690D01*
X127149020Y-114211751D01*
X127140800Y-114207563D01*
X127140254Y-114207285D01*
X127089459Y-114159312D01*
X127072663Y-114091492D01*
X127095199Y-114025356D01*
X127140254Y-113986315D01*
X127149016Y-113981851D01*
X127265254Y-113897400D01*
X127320986Y-113856909D01*
X127320988Y-113856906D01*
X127320992Y-113856904D01*
X127471304Y-113706592D01*
X127471306Y-113706588D01*
X127471309Y-113706586D01*
X127596248Y-113534620D01*
X127596247Y-113534620D01*
X127596251Y-113534616D01*
X127600714Y-113525854D01*
X127648688Y-113475059D01*
X127716508Y-113458263D01*
X127782644Y-113480799D01*
G37*
%TD.AperFunction*%
%TA.AperFunction,Conductor*%
G36*
X129281542Y-104175985D02*
G01*
X129302183Y-104192618D01*
X129806284Y-104696720D01*
X129806286Y-104696721D01*
X129806290Y-104696724D01*
X129832159Y-104711659D01*
X129943216Y-104775777D01*
X130095943Y-104816701D01*
X130095945Y-104816701D01*
X130261654Y-104816701D01*
X130261670Y-104816700D01*
X131926301Y-104816700D01*
X131993340Y-104836385D01*
X132039095Y-104889189D01*
X132050301Y-104940700D01*
X132050301Y-105114076D01*
X132056708Y-105173683D01*
X132107002Y-105308528D01*
X132107006Y-105308535D01*
X132193252Y-105423744D01*
X132193255Y-105423747D01*
X132308464Y-105509993D01*
X132308471Y-105509997D01*
X132439882Y-105559010D01*
X132495816Y-105600881D01*
X132520233Y-105666345D01*
X132505382Y-105734618D01*
X132484231Y-105762873D01*
X132370689Y-105876415D01*
X132245748Y-106048384D01*
X132245747Y-106048385D01*
X132225565Y-106087995D01*
X132177591Y-106138791D01*
X132115081Y-106155700D01*
X128231274Y-106155700D01*
X128164235Y-106136015D01*
X128143593Y-106119381D01*
X128082044Y-106057832D01*
X128082040Y-106057829D01*
X127937705Y-105968801D01*
X127937699Y-105968798D01*
X127937697Y-105968797D01*
X127828986Y-105932774D01*
X127776709Y-105915451D01*
X127677346Y-105905300D01*
X126830662Y-105905300D01*
X126830642Y-105905302D01*
X126771900Y-105911302D01*
X126703207Y-105898532D01*
X126652324Y-105850650D01*
X126635300Y-105787944D01*
X126635300Y-104922696D01*
X126654985Y-104855657D01*
X126671615Y-104835019D01*
X126964016Y-104542617D01*
X127025339Y-104509133D01*
X127051697Y-104506299D01*
X127677338Y-104506299D01*
X127677344Y-104506299D01*
X127677352Y-104506298D01*
X127677355Y-104506298D01*
X127731760Y-104500740D01*
X127776708Y-104496149D01*
X127937697Y-104442803D01*
X128082044Y-104353768D01*
X128201968Y-104233844D01*
X128213465Y-104215203D01*
X128265412Y-104168479D01*
X128319004Y-104156300D01*
X129214503Y-104156300D01*
X129281542Y-104175985D01*
G37*
%TD.AperFunction*%
%TA.AperFunction,Conductor*%
G36*
X127193154Y-89526377D02*
G01*
X127232010Y-89584445D01*
X127237700Y-89621577D01*
X127237700Y-93197303D01*
X127218015Y-93264342D01*
X127201381Y-93284984D01*
X126719981Y-93766384D01*
X126658658Y-93799869D01*
X126588966Y-93794885D01*
X126533033Y-93753013D01*
X126508616Y-93687549D01*
X126508300Y-93678703D01*
X126508300Y-90042547D01*
X126527985Y-89975508D01*
X126580789Y-89929753D01*
X126593281Y-89924846D01*
X126653134Y-89905014D01*
X126802456Y-89812912D01*
X126926512Y-89688856D01*
X127008161Y-89556480D01*
X127060109Y-89509756D01*
X127129071Y-89498533D01*
X127193154Y-89526377D01*
G37*
%TD.AperFunction*%
%TA.AperFunction,Conductor*%
G36*
X126678561Y-82186611D02*
G01*
X126711534Y-82210209D01*
X127201381Y-82700056D01*
X127234866Y-82761379D01*
X127237700Y-82787737D01*
X127237700Y-87568822D01*
X127218015Y-87635861D01*
X127165211Y-87681616D01*
X127096053Y-87691560D01*
X127032497Y-87662535D01*
X127008161Y-87633919D01*
X126968009Y-87568822D01*
X126926512Y-87501544D01*
X126802456Y-87377488D01*
X126680566Y-87302306D01*
X126653136Y-87285387D01*
X126653135Y-87285386D01*
X126653134Y-87285386D01*
X126542494Y-87248723D01*
X126485051Y-87208951D01*
X126458228Y-87144435D01*
X126457500Y-87131018D01*
X126457500Y-85001259D01*
X126457501Y-85001246D01*
X126457501Y-84833145D01*
X126457501Y-84833143D01*
X126416577Y-84680415D01*
X126387639Y-84630295D01*
X126337520Y-84543484D01*
X126225716Y-84431680D01*
X126225715Y-84431679D01*
X126221385Y-84427349D01*
X126221374Y-84427339D01*
X125118816Y-83324781D01*
X125085331Y-83263458D01*
X125090315Y-83193766D01*
X125132187Y-83137833D01*
X125197651Y-83113416D01*
X125206497Y-83113100D01*
X125353686Y-83113100D01*
X125353687Y-83113100D01*
X125563643Y-83079846D01*
X125765812Y-83014157D01*
X125955216Y-82917651D01*
X126041871Y-82854693D01*
X126127186Y-82792709D01*
X126127188Y-82792706D01*
X126127192Y-82792704D01*
X126277504Y-82642392D01*
X126277506Y-82642388D01*
X126277509Y-82642386D01*
X126402448Y-82470420D01*
X126402447Y-82470420D01*
X126402451Y-82470416D01*
X126498957Y-82281012D01*
X126505922Y-82259573D01*
X126545356Y-82201899D01*
X126609714Y-82174699D01*
X126678561Y-82186611D01*
G37*
%TD.AperFunction*%
%TA.AperFunction,Conductor*%
G36*
X121282670Y-79984317D02*
G01*
X121282670Y-79984316D01*
X121322022Y-79930155D01*
X121326632Y-79921107D01*
X121374605Y-79870309D01*
X121442425Y-79853512D01*
X121508561Y-79876047D01*
X121547604Y-79921104D01*
X121552349Y-79930417D01*
X121677290Y-80102386D01*
X121827613Y-80252709D01*
X121999582Y-80377650D01*
X122008346Y-80382116D01*
X122059142Y-80430091D01*
X122075936Y-80497912D01*
X122053398Y-80564047D01*
X122008346Y-80603084D01*
X121999582Y-80607549D01*
X121827613Y-80732490D01*
X121677290Y-80882813D01*
X121552349Y-81054782D01*
X121547884Y-81063546D01*
X121499909Y-81114342D01*
X121432088Y-81131136D01*
X121365953Y-81108598D01*
X121326916Y-81063546D01*
X121322450Y-81054782D01*
X121197509Y-80882813D01*
X121047186Y-80732490D01*
X120875217Y-80607549D01*
X120865904Y-80602804D01*
X120815107Y-80554830D01*
X120798312Y-80487009D01*
X120820849Y-80420874D01*
X120865907Y-80381832D01*
X120874955Y-80377222D01*
X120929116Y-80337870D01*
X120929117Y-80337870D01*
X120296808Y-79705562D01*
X120360393Y-79688525D01*
X120474407Y-79622699D01*
X120567499Y-79529607D01*
X120633325Y-79415593D01*
X120650362Y-79352008D01*
X121282670Y-79984317D01*
G37*
%TD.AperFunction*%
%TA.AperFunction,Conductor*%
G36*
X119701475Y-79415593D02*
G01*
X119767301Y-79529607D01*
X119860393Y-79622699D01*
X119974407Y-79688525D01*
X120037990Y-79705562D01*
X119405682Y-80337869D01*
X119405682Y-80337870D01*
X119459852Y-80377226D01*
X119459851Y-80377226D01*
X119468895Y-80381834D01*
X119519692Y-80429808D01*
X119536487Y-80497629D01*
X119513950Y-80563764D01*
X119468899Y-80602802D01*
X119459582Y-80607549D01*
X119287615Y-80732489D01*
X119173685Y-80846419D01*
X119112362Y-80879903D01*
X119042670Y-80874919D01*
X118986737Y-80833047D01*
X118969822Y-80802070D01*
X118920754Y-80670513D01*
X118920750Y-80670506D01*
X118834590Y-80555412D01*
X118834587Y-80555409D01*
X118719493Y-80469249D01*
X118719488Y-80469246D01*
X118587928Y-80420177D01*
X118531995Y-80378305D01*
X118507578Y-80312841D01*
X118522430Y-80244568D01*
X118543575Y-80216320D01*
X118657504Y-80102392D01*
X118658298Y-80101300D01*
X118708931Y-80031608D01*
X118782451Y-79930416D01*
X118787193Y-79921108D01*
X118835163Y-79870311D01*
X118902983Y-79853511D01*
X118969119Y-79876045D01*
X119008163Y-79921100D01*
X119012773Y-79930147D01*
X119052128Y-79984316D01*
X119684437Y-79352008D01*
X119701475Y-79415593D01*
G37*
%TD.AperFunction*%
%TA.AperFunction,Conductor*%
G36*
X129213825Y-76176185D02*
G01*
X129248022Y-76208895D01*
X135746736Y-85396929D01*
X135769378Y-85463028D01*
X135769500Y-85468533D01*
X135769500Y-110747988D01*
X135749815Y-110815027D01*
X135747053Y-110819143D01*
X131494374Y-116888593D01*
X130356652Y-118512357D01*
X129246582Y-120096655D01*
X129191991Y-120140263D01*
X129145029Y-120149500D01*
X100827500Y-120149500D01*
X100760461Y-120129815D01*
X100714706Y-120077011D01*
X100703500Y-120025500D01*
X100703500Y-114318234D01*
X104900000Y-114318234D01*
X104900000Y-114681765D01*
X104935632Y-115043556D01*
X105006550Y-115400090D01*
X105006553Y-115400101D01*
X105112086Y-115747997D01*
X105251207Y-116083864D01*
X105251209Y-116083869D01*
X105422570Y-116404462D01*
X105422581Y-116404480D01*
X105624551Y-116706750D01*
X105811678Y-116934765D01*
X105811679Y-116934766D01*
X107305747Y-115440697D01*
X107379588Y-115542330D01*
X107557670Y-115720412D01*
X107659301Y-115794251D01*
X106165232Y-117288319D01*
X106165233Y-117288320D01*
X106393249Y-117475448D01*
X106695519Y-117677418D01*
X106695537Y-117677429D01*
X107016130Y-117848790D01*
X107016135Y-117848792D01*
X107352002Y-117987913D01*
X107699898Y-118093446D01*
X107699909Y-118093449D01*
X108056443Y-118164367D01*
X108418234Y-118200000D01*
X108781766Y-118200000D01*
X109143556Y-118164367D01*
X109256036Y-118141994D01*
X109500090Y-118093449D01*
X109500101Y-118093446D01*
X109847997Y-117987913D01*
X110183864Y-117848792D01*
X110183869Y-117848790D01*
X110504462Y-117677429D01*
X110504480Y-117677418D01*
X110806736Y-117475457D01*
X110806750Y-117475447D01*
X111034765Y-117288320D01*
X111034766Y-117288319D01*
X109540698Y-115794251D01*
X109642330Y-115720412D01*
X109820412Y-115542330D01*
X109894251Y-115440698D01*
X111388319Y-116934766D01*
X111388320Y-116934765D01*
X111575447Y-116706750D01*
X111575457Y-116706736D01*
X111777418Y-116404480D01*
X111777429Y-116404462D01*
X111948790Y-116083869D01*
X111948792Y-116083864D01*
X112087913Y-115747997D01*
X112193446Y-115400101D01*
X112193449Y-115400090D01*
X112264367Y-115043556D01*
X112300000Y-114681765D01*
X112300000Y-114318234D01*
X112264367Y-113956443D01*
X112193449Y-113599909D01*
X112193446Y-113599898D01*
X112087913Y-113252002D01*
X111948792Y-112916135D01*
X111948790Y-112916130D01*
X111777429Y-112595537D01*
X111777418Y-112595519D01*
X111575448Y-112293249D01*
X111388320Y-112065233D01*
X111388319Y-112065232D01*
X109894251Y-113559300D01*
X109820412Y-113457670D01*
X109642330Y-113279588D01*
X109540698Y-113205748D01*
X111034766Y-111711679D01*
X110951244Y-111643135D01*
X110951242Y-111643132D01*
X110806750Y-111524551D01*
X110504480Y-111322581D01*
X110504462Y-111322570D01*
X110183869Y-111151209D01*
X110183864Y-111151207D01*
X109847997Y-111012086D01*
X109500101Y-110906553D01*
X109500090Y-110906550D01*
X109143556Y-110835632D01*
X108781766Y-110800000D01*
X108418234Y-110800000D01*
X108056443Y-110835632D01*
X107699909Y-110906550D01*
X107699898Y-110906553D01*
X107352002Y-111012086D01*
X107016135Y-111151207D01*
X107016130Y-111151209D01*
X106695537Y-111322570D01*
X106695519Y-111322581D01*
X106393258Y-111524545D01*
X106393254Y-111524548D01*
X106165233Y-111711679D01*
X106165233Y-111711680D01*
X107659301Y-113205748D01*
X107557670Y-113279588D01*
X107379588Y-113457670D01*
X107305748Y-113559301D01*
X105811680Y-112065233D01*
X105811679Y-112065233D01*
X105624548Y-112293254D01*
X105624545Y-112293258D01*
X105422581Y-112595519D01*
X105422570Y-112595537D01*
X105251209Y-112916130D01*
X105251207Y-112916135D01*
X105112086Y-113252002D01*
X105006553Y-113599898D01*
X105006550Y-113599909D01*
X104935632Y-113956443D01*
X104900000Y-114318234D01*
X100703500Y-114318234D01*
X100703500Y-108324986D01*
X105051001Y-108324986D01*
X105061494Y-108427697D01*
X105116641Y-108594119D01*
X105116643Y-108594124D01*
X105208684Y-108743345D01*
X105332654Y-108867315D01*
X105481875Y-108959356D01*
X105481880Y-108959358D01*
X105648302Y-109014505D01*
X105648309Y-109014506D01*
X105751019Y-109024999D01*
X106175999Y-109024999D01*
X106676000Y-109024999D01*
X107100972Y-109024999D01*
X107100986Y-109024998D01*
X107203697Y-109014505D01*
X107370119Y-108959358D01*
X107370124Y-108959356D01*
X107519345Y-108867315D01*
X107643315Y-108743345D01*
X107735356Y-108594124D01*
X107735358Y-108594119D01*
X107790505Y-108427697D01*
X107790506Y-108427690D01*
X107800999Y-108324986D01*
X107801000Y-108324973D01*
X107801000Y-108243986D01*
X109060001Y-108243986D01*
X109070494Y-108346697D01*
X109125641Y-108513119D01*
X109125643Y-108513124D01*
X109217684Y-108662345D01*
X109341654Y-108786315D01*
X109490875Y-108878356D01*
X109490880Y-108878358D01*
X109657302Y-108933505D01*
X109657309Y-108933506D01*
X109760019Y-108943999D01*
X109959999Y-108943999D01*
X110460000Y-108943999D01*
X110659972Y-108943999D01*
X110659986Y-108943998D01*
X110762697Y-108933505D01*
X110929119Y-108878358D01*
X110929124Y-108878356D01*
X111078345Y-108786315D01*
X111202315Y-108662345D01*
X111294356Y-108513124D01*
X111294358Y-108513119D01*
X111349505Y-108346697D01*
X111349506Y-108346690D01*
X111359999Y-108243986D01*
X111360000Y-108243973D01*
X111360000Y-107819000D01*
X110460000Y-107819000D01*
X110460000Y-108943999D01*
X109959999Y-108943999D01*
X109960000Y-108943998D01*
X109960000Y-107819000D01*
X109060001Y-107819000D01*
X109060001Y-108243986D01*
X107801000Y-108243986D01*
X107801000Y-108125000D01*
X106676000Y-108125000D01*
X106676000Y-109024999D01*
X106175999Y-109024999D01*
X106176000Y-109024998D01*
X106176000Y-108125000D01*
X105051001Y-108125000D01*
X105051001Y-108324986D01*
X100703500Y-108324986D01*
X100703500Y-107425013D01*
X105051000Y-107425013D01*
X105051000Y-107625000D01*
X106176000Y-107625000D01*
X106676000Y-107625000D01*
X107800999Y-107625000D01*
X107800999Y-107425028D01*
X107800998Y-107425013D01*
X107790505Y-107322302D01*
X107735358Y-107155880D01*
X107735356Y-107155875D01*
X107643315Y-107006654D01*
X107530674Y-106894013D01*
X109060000Y-106894013D01*
X109060000Y-107319000D01*
X109960000Y-107319000D01*
X110460000Y-107319000D01*
X111359999Y-107319000D01*
X111359999Y-106894028D01*
X111359998Y-106894013D01*
X111349505Y-106791302D01*
X111294358Y-106624880D01*
X111294356Y-106624875D01*
X111202315Y-106475654D01*
X111078345Y-106351684D01*
X110929124Y-106259643D01*
X110929119Y-106259641D01*
X110762697Y-106204494D01*
X110762690Y-106204493D01*
X110659986Y-106194000D01*
X110460000Y-106194000D01*
X110460000Y-107319000D01*
X109960000Y-107319000D01*
X109960000Y-106194000D01*
X109760029Y-106194000D01*
X109760012Y-106194001D01*
X109657302Y-106204494D01*
X109490880Y-106259641D01*
X109490875Y-106259643D01*
X109341654Y-106351684D01*
X109217684Y-106475654D01*
X109125643Y-106624875D01*
X109125641Y-106624880D01*
X109070494Y-106791302D01*
X109070493Y-106791309D01*
X109060000Y-106894013D01*
X107530674Y-106894013D01*
X107519345Y-106882684D01*
X107370124Y-106790643D01*
X107370119Y-106790641D01*
X107203697Y-106735494D01*
X107203690Y-106735493D01*
X107100986Y-106725000D01*
X106676000Y-106725000D01*
X106676000Y-107625000D01*
X106176000Y-107625000D01*
X106176000Y-106725000D01*
X105751028Y-106725000D01*
X105751012Y-106725001D01*
X105648302Y-106735494D01*
X105481880Y-106790641D01*
X105481875Y-106790643D01*
X105332654Y-106882684D01*
X105208684Y-107006654D01*
X105116643Y-107155875D01*
X105116641Y-107155880D01*
X105061494Y-107322302D01*
X105061493Y-107322309D01*
X105051000Y-107425013D01*
X100703500Y-107425013D01*
X100703500Y-92781135D01*
X103143000Y-92781135D01*
X103143000Y-94576870D01*
X103143001Y-94576876D01*
X103149408Y-94636483D01*
X103199702Y-94771328D01*
X103199706Y-94771335D01*
X103285952Y-94886544D01*
X103285955Y-94886547D01*
X103401164Y-94972793D01*
X103401171Y-94972797D01*
X103532582Y-95021810D01*
X103588516Y-95063681D01*
X103612933Y-95129145D01*
X103598082Y-95197418D01*
X103576931Y-95225673D01*
X103463389Y-95339215D01*
X103338451Y-95511179D01*
X103241944Y-95700585D01*
X103176253Y-95902760D01*
X103153936Y-96043666D01*
X103143000Y-96112713D01*
X103143000Y-96325287D01*
X103146207Y-96345537D01*
X103176253Y-96535239D01*
X103241944Y-96737414D01*
X103338451Y-96926820D01*
X103463390Y-97098786D01*
X103613713Y-97249109D01*
X103785682Y-97374050D01*
X103794446Y-97378516D01*
X103845242Y-97426491D01*
X103862036Y-97494312D01*
X103839498Y-97560447D01*
X103794446Y-97599484D01*
X103785682Y-97603949D01*
X103613713Y-97728890D01*
X103463390Y-97879213D01*
X103338451Y-98051179D01*
X103241944Y-98240585D01*
X103176253Y-98442760D01*
X103143000Y-98652713D01*
X103143000Y-98865286D01*
X103176253Y-99075239D01*
X103176253Y-99075241D01*
X103176254Y-99075243D01*
X103237436Y-99263542D01*
X103241944Y-99277414D01*
X103338451Y-99466820D01*
X103463390Y-99638786D01*
X103613713Y-99789109D01*
X103785679Y-99914048D01*
X103785681Y-99914049D01*
X103785684Y-99914051D01*
X103794993Y-99918794D01*
X103845790Y-99966766D01*
X103862587Y-100034587D01*
X103840052Y-100100722D01*
X103795005Y-100139760D01*
X103785946Y-100144376D01*
X103785940Y-100144380D01*
X103731782Y-100183727D01*
X103731782Y-100183728D01*
X104364091Y-100816037D01*
X104300507Y-100833075D01*
X104186493Y-100898901D01*
X104093401Y-100991993D01*
X104027575Y-101106007D01*
X104010537Y-101169591D01*
X103378228Y-100537282D01*
X103378227Y-100537282D01*
X103338880Y-100591439D01*
X103242404Y-100780782D01*
X103176742Y-100982869D01*
X103176742Y-100982872D01*
X103143500Y-101192753D01*
X103143500Y-101405246D01*
X103176742Y-101615127D01*
X103176742Y-101615130D01*
X103242404Y-101817217D01*
X103338875Y-102006550D01*
X103378228Y-102060716D01*
X104010537Y-101428408D01*
X104027575Y-101491993D01*
X104093401Y-101606007D01*
X104186493Y-101699099D01*
X104300507Y-101764925D01*
X104364090Y-101781962D01*
X103731782Y-102414269D01*
X103731782Y-102414270D01*
X103785949Y-102453624D01*
X103975282Y-102550095D01*
X104177370Y-102615757D01*
X104387254Y-102649000D01*
X104599746Y-102649000D01*
X104809627Y-102615757D01*
X104809630Y-102615757D01*
X105011717Y-102550095D01*
X105201054Y-102453622D01*
X105255216Y-102414270D01*
X105255217Y-102414270D01*
X104622908Y-101781962D01*
X104686493Y-101764925D01*
X104800507Y-101699099D01*
X104893599Y-101606007D01*
X104959425Y-101491993D01*
X104976462Y-101428408D01*
X105608770Y-102060717D01*
X105608770Y-102060716D01*
X105648122Y-102006554D01*
X105744595Y-101817217D01*
X105810257Y-101615130D01*
X105810257Y-101615127D01*
X105843500Y-101405246D01*
X105843500Y-101192753D01*
X105810257Y-100982872D01*
X105810257Y-100982869D01*
X105744595Y-100780782D01*
X105648124Y-100591449D01*
X105608770Y-100537282D01*
X105608769Y-100537282D01*
X104976462Y-101169590D01*
X104959425Y-101106007D01*
X104893599Y-100991993D01*
X104800507Y-100898901D01*
X104686493Y-100833075D01*
X104622909Y-100816037D01*
X105255216Y-100183728D01*
X105201047Y-100144373D01*
X105201047Y-100144372D01*
X105192000Y-100139763D01*
X105141206Y-100091788D01*
X105124412Y-100023966D01*
X105146951Y-99957832D01*
X105192008Y-99918793D01*
X105201316Y-99914051D01*
X105311685Y-99833864D01*
X105373286Y-99789109D01*
X105373288Y-99789106D01*
X105373292Y-99789104D01*
X105523604Y-99638792D01*
X105523606Y-99638788D01*
X105523609Y-99638786D01*
X105580133Y-99560986D01*
X106550001Y-99560986D01*
X106560494Y-99663697D01*
X106615641Y-99830119D01*
X106615643Y-99830124D01*
X106707684Y-99979345D01*
X106831654Y-100103315D01*
X106980875Y-100195356D01*
X106980880Y-100195358D01*
X107147302Y-100250505D01*
X107147309Y-100250506D01*
X107250019Y-100260999D01*
X107699999Y-100260999D01*
X108200000Y-100260999D01*
X108649972Y-100260999D01*
X108649986Y-100260998D01*
X108752697Y-100250505D01*
X108919119Y-100195358D01*
X108919124Y-100195356D01*
X109068345Y-100103315D01*
X109192315Y-99979345D01*
X109284356Y-99830124D01*
X109284358Y-99830119D01*
X109339505Y-99663697D01*
X109339506Y-99663690D01*
X109349999Y-99560986D01*
X109350000Y-99560973D01*
X109350000Y-99348500D01*
X108200000Y-99348500D01*
X108200000Y-100260999D01*
X107699999Y-100260999D01*
X107700000Y-100260998D01*
X107700000Y-99348500D01*
X106550001Y-99348500D01*
X106550001Y-99560986D01*
X105580133Y-99560986D01*
X105648548Y-99466820D01*
X105648547Y-99466820D01*
X105648551Y-99466816D01*
X105745057Y-99277412D01*
X105751612Y-99257240D01*
X105786423Y-99150101D01*
X105810746Y-99075243D01*
X105844000Y-98865287D01*
X105844000Y-98652713D01*
X105844000Y-98652712D01*
X105843618Y-98647862D01*
X105844691Y-98647777D01*
X105852982Y-98583608D01*
X105897976Y-98530155D01*
X105964727Y-98509513D01*
X105966502Y-98509500D01*
X106426000Y-98509500D01*
X106493039Y-98529185D01*
X106538794Y-98581989D01*
X106550000Y-98633500D01*
X106550000Y-98848500D01*
X109349999Y-98848500D01*
X109349999Y-98641500D01*
X109369684Y-98574461D01*
X109422488Y-98528706D01*
X109473999Y-98517500D01*
X111586903Y-98517500D01*
X111616343Y-98526144D01*
X111646330Y-98532668D01*
X111651345Y-98536422D01*
X111653942Y-98537185D01*
X111674584Y-98553819D01*
X111708139Y-98587374D01*
X111708149Y-98587385D01*
X111712479Y-98591715D01*
X111712480Y-98591716D01*
X111824284Y-98703520D01*
X111824286Y-98703521D01*
X111824287Y-98703522D01*
X111870928Y-98730450D01*
X111919143Y-98781016D01*
X111926634Y-98798832D01*
X111974186Y-98942334D01*
X112066288Y-99091656D01*
X112190344Y-99215712D01*
X112339666Y-99307814D01*
X112506203Y-99362999D01*
X112608991Y-99373500D01*
X113959008Y-99373499D01*
X114061797Y-99362999D01*
X114228334Y-99307814D01*
X114377656Y-99215712D01*
X114501712Y-99091656D01*
X114593814Y-98942334D01*
X114648999Y-98775797D01*
X114659500Y-98673009D01*
X114659499Y-97772992D01*
X114657519Y-97753613D01*
X114648999Y-97670203D01*
X114648998Y-97670200D01*
X114637603Y-97635813D01*
X114593814Y-97503666D01*
X114552444Y-97436594D01*
X114534005Y-97369204D01*
X114554928Y-97302541D01*
X114608570Y-97257771D01*
X114657984Y-97247500D01*
X115544321Y-97247500D01*
X115544337Y-97247501D01*
X115551933Y-97247501D01*
X115710044Y-97247501D01*
X115710047Y-97247501D01*
X115862775Y-97206577D01*
X115927503Y-97169206D01*
X115999706Y-97127520D01*
X116111510Y-97015716D01*
X116111510Y-97015714D01*
X116121711Y-97005514D01*
X116121714Y-97005509D01*
X116149415Y-96977808D01*
X116210737Y-96944326D01*
X116280429Y-96949312D01*
X116336361Y-96991184D01*
X116360777Y-97056649D01*
X116356169Y-97100088D01*
X116346802Y-97132326D01*
X116346801Y-97132332D01*
X116343900Y-97169198D01*
X116343900Y-97600601D01*
X116346801Y-97637467D01*
X116346802Y-97637473D01*
X116392654Y-97795293D01*
X116392655Y-97795296D01*
X116476317Y-97936762D01*
X116481102Y-97942931D01*
X116478656Y-97944827D01*
X116505257Y-97993542D01*
X116500273Y-98063234D01*
X116479469Y-98095603D01*
X116481102Y-98096869D01*
X116476319Y-98103035D01*
X116392655Y-98244503D01*
X116392654Y-98244506D01*
X116346802Y-98402326D01*
X116346801Y-98402332D01*
X116343900Y-98439198D01*
X116343900Y-98870601D01*
X116346801Y-98907467D01*
X116346802Y-98907473D01*
X116392654Y-99065293D01*
X116392655Y-99065296D01*
X116392656Y-99065298D01*
X116406427Y-99088583D01*
X116476317Y-99206762D01*
X116481102Y-99212931D01*
X116478656Y-99214827D01*
X116505257Y-99263542D01*
X116500273Y-99333234D01*
X116490460Y-99353631D01*
X116482593Y-99366760D01*
X116476319Y-99373035D01*
X116392656Y-99514502D01*
X116391320Y-99519099D01*
X116384770Y-99530032D01*
X116378312Y-99535992D01*
X116366102Y-99553962D01*
X116363901Y-99556164D01*
X116363881Y-99556184D01*
X115876881Y-100043183D01*
X115876875Y-100043191D01*
X115833072Y-100119062D01*
X115833072Y-100119063D01*
X115797823Y-100180116D01*
X115756899Y-100332844D01*
X115756899Y-100332846D01*
X115756899Y-100500947D01*
X115756900Y-100500960D01*
X115756900Y-100847072D01*
X115737215Y-100914111D01*
X115684411Y-100959866D01*
X115615253Y-100969810D01*
X115585448Y-100961633D01*
X115574901Y-100957264D01*
X115574889Y-100957261D01*
X115420245Y-100926500D01*
X115420242Y-100926500D01*
X115262558Y-100926500D01*
X115262555Y-100926500D01*
X115107910Y-100957261D01*
X115107903Y-100957263D01*
X115004239Y-101000201D01*
X114934770Y-101007669D01*
X114872291Y-100976393D01*
X114851250Y-100950736D01*
X114755713Y-100795848D01*
X114755710Y-100795844D01*
X114631655Y-100671789D01*
X114631651Y-100671786D01*
X114482337Y-100579687D01*
X114482335Y-100579686D01*
X114399065Y-100552093D01*
X114315797Y-100524501D01*
X114315795Y-100524500D01*
X114213015Y-100514000D01*
X114213008Y-100514000D01*
X112862992Y-100514000D01*
X112862984Y-100514000D01*
X112760204Y-100524500D01*
X112760203Y-100524501D01*
X112593664Y-100579686D01*
X112593662Y-100579687D01*
X112444348Y-100671786D01*
X112444344Y-100671789D01*
X112320289Y-100795844D01*
X112320286Y-100795848D01*
X112228187Y-100945162D01*
X112228186Y-100945164D01*
X112173001Y-101111703D01*
X112173000Y-101111704D01*
X112162500Y-101214484D01*
X112162500Y-102236923D01*
X112156564Y-102257138D01*
X112155436Y-102278177D01*
X112146917Y-102289989D01*
X112142815Y-102303962D01*
X112126893Y-102317758D01*
X112114569Y-102334849D01*
X112101015Y-102340181D01*
X112090011Y-102349717D01*
X112069159Y-102352715D01*
X112049551Y-102360430D01*
X112024753Y-102359100D01*
X112020853Y-102359661D01*
X112014307Y-102358540D01*
X111965148Y-102348761D01*
X111903238Y-102316375D01*
X111901660Y-102314825D01*
X111647819Y-102060984D01*
X111614334Y-101999661D01*
X111611500Y-101973303D01*
X111611500Y-101177997D01*
X111611499Y-101177984D01*
X111605810Y-101122301D01*
X111600999Y-101075203D01*
X111545814Y-100908666D01*
X111476226Y-100795848D01*
X111453713Y-100759348D01*
X111453710Y-100759344D01*
X111329655Y-100635289D01*
X111329651Y-100635286D01*
X111180337Y-100543187D01*
X111180335Y-100543186D01*
X111092257Y-100514000D01*
X111013797Y-100488001D01*
X111013795Y-100488000D01*
X110911015Y-100477500D01*
X110911008Y-100477500D01*
X109560992Y-100477500D01*
X109560984Y-100477500D01*
X109458204Y-100488000D01*
X109458203Y-100488001D01*
X109291664Y-100543186D01*
X109291662Y-100543187D01*
X109142348Y-100635286D01*
X109142344Y-100635289D01*
X109018289Y-100759344D01*
X109018286Y-100759348D01*
X108926187Y-100908662D01*
X108926186Y-100908664D01*
X108871001Y-101075203D01*
X108871000Y-101075204D01*
X108860500Y-101177984D01*
X108860500Y-102203015D01*
X108871000Y-102305795D01*
X108871001Y-102305797D01*
X108880628Y-102334849D01*
X108926186Y-102472335D01*
X108926187Y-102472337D01*
X109018286Y-102621651D01*
X109018289Y-102621655D01*
X109142344Y-102745710D01*
X109142348Y-102745713D01*
X109291662Y-102837812D01*
X109291664Y-102837813D01*
X109291666Y-102837814D01*
X109458203Y-102892999D01*
X109560992Y-102903500D01*
X110740503Y-102903500D01*
X110807542Y-102923185D01*
X110828184Y-102939819D01*
X111052425Y-103164060D01*
X111061487Y-103180655D01*
X111074619Y-103194265D01*
X111085025Y-103223762D01*
X111085910Y-103225383D01*
X111086361Y-103227549D01*
X111102930Y-103310844D01*
X111096703Y-103380436D01*
X111053840Y-103435613D01*
X110987951Y-103458858D01*
X110968712Y-103458394D01*
X110911020Y-103452500D01*
X110911008Y-103452500D01*
X109560992Y-103452500D01*
X109560984Y-103452500D01*
X109458204Y-103463000D01*
X109458203Y-103463001D01*
X109291664Y-103518186D01*
X109291662Y-103518187D01*
X109142348Y-103610286D01*
X109142344Y-103610289D01*
X109018289Y-103734344D01*
X109018286Y-103734348D01*
X108926190Y-103883657D01*
X108926185Y-103883668D01*
X108900062Y-103962504D01*
X108860289Y-104019949D01*
X108795773Y-104046772D01*
X108782356Y-104047500D01*
X107799984Y-104047500D01*
X107732945Y-104027815D01*
X107694445Y-103988596D01*
X107643712Y-103906344D01*
X107519657Y-103782289D01*
X107519656Y-103782288D01*
X107418431Y-103719852D01*
X107370336Y-103690187D01*
X107370331Y-103690185D01*
X107368862Y-103689698D01*
X107203797Y-103635001D01*
X107203795Y-103635000D01*
X107101010Y-103624500D01*
X105750998Y-103624500D01*
X105750981Y-103624501D01*
X105648203Y-103635000D01*
X105648200Y-103635001D01*
X105481668Y-103690185D01*
X105481663Y-103690187D01*
X105332342Y-103782289D01*
X105208289Y-103906342D01*
X105116187Y-104055663D01*
X105116185Y-104055668D01*
X105105903Y-104086697D01*
X105061001Y-104222203D01*
X105061001Y-104222204D01*
X105061000Y-104222204D01*
X105050500Y-104324983D01*
X105050500Y-105225001D01*
X105050501Y-105225019D01*
X105061000Y-105327796D01*
X105061001Y-105327799D01*
X105100612Y-105447334D01*
X105116186Y-105494334D01*
X105208288Y-105643656D01*
X105332344Y-105767712D01*
X105481666Y-105859814D01*
X105648203Y-105914999D01*
X105750991Y-105925500D01*
X107101008Y-105925499D01*
X107203797Y-105914999D01*
X107370334Y-105859814D01*
X107519656Y-105767712D01*
X107643712Y-105643656D01*
X107735814Y-105494334D01*
X107789111Y-105333494D01*
X107828883Y-105276051D01*
X107893398Y-105249228D01*
X107906816Y-105248500D01*
X108770758Y-105248500D01*
X108837797Y-105268185D01*
X108883552Y-105320989D01*
X108888464Y-105333496D01*
X108926186Y-105447335D01*
X108926187Y-105447337D01*
X109018286Y-105596651D01*
X109018289Y-105596655D01*
X109142344Y-105720710D01*
X109142348Y-105720713D01*
X109291662Y-105812812D01*
X109291664Y-105812813D01*
X109291666Y-105812814D01*
X109458203Y-105867999D01*
X109560992Y-105878500D01*
X109560997Y-105878500D01*
X110911003Y-105878500D01*
X110911008Y-105878500D01*
X111013797Y-105867999D01*
X111180334Y-105812814D01*
X111329655Y-105720711D01*
X111453711Y-105596655D01*
X111545814Y-105447334D01*
X111600999Y-105280797D01*
X111611500Y-105178008D01*
X111611500Y-104152992D01*
X111603299Y-104072718D01*
X111616068Y-104004027D01*
X111663948Y-103953142D01*
X111731738Y-103936221D01*
X111750841Y-103938499D01*
X111794777Y-103947238D01*
X111808157Y-103949900D01*
X111808158Y-103949900D01*
X111965843Y-103949900D01*
X111981231Y-103946838D01*
X112027893Y-103937557D01*
X112097483Y-103943784D01*
X112152661Y-103986646D01*
X112175906Y-104052535D01*
X112173339Y-104085121D01*
X112173001Y-104086697D01*
X112162500Y-104189484D01*
X112162500Y-105214515D01*
X112173000Y-105317295D01*
X112173001Y-105317297D01*
X112176481Y-105327799D01*
X112228186Y-105483835D01*
X112228187Y-105483837D01*
X112320286Y-105633151D01*
X112320289Y-105633155D01*
X112444344Y-105757210D01*
X112444348Y-105757213D01*
X112593662Y-105849312D01*
X112593663Y-105849312D01*
X112593666Y-105849314D01*
X112701003Y-105884882D01*
X112725504Y-105893001D01*
X112745536Y-105906871D01*
X112767703Y-105916994D01*
X112773751Y-105926406D01*
X112782949Y-105932774D01*
X112792302Y-105955272D01*
X112805477Y-105975772D01*
X112807935Y-105992873D01*
X112809772Y-105997290D01*
X112810500Y-106010707D01*
X112810500Y-106096799D01*
X112790815Y-106163838D01*
X112738011Y-106209593D01*
X112725504Y-106214505D01*
X112590668Y-106259185D01*
X112590663Y-106259187D01*
X112441342Y-106351289D01*
X112317289Y-106475342D01*
X112225187Y-106624663D01*
X112225185Y-106624668D01*
X112225115Y-106624880D01*
X112170001Y-106791203D01*
X112170001Y-106791204D01*
X112170000Y-106791204D01*
X112159500Y-106893983D01*
X112159500Y-108244001D01*
X112159501Y-108244018D01*
X112170000Y-108346796D01*
X112170001Y-108346799D01*
X112225185Y-108513331D01*
X112225187Y-108513336D01*
X112238230Y-108534482D01*
X112317288Y-108662656D01*
X112441344Y-108786712D01*
X112590666Y-108878814D01*
X112757203Y-108933999D01*
X112859991Y-108944500D01*
X113760008Y-108944499D01*
X113760016Y-108944498D01*
X113760019Y-108944498D01*
X113816302Y-108938748D01*
X113862797Y-108933999D01*
X114029334Y-108878814D01*
X114178656Y-108786712D01*
X114302712Y-108662656D01*
X114394814Y-108513334D01*
X114449999Y-108346797D01*
X114460500Y-108244009D01*
X114460499Y-106893992D01*
X114449999Y-106791203D01*
X114394814Y-106624666D01*
X114302712Y-106475344D01*
X114178656Y-106351288D01*
X114178652Y-106351285D01*
X114070403Y-106284516D01*
X114063580Y-106276930D01*
X114054297Y-106272691D01*
X114040608Y-106251390D01*
X114023678Y-106232568D01*
X114021033Y-106220931D01*
X114016523Y-106213913D01*
X114011500Y-106178978D01*
X114011500Y-106039000D01*
X114031185Y-105971961D01*
X114083989Y-105926206D01*
X114135500Y-105915000D01*
X114213003Y-105915000D01*
X114213008Y-105915000D01*
X114315797Y-105904499D01*
X114482334Y-105849314D01*
X114631655Y-105757211D01*
X114755711Y-105633155D01*
X114847814Y-105483834D01*
X114902999Y-105317297D01*
X114913500Y-105214508D01*
X114913500Y-104189492D01*
X114902999Y-104086703D01*
X114847814Y-103920166D01*
X114847179Y-103919137D01*
X114755713Y-103770848D01*
X114755710Y-103770844D01*
X114631655Y-103646789D01*
X114631651Y-103646786D01*
X114482337Y-103554687D01*
X114482335Y-103554686D01*
X114399065Y-103527093D01*
X114315797Y-103499501D01*
X114315795Y-103499500D01*
X114213015Y-103489000D01*
X114213008Y-103489000D01*
X112862992Y-103489000D01*
X112862982Y-103489000D01*
X112797877Y-103495652D01*
X112729184Y-103482883D01*
X112678300Y-103435002D01*
X112661379Y-103367212D01*
X112663658Y-103348102D01*
X112687500Y-103228244D01*
X112687500Y-103064466D01*
X112688925Y-103064466D01*
X112700605Y-103002851D01*
X112748666Y-102952136D01*
X112816515Y-102935456D01*
X112823581Y-102935973D01*
X112862992Y-102940000D01*
X112862997Y-102940000D01*
X114213003Y-102940000D01*
X114213008Y-102940000D01*
X114315797Y-102929499D01*
X114482334Y-102874314D01*
X114631655Y-102782211D01*
X114755711Y-102658155D01*
X114847814Y-102508834D01*
X114847815Y-102508829D01*
X114851249Y-102503263D01*
X114903197Y-102456539D01*
X114972160Y-102445316D01*
X115004240Y-102453799D01*
X115079316Y-102484896D01*
X115107903Y-102496737D01*
X115205589Y-102516168D01*
X115262553Y-102527499D01*
X115262556Y-102527500D01*
X115262558Y-102527500D01*
X115420244Y-102527500D01*
X115420245Y-102527499D01*
X115574897Y-102496737D01*
X115585445Y-102492367D01*
X115654911Y-102484896D01*
X115717392Y-102516168D01*
X115753047Y-102576256D01*
X115756900Y-102606927D01*
X115756900Y-110927899D01*
X115737215Y-110994938D01*
X115684411Y-111040693D01*
X115615253Y-111050637D01*
X115551697Y-111021612D01*
X115522416Y-110984195D01*
X115505426Y-110950852D01*
X115466070Y-110896682D01*
X115466069Y-110896682D01*
X114833762Y-111528990D01*
X114816725Y-111465407D01*
X114750899Y-111351393D01*
X114657807Y-111258301D01*
X114543793Y-111192475D01*
X114480209Y-111175437D01*
X115112516Y-110543128D01*
X115058350Y-110503775D01*
X114869017Y-110407304D01*
X114666929Y-110341642D01*
X114457046Y-110308400D01*
X114244554Y-110308400D01*
X114034672Y-110341642D01*
X114034669Y-110341642D01*
X113832582Y-110407304D01*
X113643239Y-110503780D01*
X113589082Y-110543127D01*
X113589082Y-110543128D01*
X114221391Y-111175437D01*
X114157807Y-111192475D01*
X114043793Y-111258301D01*
X113950701Y-111351393D01*
X113884875Y-111465407D01*
X113867837Y-111528991D01*
X113235528Y-110896682D01*
X113235527Y-110896682D01*
X113196180Y-110950839D01*
X113099704Y-111140182D01*
X113034042Y-111342269D01*
X113034042Y-111342272D01*
X113000800Y-111552153D01*
X113000800Y-111764646D01*
X113034042Y-111974527D01*
X113034042Y-111974530D01*
X113099704Y-112176617D01*
X113196175Y-112365950D01*
X113235528Y-112420116D01*
X113867837Y-111787808D01*
X113884875Y-111851393D01*
X113950701Y-111965407D01*
X114043793Y-112058499D01*
X114157807Y-112124325D01*
X114221390Y-112141362D01*
X113589082Y-112773669D01*
X113589082Y-112773670D01*
X113643252Y-112813026D01*
X113643251Y-112813026D01*
X113652295Y-112817634D01*
X113703092Y-112865608D01*
X113719887Y-112933429D01*
X113697350Y-112999564D01*
X113652299Y-113038602D01*
X113642982Y-113043349D01*
X113471013Y-113168290D01*
X113320690Y-113318613D01*
X113195751Y-113490579D01*
X113099244Y-113679985D01*
X113033553Y-113882160D01*
X113000300Y-114092113D01*
X113000300Y-114304686D01*
X113031234Y-114500000D01*
X113033554Y-114514643D01*
X113087855Y-114681765D01*
X113099244Y-114716814D01*
X113195751Y-114906220D01*
X113320690Y-115078186D01*
X113434230Y-115191726D01*
X113467715Y-115253049D01*
X113462731Y-115322741D01*
X113420859Y-115378674D01*
X113389883Y-115395589D01*
X113258469Y-115444603D01*
X113258464Y-115444606D01*
X113143255Y-115530852D01*
X113143252Y-115530855D01*
X113057006Y-115646064D01*
X113057002Y-115646071D01*
X113006708Y-115780917D01*
X113000301Y-115840516D01*
X113000300Y-115840535D01*
X113000300Y-117636270D01*
X113000301Y-117636276D01*
X113006708Y-117695883D01*
X113057002Y-117830728D01*
X113057006Y-117830735D01*
X113143252Y-117945944D01*
X113143255Y-117945947D01*
X113258464Y-118032193D01*
X113258471Y-118032197D01*
X113393317Y-118082491D01*
X113393316Y-118082491D01*
X113400244Y-118083235D01*
X113452927Y-118088900D01*
X115248672Y-118088899D01*
X115308283Y-118082491D01*
X115443131Y-118032196D01*
X115558346Y-117945946D01*
X115644596Y-117830731D01*
X115694891Y-117695883D01*
X115701300Y-117636273D01*
X115701299Y-117089353D01*
X118365200Y-117089353D01*
X118365200Y-117301846D01*
X118398442Y-117511727D01*
X118398442Y-117511730D01*
X118464104Y-117713817D01*
X118560575Y-117903150D01*
X118599928Y-117957316D01*
X119232237Y-117325008D01*
X119249275Y-117388593D01*
X119315101Y-117502607D01*
X119408193Y-117595699D01*
X119522207Y-117661525D01*
X119585790Y-117678562D01*
X118953482Y-118310869D01*
X118953482Y-118310870D01*
X119007649Y-118350224D01*
X119196982Y-118446695D01*
X119399070Y-118512357D01*
X119608954Y-118545600D01*
X119821446Y-118545600D01*
X120031327Y-118512357D01*
X120031330Y-118512357D01*
X120233417Y-118446695D01*
X120422754Y-118350222D01*
X120476916Y-118310870D01*
X120476917Y-118310870D01*
X119844608Y-117678562D01*
X119908193Y-117661525D01*
X120022207Y-117595699D01*
X120115299Y-117502607D01*
X120181125Y-117388593D01*
X120198162Y-117325008D01*
X120867556Y-117994403D01*
X120901041Y-118055726D01*
X120900126Y-118070431D01*
X120902697Y-118070155D01*
X120911601Y-118152973D01*
X120911603Y-118152980D01*
X120961845Y-118287686D01*
X120961849Y-118287693D01*
X121048009Y-118402787D01*
X121048012Y-118402790D01*
X121163106Y-118488950D01*
X121163113Y-118488954D01*
X121297820Y-118539196D01*
X121297827Y-118539198D01*
X121357355Y-118545599D01*
X121357372Y-118545600D01*
X122005200Y-118545600D01*
X122005200Y-117628612D01*
X122062207Y-117661525D01*
X122189374Y-117695600D01*
X122321026Y-117695600D01*
X122448193Y-117661525D01*
X122505200Y-117628612D01*
X122505200Y-118545600D01*
X123153028Y-118545600D01*
X123153044Y-118545599D01*
X123212572Y-118539198D01*
X123212579Y-118539196D01*
X123347286Y-118488954D01*
X123347293Y-118488950D01*
X123462387Y-118402790D01*
X123462390Y-118402787D01*
X123548550Y-118287693D01*
X123548554Y-118287686D01*
X123598796Y-118152979D01*
X123598798Y-118152972D01*
X123605199Y-118093444D01*
X123605200Y-118093427D01*
X123605200Y-117445600D01*
X122688212Y-117445600D01*
X122721125Y-117388593D01*
X122755200Y-117261426D01*
X122755200Y-117129774D01*
X122721125Y-117002607D01*
X122688212Y-116945600D01*
X123605200Y-116945600D01*
X123605200Y-116297772D01*
X123605199Y-116297755D01*
X123598798Y-116238227D01*
X123598796Y-116238220D01*
X123548554Y-116103513D01*
X123548550Y-116103506D01*
X123462390Y-115988412D01*
X123462387Y-115988409D01*
X123347293Y-115902249D01*
X123347286Y-115902245D01*
X123212579Y-115852003D01*
X123212572Y-115852001D01*
X123153044Y-115845600D01*
X122505200Y-115845600D01*
X122505200Y-116762588D01*
X122448193Y-116729675D01*
X122321026Y-116695600D01*
X122189374Y-116695600D01*
X122062207Y-116729675D01*
X122005200Y-116762588D01*
X122005200Y-115845600D01*
X121357355Y-115845600D01*
X121297827Y-115852001D01*
X121297820Y-115852003D01*
X121163113Y-115902245D01*
X121163106Y-115902249D01*
X121048012Y-115988409D01*
X121048009Y-115988412D01*
X120961849Y-116103506D01*
X120961845Y-116103513D01*
X120911603Y-116238219D01*
X120911601Y-116238226D01*
X120902697Y-116321044D01*
X120899634Y-116320714D01*
X120900536Y-116337694D01*
X120867556Y-116396795D01*
X120198162Y-117066190D01*
X120181125Y-117002607D01*
X120115299Y-116888593D01*
X120022207Y-116795501D01*
X119908193Y-116729675D01*
X119844609Y-116712637D01*
X120476916Y-116080328D01*
X120422750Y-116040975D01*
X120233417Y-115944504D01*
X120031329Y-115878842D01*
X119821446Y-115845600D01*
X119608954Y-115845600D01*
X119399072Y-115878842D01*
X119399069Y-115878842D01*
X119196982Y-115944504D01*
X119007639Y-116040980D01*
X118953482Y-116080327D01*
X118953482Y-116080328D01*
X119585791Y-116712637D01*
X119522207Y-116729675D01*
X119408193Y-116795501D01*
X119315101Y-116888593D01*
X119249275Y-117002607D01*
X119232237Y-117066191D01*
X118599928Y-116433882D01*
X118599927Y-116433882D01*
X118560580Y-116488039D01*
X118464104Y-116677382D01*
X118398442Y-116879469D01*
X118398442Y-116879472D01*
X118365200Y-117089353D01*
X115701299Y-117089353D01*
X115701299Y-116847295D01*
X115720984Y-116780257D01*
X115737613Y-116759620D01*
X118299920Y-114197316D01*
X118378977Y-114060384D01*
X118419901Y-113907657D01*
X118419901Y-113749542D01*
X118419901Y-113741947D01*
X118419900Y-113741929D01*
X118419900Y-108646497D01*
X118439585Y-108579458D01*
X118492389Y-108533703D01*
X118561547Y-108523759D01*
X118625103Y-108552784D01*
X118631581Y-108558816D01*
X119595641Y-109522876D01*
X119629126Y-109584199D01*
X119625892Y-109648873D01*
X119612153Y-109691157D01*
X119578900Y-109901113D01*
X119578900Y-110113686D01*
X119609739Y-110308400D01*
X119612154Y-110323643D01*
X119670684Y-110503780D01*
X119677844Y-110525814D01*
X119774351Y-110715220D01*
X119899290Y-110887186D01*
X120049613Y-111037509D01*
X120221579Y-111162448D01*
X120221581Y-111162449D01*
X120221584Y-111162451D01*
X120230893Y-111167194D01*
X120281690Y-111215166D01*
X120298487Y-111282987D01*
X120275952Y-111349122D01*
X120230905Y-111388160D01*
X120221846Y-111392776D01*
X120221840Y-111392780D01*
X120167682Y-111432127D01*
X120167682Y-111432128D01*
X120799991Y-112064437D01*
X120736407Y-112081475D01*
X120622393Y-112147301D01*
X120529301Y-112240393D01*
X120463475Y-112354407D01*
X120446437Y-112417991D01*
X119814128Y-111785682D01*
X119814127Y-111785682D01*
X119774780Y-111839839D01*
X119678304Y-112029182D01*
X119612642Y-112231269D01*
X119612642Y-112231272D01*
X119579400Y-112441153D01*
X119579400Y-112653646D01*
X119612642Y-112863527D01*
X119612642Y-112863530D01*
X119678304Y-113065617D01*
X119774775Y-113254950D01*
X119814128Y-113309116D01*
X120446437Y-112676808D01*
X120463475Y-112740393D01*
X120529301Y-112854407D01*
X120622393Y-112947499D01*
X120736407Y-113013325D01*
X120799990Y-113030362D01*
X120167682Y-113662669D01*
X120167682Y-113662670D01*
X120221849Y-113702024D01*
X120411182Y-113798495D01*
X120613270Y-113864157D01*
X120823154Y-113897400D01*
X121035646Y-113897400D01*
X121245527Y-113864157D01*
X121245530Y-113864157D01*
X121447617Y-113798495D01*
X121636954Y-113702022D01*
X121691116Y-113662670D01*
X121691117Y-113662670D01*
X121058808Y-113030362D01*
X121122393Y-113013325D01*
X121236407Y-112947499D01*
X121329499Y-112854407D01*
X121395325Y-112740393D01*
X121412362Y-112676808D01*
X122044670Y-113309117D01*
X122044670Y-113309116D01*
X122084022Y-113254954D01*
X122180495Y-113065617D01*
X122246157Y-112863530D01*
X122246157Y-112863527D01*
X122279400Y-112653646D01*
X122279400Y-112441153D01*
X122246157Y-112231272D01*
X122246157Y-112231269D01*
X122180495Y-112029182D01*
X122084024Y-111839849D01*
X122044670Y-111785682D01*
X122044669Y-111785682D01*
X121412362Y-112417990D01*
X121395325Y-112354407D01*
X121329499Y-112240393D01*
X121236407Y-112147301D01*
X121122393Y-112081475D01*
X121058809Y-112064437D01*
X121691116Y-111432128D01*
X121636947Y-111392773D01*
X121636947Y-111392772D01*
X121627900Y-111388163D01*
X121577106Y-111340188D01*
X121560312Y-111272366D01*
X121582851Y-111206232D01*
X121627908Y-111167193D01*
X121637216Y-111162451D01*
X121729063Y-111095721D01*
X121809186Y-111037509D01*
X121809188Y-111037506D01*
X121809192Y-111037504D01*
X121959504Y-110887192D01*
X121959506Y-110887188D01*
X121959509Y-110887186D01*
X122084448Y-110715220D01*
X122084447Y-110715220D01*
X122084451Y-110715216D01*
X122180957Y-110525812D01*
X122246646Y-110323643D01*
X122279900Y-110113687D01*
X122279900Y-109901113D01*
X122246646Y-109691157D01*
X122180957Y-109488988D01*
X122084451Y-109299584D01*
X122084449Y-109299581D01*
X122084448Y-109299579D01*
X121959509Y-109127613D01*
X121809186Y-108977290D01*
X121637220Y-108852351D01*
X121636515Y-108851991D01*
X121628454Y-108847885D01*
X121577659Y-108799912D01*
X121560863Y-108732092D01*
X121583399Y-108665956D01*
X121628454Y-108626915D01*
X121637216Y-108622451D01*
X121724803Y-108558816D01*
X121809186Y-108497509D01*
X121809188Y-108497506D01*
X121809192Y-108497504D01*
X121959504Y-108347192D01*
X121959506Y-108347188D01*
X121959509Y-108347186D01*
X122084448Y-108175220D01*
X122084447Y-108175220D01*
X122084451Y-108175216D01*
X122180957Y-107985812D01*
X122246646Y-107783643D01*
X122279900Y-107573687D01*
X122279900Y-107361113D01*
X122246646Y-107151157D01*
X122180957Y-106948988D01*
X122084451Y-106759584D01*
X122084449Y-106759581D01*
X122084448Y-106759579D01*
X121959509Y-106587613D01*
X121845969Y-106474073D01*
X121812484Y-106412750D01*
X121817468Y-106343058D01*
X121859340Y-106287125D01*
X121890315Y-106270210D01*
X122021731Y-106221196D01*
X122136946Y-106134946D01*
X122223196Y-106019731D01*
X122273491Y-105884883D01*
X122279900Y-105825273D01*
X122279899Y-104029528D01*
X122273491Y-103969917D01*
X122267234Y-103953142D01*
X122223197Y-103835071D01*
X122223193Y-103835064D01*
X122136947Y-103719855D01*
X122136944Y-103719852D01*
X122021735Y-103633606D01*
X122021728Y-103633602D01*
X121886882Y-103583308D01*
X121886883Y-103583308D01*
X121827283Y-103576901D01*
X121827281Y-103576900D01*
X121827273Y-103576900D01*
X121827265Y-103576900D01*
X121679300Y-103576900D01*
X121612261Y-103557215D01*
X121566506Y-103504411D01*
X121555300Y-103452900D01*
X121555300Y-102074405D01*
X121574985Y-102007366D01*
X121627789Y-101961611D01*
X121696947Y-101951667D01*
X121713895Y-101955329D01*
X121841826Y-101992497D01*
X121841829Y-101992497D01*
X121841831Y-101992498D01*
X121878706Y-101995400D01*
X122044900Y-101995400D01*
X122053585Y-101997950D01*
X122062547Y-101996662D01*
X122086587Y-102007640D01*
X122111939Y-102015085D01*
X122117866Y-102021925D01*
X122126103Y-102025687D01*
X122140392Y-102047921D01*
X122157694Y-102067889D01*
X122159981Y-102078403D01*
X122163877Y-102084465D01*
X122168900Y-102119400D01*
X122168900Y-102209886D01*
X122149215Y-102276925D01*
X122148002Y-102278777D01*
X122074209Y-102389214D01*
X122074202Y-102389227D01*
X122013864Y-102534898D01*
X122013861Y-102534910D01*
X121983100Y-102689553D01*
X121983100Y-102847246D01*
X122013861Y-103001889D01*
X122013864Y-103001901D01*
X122074202Y-103147572D01*
X122074209Y-103147585D01*
X122161810Y-103278688D01*
X122161813Y-103278692D01*
X122273307Y-103390186D01*
X122273311Y-103390189D01*
X122404414Y-103477790D01*
X122404427Y-103477797D01*
X122550098Y-103538135D01*
X122550103Y-103538137D01*
X122653676Y-103558739D01*
X122704753Y-103568899D01*
X122704756Y-103568900D01*
X122704758Y-103568900D01*
X122862444Y-103568900D01*
X122862445Y-103568899D01*
X123017097Y-103538137D01*
X123162779Y-103477794D01*
X123293889Y-103390189D01*
X123405389Y-103278689D01*
X123492994Y-103147579D01*
X123553337Y-103001897D01*
X123584100Y-102847242D01*
X123584100Y-102689558D01*
X123584100Y-102689555D01*
X123584099Y-102689553D01*
X123577854Y-102658156D01*
X123553337Y-102534903D01*
X123542539Y-102508834D01*
X123492997Y-102389227D01*
X123492990Y-102389214D01*
X123405389Y-102258111D01*
X123401524Y-102253401D01*
X123402677Y-102252454D01*
X123391515Y-102232012D01*
X123374923Y-102206194D01*
X123374031Y-102199993D01*
X123372734Y-102197617D01*
X123369900Y-102171259D01*
X123369900Y-102119400D01*
X123389585Y-102052361D01*
X123442389Y-102006606D01*
X123493900Y-101995400D01*
X123660086Y-101995400D01*
X123660094Y-101995400D01*
X123696969Y-101992498D01*
X123696971Y-101992497D01*
X123696973Y-101992497D01*
X123763038Y-101973303D01*
X123854798Y-101946644D01*
X123996265Y-101862981D01*
X124112481Y-101746765D01*
X124178937Y-101634392D01*
X124230006Y-101586710D01*
X124298747Y-101574206D01*
X124354560Y-101594412D01*
X124360215Y-101598190D01*
X124360221Y-101598194D01*
X124360223Y-101598195D01*
X124360227Y-101598197D01*
X124505898Y-101658535D01*
X124505903Y-101658537D01*
X124660553Y-101689299D01*
X124660556Y-101689300D01*
X124660558Y-101689300D01*
X124818244Y-101689300D01*
X124818245Y-101689299D01*
X124972897Y-101658537D01*
X125101428Y-101605298D01*
X125118572Y-101598197D01*
X125118572Y-101598196D01*
X125118579Y-101598194D01*
X125249689Y-101510589D01*
X125361189Y-101399089D01*
X125448794Y-101267979D01*
X125509137Y-101122297D01*
X125533217Y-101001240D01*
X125565602Y-100939329D01*
X125626317Y-100904755D01*
X125696087Y-100908494D01*
X125742515Y-100937750D01*
X126566381Y-101761616D01*
X126599866Y-101822939D01*
X126602700Y-101849297D01*
X126602700Y-102579608D01*
X126583015Y-102646647D01*
X126543797Y-102685146D01*
X126425959Y-102757829D01*
X126425955Y-102757832D01*
X126306032Y-102877755D01*
X126306029Y-102877759D01*
X126217001Y-103022094D01*
X126216998Y-103022100D01*
X126216997Y-103022103D01*
X126199376Y-103075280D01*
X126163651Y-103183090D01*
X126153500Y-103282447D01*
X126153500Y-103603302D01*
X126133815Y-103670341D01*
X126117181Y-103690983D01*
X125554281Y-104253882D01*
X125554277Y-104253887D01*
X125530395Y-104295255D01*
X125530394Y-104295257D01*
X125513232Y-104324983D01*
X125475223Y-104390814D01*
X125475223Y-104390815D01*
X125434299Y-104543543D01*
X125434299Y-104543545D01*
X125434299Y-104711646D01*
X125434300Y-104711659D01*
X125434300Y-108875045D01*
X125414615Y-108942084D01*
X125361811Y-108987839D01*
X125353639Y-108991225D01*
X125348865Y-108993005D01*
X125233655Y-109079252D01*
X125233652Y-109079255D01*
X125147406Y-109194464D01*
X125147402Y-109194471D01*
X125097108Y-109329317D01*
X125090701Y-109388916D01*
X125090700Y-109388935D01*
X125090700Y-111184670D01*
X125090701Y-111184676D01*
X125097108Y-111244283D01*
X125147402Y-111379128D01*
X125147406Y-111379135D01*
X125233652Y-111494344D01*
X125233655Y-111494347D01*
X125348864Y-111580593D01*
X125348871Y-111580597D01*
X125480282Y-111629610D01*
X125536216Y-111671481D01*
X125560633Y-111736945D01*
X125545782Y-111805218D01*
X125524631Y-111833473D01*
X125411089Y-111947015D01*
X125286151Y-112118979D01*
X125189644Y-112308385D01*
X125123953Y-112510560D01*
X125101291Y-112653646D01*
X125090700Y-112720513D01*
X125090700Y-112933087D01*
X125092879Y-112946843D01*
X125122134Y-113131557D01*
X125123954Y-113143043D01*
X125181000Y-113318613D01*
X125189644Y-113345214D01*
X125286151Y-113534620D01*
X125411090Y-113706586D01*
X125561413Y-113856909D01*
X125733382Y-113981850D01*
X125742146Y-113986316D01*
X125792942Y-114034291D01*
X125809736Y-114102112D01*
X125787198Y-114168247D01*
X125742146Y-114207284D01*
X125733382Y-114211749D01*
X125561413Y-114336690D01*
X125411090Y-114487013D01*
X125286151Y-114658979D01*
X125189644Y-114848385D01*
X125123953Y-115050560D01*
X125090700Y-115260513D01*
X125090700Y-115473086D01*
X125123935Y-115682927D01*
X125123954Y-115683043D01*
X125187573Y-115878842D01*
X125189644Y-115885214D01*
X125286151Y-116074620D01*
X125411090Y-116246586D01*
X125561413Y-116396909D01*
X125733379Y-116521848D01*
X125733381Y-116521849D01*
X125733384Y-116521851D01*
X125922788Y-116618357D01*
X126124957Y-116684046D01*
X126334913Y-116717300D01*
X126334914Y-116717300D01*
X126547486Y-116717300D01*
X126547487Y-116717300D01*
X126757443Y-116684046D01*
X126959612Y-116618357D01*
X127149016Y-116521851D01*
X127270096Y-116433882D01*
X127320986Y-116396909D01*
X127320988Y-116396906D01*
X127320992Y-116396904D01*
X127471304Y-116246592D01*
X127471306Y-116246588D01*
X127471309Y-116246586D01*
X127557090Y-116128517D01*
X127596251Y-116074616D01*
X127600993Y-116065308D01*
X127648963Y-116014511D01*
X127716783Y-115997711D01*
X127782919Y-116020245D01*
X127821963Y-116065300D01*
X127826573Y-116074347D01*
X127865928Y-116128516D01*
X128498237Y-115496208D01*
X128515275Y-115559793D01*
X128581101Y-115673807D01*
X128674193Y-115766899D01*
X128788207Y-115832725D01*
X128851790Y-115849762D01*
X128219482Y-116482069D01*
X128219482Y-116482070D01*
X128273649Y-116521424D01*
X128462982Y-116617895D01*
X128665070Y-116683557D01*
X128874954Y-116716800D01*
X129087446Y-116716800D01*
X129297327Y-116683557D01*
X129297330Y-116683557D01*
X129499417Y-116617895D01*
X129688754Y-116521422D01*
X129742916Y-116482070D01*
X129742917Y-116482070D01*
X129110608Y-115849762D01*
X129174193Y-115832725D01*
X129288207Y-115766899D01*
X129381299Y-115673807D01*
X129447125Y-115559793D01*
X129464162Y-115496208D01*
X130096470Y-116128517D01*
X130096470Y-116128516D01*
X130135822Y-116074354D01*
X130232295Y-115885017D01*
X130297957Y-115682930D01*
X130297957Y-115682927D01*
X130331200Y-115473046D01*
X130331200Y-115260553D01*
X130297957Y-115050672D01*
X130297957Y-115050669D01*
X130232295Y-114848582D01*
X130135824Y-114659249D01*
X130096470Y-114605082D01*
X130096469Y-114605082D01*
X129464162Y-115237390D01*
X129447125Y-115173807D01*
X129381299Y-115059793D01*
X129288207Y-114966701D01*
X129174193Y-114900875D01*
X129110609Y-114883837D01*
X129742916Y-114251528D01*
X129688747Y-114212173D01*
X129688747Y-114212172D01*
X129679700Y-114207563D01*
X129628906Y-114159588D01*
X129612112Y-114091766D01*
X129634651Y-114025632D01*
X129679708Y-113986593D01*
X129689016Y-113981851D01*
X129826230Y-113882160D01*
X129860986Y-113856909D01*
X129860988Y-113856906D01*
X129860992Y-113856904D01*
X130011304Y-113706592D01*
X130011306Y-113706588D01*
X130011309Y-113706586D01*
X130136248Y-113534620D01*
X130136247Y-113534620D01*
X130136251Y-113534616D01*
X130232757Y-113345212D01*
X130298446Y-113143043D01*
X130331700Y-112933087D01*
X130331700Y-112720513D01*
X130298446Y-112510557D01*
X130232757Y-112308388D01*
X130136251Y-112118984D01*
X130136249Y-112118981D01*
X130136248Y-112118979D01*
X130011309Y-111947013D01*
X129860986Y-111796690D01*
X129689020Y-111671751D01*
X129688315Y-111671391D01*
X129680254Y-111667285D01*
X129629459Y-111619312D01*
X129612663Y-111551492D01*
X129635199Y-111485356D01*
X129680254Y-111446315D01*
X129689016Y-111441851D01*
X129756557Y-111392780D01*
X129860986Y-111316909D01*
X129860988Y-111316906D01*
X129860992Y-111316904D01*
X130011304Y-111166592D01*
X130011306Y-111166588D01*
X130011309Y-111166586D01*
X130136248Y-110994620D01*
X130136247Y-110994620D01*
X130136251Y-110994616D01*
X130232757Y-110805212D01*
X130298446Y-110603043D01*
X130331700Y-110393087D01*
X130331700Y-110180513D01*
X130298446Y-109970557D01*
X130232757Y-109768388D01*
X130136251Y-109578984D01*
X130136249Y-109578981D01*
X130136248Y-109578979D01*
X130011309Y-109407013D01*
X129860986Y-109256690D01*
X129689020Y-109131751D01*
X129499614Y-109035244D01*
X129499613Y-109035243D01*
X129499612Y-109035243D01*
X129297443Y-108969554D01*
X129297441Y-108969553D01*
X129297440Y-108969553D01*
X129136090Y-108943998D01*
X129087487Y-108936300D01*
X128874913Y-108936300D01*
X128826310Y-108943998D01*
X128664960Y-108969553D01*
X128462785Y-109035244D01*
X128273379Y-109131751D01*
X128101415Y-109256689D01*
X127987873Y-109370231D01*
X127926550Y-109403715D01*
X127856858Y-109398731D01*
X127800925Y-109356859D01*
X127784010Y-109325882D01*
X127734997Y-109194471D01*
X127734993Y-109194464D01*
X127648747Y-109079255D01*
X127648744Y-109079252D01*
X127533535Y-108993006D01*
X127533528Y-108993002D01*
X127398682Y-108942708D01*
X127398683Y-108942708D01*
X127339083Y-108936301D01*
X127339081Y-108936300D01*
X127339073Y-108936300D01*
X127339065Y-108936300D01*
X126759300Y-108936300D01*
X126692261Y-108916615D01*
X126646506Y-108863811D01*
X126635300Y-108812300D01*
X126635300Y-107923655D01*
X126654985Y-107856616D01*
X126707789Y-107810861D01*
X126771900Y-107800297D01*
X126830655Y-107806300D01*
X127677344Y-107806299D01*
X127677352Y-107806298D01*
X127677355Y-107806298D01*
X127736101Y-107800297D01*
X127776708Y-107796149D01*
X127937697Y-107742803D01*
X128082044Y-107653768D01*
X128201968Y-107533844D01*
X128269087Y-107425028D01*
X128274901Y-107415603D01*
X128326849Y-107368878D01*
X128380439Y-107356700D01*
X132115081Y-107356700D01*
X132182120Y-107376385D01*
X132225565Y-107424405D01*
X132245747Y-107464014D01*
X132245748Y-107464015D01*
X132370690Y-107635986D01*
X132521013Y-107786309D01*
X132692979Y-107911248D01*
X132692981Y-107911249D01*
X132692984Y-107911251D01*
X132702293Y-107915994D01*
X132753090Y-107963966D01*
X132769887Y-108031787D01*
X132747352Y-108097922D01*
X132702305Y-108136960D01*
X132693246Y-108141576D01*
X132693240Y-108141580D01*
X132639082Y-108180927D01*
X132639082Y-108180928D01*
X133271391Y-108813237D01*
X133207807Y-108830275D01*
X133093793Y-108896101D01*
X133000701Y-108989193D01*
X132934875Y-109103207D01*
X132917837Y-109166791D01*
X132285528Y-108534482D01*
X132285527Y-108534482D01*
X132246180Y-108588639D01*
X132149704Y-108777982D01*
X132084042Y-108980069D01*
X132084042Y-108980072D01*
X132050800Y-109189953D01*
X132050800Y-109402446D01*
X132084042Y-109612327D01*
X132084042Y-109612330D01*
X132149704Y-109814417D01*
X132246175Y-110003750D01*
X132285528Y-110057916D01*
X132917837Y-109425608D01*
X132934875Y-109489193D01*
X133000701Y-109603207D01*
X133093793Y-109696299D01*
X133207807Y-109762125D01*
X133271390Y-109779162D01*
X132639082Y-110411469D01*
X132639082Y-110411470D01*
X132693249Y-110450824D01*
X132882582Y-110547295D01*
X133084670Y-110612957D01*
X133294554Y-110646200D01*
X133507046Y-110646200D01*
X133716927Y-110612957D01*
X133716930Y-110612957D01*
X133919017Y-110547295D01*
X134108354Y-110450822D01*
X134162516Y-110411470D01*
X134162517Y-110411470D01*
X133530208Y-109779162D01*
X133593793Y-109762125D01*
X133707807Y-109696299D01*
X133800899Y-109603207D01*
X133866725Y-109489193D01*
X133883762Y-109425608D01*
X134516070Y-110057917D01*
X134516070Y-110057916D01*
X134555422Y-110003754D01*
X134651895Y-109814417D01*
X134717557Y-109612330D01*
X134717557Y-109612327D01*
X134750800Y-109402446D01*
X134750800Y-109189953D01*
X134717557Y-108980072D01*
X134717557Y-108980069D01*
X134651895Y-108777982D01*
X134555424Y-108588649D01*
X134516070Y-108534482D01*
X134516069Y-108534482D01*
X133883762Y-109166790D01*
X133866725Y-109103207D01*
X133800899Y-108989193D01*
X133707807Y-108896101D01*
X133593793Y-108830275D01*
X133530209Y-108813237D01*
X134162516Y-108180928D01*
X134108347Y-108141573D01*
X134108347Y-108141572D01*
X134099300Y-108136963D01*
X134048506Y-108088988D01*
X134031712Y-108021166D01*
X134054251Y-107955032D01*
X134099308Y-107915993D01*
X134108616Y-107911251D01*
X134235590Y-107819000D01*
X134280586Y-107786309D01*
X134280588Y-107786306D01*
X134280592Y-107786304D01*
X134430904Y-107635992D01*
X134430906Y-107635988D01*
X134430909Y-107635986D01*
X134555848Y-107464020D01*
X134555847Y-107464020D01*
X134555851Y-107464016D01*
X134652357Y-107274612D01*
X134718046Y-107072443D01*
X134751300Y-106862487D01*
X134751300Y-106649913D01*
X134718046Y-106439957D01*
X134652357Y-106237788D01*
X134555851Y-106048384D01*
X134555849Y-106048381D01*
X134555848Y-106048379D01*
X134430909Y-105876413D01*
X134317369Y-105762873D01*
X134283884Y-105701550D01*
X134288868Y-105631858D01*
X134330740Y-105575925D01*
X134361715Y-105559010D01*
X134493131Y-105509996D01*
X134608346Y-105423746D01*
X134694596Y-105308531D01*
X134744891Y-105173683D01*
X134751300Y-105114073D01*
X134751299Y-103318328D01*
X134744891Y-103258717D01*
X134733525Y-103228244D01*
X134694597Y-103123871D01*
X134694593Y-103123864D01*
X134608347Y-103008655D01*
X134608344Y-103008652D01*
X134493135Y-102922406D01*
X134493128Y-102922402D01*
X134358282Y-102872108D01*
X134358283Y-102872108D01*
X134298683Y-102865701D01*
X134298681Y-102865700D01*
X134298673Y-102865700D01*
X134298664Y-102865700D01*
X132502929Y-102865700D01*
X132502923Y-102865701D01*
X132443316Y-102872108D01*
X132308471Y-102922402D01*
X132308464Y-102922406D01*
X132193255Y-103008652D01*
X132193252Y-103008655D01*
X132107006Y-103123864D01*
X132107002Y-103123871D01*
X132056708Y-103258717D01*
X132050301Y-103318316D01*
X132050301Y-103318323D01*
X132050300Y-103318335D01*
X132050300Y-103491700D01*
X132030615Y-103558739D01*
X131977811Y-103604494D01*
X131926300Y-103615700D01*
X130475098Y-103615700D01*
X130408059Y-103596015D01*
X130387417Y-103579381D01*
X130002190Y-103194155D01*
X130002188Y-103194152D01*
X129883317Y-103075281D01*
X129883316Y-103075280D01*
X129791210Y-103022103D01*
X129791209Y-103022102D01*
X129746390Y-102996225D01*
X129746387Y-102996223D01*
X129685293Y-102979853D01*
X129593657Y-102955299D01*
X129435543Y-102955299D01*
X129427947Y-102955299D01*
X129427931Y-102955300D01*
X128319004Y-102955300D01*
X128251965Y-102935615D01*
X128213465Y-102896396D01*
X128210705Y-102891922D01*
X128201968Y-102877756D01*
X128082044Y-102757832D01*
X128082040Y-102757829D01*
X127937705Y-102668801D01*
X127937699Y-102668798D01*
X127937697Y-102668797D01*
X127888695Y-102652559D01*
X127831251Y-102612787D01*
X127804428Y-102548271D01*
X127803700Y-102534854D01*
X127803700Y-101470143D01*
X127803699Y-101470139D01*
X127789963Y-101418874D01*
X127789963Y-101418873D01*
X127762777Y-101317415D01*
X127721822Y-101246480D01*
X127683720Y-101180484D01*
X127580422Y-101077186D01*
X127580422Y-101077185D01*
X127567581Y-101064346D01*
X127567580Y-101064344D01*
X127567574Y-101064339D01*
X124796490Y-98293255D01*
X124796488Y-98293252D01*
X124677615Y-98174379D01*
X124674491Y-98172576D01*
X124674488Y-98172574D01*
X124554042Y-98103035D01*
X124554040Y-98103034D01*
X124540685Y-98095323D01*
X124439589Y-98068234D01*
X127872000Y-98068234D01*
X127872000Y-98431765D01*
X127907632Y-98793556D01*
X127978550Y-99150090D01*
X127978553Y-99150101D01*
X128084086Y-99497997D01*
X128223207Y-99833864D01*
X128223209Y-99833869D01*
X128394570Y-100154462D01*
X128394581Y-100154480D01*
X128596551Y-100456750D01*
X128783678Y-100684765D01*
X128783679Y-100684766D01*
X130277747Y-99190697D01*
X130351588Y-99292330D01*
X130529670Y-99470412D01*
X130631301Y-99544251D01*
X129137232Y-101038319D01*
X129137233Y-101038320D01*
X129365249Y-101225448D01*
X129667519Y-101427418D01*
X129667537Y-101427429D01*
X129988130Y-101598790D01*
X129988135Y-101598792D01*
X130324002Y-101737913D01*
X130671898Y-101843446D01*
X130671909Y-101843449D01*
X131028443Y-101914367D01*
X131390234Y-101950000D01*
X131753766Y-101950000D01*
X132115556Y-101914367D01*
X132472090Y-101843449D01*
X132472101Y-101843446D01*
X132819997Y-101737913D01*
X133155864Y-101598792D01*
X133155869Y-101598790D01*
X133476462Y-101427429D01*
X133476480Y-101427418D01*
X133778736Y-101225457D01*
X133778750Y-101225447D01*
X134006765Y-101038320D01*
X134006766Y-101038319D01*
X132512698Y-99544251D01*
X132614330Y-99470412D01*
X132792412Y-99292330D01*
X132866251Y-99190698D01*
X134360319Y-100684766D01*
X134360320Y-100684765D01*
X134547447Y-100456750D01*
X134547457Y-100456736D01*
X134749418Y-100154480D01*
X134749429Y-100154462D01*
X134920790Y-99833869D01*
X134920792Y-99833864D01*
X135059913Y-99497997D01*
X135165446Y-99150101D01*
X135165449Y-99150090D01*
X135236367Y-98793556D01*
X135272000Y-98431765D01*
X135272000Y-98068234D01*
X135236367Y-97706443D01*
X135165449Y-97349909D01*
X135165446Y-97349898D01*
X135059913Y-97002002D01*
X134920792Y-96666135D01*
X134920790Y-96666130D01*
X134749429Y-96345537D01*
X134749418Y-96345519D01*
X134547448Y-96043249D01*
X134360320Y-95815233D01*
X134360319Y-95815232D01*
X132866251Y-97309300D01*
X132792412Y-97207670D01*
X132614330Y-97029588D01*
X132512698Y-96955748D01*
X134006766Y-95461679D01*
X134006765Y-95461678D01*
X133778750Y-95274551D01*
X133476480Y-95072581D01*
X133476462Y-95072570D01*
X133155869Y-94901209D01*
X133155864Y-94901207D01*
X132819997Y-94762086D01*
X132472101Y-94656553D01*
X132472090Y-94656550D01*
X132115556Y-94585632D01*
X131753766Y-94550000D01*
X131390234Y-94550000D01*
X131028443Y-94585632D01*
X130671909Y-94656550D01*
X130671898Y-94656553D01*
X130324002Y-94762086D01*
X129988135Y-94901207D01*
X129988130Y-94901209D01*
X129667537Y-95072570D01*
X129667519Y-95072581D01*
X129365258Y-95274545D01*
X129365254Y-95274548D01*
X129137233Y-95461679D01*
X129137233Y-95461680D01*
X130631301Y-96955748D01*
X130529670Y-97029588D01*
X130351588Y-97207670D01*
X130277748Y-97309301D01*
X128783680Y-95815233D01*
X128783679Y-95815233D01*
X128596548Y-96043254D01*
X128596545Y-96043258D01*
X128394581Y-96345519D01*
X128394570Y-96345537D01*
X128223209Y-96666130D01*
X128223207Y-96666135D01*
X128084086Y-97002002D01*
X127978553Y-97349898D01*
X127978550Y-97349909D01*
X127907632Y-97706443D01*
X127872000Y-98068234D01*
X124439589Y-98068234D01*
X124392312Y-98055566D01*
X124387127Y-98052405D01*
X124381074Y-98051973D01*
X124357645Y-98034434D01*
X124332652Y-98019200D01*
X124329999Y-98013739D01*
X124325140Y-98010102D01*
X124314911Y-97982678D01*
X124302123Y-97956353D01*
X124302843Y-97950326D01*
X124300722Y-97944638D01*
X124306943Y-97916036D01*
X124310418Y-97886978D01*
X124314612Y-97880780D01*
X124315573Y-97876365D01*
X124336719Y-97848116D01*
X124431220Y-97753616D01*
X124431221Y-97753613D01*
X128196706Y-93988128D01*
X128196711Y-93988124D01*
X128206914Y-93977920D01*
X128206916Y-93977920D01*
X128318720Y-93866116D01*
X128378055Y-93763344D01*
X128397777Y-93729185D01*
X128438700Y-93576458D01*
X128438700Y-93418343D01*
X128438700Y-82576700D01*
X128438701Y-82576687D01*
X128438701Y-82408584D01*
X128429613Y-82374668D01*
X128397777Y-82255856D01*
X128355001Y-82181765D01*
X128318724Y-82118930D01*
X128318718Y-82118922D01*
X126362418Y-80162623D01*
X126328933Y-80101300D01*
X126333917Y-80031608D01*
X126349782Y-80002055D01*
X126402022Y-79930155D01*
X126498495Y-79740817D01*
X126564157Y-79538730D01*
X126564157Y-79538727D01*
X126597400Y-79328846D01*
X126597400Y-79116353D01*
X126564157Y-78906472D01*
X126564157Y-78906469D01*
X126498495Y-78704382D01*
X126402024Y-78515049D01*
X126362670Y-78460882D01*
X126362669Y-78460882D01*
X125730362Y-79093189D01*
X125713325Y-79029607D01*
X125647499Y-78915593D01*
X125554407Y-78822501D01*
X125440393Y-78756675D01*
X125376809Y-78739637D01*
X126009116Y-78107328D01*
X125954950Y-78067975D01*
X125765617Y-77971504D01*
X125563529Y-77905842D01*
X125353646Y-77872600D01*
X125141154Y-77872600D01*
X124931272Y-77905842D01*
X124931269Y-77905842D01*
X124729182Y-77971504D01*
X124539839Y-78067980D01*
X124485682Y-78107327D01*
X124485682Y-78107328D01*
X125117991Y-78739637D01*
X125054407Y-78756675D01*
X124940393Y-78822501D01*
X124847301Y-78915593D01*
X124781475Y-79029607D01*
X124764437Y-79093191D01*
X124132128Y-78460882D01*
X124132127Y-78460882D01*
X124092780Y-78515040D01*
X124092776Y-78515046D01*
X124088160Y-78524105D01*
X124040181Y-78574897D01*
X123972359Y-78591687D01*
X123906226Y-78569143D01*
X123867194Y-78524093D01*
X123862451Y-78514784D01*
X123862449Y-78514781D01*
X123862448Y-78514779D01*
X123737509Y-78342813D01*
X123587186Y-78192490D01*
X123415220Y-78067551D01*
X123225814Y-77971044D01*
X123225813Y-77971043D01*
X123225812Y-77971043D01*
X123023643Y-77905354D01*
X123023641Y-77905353D01*
X123023640Y-77905353D01*
X122862357Y-77879808D01*
X122813687Y-77872100D01*
X122601113Y-77872100D01*
X122552442Y-77879808D01*
X122391160Y-77905353D01*
X122188985Y-77971044D01*
X121999579Y-78067551D01*
X121827613Y-78192490D01*
X121677290Y-78342813D01*
X121552349Y-78514782D01*
X121547602Y-78524099D01*
X121499627Y-78574893D01*
X121431805Y-78591687D01*
X121365671Y-78569148D01*
X121326634Y-78524095D01*
X121322026Y-78515052D01*
X121282670Y-78460882D01*
X121282669Y-78460882D01*
X120650362Y-79093190D01*
X120633325Y-79029607D01*
X120567499Y-78915593D01*
X120474407Y-78822501D01*
X120360393Y-78756675D01*
X120296809Y-78739637D01*
X120929116Y-78107328D01*
X120874950Y-78067975D01*
X120685617Y-77971504D01*
X120483529Y-77905842D01*
X120273646Y-77872600D01*
X120061154Y-77872600D01*
X119851272Y-77905842D01*
X119851269Y-77905842D01*
X119649182Y-77971504D01*
X119459839Y-78067980D01*
X119405682Y-78107327D01*
X119405682Y-78107328D01*
X120037991Y-78739637D01*
X119974407Y-78756675D01*
X119860393Y-78822501D01*
X119767301Y-78915593D01*
X119701475Y-79029607D01*
X119684437Y-79093191D01*
X119052128Y-78460882D01*
X119052127Y-78460882D01*
X119012780Y-78515040D01*
X119012776Y-78515046D01*
X119008160Y-78524105D01*
X118960181Y-78574897D01*
X118892359Y-78591687D01*
X118826226Y-78569143D01*
X118787194Y-78524093D01*
X118782451Y-78514784D01*
X118782449Y-78514781D01*
X118782448Y-78514779D01*
X118657509Y-78342813D01*
X118507186Y-78192490D01*
X118335220Y-78067551D01*
X118145814Y-77971044D01*
X118145813Y-77971043D01*
X118145812Y-77971043D01*
X117943643Y-77905354D01*
X117943641Y-77905353D01*
X117943640Y-77905353D01*
X117782357Y-77879808D01*
X117733687Y-77872100D01*
X117521113Y-77872100D01*
X117472442Y-77879808D01*
X117311160Y-77905353D01*
X117108985Y-77971044D01*
X116919579Y-78067551D01*
X116747613Y-78192490D01*
X116597290Y-78342813D01*
X116472351Y-78514779D01*
X116375844Y-78704185D01*
X116310153Y-78906360D01*
X116276900Y-79116313D01*
X116276900Y-79328886D01*
X116310135Y-79538727D01*
X116310154Y-79538843D01*
X116318728Y-79565232D01*
X116375844Y-79741014D01*
X116472351Y-79930420D01*
X116597290Y-80102386D01*
X116711218Y-80216314D01*
X116744703Y-80277637D01*
X116739719Y-80347329D01*
X116697847Y-80403262D01*
X116666871Y-80420177D01*
X116535312Y-80469246D01*
X116535306Y-80469249D01*
X116420212Y-80555409D01*
X116420209Y-80555412D01*
X116334049Y-80670506D01*
X116334045Y-80670513D01*
X116283803Y-80805220D01*
X116283801Y-80805227D01*
X116277400Y-80864755D01*
X116277400Y-81512600D01*
X117194388Y-81512600D01*
X117161475Y-81569607D01*
X117127400Y-81696774D01*
X117127400Y-81828426D01*
X117161475Y-81955593D01*
X117194388Y-82012600D01*
X116277400Y-82012600D01*
X116277400Y-82660444D01*
X116283801Y-82719972D01*
X116283803Y-82719979D01*
X116334045Y-82854686D01*
X116334049Y-82854693D01*
X116420209Y-82969787D01*
X116420212Y-82969790D01*
X116535306Y-83055950D01*
X116535313Y-83055954D01*
X116670020Y-83106196D01*
X116670027Y-83106198D01*
X116729555Y-83112599D01*
X116729572Y-83112600D01*
X117377400Y-83112600D01*
X117377400Y-82195612D01*
X117434407Y-82228525D01*
X117561574Y-82262600D01*
X117693226Y-82262600D01*
X117820393Y-82228525D01*
X117877400Y-82195612D01*
X117877400Y-83112600D01*
X118525228Y-83112600D01*
X118525244Y-83112599D01*
X118584772Y-83106198D01*
X118584779Y-83106196D01*
X118719486Y-83055954D01*
X118719493Y-83055950D01*
X118834587Y-82969790D01*
X118834590Y-82969787D01*
X118920750Y-82854693D01*
X118920754Y-82854686D01*
X118969822Y-82723129D01*
X119011693Y-82667195D01*
X119077157Y-82642778D01*
X119145430Y-82657630D01*
X119173685Y-82678781D01*
X119287613Y-82792709D01*
X119459579Y-82917648D01*
X119459581Y-82917649D01*
X119459584Y-82917651D01*
X119648988Y-83014157D01*
X119851157Y-83079846D01*
X120061113Y-83113100D01*
X120061114Y-83113100D01*
X120273686Y-83113100D01*
X120273687Y-83113100D01*
X120483643Y-83079846D01*
X120525923Y-83066107D01*
X120595762Y-83064111D01*
X120651922Y-83096357D01*
X123721581Y-86166016D01*
X123755066Y-86227339D01*
X123757900Y-86253697D01*
X123757900Y-87189512D01*
X123738215Y-87256551D01*
X123685411Y-87302306D01*
X123616253Y-87312250D01*
X123568804Y-87295051D01*
X123553140Y-87285389D01*
X123553135Y-87285387D01*
X123553134Y-87285386D01*
X123386597Y-87230201D01*
X123386595Y-87230200D01*
X123283810Y-87219700D01*
X122383798Y-87219700D01*
X122383780Y-87219701D01*
X122281003Y-87230200D01*
X122281000Y-87230201D01*
X122114468Y-87285385D01*
X122114463Y-87285387D01*
X121965142Y-87377489D01*
X121841089Y-87501542D01*
X121748984Y-87650868D01*
X121737904Y-87684306D01*
X121698131Y-87741750D01*
X121633614Y-87768572D01*
X121620199Y-87769300D01*
X121460155Y-87769300D01*
X121305510Y-87800061D01*
X121305498Y-87800064D01*
X121159827Y-87860402D01*
X121159814Y-87860409D01*
X121028711Y-87948010D01*
X121028707Y-87948013D01*
X120917213Y-88059507D01*
X120917210Y-88059511D01*
X120829609Y-88190614D01*
X120829602Y-88190627D01*
X120769264Y-88336298D01*
X120769261Y-88336310D01*
X120738500Y-88490953D01*
X120738500Y-88648646D01*
X120769261Y-88803289D01*
X120769264Y-88803301D01*
X120829602Y-88948972D01*
X120829609Y-88948985D01*
X120917210Y-89080088D01*
X120917213Y-89080092D01*
X121028707Y-89191586D01*
X121028711Y-89191589D01*
X121159814Y-89279190D01*
X121159827Y-89279197D01*
X121305498Y-89339535D01*
X121305503Y-89339537D01*
X121460153Y-89370299D01*
X121460156Y-89370300D01*
X121603367Y-89370300D01*
X121625693Y-89376855D01*
X121648868Y-89378950D01*
X121658589Y-89386515D01*
X121670406Y-89389985D01*
X121685641Y-89407568D01*
X121704008Y-89421861D01*
X121712580Y-89438656D01*
X121716161Y-89442789D01*
X121720340Y-89453149D01*
X121720697Y-89454166D01*
X121748986Y-89539534D01*
X121753046Y-89546116D01*
X121757474Y-89558703D01*
X121758639Y-89580805D01*
X121764480Y-89602151D01*
X121760443Y-89615012D01*
X121761153Y-89628476D01*
X121750184Y-89647699D01*
X121743557Y-89668814D01*
X121733207Y-89677451D01*
X121726526Y-89689161D01*
X121706905Y-89699402D01*
X121689914Y-89713583D01*
X121676536Y-89715254D01*
X121664586Y-89721492D01*
X121642545Y-89719500D01*
X121620583Y-89722244D01*
X121601497Y-89717560D01*
X121533097Y-89694894D01*
X121533090Y-89694893D01*
X121430386Y-89684400D01*
X121217900Y-89684400D01*
X121217900Y-90834400D01*
X122130399Y-90834400D01*
X122130399Y-90384428D01*
X122130398Y-90384413D01*
X122119905Y-90281702D01*
X122064758Y-90115280D01*
X122061704Y-90108730D01*
X122064336Y-90107502D01*
X122049391Y-90052851D01*
X122070321Y-89986190D01*
X122123968Y-89941427D01*
X122193300Y-89932774D01*
X122212355Y-89937451D01*
X122281003Y-89960199D01*
X122383791Y-89970700D01*
X123283808Y-89970699D01*
X123283816Y-89970698D01*
X123283819Y-89970698D01*
X123342202Y-89964734D01*
X123386597Y-89960199D01*
X123553134Y-89905014D01*
X123568803Y-89895349D01*
X123636192Y-89876908D01*
X123702856Y-89897829D01*
X123747627Y-89951470D01*
X123757900Y-90000887D01*
X123757900Y-92650900D01*
X123738215Y-92717939D01*
X123685411Y-92763694D01*
X123633900Y-92774900D01*
X123019400Y-92774900D01*
X123019400Y-93450900D01*
X122999715Y-93517939D01*
X122946911Y-93563694D01*
X122895400Y-93574900D01*
X122769400Y-93574900D01*
X122769400Y-93700900D01*
X122749715Y-93767939D01*
X122696911Y-93813694D01*
X122645400Y-93824900D01*
X121297105Y-93824900D01*
X121297104Y-93824901D01*
X121297299Y-93827386D01*
X121343118Y-93985098D01*
X121385806Y-94057279D01*
X121402989Y-94125003D01*
X121380829Y-94191265D01*
X121326363Y-94235029D01*
X121279074Y-94244400D01*
X121103042Y-94244400D01*
X120950315Y-94285323D01*
X120936960Y-94293034D01*
X120936957Y-94293035D01*
X120813390Y-94364375D01*
X120813382Y-94364381D01*
X120701578Y-94476186D01*
X119443583Y-95734180D01*
X119422813Y-95745521D01*
X119404538Y-95760563D01*
X119392710Y-95761958D01*
X119382260Y-95767665D01*
X119358653Y-95765976D01*
X119335150Y-95768750D01*
X119324447Y-95763530D01*
X119312568Y-95762681D01*
X119293621Y-95748497D01*
X119272350Y-95738124D01*
X119260813Y-95723936D01*
X119256635Y-95720809D01*
X119249921Y-95710873D01*
X119246229Y-95704794D01*
X119246144Y-95704502D01*
X119162481Y-95563035D01*
X119156473Y-95557027D01*
X119148727Y-95544274D01*
X119143430Y-95524384D01*
X119133555Y-95506321D01*
X119134621Y-95491302D01*
X119130748Y-95476757D01*
X119137045Y-95457159D01*
X119138504Y-95436626D01*
X119148786Y-95420626D01*
X119152125Y-95410238D01*
X119159211Y-95404405D01*
X119159340Y-95404204D01*
X119157698Y-95402931D01*
X119162475Y-95396770D01*
X119162481Y-95396765D01*
X119246144Y-95255298D01*
X119291998Y-95097469D01*
X119294900Y-95060594D01*
X119294900Y-94629206D01*
X119291998Y-94592331D01*
X119287506Y-94576870D01*
X119246145Y-94434506D01*
X119246144Y-94434503D01*
X119246144Y-94434502D01*
X119162481Y-94293035D01*
X119162480Y-94293034D01*
X119157698Y-94286869D01*
X119160150Y-94284966D01*
X119133555Y-94236321D01*
X119138504Y-94166626D01*
X119159340Y-94134204D01*
X119157698Y-94132931D01*
X119162475Y-94126770D01*
X119162481Y-94126765D01*
X119246144Y-93985298D01*
X119284606Y-93852911D01*
X119291997Y-93827473D01*
X119291998Y-93827467D01*
X119294900Y-93790594D01*
X119294900Y-93359206D01*
X119292200Y-93324898D01*
X121297104Y-93324898D01*
X121297105Y-93324900D01*
X122519400Y-93324900D01*
X122519400Y-92774900D01*
X121878750Y-92774900D01*
X121841910Y-92777799D01*
X121841904Y-92777800D01*
X121684206Y-92823616D01*
X121684203Y-92823617D01*
X121542847Y-92907214D01*
X121542838Y-92907221D01*
X121426721Y-93023338D01*
X121426714Y-93023347D01*
X121343118Y-93164701D01*
X121297299Y-93322413D01*
X121297104Y-93324898D01*
X119292200Y-93324898D01*
X119291998Y-93322331D01*
X119275150Y-93264342D01*
X119246145Y-93164506D01*
X119246144Y-93164503D01*
X119246144Y-93164502D01*
X119162481Y-93023035D01*
X119162479Y-93023033D01*
X119162476Y-93023029D01*
X119046270Y-92906823D01*
X119046262Y-92906817D01*
X118960050Y-92855832D01*
X118904798Y-92823156D01*
X118904797Y-92823155D01*
X118904796Y-92823155D01*
X118904793Y-92823154D01*
X118746973Y-92777302D01*
X118746967Y-92777301D01*
X118710101Y-92774400D01*
X118710094Y-92774400D01*
X116928706Y-92774400D01*
X116928698Y-92774400D01*
X116891832Y-92777301D01*
X116891826Y-92777302D01*
X116734006Y-92823154D01*
X116734003Y-92823155D01*
X116678750Y-92855832D01*
X116662848Y-92860182D01*
X116650564Y-92868077D01*
X116615629Y-92873100D01*
X116604916Y-92873100D01*
X116557464Y-92863661D01*
X116413101Y-92803864D01*
X116413089Y-92803861D01*
X116258445Y-92773100D01*
X116258442Y-92773100D01*
X116100758Y-92773100D01*
X116100755Y-92773100D01*
X115946110Y-92803861D01*
X115946098Y-92803864D01*
X115800427Y-92864202D01*
X115800414Y-92864209D01*
X115669311Y-92951810D01*
X115669307Y-92951813D01*
X115557813Y-93063307D01*
X115557810Y-93063311D01*
X115470209Y-93194414D01*
X115470202Y-93194427D01*
X115409864Y-93340098D01*
X115409861Y-93340110D01*
X115379100Y-93494753D01*
X115379100Y-93652446D01*
X115409861Y-93807089D01*
X115409864Y-93807101D01*
X115470202Y-93952772D01*
X115470209Y-93952785D01*
X115557810Y-94083888D01*
X115557813Y-94083892D01*
X115660061Y-94186140D01*
X115664398Y-94194084D01*
X115671647Y-94199510D01*
X115680883Y-94224272D01*
X115693546Y-94247463D01*
X115692900Y-94256491D01*
X115696064Y-94264974D01*
X115690447Y-94290793D01*
X115688562Y-94317155D01*
X115682742Y-94326209D01*
X115681212Y-94333247D01*
X115660062Y-94361502D01*
X115657184Y-94364379D01*
X115657184Y-94364380D01*
X115535381Y-94486182D01*
X115474061Y-94519666D01*
X115447702Y-94522500D01*
X114722733Y-94522500D01*
X114655694Y-94502815D01*
X114609939Y-94450011D01*
X114605028Y-94437506D01*
X114600495Y-94423829D01*
X114593814Y-94403666D01*
X114501712Y-94254344D01*
X114377656Y-94130288D01*
X114259289Y-94057279D01*
X114228336Y-94038187D01*
X114228335Y-94038186D01*
X114228334Y-94038186D01*
X114123561Y-94003467D01*
X114066118Y-93963695D01*
X114039295Y-93899179D01*
X114051610Y-93830403D01*
X114099154Y-93779203D01*
X114123561Y-93768058D01*
X114130334Y-93765814D01*
X114279656Y-93673712D01*
X114403712Y-93549656D01*
X114495814Y-93400334D01*
X114550999Y-93233797D01*
X114561500Y-93131009D01*
X114561499Y-91780992D01*
X114550999Y-91678203D01*
X114495814Y-91511666D01*
X114403712Y-91362344D01*
X114279656Y-91238288D01*
X114279655Y-91238287D01*
X114145929Y-91155805D01*
X114130334Y-91146186D01*
X113963797Y-91091001D01*
X113963795Y-91091000D01*
X113861010Y-91080500D01*
X112960998Y-91080500D01*
X112960980Y-91080501D01*
X112858203Y-91091000D01*
X112858200Y-91091001D01*
X112691668Y-91146185D01*
X112691663Y-91146187D01*
X112542342Y-91238289D01*
X112418289Y-91362342D01*
X112326187Y-91511663D01*
X112326185Y-91511668D01*
X112326115Y-91511880D01*
X112271001Y-91678203D01*
X112271001Y-91678204D01*
X112271000Y-91678204D01*
X112260500Y-91780983D01*
X112260500Y-93131001D01*
X112260501Y-93131018D01*
X112271000Y-93233796D01*
X112271001Y-93233799D01*
X112312560Y-93359213D01*
X112326186Y-93400334D01*
X112418096Y-93549345D01*
X112418289Y-93549657D01*
X112542344Y-93673712D01*
X112624596Y-93724445D01*
X112631419Y-93732031D01*
X112640703Y-93736271D01*
X112654391Y-93757571D01*
X112671321Y-93776393D01*
X112673965Y-93788028D01*
X112678477Y-93795049D01*
X112683500Y-93829984D01*
X112683500Y-93852911D01*
X112663815Y-93919950D01*
X112611011Y-93965705D01*
X112572102Y-93976269D01*
X112506202Y-93983001D01*
X112506200Y-93983001D01*
X112339668Y-94038185D01*
X112339663Y-94038187D01*
X112190342Y-94130289D01*
X112066289Y-94254342D01*
X111974187Y-94403663D01*
X111974185Y-94403668D01*
X111958829Y-94450011D01*
X111919001Y-94570203D01*
X111919001Y-94570204D01*
X111919000Y-94570204D01*
X111908500Y-94672983D01*
X111908500Y-95573001D01*
X111908501Y-95573019D01*
X111919000Y-95675796D01*
X111919001Y-95675799D01*
X111974185Y-95842331D01*
X111974189Y-95842340D01*
X111983481Y-95857404D01*
X112001921Y-95924796D01*
X111980998Y-95991460D01*
X111927356Y-96036229D01*
X111877942Y-96046500D01*
X111176802Y-96046500D01*
X111176786Y-96046499D01*
X111169190Y-96046499D01*
X111011075Y-96046499D01*
X110934711Y-96066961D01*
X110858346Y-96087423D01*
X110858341Y-96087426D01*
X110721422Y-96166475D01*
X110721414Y-96166481D01*
X110344316Y-96543581D01*
X110282993Y-96577066D01*
X110256635Y-96579900D01*
X109473114Y-96579900D01*
X109406075Y-96560215D01*
X109360320Y-96507411D01*
X109349756Y-96443303D01*
X109350498Y-96436031D01*
X109350498Y-96436027D01*
X109350500Y-96436009D01*
X109350499Y-95510992D01*
X109342902Y-95436626D01*
X109339999Y-95408203D01*
X109339998Y-95408200D01*
X109336208Y-95396762D01*
X109284814Y-95241666D01*
X109192712Y-95092344D01*
X109068656Y-94968288D01*
X108936132Y-94886547D01*
X108919336Y-94876187D01*
X108919331Y-94876185D01*
X108752795Y-94821000D01*
X108748533Y-94820088D01*
X108687102Y-94786801D01*
X108653419Y-94725586D01*
X108650500Y-94698837D01*
X108650500Y-94419010D01*
X108650500Y-94419007D01*
X108647448Y-94403666D01*
X108623580Y-94283672D01*
X108612725Y-94257465D01*
X108570777Y-94156192D01*
X108494112Y-94041454D01*
X107587545Y-93134887D01*
X107581707Y-93130986D01*
X109161001Y-93130986D01*
X109171494Y-93233697D01*
X109226641Y-93400119D01*
X109226643Y-93400124D01*
X109318684Y-93549345D01*
X109442654Y-93673315D01*
X109591875Y-93765356D01*
X109591880Y-93765358D01*
X109758302Y-93820505D01*
X109758309Y-93820506D01*
X109861019Y-93830999D01*
X110060999Y-93830999D01*
X110561000Y-93830999D01*
X110760972Y-93830999D01*
X110760986Y-93830998D01*
X110863697Y-93820505D01*
X111030119Y-93765358D01*
X111030124Y-93765356D01*
X111179345Y-93673315D01*
X111303315Y-93549345D01*
X111395356Y-93400124D01*
X111395358Y-93400119D01*
X111450505Y-93233697D01*
X111450506Y-93233690D01*
X111460999Y-93130986D01*
X111461000Y-93130973D01*
X111461000Y-92706000D01*
X110561000Y-92706000D01*
X110561000Y-93830999D01*
X110060999Y-93830999D01*
X110061000Y-93830998D01*
X110061000Y-92706000D01*
X109161001Y-92706000D01*
X109161001Y-93130986D01*
X107581707Y-93130986D01*
X107472807Y-93058222D01*
X107345332Y-93005421D01*
X107345322Y-93005418D01*
X107209996Y-92978500D01*
X107209994Y-92978500D01*
X107209993Y-92978500D01*
X105967999Y-92978500D01*
X105966259Y-92977989D01*
X105964505Y-92978451D01*
X105932853Y-92968179D01*
X105900960Y-92958815D01*
X105899773Y-92957445D01*
X105898046Y-92956885D01*
X105876968Y-92931127D01*
X105855205Y-92906011D01*
X105854580Y-92903768D01*
X105853798Y-92902812D01*
X105852411Y-92895976D01*
X105844813Y-92868681D01*
X105843999Y-92861610D01*
X105843999Y-92781128D01*
X105837591Y-92721517D01*
X105787296Y-92586669D01*
X105787295Y-92586668D01*
X105787293Y-92586664D01*
X105701047Y-92471455D01*
X105701044Y-92471452D01*
X105585835Y-92385206D01*
X105585828Y-92385202D01*
X105450982Y-92334908D01*
X105450983Y-92334908D01*
X105391383Y-92328501D01*
X105391381Y-92328500D01*
X105391373Y-92328500D01*
X105391364Y-92328500D01*
X103595629Y-92328500D01*
X103595623Y-92328501D01*
X103536016Y-92334908D01*
X103401171Y-92385202D01*
X103401164Y-92385206D01*
X103285955Y-92471452D01*
X103285952Y-92471455D01*
X103199706Y-92586664D01*
X103199702Y-92586671D01*
X103149408Y-92721517D01*
X103143001Y-92781116D01*
X103143000Y-92781135D01*
X100703500Y-92781135D01*
X100703500Y-91781013D01*
X109161000Y-91781013D01*
X109161000Y-92206000D01*
X110061000Y-92206000D01*
X110561000Y-92206000D01*
X111460999Y-92206000D01*
X111460999Y-91781028D01*
X111460998Y-91781013D01*
X111450505Y-91678302D01*
X111395358Y-91511880D01*
X111395356Y-91511875D01*
X111303315Y-91362654D01*
X111179345Y-91238684D01*
X111030124Y-91146643D01*
X111030119Y-91146641D01*
X110863697Y-91091494D01*
X110863690Y-91091493D01*
X110760986Y-91081000D01*
X110561000Y-91081000D01*
X110561000Y-92206000D01*
X110061000Y-92206000D01*
X110061000Y-91081000D01*
X109861029Y-91081000D01*
X109861012Y-91081001D01*
X109758302Y-91091494D01*
X109591880Y-91146641D01*
X109591875Y-91146643D01*
X109442654Y-91238684D01*
X109318684Y-91362654D01*
X109226643Y-91511875D01*
X109226641Y-91511880D01*
X109171494Y-91678302D01*
X109171493Y-91678309D01*
X109161000Y-91781013D01*
X100703500Y-91781013D01*
X100703500Y-91056353D01*
X115658500Y-91056353D01*
X115658500Y-91214046D01*
X115689261Y-91368689D01*
X115689264Y-91368701D01*
X115749602Y-91514372D01*
X115749609Y-91514385D01*
X115837210Y-91645488D01*
X115837213Y-91645492D01*
X115948707Y-91756986D01*
X115948711Y-91756989D01*
X116079814Y-91844590D01*
X116079827Y-91844597D01*
X116222176Y-91903559D01*
X116225503Y-91904937D01*
X116380153Y-91935699D01*
X116380156Y-91935700D01*
X116380158Y-91935700D01*
X116537844Y-91935700D01*
X116588604Y-91925603D01*
X116658196Y-91931830D01*
X116713373Y-91974693D01*
X116730501Y-92008214D01*
X116745584Y-92053731D01*
X116745586Y-92053734D01*
X116837688Y-92203056D01*
X116961744Y-92327112D01*
X117111066Y-92419214D01*
X117277603Y-92474399D01*
X117380391Y-92484900D01*
X118305408Y-92484899D01*
X118305416Y-92484898D01*
X118305419Y-92484898D01*
X118361702Y-92479148D01*
X118408197Y-92474399D01*
X118574734Y-92419214D01*
X118724056Y-92327112D01*
X118848112Y-92203056D01*
X118940214Y-92053734D01*
X118995399Y-91887197D01*
X119005900Y-91784409D01*
X119005900Y-91784386D01*
X119805401Y-91784386D01*
X119815894Y-91887097D01*
X119871041Y-92053519D01*
X119871043Y-92053524D01*
X119963084Y-92202745D01*
X120087054Y-92326715D01*
X120236275Y-92418756D01*
X120236280Y-92418758D01*
X120402702Y-92473905D01*
X120402709Y-92473906D01*
X120505419Y-92484399D01*
X120717899Y-92484399D01*
X121217900Y-92484399D01*
X121430372Y-92484399D01*
X121430386Y-92484398D01*
X121533097Y-92473905D01*
X121699519Y-92418758D01*
X121699524Y-92418756D01*
X121848745Y-92326715D01*
X121972715Y-92202745D01*
X122064756Y-92053524D01*
X122064758Y-92053519D01*
X122119905Y-91887097D01*
X122119906Y-91887090D01*
X122130399Y-91784386D01*
X122130400Y-91784373D01*
X122130400Y-91334400D01*
X121217900Y-91334400D01*
X121217900Y-92484399D01*
X120717899Y-92484399D01*
X120717900Y-92484398D01*
X120717900Y-91334400D01*
X119805401Y-91334400D01*
X119805401Y-91784386D01*
X119005900Y-91784386D01*
X119005899Y-91081001D01*
X119005899Y-90384413D01*
X119805400Y-90384413D01*
X119805400Y-90834400D01*
X120717900Y-90834400D01*
X120717900Y-89684400D01*
X120505429Y-89684400D01*
X120505412Y-89684401D01*
X120402702Y-89694894D01*
X120236280Y-89750041D01*
X120236275Y-89750043D01*
X120087054Y-89842084D01*
X119963084Y-89966054D01*
X119871043Y-90115275D01*
X119871041Y-90115280D01*
X119815894Y-90281702D01*
X119815893Y-90281709D01*
X119805400Y-90384413D01*
X119005899Y-90384413D01*
X119005899Y-90384398D01*
X119005898Y-90384381D01*
X118995399Y-90281603D01*
X118995398Y-90281600D01*
X118986882Y-90255901D01*
X118940214Y-90115066D01*
X118848112Y-89965744D01*
X118724056Y-89841688D01*
X118574734Y-89749586D01*
X118408197Y-89694401D01*
X118408195Y-89694400D01*
X118305410Y-89683900D01*
X117380398Y-89683900D01*
X117380380Y-89683901D01*
X117277603Y-89694400D01*
X117277600Y-89694401D01*
X117111068Y-89749585D01*
X117111063Y-89749587D01*
X116961742Y-89841689D01*
X116837689Y-89965742D01*
X116745587Y-90115063D01*
X116745585Y-90115068D01*
X116698918Y-90255901D01*
X116659145Y-90313346D01*
X116594629Y-90340169D01*
X116557022Y-90338515D01*
X116537842Y-90334700D01*
X116380158Y-90334700D01*
X116380155Y-90334700D01*
X116225510Y-90365461D01*
X116225498Y-90365464D01*
X116079827Y-90425802D01*
X116079814Y-90425809D01*
X115948711Y-90513410D01*
X115948707Y-90513413D01*
X115837213Y-90624907D01*
X115837210Y-90624911D01*
X115749609Y-90756014D01*
X115749602Y-90756027D01*
X115689264Y-90901698D01*
X115689261Y-90901710D01*
X115658500Y-91056353D01*
X100703500Y-91056353D01*
X100703500Y-88329986D01*
X108057501Y-88329986D01*
X108067994Y-88432697D01*
X108123141Y-88599119D01*
X108123143Y-88599124D01*
X108215184Y-88748345D01*
X108339154Y-88872315D01*
X108488375Y-88964356D01*
X108488380Y-88964358D01*
X108654802Y-89019505D01*
X108654809Y-89019506D01*
X108757519Y-89029999D01*
X108969999Y-89029999D01*
X109470000Y-89029999D01*
X109682472Y-89029999D01*
X109682486Y-89029998D01*
X109785197Y-89019505D01*
X109951619Y-88964358D01*
X109951624Y-88964356D01*
X110100845Y-88872315D01*
X110224815Y-88748345D01*
X110316856Y-88599124D01*
X110316858Y-88599119D01*
X110372005Y-88432697D01*
X110372006Y-88432690D01*
X110382499Y-88329986D01*
X110382500Y-88329973D01*
X110382500Y-87880000D01*
X109470000Y-87880000D01*
X109470000Y-89029999D01*
X108969999Y-89029999D01*
X108970000Y-89029998D01*
X108970000Y-87880000D01*
X108057501Y-87880000D01*
X108057501Y-88329986D01*
X100703500Y-88329986D01*
X100703500Y-86930013D01*
X108057500Y-86930013D01*
X108057500Y-87380000D01*
X108970000Y-87380000D01*
X109470000Y-87380000D01*
X110382499Y-87380000D01*
X110382499Y-86930024D01*
X110382498Y-86930016D01*
X110382495Y-86929983D01*
X111182000Y-86929983D01*
X111182000Y-88330001D01*
X111182001Y-88330018D01*
X111192500Y-88432796D01*
X111192501Y-88432799D01*
X111247615Y-88599119D01*
X111247686Y-88599334D01*
X111339596Y-88748345D01*
X111339789Y-88748657D01*
X111463845Y-88872713D01*
X111498224Y-88893918D01*
X111544949Y-88945866D01*
X111556172Y-89014828D01*
X111554746Y-89023647D01*
X111544500Y-89075159D01*
X111544500Y-89232846D01*
X111575261Y-89387489D01*
X111575264Y-89387501D01*
X111635602Y-89533172D01*
X111635609Y-89533185D01*
X111723210Y-89664288D01*
X111723213Y-89664292D01*
X111834707Y-89775786D01*
X111834711Y-89775789D01*
X111965814Y-89863390D01*
X111965827Y-89863397D01*
X112095028Y-89916913D01*
X112111503Y-89923737D01*
X112250925Y-89951470D01*
X112266153Y-89954499D01*
X112266156Y-89954500D01*
X112266158Y-89954500D01*
X112423844Y-89954500D01*
X112423845Y-89954499D01*
X112578497Y-89923737D01*
X112724179Y-89863394D01*
X112855289Y-89775789D01*
X112966789Y-89664289D01*
X113054394Y-89533179D01*
X113057212Y-89526377D01*
X113114735Y-89387501D01*
X113114737Y-89387497D01*
X113145500Y-89232842D01*
X113145500Y-89075158D01*
X113145500Y-89075155D01*
X113135254Y-89023648D01*
X113141481Y-88954057D01*
X113184343Y-88898879D01*
X113191758Y-88893927D01*
X113226156Y-88872712D01*
X113350212Y-88748656D01*
X113442314Y-88599334D01*
X113497499Y-88432797D01*
X113508000Y-88330009D01*
X113507999Y-86929992D01*
X113497499Y-86827203D01*
X113442314Y-86660666D01*
X113350212Y-86511344D01*
X113226156Y-86387288D01*
X113226155Y-86387287D01*
X113177560Y-86357313D01*
X113130836Y-86305365D01*
X113119615Y-86236402D01*
X113121041Y-86227583D01*
X113144700Y-86108644D01*
X113144700Y-85950955D01*
X113144699Y-85950953D01*
X113113938Y-85796310D01*
X113113937Y-85796303D01*
X113113935Y-85796298D01*
X113053597Y-85650627D01*
X113053590Y-85650614D01*
X112965989Y-85519511D01*
X112965986Y-85519507D01*
X112854492Y-85408013D01*
X112854488Y-85408010D01*
X112723385Y-85320409D01*
X112723372Y-85320402D01*
X112577701Y-85260064D01*
X112577689Y-85260061D01*
X112423045Y-85229300D01*
X112423042Y-85229300D01*
X112265358Y-85229300D01*
X112265355Y-85229300D01*
X112110710Y-85260061D01*
X112110698Y-85260064D01*
X111965027Y-85320402D01*
X111965014Y-85320409D01*
X111833911Y-85408010D01*
X111833907Y-85408013D01*
X111722413Y-85519507D01*
X111722410Y-85519511D01*
X111634809Y-85650614D01*
X111634802Y-85650627D01*
X111574464Y-85796298D01*
X111574461Y-85796310D01*
X111543700Y-85950953D01*
X111543700Y-86108646D01*
X111567533Y-86228463D01*
X111561306Y-86298055D01*
X111518443Y-86353232D01*
X111511015Y-86358191D01*
X111463846Y-86387285D01*
X111339789Y-86511342D01*
X111247687Y-86660663D01*
X111247685Y-86660668D01*
X111247615Y-86660880D01*
X111192501Y-86827203D01*
X111192501Y-86827204D01*
X111192500Y-86827204D01*
X111182000Y-86929983D01*
X110382495Y-86929983D01*
X110372005Y-86827302D01*
X110316858Y-86660880D01*
X110316856Y-86660875D01*
X110224815Y-86511654D01*
X110100845Y-86387684D01*
X109951624Y-86295643D01*
X109951619Y-86295641D01*
X109785197Y-86240494D01*
X109785190Y-86240493D01*
X109682486Y-86230000D01*
X109470000Y-86230000D01*
X109470000Y-87380000D01*
X108970000Y-87380000D01*
X108970000Y-86230000D01*
X108757529Y-86230000D01*
X108757512Y-86230001D01*
X108654802Y-86240494D01*
X108488380Y-86295641D01*
X108488375Y-86295643D01*
X108339154Y-86387684D01*
X108215184Y-86511654D01*
X108123143Y-86660875D01*
X108123141Y-86660880D01*
X108067994Y-86827302D01*
X108067993Y-86827309D01*
X108057500Y-86930013D01*
X100703500Y-86930013D01*
X100703500Y-81818234D01*
X104900000Y-81818234D01*
X104900000Y-82181765D01*
X104935632Y-82543556D01*
X105006550Y-82900090D01*
X105006553Y-82900101D01*
X105112086Y-83247997D01*
X105251207Y-83583864D01*
X105251209Y-83583869D01*
X105422570Y-83904462D01*
X105422581Y-83904480D01*
X105624551Y-84206750D01*
X105811678Y-84434765D01*
X105811679Y-84434766D01*
X107305747Y-82940697D01*
X107379588Y-83042330D01*
X107557670Y-83220412D01*
X107659301Y-83294251D01*
X106165232Y-84788319D01*
X106165233Y-84788320D01*
X106393249Y-84975448D01*
X106695519Y-85177418D01*
X106695537Y-85177429D01*
X107016130Y-85348790D01*
X107016135Y-85348792D01*
X107352002Y-85487913D01*
X107699898Y-85593446D01*
X107699909Y-85593449D01*
X108056443Y-85664367D01*
X108418234Y-85700000D01*
X108781766Y-85700000D01*
X109143556Y-85664367D01*
X109500090Y-85593449D01*
X109500101Y-85593446D01*
X109847997Y-85487913D01*
X110183864Y-85348792D01*
X110183869Y-85348790D01*
X110504462Y-85177429D01*
X110504480Y-85177418D01*
X110806736Y-84975457D01*
X110806750Y-84975447D01*
X111034765Y-84788320D01*
X111034766Y-84788319D01*
X109540698Y-83294251D01*
X109642330Y-83220412D01*
X109820412Y-83042330D01*
X109894251Y-82940698D01*
X111388319Y-84434766D01*
X111388320Y-84434765D01*
X111575447Y-84206750D01*
X111575457Y-84206736D01*
X111777418Y-83904480D01*
X111777429Y-83904462D01*
X111948790Y-83583869D01*
X111948792Y-83583864D01*
X112087913Y-83247997D01*
X112193446Y-82900101D01*
X112193449Y-82900090D01*
X112264367Y-82543556D01*
X112300000Y-82181765D01*
X112300000Y-81818234D01*
X112264367Y-81456443D01*
X112193449Y-81099909D01*
X112193446Y-81099898D01*
X112087913Y-80752002D01*
X111948792Y-80416135D01*
X111948790Y-80416130D01*
X111777429Y-80095537D01*
X111777418Y-80095519D01*
X111575448Y-79793249D01*
X111388320Y-79565233D01*
X111388319Y-79565232D01*
X109894251Y-81059300D01*
X109820412Y-80957670D01*
X109642330Y-80779588D01*
X109540698Y-80705748D01*
X111034766Y-79211679D01*
X111034765Y-79211678D01*
X110806750Y-79024551D01*
X110504480Y-78822581D01*
X110504462Y-78822570D01*
X110183869Y-78651209D01*
X110183864Y-78651207D01*
X109847997Y-78512086D01*
X109500101Y-78406553D01*
X109500090Y-78406550D01*
X109143556Y-78335632D01*
X108781766Y-78300000D01*
X108418234Y-78300000D01*
X108056443Y-78335632D01*
X107699909Y-78406550D01*
X107699898Y-78406553D01*
X107352002Y-78512086D01*
X107016135Y-78651207D01*
X107016130Y-78651209D01*
X106695537Y-78822570D01*
X106695519Y-78822581D01*
X106393258Y-79024545D01*
X106393254Y-79024548D01*
X106165233Y-79211679D01*
X106165233Y-79211680D01*
X107659301Y-80705748D01*
X107557670Y-80779588D01*
X107379588Y-80957670D01*
X107305748Y-81059301D01*
X105811680Y-79565233D01*
X105811679Y-79565233D01*
X105624548Y-79793254D01*
X105624545Y-79793258D01*
X105422581Y-80095519D01*
X105422570Y-80095537D01*
X105251209Y-80416130D01*
X105251207Y-80416135D01*
X105112086Y-80752002D01*
X105006553Y-81099898D01*
X105006550Y-81099909D01*
X104935632Y-81456443D01*
X104900000Y-81818234D01*
X100703500Y-81818234D01*
X100703500Y-76280500D01*
X100723185Y-76213461D01*
X100775989Y-76167706D01*
X100827500Y-76156500D01*
X129146786Y-76156500D01*
X129213825Y-76176185D01*
G37*
%TD.AperFunction*%
%TD*%
%TA.AperFunction,NonConductor*%
G36*
X123191922Y-83096357D02*
G01*
X125220181Y-85124616D01*
X125253666Y-85185939D01*
X125256500Y-85212297D01*
X125256500Y-87190252D01*
X125253625Y-87200042D01*
X125254890Y-87210169D01*
X125243947Y-87233001D01*
X125236815Y-87257291D01*
X125228299Y-87265649D01*
X125224693Y-87273176D01*
X125197596Y-87295791D01*
X125147996Y-87326384D01*
X125080603Y-87344824D01*
X125013940Y-87323901D01*
X124969171Y-87270259D01*
X124958900Y-87220845D01*
X124958900Y-86042659D01*
X124958901Y-86042646D01*
X124958901Y-85874545D01*
X124958901Y-85874543D01*
X124917977Y-85721815D01*
X124871069Y-85640569D01*
X124838920Y-85584884D01*
X124727116Y-85473080D01*
X124727115Y-85473079D01*
X124722785Y-85468749D01*
X124722774Y-85468739D01*
X122578816Y-83324781D01*
X122545331Y-83263458D01*
X122550315Y-83193766D01*
X122592187Y-83137833D01*
X122657651Y-83113416D01*
X122666497Y-83113100D01*
X122813686Y-83113100D01*
X122813687Y-83113100D01*
X123023643Y-83079846D01*
X123065923Y-83066107D01*
X123135762Y-83064111D01*
X123191922Y-83096357D01*
G37*
%TD.AperFunction*%
%TA.AperFunction,NonConductor*%
G36*
X125106123Y-89848837D02*
G01*
X125110127Y-89848580D01*
X125143107Y-89861151D01*
X125145571Y-89862519D01*
X125214466Y-89905014D01*
X125233348Y-89911271D01*
X125243507Y-89916913D01*
X125292556Y-89966672D01*
X125307300Y-90025316D01*
X125307300Y-93857703D01*
X125287615Y-93924742D01*
X125270981Y-93945384D01*
X125170581Y-94045784D01*
X125109258Y-94079269D01*
X125039566Y-94074285D01*
X124983633Y-94032413D01*
X124959216Y-93966949D01*
X124958900Y-93958103D01*
X124958900Y-89969554D01*
X124960315Y-89964734D01*
X124959283Y-89959820D01*
X124970060Y-89931545D01*
X124978585Y-89902515D01*
X124982379Y-89899226D01*
X124984169Y-89894533D01*
X125008525Y-89876570D01*
X125031389Y-89856760D01*
X125036359Y-89856045D01*
X125040402Y-89853064D01*
X125070600Y-89851121D01*
X125100547Y-89846816D01*
X125106123Y-89848837D01*
G37*
%TD.AperFunction*%
%TA.AperFunction,NonConductor*%
G36*
X115472932Y-95743185D02*
G01*
X115518687Y-95795989D01*
X115528631Y-95865147D01*
X115499606Y-95928703D01*
X115493574Y-95935181D01*
X115418574Y-96010181D01*
X115357251Y-96043666D01*
X115330893Y-96046500D01*
X114690058Y-96046500D01*
X114623019Y-96026815D01*
X114577264Y-95974011D01*
X114567320Y-95904853D01*
X114576378Y-95872973D01*
X114579894Y-95864900D01*
X114593814Y-95842334D01*
X114606801Y-95803141D01*
X114609053Y-95797973D01*
X114627995Y-95775321D01*
X114644801Y-95751050D01*
X114650155Y-95748824D01*
X114653875Y-95744376D01*
X114682052Y-95735562D01*
X114709317Y-95724228D01*
X114720177Y-95723638D01*
X114720560Y-95723519D01*
X114720860Y-95723601D01*
X114722733Y-95723500D01*
X115405893Y-95723500D01*
X115472932Y-95743185D01*
G37*
%TD.AperFunction*%
%TA.AperFunction,NonConductor*%
G36*
X106866520Y-94399185D02*
G01*
X106887162Y-94415819D01*
X107114067Y-94642724D01*
X107147552Y-94704047D01*
X107142568Y-94773739D01*
X107100696Y-94829672D01*
X107065391Y-94848111D01*
X106980666Y-94876186D01*
X106980663Y-94876187D01*
X106831342Y-94968289D01*
X106707289Y-95092342D01*
X106615187Y-95241663D01*
X106615186Y-95241666D01*
X106560001Y-95408203D01*
X106560001Y-95408204D01*
X106560000Y-95408204D01*
X106549500Y-95510983D01*
X106549500Y-96436001D01*
X106549500Y-96436003D01*
X106549501Y-96436008D01*
X106550245Y-96443295D01*
X106537479Y-96511987D01*
X106489600Y-96562873D01*
X106426888Y-96579900D01*
X105948858Y-96579900D01*
X105881819Y-96560215D01*
X105836064Y-96507411D01*
X105826120Y-96438253D01*
X105826385Y-96436502D01*
X105826464Y-96436003D01*
X105844000Y-96325287D01*
X105844000Y-96112713D01*
X105810746Y-95902757D01*
X105745057Y-95700588D01*
X105648551Y-95511184D01*
X105648549Y-95511181D01*
X105648548Y-95511179D01*
X105523609Y-95339213D01*
X105410069Y-95225673D01*
X105376584Y-95164350D01*
X105381568Y-95094658D01*
X105423440Y-95038725D01*
X105454415Y-95021810D01*
X105585831Y-94972796D01*
X105701046Y-94886546D01*
X105787296Y-94771331D01*
X105837591Y-94636483D01*
X105844000Y-94576873D01*
X105844000Y-94503500D01*
X105863685Y-94436461D01*
X105916489Y-94390706D01*
X105968000Y-94379500D01*
X106799481Y-94379500D01*
X106866520Y-94399185D01*
G37*
%TD.AperFunction*%
%TA.AperFunction,NonConductor*%
G36*
X127959618Y-111182217D02*
G01*
X127987873Y-111203369D01*
X128101413Y-111316909D01*
X128273382Y-111441850D01*
X128282146Y-111446316D01*
X128332942Y-111494291D01*
X128349736Y-111562112D01*
X128327198Y-111628247D01*
X128282146Y-111667284D01*
X128273382Y-111671749D01*
X128101413Y-111796690D01*
X127951090Y-111947013D01*
X127826149Y-112118982D01*
X127821684Y-112127746D01*
X127773709Y-112178542D01*
X127705888Y-112195336D01*
X127639753Y-112172798D01*
X127600716Y-112127746D01*
X127596250Y-112118982D01*
X127471309Y-111947013D01*
X127357769Y-111833473D01*
X127324284Y-111772150D01*
X127329268Y-111702458D01*
X127371140Y-111646525D01*
X127402115Y-111629610D01*
X127533531Y-111580596D01*
X127648746Y-111494346D01*
X127734996Y-111379131D01*
X127784010Y-111247716D01*
X127825881Y-111191784D01*
X127891345Y-111167366D01*
X127959618Y-111182217D01*
G37*
%TD.AperFunction*%
%TA.AperFunction,NonConductor*%
G36*
X117161939Y-102015085D02*
G01*
X117207694Y-102067889D01*
X117218900Y-102119400D01*
X117218900Y-113528501D01*
X117199215Y-113595540D01*
X117182581Y-113616182D01*
X115592546Y-115206216D01*
X115531223Y-115239701D01*
X115461531Y-115234717D01*
X115405598Y-115192845D01*
X115381181Y-115127381D01*
X115396033Y-115059108D01*
X115404547Y-115045650D01*
X115461906Y-114966701D01*
X115505851Y-114906216D01*
X115602357Y-114716812D01*
X115668046Y-114514643D01*
X115701300Y-114304687D01*
X115701300Y-114304684D01*
X115701683Y-114299824D01*
X115703453Y-114299963D01*
X115720985Y-114240257D01*
X115737614Y-114219619D01*
X116715906Y-113241327D01*
X116715911Y-113241324D01*
X116726114Y-113231120D01*
X116726116Y-113231120D01*
X116837920Y-113119316D01*
X116916977Y-112982384D01*
X116957900Y-112829657D01*
X116957900Y-102119400D01*
X116960450Y-102110714D01*
X116959162Y-102101753D01*
X116970140Y-102077712D01*
X116977585Y-102052361D01*
X116984425Y-102046433D01*
X116988187Y-102038197D01*
X117010421Y-102023907D01*
X117030389Y-102006606D01*
X117040903Y-102004318D01*
X117046965Y-102000423D01*
X117081900Y-101995400D01*
X117094900Y-101995400D01*
X117161939Y-102015085D01*
G37*
%TD.AperFunction*%
M02*
